M48
; DRILL file {KiCad 9.0.0} date 2025-03-16T22:54:18+0200
; FORMAT={-:-/ absolute / inch / decimal}
; #@! TF.CreationDate,2025-03-16T22:54:18+02:00
; #@! TF.GenerationSoftware,Kicad,Pcbnew,9.0.0
; #@! TF.FileFunction,Plated,1,2,PTH
FMAT,2
INCH
; #@! TA.AperFunction,Plated,PTH,ViaDrill
T1C0.0118
; #@! TA.AperFunction,Plated,PTH,ComponentDrill
T2C0.0315
; #@! TA.AperFunction,Plated,PTH,ComponentDrill
T3C0.0374
; #@! TA.AperFunction,Plated,PTH,ComponentDrill
T4C0.0394
; #@! TA.AperFunction,Plated,PTH,ComponentDrill
T5C0.0512
; #@! TA.AperFunction,Plated,PTH,ComponentDrill
T6C0.0591
%
G90
G05
T1
X1.7323Y-4.685
X1.7835Y-4.8622
X1.8307Y-5.2559
X1.8701Y-4.5039
X1.8937Y-4.8622
X1.9331Y-5.2559
X2.0217Y-4.8563
X2.0315Y-5.2559
X2.126Y-4.8543
X2.1299Y-5.2559
X2.1693Y-4.4173
X2.1693Y-4.5276
X2.1693Y-4.6457
X2.211Y-4.8559
X2.2677Y-5.2559
X2.2874Y-3.3701
X2.2874Y-4.4685
X2.3185Y-4.8579
X2.3701Y-5.2559
X2.426Y-4.8591
X2.4685Y-5.2559
X2.4921Y-4.5079
X2.5Y-3.3661
X2.5157Y-4.8543
X2.5335Y-4.9146
X2.5669Y-5.2559
X2.6378Y-4.8543
X2.7087Y-5.2559
X2.7484Y-4.8543
X2.7913Y-3.3661
X2.7992Y-4.5089
X2.8071Y-5.2559
X2.8477Y-4.5263
X2.8559Y-4.852
X2.9055Y-5.2559
X2.9634Y-4.8555
X2.9764Y-3.7362
X3.0079Y-5.2559
X3.0527Y-2.2835
X3.0709Y-4.8543
X3.1457Y-5.2559
X3.1654Y-4.3307
X3.1654Y-4.5039
X3.1783Y-4.8555
X3.2283Y-3.4843
X3.248Y-5.2559
X3.2858Y-4.8559
X3.3465Y-5.2559
X3.3933Y-4.8547
X3.4449Y-5.2559
X3.4465Y-4.3701
X3.5394Y-4.3701
X3.5429Y-4.4571
X3.5551Y-5.2559
X3.7028Y-4.8445
X3.7362Y-5.2559
X3.8307Y-4.8425
X3.8386Y-5.2559
X3.8465Y-4.252
X3.8465Y-4.3307
X3.937Y-4.8425
X3.937Y-5.2559
X4.0354Y-5.2559
X4.0472Y-4.8425
X4.1063Y-4.252
X4.1063Y-4.3268
X4.1063Y-4.4528
X4.1063Y-4.6535
X4.1575Y-4.8425
X4.1772Y-5.2559
X4.2402Y-4.9047
X4.2756Y-5.2559
X4.2953Y-4.9047
X4.3317Y-4.4488
X4.3317Y-4.5591
X4.3317Y-4.6693
X4.3476Y-4.9047
X4.378Y-5.2559
X4.4764Y-5.2559
X4.4921Y-4.8425
X4.5157Y-4.3819
X4.5787Y-4.8425
X4.6142Y-5.2559
X4.6929Y-4.8425
X4.7165Y-5.2559
X4.7441Y-4.4656
X4.7451Y-4.5167
X4.7559Y-4.4252
X4.7992Y-4.8465
X4.815Y-5.2559
X4.9134Y-4.8465
X4.9173Y-5.2559
X5.0079Y-4.8465
X5.0551Y-5.2559
X5.1102Y-4.8425
X5.1166Y-4.3716
X5.1166Y-4.4724
X5.1535Y-5.2559
X5.1772Y-4.6142
X5.2075Y-4.8453
X5.2559Y-5.2559
X5.315Y-4.8425
X5.3504Y-5.2559
X5.3898Y-4.6732
T2
X3.0512Y-2.3819
X3.0512Y-2.4803
T3
X1.7421Y-5.7677
X1.8406Y-5.7677
X1.939Y-5.7677
X2.0374Y-5.7677
X2.0669Y-2.1471
X2.0669Y-2.3819
X2.0669Y-2.6181
X2.1358Y-5.7677
X2.1654Y-2.1471
X2.1654Y-2.3819
X2.1654Y-2.6181
X2.2343Y-5.7677
X2.2638Y-2.1471
X2.2638Y-2.3819
X2.2638Y-2.6181
X2.3327Y-5.7677
X2.3622Y-2.1471
X2.3622Y-2.3819
X2.3622Y-2.6181
X2.4311Y-5.7677
X2.4606Y-2.1471
X2.4606Y-2.3819
X2.4606Y-2.6181
X2.5591Y-2.1471
X2.5591Y-2.3819
X2.5591Y-2.6181
X2.6575Y-2.1471
X2.6575Y-2.3819
X2.6575Y-2.6181
X2.7067Y-5.7677
X2.7559Y-2.1471
X2.7559Y-2.3819
X2.7559Y-2.6181
X2.8051Y-5.7677
X2.9035Y-5.7677
X3.002Y-5.7677
X3.1004Y-5.7677
X3.1988Y-5.7677
X3.2972Y-5.7677
X3.3957Y-5.7677
X3.7008Y-5.7677
X3.7992Y-5.7677
X3.8976Y-5.7677
X3.9961Y-5.7677
X4.0945Y-5.7677
X4.1929Y-5.7677
X4.2913Y-5.7677
X4.3898Y-5.7677
X4.4488Y-3.1929
X4.4488Y-3.4232
X4.4488Y-3.6535
X4.4488Y-3.8839
X4.4488Y-4.1142
X4.5472Y-3.1929
X4.5472Y-3.4232
X4.5472Y-3.6535
X4.5472Y-3.8839
X4.5472Y-4.1142
X4.6457Y-3.1929
X4.6457Y-3.4232
X4.6457Y-3.6535
X4.6457Y-3.8839
X4.6457Y-4.1142
X4.6654Y-5.7677
X4.7441Y-3.1929
X4.7441Y-3.4232
X4.7441Y-3.6535
X4.7441Y-3.8839
X4.7441Y-4.1142
X4.7638Y-5.7677
X4.8622Y-5.7677
X4.9606Y-5.7677
X5.0492Y-3.1929
X5.0492Y-3.4232
X5.0492Y-3.6535
X5.0492Y-3.8839
X5.0492Y-4.1142
X5.0591Y-5.7677
X5.1476Y-3.1929
X5.1476Y-3.4232
X5.1476Y-3.6535
X5.1476Y-3.8839
X5.1476Y-4.1142
X5.1575Y-5.7677
X5.2461Y-3.1929
X5.2461Y-3.4232
X5.2461Y-3.6535
X5.2461Y-3.8839
X5.2461Y-4.1142
X5.2559Y-5.7677
X5.3445Y-3.1929
X5.3445Y-3.4232
X5.3445Y-3.6535
X5.3445Y-3.8839
X5.3445Y-4.1142
X5.3543Y-5.7677
T4
X1.9685Y-3.0037
X1.9685Y-3.1037
X1.9685Y-4.1037
X1.9685Y-4.2037
X2.0685Y-3.0037
X2.0685Y-3.1037
X2.0685Y-4.1037
X2.0685Y-4.2037
X2.1685Y-3.0037
X2.1685Y-3.1037
X2.1685Y-4.1037
X2.1685Y-4.2037
X2.2685Y-3.0037
X2.2685Y-3.1037
X2.2685Y-4.1037
X2.2685Y-4.2037
X2.3685Y-3.0037
X2.3685Y-3.1037
X2.3685Y-4.1037
X2.3685Y-4.2037
X2.4685Y-3.0037
X2.4685Y-3.1037
X2.4685Y-4.1037
X2.4685Y-4.2037
X2.5685Y-3.0037
X2.5685Y-3.1037
X2.5685Y-4.1037
X2.5685Y-4.2037
X2.6685Y-3.0037
X2.6685Y-3.1037
X2.6685Y-4.1037
X2.6685Y-4.2037
X2.7685Y-3.0037
X2.7685Y-3.1037
X2.7685Y-4.1037
X2.7685Y-4.2037
X2.8685Y-3.0037
X2.8685Y-3.1037
X2.8685Y-4.1037
X2.8685Y-4.2037
X3.3465Y-4.5276
X3.3465Y-4.6276
X3.4465Y-4.5276
X3.4465Y-4.6276
X3.5465Y-4.5276
X3.5465Y-4.6276
X3.6465Y-4.5276
X3.6465Y-4.6276
X3.7465Y-4.5276
X3.7465Y-4.6276
X3.8465Y-4.5276
X3.8465Y-4.6276
T5
X5.2863Y-2.4002
X5.2863Y-2.6002
T6
X3.3661Y-2.126
X3.3661Y-2.4409
X4.8819Y-2.126
X4.8819Y-2.5492
X6.1319Y-3.7733
X6.1319Y-5.2891
X6.4469Y-5.2891
X6.5551Y-3.7733
M30
