%TF.GenerationSoftware,KiCad,Pcbnew,9.0.0*%
%TF.CreationDate,2025-03-22T00:53:23+02:00*%
%TF.ProjectId,MainBoard,4d61696e-426f-4617-9264-2e6b69636164,rev?*%
%TF.SameCoordinates,Original*%
%TF.FileFunction,Legend,Bot*%
%TF.FilePolarity,Positive*%
%FSLAX46Y46*%
G04 Gerber Fmt 4.6, Leading zero omitted, Abs format (unit mm)*
G04 Created by KiCad (PCBNEW 9.0.0) date 2025-03-22 00:53:23*
%MOMM*%
%LPD*%
G01*
G04 APERTURE LIST*
%ADD10C,0.400000*%
G04 APERTURE END LIST*
D10*
X71976190Y-67294494D02*
X71595237Y-67294494D01*
X71595237Y-67294494D02*
X71404761Y-67389732D01*
X71404761Y-67389732D02*
X71214285Y-67580208D01*
X71214285Y-67580208D02*
X71119047Y-67961160D01*
X71119047Y-67961160D02*
X71119047Y-68627827D01*
X71119047Y-68627827D02*
X71214285Y-69008779D01*
X71214285Y-69008779D02*
X71404761Y-69199256D01*
X71404761Y-69199256D02*
X71595237Y-69294494D01*
X71595237Y-69294494D02*
X71976190Y-69294494D01*
X71976190Y-69294494D02*
X72166666Y-69199256D01*
X72166666Y-69199256D02*
X72357142Y-69008779D01*
X72357142Y-69008779D02*
X72452380Y-68627827D01*
X72452380Y-68627827D02*
X72452380Y-67961160D01*
X72452380Y-67961160D02*
X72357142Y-67580208D01*
X72357142Y-67580208D02*
X72166666Y-67389732D01*
X72166666Y-67389732D02*
X71976190Y-67294494D01*
X69309523Y-69294494D02*
X70261904Y-69294494D01*
X70261904Y-69294494D02*
X70261904Y-67294494D01*
X68642856Y-69294494D02*
X68642856Y-67294494D01*
X67690475Y-69294494D02*
X67690475Y-67294494D01*
X67690475Y-67294494D02*
X67023808Y-68723065D01*
X67023808Y-68723065D02*
X66357142Y-67294494D01*
X66357142Y-67294494D02*
X66357142Y-69294494D01*
X65404761Y-68246875D02*
X64738094Y-68246875D01*
X64452380Y-69294494D02*
X65404761Y-69294494D01*
X65404761Y-69294494D02*
X65404761Y-67294494D01*
X65404761Y-67294494D02*
X64452380Y-67294494D01*
X63785713Y-67294494D02*
X62452380Y-69294494D01*
X62452380Y-67294494D02*
X63785713Y-69294494D01*
X75976190Y-71466763D02*
X75309523Y-71466763D01*
X75023809Y-72514382D02*
X75976190Y-72514382D01*
X75976190Y-72514382D02*
X75976190Y-70514382D01*
X75976190Y-70514382D02*
X75023809Y-70514382D01*
X74261904Y-72419144D02*
X73976190Y-72514382D01*
X73976190Y-72514382D02*
X73499999Y-72514382D01*
X73499999Y-72514382D02*
X73309523Y-72419144D01*
X73309523Y-72419144D02*
X73214285Y-72323905D01*
X73214285Y-72323905D02*
X73119047Y-72133429D01*
X73119047Y-72133429D02*
X73119047Y-71942953D01*
X73119047Y-71942953D02*
X73214285Y-71752477D01*
X73214285Y-71752477D02*
X73309523Y-71657239D01*
X73309523Y-71657239D02*
X73499999Y-71562001D01*
X73499999Y-71562001D02*
X73880952Y-71466763D01*
X73880952Y-71466763D02*
X74071428Y-71371524D01*
X74071428Y-71371524D02*
X74166666Y-71276286D01*
X74166666Y-71276286D02*
X74261904Y-71085810D01*
X74261904Y-71085810D02*
X74261904Y-70895334D01*
X74261904Y-70895334D02*
X74166666Y-70704858D01*
X74166666Y-70704858D02*
X74071428Y-70609620D01*
X74071428Y-70609620D02*
X73880952Y-70514382D01*
X73880952Y-70514382D02*
X73404761Y-70514382D01*
X73404761Y-70514382D02*
X73119047Y-70609620D01*
X72261904Y-72514382D02*
X72261904Y-70514382D01*
X72261904Y-70514382D02*
X71499999Y-70514382D01*
X71499999Y-70514382D02*
X71309523Y-70609620D01*
X71309523Y-70609620D02*
X71214285Y-70704858D01*
X71214285Y-70704858D02*
X71119047Y-70895334D01*
X71119047Y-70895334D02*
X71119047Y-71181048D01*
X71119047Y-71181048D02*
X71214285Y-71371524D01*
X71214285Y-71371524D02*
X71309523Y-71466763D01*
X71309523Y-71466763D02*
X71499999Y-71562001D01*
X71499999Y-71562001D02*
X72261904Y-71562001D01*
X70452380Y-70514382D02*
X69214285Y-70514382D01*
X69214285Y-70514382D02*
X69880952Y-71276286D01*
X69880952Y-71276286D02*
X69595237Y-71276286D01*
X69595237Y-71276286D02*
X69404761Y-71371524D01*
X69404761Y-71371524D02*
X69309523Y-71466763D01*
X69309523Y-71466763D02*
X69214285Y-71657239D01*
X69214285Y-71657239D02*
X69214285Y-72133429D01*
X69214285Y-72133429D02*
X69309523Y-72323905D01*
X69309523Y-72323905D02*
X69404761Y-72419144D01*
X69404761Y-72419144D02*
X69595237Y-72514382D01*
X69595237Y-72514382D02*
X70166666Y-72514382D01*
X70166666Y-72514382D02*
X70357142Y-72419144D01*
X70357142Y-72419144D02*
X70452380Y-72323905D01*
X68452380Y-70704858D02*
X68357142Y-70609620D01*
X68357142Y-70609620D02*
X68166666Y-70514382D01*
X68166666Y-70514382D02*
X67690475Y-70514382D01*
X67690475Y-70514382D02*
X67499999Y-70609620D01*
X67499999Y-70609620D02*
X67404761Y-70704858D01*
X67404761Y-70704858D02*
X67309523Y-70895334D01*
X67309523Y-70895334D02*
X67309523Y-71085810D01*
X67309523Y-71085810D02*
X67404761Y-71371524D01*
X67404761Y-71371524D02*
X68547618Y-72514382D01*
X68547618Y-72514382D02*
X67309523Y-72514382D01*
X66452380Y-71752477D02*
X64928571Y-71752477D01*
X63976190Y-72514382D02*
X63976190Y-70514382D01*
X63976190Y-70514382D02*
X63214285Y-70514382D01*
X63214285Y-70514382D02*
X63023809Y-70609620D01*
X63023809Y-70609620D02*
X62928571Y-70704858D01*
X62928571Y-70704858D02*
X62833333Y-70895334D01*
X62833333Y-70895334D02*
X62833333Y-71181048D01*
X62833333Y-71181048D02*
X62928571Y-71371524D01*
X62928571Y-71371524D02*
X63023809Y-71466763D01*
X63023809Y-71466763D02*
X63214285Y-71562001D01*
X63214285Y-71562001D02*
X63976190Y-71562001D01*
X61595238Y-70514382D02*
X61214285Y-70514382D01*
X61214285Y-70514382D02*
X61023809Y-70609620D01*
X61023809Y-70609620D02*
X60833333Y-70800096D01*
X60833333Y-70800096D02*
X60738095Y-71181048D01*
X60738095Y-71181048D02*
X60738095Y-71847715D01*
X60738095Y-71847715D02*
X60833333Y-72228667D01*
X60833333Y-72228667D02*
X61023809Y-72419144D01*
X61023809Y-72419144D02*
X61214285Y-72514382D01*
X61214285Y-72514382D02*
X61595238Y-72514382D01*
X61595238Y-72514382D02*
X61785714Y-72419144D01*
X61785714Y-72419144D02*
X61976190Y-72228667D01*
X61976190Y-72228667D02*
X62071428Y-71847715D01*
X62071428Y-71847715D02*
X62071428Y-71181048D01*
X62071428Y-71181048D02*
X61976190Y-70800096D01*
X61976190Y-70800096D02*
X61785714Y-70609620D01*
X61785714Y-70609620D02*
X61595238Y-70514382D01*
X59880952Y-71466763D02*
X59214285Y-71466763D01*
X58928571Y-72514382D02*
X59880952Y-72514382D01*
X59880952Y-72514382D02*
X59880952Y-70514382D01*
X59880952Y-70514382D02*
X58928571Y-70514382D01*
X71976190Y-117294494D02*
X71595237Y-117294494D01*
X71595237Y-117294494D02*
X71404761Y-117389732D01*
X71404761Y-117389732D02*
X71214285Y-117580208D01*
X71214285Y-117580208D02*
X71119047Y-117961160D01*
X71119047Y-117961160D02*
X71119047Y-118627827D01*
X71119047Y-118627827D02*
X71214285Y-119008779D01*
X71214285Y-119008779D02*
X71404761Y-119199256D01*
X71404761Y-119199256D02*
X71595237Y-119294494D01*
X71595237Y-119294494D02*
X71976190Y-119294494D01*
X71976190Y-119294494D02*
X72166666Y-119199256D01*
X72166666Y-119199256D02*
X72357142Y-119008779D01*
X72357142Y-119008779D02*
X72452380Y-118627827D01*
X72452380Y-118627827D02*
X72452380Y-117961160D01*
X72452380Y-117961160D02*
X72357142Y-117580208D01*
X72357142Y-117580208D02*
X72166666Y-117389732D01*
X72166666Y-117389732D02*
X71976190Y-117294494D01*
X69309523Y-119294494D02*
X70261904Y-119294494D01*
X70261904Y-119294494D02*
X70261904Y-117294494D01*
X68642856Y-119294494D02*
X68642856Y-117294494D01*
X67690475Y-119294494D02*
X67690475Y-117294494D01*
X67690475Y-117294494D02*
X67023808Y-118723065D01*
X67023808Y-118723065D02*
X66357142Y-117294494D01*
X66357142Y-117294494D02*
X66357142Y-119294494D01*
X65404761Y-118246875D02*
X64738094Y-118246875D01*
X64452380Y-119294494D02*
X65404761Y-119294494D01*
X65404761Y-119294494D02*
X65404761Y-117294494D01*
X65404761Y-117294494D02*
X64452380Y-117294494D01*
X63785713Y-117294494D02*
X62452380Y-119294494D01*
X62452380Y-117294494D02*
X63785713Y-119294494D01*
X75976190Y-121466763D02*
X75309523Y-121466763D01*
X75023809Y-122514382D02*
X75976190Y-122514382D01*
X75976190Y-122514382D02*
X75976190Y-120514382D01*
X75976190Y-120514382D02*
X75023809Y-120514382D01*
X74261904Y-122419144D02*
X73976190Y-122514382D01*
X73976190Y-122514382D02*
X73499999Y-122514382D01*
X73499999Y-122514382D02*
X73309523Y-122419144D01*
X73309523Y-122419144D02*
X73214285Y-122323905D01*
X73214285Y-122323905D02*
X73119047Y-122133429D01*
X73119047Y-122133429D02*
X73119047Y-121942953D01*
X73119047Y-121942953D02*
X73214285Y-121752477D01*
X73214285Y-121752477D02*
X73309523Y-121657239D01*
X73309523Y-121657239D02*
X73499999Y-121562001D01*
X73499999Y-121562001D02*
X73880952Y-121466763D01*
X73880952Y-121466763D02*
X74071428Y-121371524D01*
X74071428Y-121371524D02*
X74166666Y-121276286D01*
X74166666Y-121276286D02*
X74261904Y-121085810D01*
X74261904Y-121085810D02*
X74261904Y-120895334D01*
X74261904Y-120895334D02*
X74166666Y-120704858D01*
X74166666Y-120704858D02*
X74071428Y-120609620D01*
X74071428Y-120609620D02*
X73880952Y-120514382D01*
X73880952Y-120514382D02*
X73404761Y-120514382D01*
X73404761Y-120514382D02*
X73119047Y-120609620D01*
X72261904Y-122514382D02*
X72261904Y-120514382D01*
X72261904Y-120514382D02*
X71499999Y-120514382D01*
X71499999Y-120514382D02*
X71309523Y-120609620D01*
X71309523Y-120609620D02*
X71214285Y-120704858D01*
X71214285Y-120704858D02*
X71119047Y-120895334D01*
X71119047Y-120895334D02*
X71119047Y-121181048D01*
X71119047Y-121181048D02*
X71214285Y-121371524D01*
X71214285Y-121371524D02*
X71309523Y-121466763D01*
X71309523Y-121466763D02*
X71499999Y-121562001D01*
X71499999Y-121562001D02*
X72261904Y-121562001D01*
X70452380Y-120514382D02*
X69214285Y-120514382D01*
X69214285Y-120514382D02*
X69880952Y-121276286D01*
X69880952Y-121276286D02*
X69595237Y-121276286D01*
X69595237Y-121276286D02*
X69404761Y-121371524D01*
X69404761Y-121371524D02*
X69309523Y-121466763D01*
X69309523Y-121466763D02*
X69214285Y-121657239D01*
X69214285Y-121657239D02*
X69214285Y-122133429D01*
X69214285Y-122133429D02*
X69309523Y-122323905D01*
X69309523Y-122323905D02*
X69404761Y-122419144D01*
X69404761Y-122419144D02*
X69595237Y-122514382D01*
X69595237Y-122514382D02*
X70166666Y-122514382D01*
X70166666Y-122514382D02*
X70357142Y-122419144D01*
X70357142Y-122419144D02*
X70452380Y-122323905D01*
X68452380Y-120704858D02*
X68357142Y-120609620D01*
X68357142Y-120609620D02*
X68166666Y-120514382D01*
X68166666Y-120514382D02*
X67690475Y-120514382D01*
X67690475Y-120514382D02*
X67499999Y-120609620D01*
X67499999Y-120609620D02*
X67404761Y-120704858D01*
X67404761Y-120704858D02*
X67309523Y-120895334D01*
X67309523Y-120895334D02*
X67309523Y-121085810D01*
X67309523Y-121085810D02*
X67404761Y-121371524D01*
X67404761Y-121371524D02*
X68547618Y-122514382D01*
X68547618Y-122514382D02*
X67309523Y-122514382D01*
X66452380Y-121752477D02*
X64928571Y-121752477D01*
X63976190Y-122514382D02*
X63976190Y-120514382D01*
X63976190Y-120514382D02*
X63214285Y-120514382D01*
X63214285Y-120514382D02*
X63023809Y-120609620D01*
X63023809Y-120609620D02*
X62928571Y-120704858D01*
X62928571Y-120704858D02*
X62833333Y-120895334D01*
X62833333Y-120895334D02*
X62833333Y-121181048D01*
X62833333Y-121181048D02*
X62928571Y-121371524D01*
X62928571Y-121371524D02*
X63023809Y-121466763D01*
X63023809Y-121466763D02*
X63214285Y-121562001D01*
X63214285Y-121562001D02*
X63976190Y-121562001D01*
X61595238Y-120514382D02*
X61214285Y-120514382D01*
X61214285Y-120514382D02*
X61023809Y-120609620D01*
X61023809Y-120609620D02*
X60833333Y-120800096D01*
X60833333Y-120800096D02*
X60738095Y-121181048D01*
X60738095Y-121181048D02*
X60738095Y-121847715D01*
X60738095Y-121847715D02*
X60833333Y-122228667D01*
X60833333Y-122228667D02*
X61023809Y-122419144D01*
X61023809Y-122419144D02*
X61214285Y-122514382D01*
X61214285Y-122514382D02*
X61595238Y-122514382D01*
X61595238Y-122514382D02*
X61785714Y-122419144D01*
X61785714Y-122419144D02*
X61976190Y-122228667D01*
X61976190Y-122228667D02*
X62071428Y-121847715D01*
X62071428Y-121847715D02*
X62071428Y-121181048D01*
X62071428Y-121181048D02*
X61976190Y-120800096D01*
X61976190Y-120800096D02*
X61785714Y-120609620D01*
X61785714Y-120609620D02*
X61595238Y-120514382D01*
X59880952Y-121466763D02*
X59214285Y-121466763D01*
X58928571Y-122514382D02*
X59880952Y-122514382D01*
X59880952Y-122514382D02*
X59880952Y-120514382D01*
X59880952Y-120514382D02*
X58928571Y-120514382D01*
X142547620Y-72904438D02*
X142547620Y-70904438D01*
X141595239Y-72904438D02*
X141595239Y-70904438D01*
X141595239Y-70904438D02*
X140452382Y-72904438D01*
X140452382Y-72904438D02*
X140452382Y-70904438D01*
X139500001Y-72904438D02*
X139500001Y-70904438D01*
X139500001Y-70904438D02*
X138738096Y-70904438D01*
X138738096Y-70904438D02*
X138547620Y-70999676D01*
X138547620Y-70999676D02*
X138452382Y-71094914D01*
X138452382Y-71094914D02*
X138357144Y-71285390D01*
X138357144Y-71285390D02*
X138357144Y-71571104D01*
X138357144Y-71571104D02*
X138452382Y-71761580D01*
X138452382Y-71761580D02*
X138547620Y-71856819D01*
X138547620Y-71856819D02*
X138738096Y-71952057D01*
X138738096Y-71952057D02*
X139500001Y-71952057D01*
X137500001Y-70904438D02*
X137500001Y-72523485D01*
X137500001Y-72523485D02*
X137404763Y-72713961D01*
X137404763Y-72713961D02*
X137309525Y-72809200D01*
X137309525Y-72809200D02*
X137119049Y-72904438D01*
X137119049Y-72904438D02*
X136738096Y-72904438D01*
X136738096Y-72904438D02*
X136547620Y-72809200D01*
X136547620Y-72809200D02*
X136452382Y-72713961D01*
X136452382Y-72713961D02*
X136357144Y-72523485D01*
X136357144Y-72523485D02*
X136357144Y-70904438D01*
X135690477Y-70904438D02*
X134547620Y-70904438D01*
X135119049Y-72904438D02*
X135119049Y-70904438D01*
X131690476Y-71856819D02*
X131404762Y-71952057D01*
X131404762Y-71952057D02*
X131309524Y-72047295D01*
X131309524Y-72047295D02*
X131214286Y-72237771D01*
X131214286Y-72237771D02*
X131214286Y-72523485D01*
X131214286Y-72523485D02*
X131309524Y-72713961D01*
X131309524Y-72713961D02*
X131404762Y-72809200D01*
X131404762Y-72809200D02*
X131595238Y-72904438D01*
X131595238Y-72904438D02*
X132357143Y-72904438D01*
X132357143Y-72904438D02*
X132357143Y-70904438D01*
X132357143Y-70904438D02*
X131690476Y-70904438D01*
X131690476Y-70904438D02*
X131500000Y-70999676D01*
X131500000Y-70999676D02*
X131404762Y-71094914D01*
X131404762Y-71094914D02*
X131309524Y-71285390D01*
X131309524Y-71285390D02*
X131309524Y-71475866D01*
X131309524Y-71475866D02*
X131404762Y-71666342D01*
X131404762Y-71666342D02*
X131500000Y-71761580D01*
X131500000Y-71761580D02*
X131690476Y-71856819D01*
X131690476Y-71856819D02*
X132357143Y-71856819D01*
X129976191Y-70904438D02*
X129595238Y-70904438D01*
X129595238Y-70904438D02*
X129404762Y-70999676D01*
X129404762Y-70999676D02*
X129214286Y-71190152D01*
X129214286Y-71190152D02*
X129119048Y-71571104D01*
X129119048Y-71571104D02*
X129119048Y-72237771D01*
X129119048Y-72237771D02*
X129214286Y-72618723D01*
X129214286Y-72618723D02*
X129404762Y-72809200D01*
X129404762Y-72809200D02*
X129595238Y-72904438D01*
X129595238Y-72904438D02*
X129976191Y-72904438D01*
X129976191Y-72904438D02*
X130166667Y-72809200D01*
X130166667Y-72809200D02*
X130357143Y-72618723D01*
X130357143Y-72618723D02*
X130452381Y-72237771D01*
X130452381Y-72237771D02*
X130452381Y-71571104D01*
X130452381Y-71571104D02*
X130357143Y-71190152D01*
X130357143Y-71190152D02*
X130166667Y-70999676D01*
X130166667Y-70999676D02*
X129976191Y-70904438D01*
X128357143Y-72333009D02*
X127404762Y-72333009D01*
X128547619Y-72904438D02*
X127880953Y-70904438D01*
X127880953Y-70904438D02*
X127214286Y-72904438D01*
X125404762Y-72904438D02*
X126071429Y-71952057D01*
X126547619Y-72904438D02*
X126547619Y-70904438D01*
X126547619Y-70904438D02*
X125785714Y-70904438D01*
X125785714Y-70904438D02*
X125595238Y-70999676D01*
X125595238Y-70999676D02*
X125500000Y-71094914D01*
X125500000Y-71094914D02*
X125404762Y-71285390D01*
X125404762Y-71285390D02*
X125404762Y-71571104D01*
X125404762Y-71571104D02*
X125500000Y-71761580D01*
X125500000Y-71761580D02*
X125595238Y-71856819D01*
X125595238Y-71856819D02*
X125785714Y-71952057D01*
X125785714Y-71952057D02*
X126547619Y-71952057D01*
X124547619Y-72904438D02*
X124547619Y-70904438D01*
X124547619Y-70904438D02*
X124071429Y-70904438D01*
X124071429Y-70904438D02*
X123785714Y-70999676D01*
X123785714Y-70999676D02*
X123595238Y-71190152D01*
X123595238Y-71190152D02*
X123500000Y-71380628D01*
X123500000Y-71380628D02*
X123404762Y-71761580D01*
X123404762Y-71761580D02*
X123404762Y-72047295D01*
X123404762Y-72047295D02*
X123500000Y-72428247D01*
X123500000Y-72428247D02*
X123595238Y-72618723D01*
X123595238Y-72618723D02*
X123785714Y-72809200D01*
X123785714Y-72809200D02*
X124071429Y-72904438D01*
X124071429Y-72904438D02*
X124547619Y-72904438D01*
X120642857Y-70904438D02*
X120261904Y-70904438D01*
X120261904Y-70904438D02*
X120071428Y-70999676D01*
X120071428Y-70999676D02*
X119880952Y-71190152D01*
X119880952Y-71190152D02*
X119785714Y-71571104D01*
X119785714Y-71571104D02*
X119785714Y-72237771D01*
X119785714Y-72237771D02*
X119880952Y-72618723D01*
X119880952Y-72618723D02*
X120071428Y-72809200D01*
X120071428Y-72809200D02*
X120261904Y-72904438D01*
X120261904Y-72904438D02*
X120642857Y-72904438D01*
X120642857Y-72904438D02*
X120833333Y-72809200D01*
X120833333Y-72809200D02*
X121023809Y-72618723D01*
X121023809Y-72618723D02*
X121119047Y-72237771D01*
X121119047Y-72237771D02*
X121119047Y-71571104D01*
X121119047Y-71571104D02*
X121023809Y-71190152D01*
X121023809Y-71190152D02*
X120833333Y-70999676D01*
X120833333Y-70999676D02*
X120642857Y-70904438D01*
X118928571Y-72904438D02*
X118928571Y-70904438D01*
X118928571Y-70904438D02*
X117785714Y-72904438D01*
X117785714Y-72904438D02*
X117785714Y-70904438D01*
X115880952Y-72904438D02*
X116833333Y-72904438D01*
X116833333Y-72904438D02*
X116833333Y-70904438D01*
X114833333Y-71952057D02*
X114833333Y-72904438D01*
X115499999Y-70904438D02*
X114833333Y-71952057D01*
X114833333Y-71952057D02*
X114166666Y-70904438D01*
X112261903Y-70904438D02*
X111595237Y-72904438D01*
X111595237Y-72904438D02*
X110928570Y-70904438D01*
X109214284Y-72904438D02*
X110357141Y-72904438D01*
X109785713Y-72904438D02*
X109785713Y-70904438D01*
X109785713Y-70904438D02*
X109976189Y-71190152D01*
X109976189Y-71190152D02*
X110166665Y-71380628D01*
X110166665Y-71380628D02*
X110357141Y-71475866D01*
X108357141Y-72713961D02*
X108261903Y-72809200D01*
X108261903Y-72809200D02*
X108357141Y-72904438D01*
X108357141Y-72904438D02*
X108452379Y-72809200D01*
X108452379Y-72809200D02*
X108357141Y-72713961D01*
X108357141Y-72713961D02*
X108357141Y-72904438D01*
X106357141Y-72904438D02*
X107499998Y-72904438D01*
X106928570Y-72904438D02*
X106928570Y-70904438D01*
X106928570Y-70904438D02*
X107119046Y-71190152D01*
X107119046Y-71190152D02*
X107309522Y-71380628D01*
X107309522Y-71380628D02*
X107499998Y-71475866D01*
X142294287Y-122749438D02*
X142294287Y-120749438D01*
X141341906Y-122749438D02*
X141341906Y-120749438D01*
X141341906Y-120749438D02*
X140199049Y-122749438D01*
X140199049Y-122749438D02*
X140199049Y-120749438D01*
X139246668Y-122749438D02*
X139246668Y-120749438D01*
X139246668Y-120749438D02*
X138484763Y-120749438D01*
X138484763Y-120749438D02*
X138294287Y-120844676D01*
X138294287Y-120844676D02*
X138199049Y-120939914D01*
X138199049Y-120939914D02*
X138103811Y-121130390D01*
X138103811Y-121130390D02*
X138103811Y-121416104D01*
X138103811Y-121416104D02*
X138199049Y-121606580D01*
X138199049Y-121606580D02*
X138294287Y-121701819D01*
X138294287Y-121701819D02*
X138484763Y-121797057D01*
X138484763Y-121797057D02*
X139246668Y-121797057D01*
X137246668Y-120749438D02*
X137246668Y-122368485D01*
X137246668Y-122368485D02*
X137151430Y-122558961D01*
X137151430Y-122558961D02*
X137056192Y-122654200D01*
X137056192Y-122654200D02*
X136865716Y-122749438D01*
X136865716Y-122749438D02*
X136484763Y-122749438D01*
X136484763Y-122749438D02*
X136294287Y-122654200D01*
X136294287Y-122654200D02*
X136199049Y-122558961D01*
X136199049Y-122558961D02*
X136103811Y-122368485D01*
X136103811Y-122368485D02*
X136103811Y-120749438D01*
X135437144Y-120749438D02*
X134294287Y-120749438D01*
X134865716Y-122749438D02*
X134865716Y-120749438D01*
X131437143Y-121701819D02*
X131151429Y-121797057D01*
X131151429Y-121797057D02*
X131056191Y-121892295D01*
X131056191Y-121892295D02*
X130960953Y-122082771D01*
X130960953Y-122082771D02*
X130960953Y-122368485D01*
X130960953Y-122368485D02*
X131056191Y-122558961D01*
X131056191Y-122558961D02*
X131151429Y-122654200D01*
X131151429Y-122654200D02*
X131341905Y-122749438D01*
X131341905Y-122749438D02*
X132103810Y-122749438D01*
X132103810Y-122749438D02*
X132103810Y-120749438D01*
X132103810Y-120749438D02*
X131437143Y-120749438D01*
X131437143Y-120749438D02*
X131246667Y-120844676D01*
X131246667Y-120844676D02*
X131151429Y-120939914D01*
X131151429Y-120939914D02*
X131056191Y-121130390D01*
X131056191Y-121130390D02*
X131056191Y-121320866D01*
X131056191Y-121320866D02*
X131151429Y-121511342D01*
X131151429Y-121511342D02*
X131246667Y-121606580D01*
X131246667Y-121606580D02*
X131437143Y-121701819D01*
X131437143Y-121701819D02*
X132103810Y-121701819D01*
X129722858Y-120749438D02*
X129341905Y-120749438D01*
X129341905Y-120749438D02*
X129151429Y-120844676D01*
X129151429Y-120844676D02*
X128960953Y-121035152D01*
X128960953Y-121035152D02*
X128865715Y-121416104D01*
X128865715Y-121416104D02*
X128865715Y-122082771D01*
X128865715Y-122082771D02*
X128960953Y-122463723D01*
X128960953Y-122463723D02*
X129151429Y-122654200D01*
X129151429Y-122654200D02*
X129341905Y-122749438D01*
X129341905Y-122749438D02*
X129722858Y-122749438D01*
X129722858Y-122749438D02*
X129913334Y-122654200D01*
X129913334Y-122654200D02*
X130103810Y-122463723D01*
X130103810Y-122463723D02*
X130199048Y-122082771D01*
X130199048Y-122082771D02*
X130199048Y-121416104D01*
X130199048Y-121416104D02*
X130103810Y-121035152D01*
X130103810Y-121035152D02*
X129913334Y-120844676D01*
X129913334Y-120844676D02*
X129722858Y-120749438D01*
X128103810Y-122178009D02*
X127151429Y-122178009D01*
X128294286Y-122749438D02*
X127627620Y-120749438D01*
X127627620Y-120749438D02*
X126960953Y-122749438D01*
X125151429Y-122749438D02*
X125818096Y-121797057D01*
X126294286Y-122749438D02*
X126294286Y-120749438D01*
X126294286Y-120749438D02*
X125532381Y-120749438D01*
X125532381Y-120749438D02*
X125341905Y-120844676D01*
X125341905Y-120844676D02*
X125246667Y-120939914D01*
X125246667Y-120939914D02*
X125151429Y-121130390D01*
X125151429Y-121130390D02*
X125151429Y-121416104D01*
X125151429Y-121416104D02*
X125246667Y-121606580D01*
X125246667Y-121606580D02*
X125341905Y-121701819D01*
X125341905Y-121701819D02*
X125532381Y-121797057D01*
X125532381Y-121797057D02*
X126294286Y-121797057D01*
X124294286Y-122749438D02*
X124294286Y-120749438D01*
X124294286Y-120749438D02*
X123818096Y-120749438D01*
X123818096Y-120749438D02*
X123532381Y-120844676D01*
X123532381Y-120844676D02*
X123341905Y-121035152D01*
X123341905Y-121035152D02*
X123246667Y-121225628D01*
X123246667Y-121225628D02*
X123151429Y-121606580D01*
X123151429Y-121606580D02*
X123151429Y-121892295D01*
X123151429Y-121892295D02*
X123246667Y-122273247D01*
X123246667Y-122273247D02*
X123341905Y-122463723D01*
X123341905Y-122463723D02*
X123532381Y-122654200D01*
X123532381Y-122654200D02*
X123818096Y-122749438D01*
X123818096Y-122749438D02*
X124294286Y-122749438D01*
X120389524Y-120749438D02*
X120008571Y-120749438D01*
X120008571Y-120749438D02*
X119818095Y-120844676D01*
X119818095Y-120844676D02*
X119627619Y-121035152D01*
X119627619Y-121035152D02*
X119532381Y-121416104D01*
X119532381Y-121416104D02*
X119532381Y-122082771D01*
X119532381Y-122082771D02*
X119627619Y-122463723D01*
X119627619Y-122463723D02*
X119818095Y-122654200D01*
X119818095Y-122654200D02*
X120008571Y-122749438D01*
X120008571Y-122749438D02*
X120389524Y-122749438D01*
X120389524Y-122749438D02*
X120580000Y-122654200D01*
X120580000Y-122654200D02*
X120770476Y-122463723D01*
X120770476Y-122463723D02*
X120865714Y-122082771D01*
X120865714Y-122082771D02*
X120865714Y-121416104D01*
X120865714Y-121416104D02*
X120770476Y-121035152D01*
X120770476Y-121035152D02*
X120580000Y-120844676D01*
X120580000Y-120844676D02*
X120389524Y-120749438D01*
X118675238Y-122749438D02*
X118675238Y-120749438D01*
X118675238Y-120749438D02*
X117532381Y-122749438D01*
X117532381Y-122749438D02*
X117532381Y-120749438D01*
X115627619Y-122749438D02*
X116580000Y-122749438D01*
X116580000Y-122749438D02*
X116580000Y-120749438D01*
X114580000Y-121797057D02*
X114580000Y-122749438D01*
X115246666Y-120749438D02*
X114580000Y-121797057D01*
X114580000Y-121797057D02*
X113913333Y-120749438D01*
X112008570Y-120749438D02*
X111341904Y-122749438D01*
X111341904Y-122749438D02*
X110675237Y-120749438D01*
X108960951Y-122749438D02*
X110103808Y-122749438D01*
X109532380Y-122749438D02*
X109532380Y-120749438D01*
X109532380Y-120749438D02*
X109722856Y-121035152D01*
X109722856Y-121035152D02*
X109913332Y-121225628D01*
X109913332Y-121225628D02*
X110103808Y-121320866D01*
X108103808Y-122558961D02*
X108008570Y-122654200D01*
X108008570Y-122654200D02*
X108103808Y-122749438D01*
X108103808Y-122749438D02*
X108199046Y-122654200D01*
X108199046Y-122654200D02*
X108103808Y-122558961D01*
X108103808Y-122558961D02*
X108103808Y-122749438D01*
X106103808Y-122749438D02*
X107246665Y-122749438D01*
X106675237Y-122749438D02*
X106675237Y-120749438D01*
X106675237Y-120749438D02*
X106865713Y-121035152D01*
X106865713Y-121035152D02*
X107056189Y-121225628D01*
X107056189Y-121225628D02*
X107246665Y-121320866D01*
M02*
