%TF.GenerationSoftware,KiCad,Pcbnew,9.0.0*%
%TF.CreationDate,2025-03-22T00:53:23+02:00*%
%TF.ProjectId,MainBoard,4d61696e-426f-4617-9264-2e6b69636164,rev?*%
%TF.SameCoordinates,Original*%
%TF.FileFunction,Soldermask,Bot*%
%TF.FilePolarity,Negative*%
%FSLAX46Y46*%
G04 Gerber Fmt 4.6, Leading zero omitted, Abs format (unit mm)*
G04 Created by KiCad (PCBNEW 9.0.0) date 2025-03-22 00:53:23*
%MOMM*%
%LPD*%
G01*
G04 APERTURE LIST*
G04 Aperture macros list*
%AMRoundRect*
0 Rectangle with rounded corners*
0 $1 Rounding radius*
0 $2 $3 $4 $5 $6 $7 $8 $9 X,Y pos of 4 corners*
0 Add a 4 corners polygon primitive as box body*
4,1,4,$2,$3,$4,$5,$6,$7,$8,$9,$2,$3,0*
0 Add four circle primitives for the rounded corners*
1,1,$1+$1,$2,$3*
1,1,$1+$1,$4,$5*
1,1,$1+$1,$6,$7*
1,1,$1+$1,$8,$9*
0 Add four rect primitives between the rounded corners*
20,1,$1+$1,$2,$3,$4,$5,0*
20,1,$1+$1,$4,$5,$6,$7,0*
20,1,$1+$1,$6,$7,$8,$9,0*
20,1,$1+$1,$8,$9,$2,$3,0*%
G04 Aperture macros list end*
%ADD10RoundRect,0.250000X0.600000X0.750000X-0.600000X0.750000X-0.600000X-0.750000X0.600000X-0.750000X0*%
%ADD11O,1.700000X2.000000*%
%ADD12C,3.200000*%
%ADD13RoundRect,0.250000X0.600000X0.725000X-0.600000X0.725000X-0.600000X-0.725000X0.600000X-0.725000X0*%
%ADD14O,1.700000X1.950000*%
%ADD15R,1.700000X1.700000*%
%ADD16O,1.700000X1.700000*%
G04 APERTURE END LIST*
D10*
%TO.C,J18*%
X70250000Y-82967500D03*
D11*
X67750000Y-82967500D03*
%TD*%
D12*
%TO.C,H8*%
X60000000Y-96000000D03*
%TD*%
%TO.C,H7*%
X103000000Y-96000000D03*
%TD*%
%TO.C,H6*%
X147000000Y-96000000D03*
%TD*%
%TO.C,H5*%
X53000000Y-53000000D03*
%TD*%
D13*
%TO.C,J1*%
X121500000Y-87600000D03*
D14*
X119000000Y-87600000D03*
X116500000Y-87600000D03*
X114000000Y-87600000D03*
X111500000Y-87600000D03*
X109000000Y-87600000D03*
X106500000Y-87600000D03*
X104000000Y-87600000D03*
%TD*%
D13*
%TO.C,J12*%
X95900000Y-83471429D03*
D14*
X93400000Y-83471429D03*
X90900000Y-83471429D03*
X88400000Y-83471429D03*
%TD*%
D15*
%TO.C,J3*%
X121240000Y-53200000D03*
D16*
X121240000Y-55740000D03*
X118700000Y-53200000D03*
X118700000Y-55740000D03*
X116160000Y-53200000D03*
X116160000Y-55740000D03*
X113620000Y-53200000D03*
X113620000Y-55740000D03*
X111080000Y-53200000D03*
X111080000Y-55740000D03*
X108540000Y-53200000D03*
X108540000Y-55740000D03*
%TD*%
D12*
%TO.C,H2*%
X147000000Y-81000000D03*
%TD*%
%TO.C,H1*%
X103000000Y-81000000D03*
%TD*%
D13*
%TO.C,J2*%
X146000000Y-87600000D03*
D14*
X143500000Y-87600000D03*
X141000000Y-87600000D03*
X138500000Y-87600000D03*
X136000000Y-87600000D03*
X133500000Y-87600000D03*
X131000000Y-87600000D03*
X128500000Y-87600000D03*
%TD*%
D13*
%TO.C,J15*%
X95900000Y-66028571D03*
D14*
X93400000Y-66028571D03*
X90900000Y-66028571D03*
X88400000Y-66028571D03*
%TD*%
D13*
%TO.C,J16*%
X95900000Y-60214286D03*
D14*
X93400000Y-60214286D03*
X90900000Y-60214286D03*
X88400000Y-60214286D03*
%TD*%
D15*
%TO.C,J9*%
X54540000Y-97100000D03*
D16*
X52000000Y-97100000D03*
X54540000Y-94560000D03*
X52000000Y-94560000D03*
X54540000Y-92020000D03*
X52000000Y-92020000D03*
X54540000Y-89480000D03*
X52000000Y-89480000D03*
X54540000Y-86940000D03*
X52000000Y-86940000D03*
X54540000Y-84400000D03*
X52000000Y-84400000D03*
X54540000Y-81860000D03*
X52000000Y-81860000D03*
X54540000Y-79320000D03*
X52000000Y-79320000D03*
X54540000Y-76780000D03*
X52000000Y-76780000D03*
X54540000Y-74240000D03*
X52000000Y-74240000D03*
%TD*%
D15*
%TO.C,J8*%
X82480000Y-97100000D03*
D16*
X79940000Y-97100000D03*
X82480000Y-94560000D03*
X79940000Y-94560000D03*
X82480000Y-92020000D03*
X79940000Y-92020000D03*
X82480000Y-89480000D03*
X79940000Y-89480000D03*
X82480000Y-86940000D03*
X79940000Y-86940000D03*
X82480000Y-84400000D03*
X79940000Y-84400000D03*
X82480000Y-81860000D03*
X79940000Y-81860000D03*
X82480000Y-79320000D03*
X79940000Y-79320000D03*
X82480000Y-76780000D03*
X79940000Y-76780000D03*
X82480000Y-74240000D03*
X79940000Y-74240000D03*
%TD*%
D13*
%TO.C,J17*%
X95900000Y-54400000D03*
D14*
X93400000Y-54400000D03*
X90900000Y-54400000D03*
X88400000Y-54400000D03*
%TD*%
D12*
%TO.C,H3*%
X147000000Y-53000000D03*
%TD*%
D13*
%TO.C,J13*%
X95900000Y-77657143D03*
D14*
X93400000Y-77657143D03*
X90900000Y-77657143D03*
X88400000Y-77657143D03*
%TD*%
D13*
%TO.C,J11*%
X95900000Y-89285714D03*
D14*
X93400000Y-89285714D03*
X90900000Y-89285714D03*
X88400000Y-89285714D03*
%TD*%
D12*
%TO.C,H4*%
X103000000Y-53000000D03*
%TD*%
D13*
%TO.C,J14*%
X95900000Y-71842857D03*
D14*
X93400000Y-71842857D03*
X90900000Y-71842857D03*
X88400000Y-71842857D03*
%TD*%
D13*
%TO.C,J10*%
X95900000Y-95100000D03*
D14*
X93400000Y-95100000D03*
X90900000Y-95100000D03*
X88400000Y-95100000D03*
%TD*%
D11*
%TO.C,J18*%
X67750000Y-132967500D03*
D10*
X70250000Y-132967500D03*
%TD*%
D12*
%TO.C,H8*%
X60000000Y-146000000D03*
%TD*%
%TO.C,H7*%
X103000000Y-146000000D03*
%TD*%
%TO.C,H6*%
X147000000Y-146000000D03*
%TD*%
%TO.C,H5*%
X53000000Y-103000000D03*
%TD*%
D13*
%TO.C,J17*%
X95900000Y-104400000D03*
D14*
X93400000Y-104400000D03*
X90900000Y-104400000D03*
X88400000Y-104400000D03*
%TD*%
D13*
%TO.C,J16*%
X95900000Y-110214286D03*
D14*
X93400000Y-110214286D03*
X90900000Y-110214286D03*
X88400000Y-110214286D03*
%TD*%
D13*
%TO.C,J15*%
X95900000Y-116028571D03*
D14*
X93400000Y-116028571D03*
X90900000Y-116028571D03*
X88400000Y-116028571D03*
%TD*%
D13*
%TO.C,J2*%
X146000000Y-137600000D03*
D14*
X143500000Y-137600000D03*
X141000000Y-137600000D03*
X138500000Y-137600000D03*
X136000000Y-137600000D03*
X133500000Y-137600000D03*
X131000000Y-137600000D03*
X128500000Y-137600000D03*
%TD*%
D12*
%TO.C,H1*%
X103000000Y-131000000D03*
%TD*%
D15*
%TO.C,J8*%
X82480000Y-147100000D03*
D16*
X79940000Y-147100000D03*
X82480000Y-144560000D03*
X79940000Y-144560000D03*
X82480000Y-142020000D03*
X79940000Y-142020000D03*
X82480000Y-139480000D03*
X79940000Y-139480000D03*
X82480000Y-136940000D03*
X79940000Y-136940000D03*
X82480000Y-134400000D03*
X79940000Y-134400000D03*
X82480000Y-131860000D03*
X79940000Y-131860000D03*
X82480000Y-129320000D03*
X79940000Y-129320000D03*
X82480000Y-126780000D03*
X79940000Y-126780000D03*
X82480000Y-124240000D03*
X79940000Y-124240000D03*
%TD*%
D13*
%TO.C,J12*%
X95900000Y-133471429D03*
D14*
X93400000Y-133471429D03*
X90900000Y-133471429D03*
X88400000Y-133471429D03*
%TD*%
D13*
%TO.C,J1*%
X121500000Y-137600000D03*
D14*
X119000000Y-137600000D03*
X116500000Y-137600000D03*
X114000000Y-137600000D03*
X111500000Y-137600000D03*
X109000000Y-137600000D03*
X106500000Y-137600000D03*
X104000000Y-137600000D03*
%TD*%
D12*
%TO.C,H2*%
X147000000Y-131000000D03*
%TD*%
D15*
%TO.C,J3*%
X121240000Y-103200000D03*
D16*
X121240000Y-105740000D03*
X118700000Y-103200000D03*
X118700000Y-105740000D03*
X116160000Y-103200000D03*
X116160000Y-105740000D03*
X113620000Y-103200000D03*
X113620000Y-105740000D03*
X111080000Y-103200000D03*
X111080000Y-105740000D03*
X108540000Y-103200000D03*
X108540000Y-105740000D03*
%TD*%
D13*
%TO.C,J14*%
X95900000Y-121842857D03*
D14*
X93400000Y-121842857D03*
X90900000Y-121842857D03*
X88400000Y-121842857D03*
%TD*%
D15*
%TO.C,J9*%
X54540000Y-147100000D03*
D16*
X52000000Y-147100000D03*
X54540000Y-144560000D03*
X52000000Y-144560000D03*
X54540000Y-142020000D03*
X52000000Y-142020000D03*
X54540000Y-139480000D03*
X52000000Y-139480000D03*
X54540000Y-136940000D03*
X52000000Y-136940000D03*
X54540000Y-134400000D03*
X52000000Y-134400000D03*
X54540000Y-131860000D03*
X52000000Y-131860000D03*
X54540000Y-129320000D03*
X52000000Y-129320000D03*
X54540000Y-126780000D03*
X52000000Y-126780000D03*
X54540000Y-124240000D03*
X52000000Y-124240000D03*
%TD*%
D12*
%TO.C,H4*%
X103000000Y-103000000D03*
%TD*%
D13*
%TO.C,J10*%
X95900000Y-145100000D03*
D14*
X93400000Y-145100000D03*
X90900000Y-145100000D03*
X88400000Y-145100000D03*
%TD*%
D13*
%TO.C,J13*%
X95900000Y-127657143D03*
D14*
X93400000Y-127657143D03*
X90900000Y-127657143D03*
X88400000Y-127657143D03*
%TD*%
D13*
%TO.C,J11*%
X95900000Y-139285714D03*
D14*
X93400000Y-139285714D03*
X90900000Y-139285714D03*
X88400000Y-139285714D03*
%TD*%
D12*
%TO.C,H3*%
X147000000Y-103000000D03*
%TD*%
M02*
