M48
; DRILL file {KiCad 9.0.0} date 2025-03-22T00:53:20+0200
; FORMAT={-:-/ absolute / inch / decimal}
; #@! TF.CreationDate,2025-03-22T00:53:20+02:00
; #@! TF.GenerationSoftware,Kicad,Pcbnew,9.0.0
; #@! TF.FileFunction,Plated,1,2,PTH
FMAT,2
INCH
; #@! TA.AperFunction,Plated,PTH,ViaDrill
T1C0.0118
; #@! TA.AperFunction,Plated,PTH,ComponentDrill
T2C0.0374
; #@! TA.AperFunction,Plated,PTH,ComponentDrill
T3C0.0394
%
G90
G05
T1
X2.2756Y-2.8543
X2.2756Y-3.1693
X2.2756Y-3.3661
X2.2756Y-4.8228
X2.2756Y-5.1378
X2.2756Y-5.3346
X2.4134Y-2.8307
X2.4134Y-4.7992
X2.4803Y-2.8307
X2.4803Y-4.7992
X2.5472Y-2.8307
X2.5472Y-4.7992
X3.4409Y-2.9291
X3.4409Y-4.8976
X3.937Y-2.3976
X3.937Y-4.3661
X3.9567Y-2.626
X3.9567Y-2.685
X3.9567Y-2.7441
X3.9567Y-2.8071
X3.9567Y-2.878
X3.9567Y-3.0039
X3.9567Y-3.063
X3.9567Y-3.1102
X3.9567Y-4.5945
X3.9567Y-4.6535
X3.9567Y-4.7126
X3.9567Y-4.7756
X3.9567Y-4.8465
X3.9567Y-4.9724
X3.9567Y-5.0315
X3.9567Y-5.0787
X4.0551Y-2.5079
X4.0551Y-4.4764
X4.0866Y-2.8425
X4.0866Y-2.9291
X4.0866Y-4.811
X4.0866Y-4.8976
X4.1693Y-2.5079
X4.1693Y-4.4764
X4.1811Y-2.3937
X4.1811Y-4.3622
X4.185Y-2.8425
X4.185Y-2.9291
X4.185Y-4.811
X4.185Y-4.8976
X4.2835Y-2.9291
X4.2835Y-4.8976
X4.2874Y-2.5079
X4.2874Y-2.8425
X4.2874Y-4.4764
X4.2874Y-4.811
X4.3858Y-2.8425
X4.3858Y-2.9291
X4.3858Y-4.811
X4.3858Y-4.8976
X4.4055Y-2.5079
X4.4055Y-4.4764
X4.5157Y-2.5079
X4.5157Y-4.4764
X4.5591Y-2.8425
X4.5591Y-2.9291
X4.5591Y-4.811
X4.5591Y-4.8976
X4.6024Y-2.2677
X4.6024Y-2.3268
X4.6024Y-4.2362
X4.6024Y-4.2953
X4.6378Y-2.5079
X4.6378Y-4.4764
X4.6575Y-2.8425
X4.6575Y-2.9291
X4.6575Y-4.811
X4.6575Y-4.8976
X4.748Y-2.5079
X4.748Y-4.4764
X4.7598Y-2.8425
X4.7598Y-2.9291
X4.7598Y-4.811
X4.7598Y-4.8976
X4.8386Y-2.3268
X4.8386Y-4.2953
X4.8583Y-2.8425
X4.8583Y-2.9291
X4.8583Y-4.811
X4.8583Y-4.8976
X4.8622Y-2.5079
X4.8622Y-4.4764
X4.9803Y-2.5079
X4.9803Y-4.4764
X5.0315Y-2.8425
X5.0315Y-2.9291
X5.0315Y-4.811
X5.0315Y-4.8976
X5.0787Y-2.0315
X5.0787Y-2.1457
X5.0787Y-2.2598
X5.0787Y-4.0
X5.0787Y-4.1142
X5.0787Y-4.2283
X5.0945Y-2.5079
X5.0945Y-4.4764
X5.1339Y-2.8425
X5.1339Y-2.9291
X5.1339Y-4.811
X5.1339Y-4.8976
X5.1555Y-2.1831
X5.1555Y-4.1516
X5.2087Y-2.5079
X5.2087Y-4.4764
X5.2323Y-2.8425
X5.2323Y-2.9291
X5.2323Y-4.811
X5.2323Y-4.8976
X5.3268Y-2.2008
X5.3268Y-2.5079
X5.3268Y-4.1693
X5.3268Y-4.4764
X5.3307Y-2.8425
X5.3307Y-2.9291
X5.3307Y-4.811
X5.3307Y-4.8976
X5.3543Y-2.2441
X5.3543Y-2.3307
X5.3543Y-4.2126
X5.3543Y-4.2992
X5.3622Y-2.0591
X5.3622Y-2.1043
X5.3622Y-4.0276
X5.3622Y-4.0728
X5.4331Y-2.2441
X5.4331Y-2.3307
X5.4331Y-4.2126
X5.4331Y-4.2992
X5.4409Y-2.5079
X5.4409Y-4.4764
X5.5Y-2.8425
X5.5Y-4.811
X5.5039Y-2.9291
X5.5039Y-4.8976
X5.5551Y-2.5079
X5.5551Y-4.4764
X5.6063Y-2.8425
X5.6063Y-2.9291
X5.6063Y-4.811
X5.6063Y-4.8976
X5.6496Y-2.0276
X5.6496Y-3.9961
X5.6732Y-2.5079
X5.6732Y-4.4764
X5.7047Y-2.8425
X5.7047Y-2.9291
X5.7047Y-4.811
X5.7047Y-4.8976
X5.7874Y-2.437
X5.7874Y-2.5079
X5.7874Y-4.4055
X5.7874Y-4.4764
X5.7992Y-2.8425
X5.7992Y-4.811
X5.8031Y-2.9291
X5.8031Y-4.8976
X5.8661Y-2.2126
X5.8661Y-4.1811
T2
X3.4803Y-2.1417
X3.4803Y-2.3706
X3.4803Y-2.5996
X3.4803Y-2.8285
X3.4803Y-3.0574
X3.4803Y-3.2863
X3.4803Y-3.5152
X3.4803Y-3.7441
X3.4803Y-4.1102
X3.4803Y-4.3391
X3.4803Y-4.5681
X3.4803Y-4.797
X3.4803Y-5.0259
X3.4803Y-5.2548
X3.4803Y-5.4837
X3.4803Y-5.7126
X3.5787Y-2.1417
X3.5787Y-2.3706
X3.5787Y-2.5996
X3.5787Y-2.8285
X3.5787Y-3.0574
X3.5787Y-3.2863
X3.5787Y-3.5152
X3.5787Y-3.7441
X3.5787Y-4.1102
X3.5787Y-4.3391
X3.5787Y-4.5681
X3.5787Y-4.797
X3.5787Y-5.0259
X3.5787Y-5.2548
X3.5787Y-5.4837
X3.5787Y-5.7126
X3.6772Y-2.1417
X3.6772Y-2.3706
X3.6772Y-2.5996
X3.6772Y-2.8285
X3.6772Y-3.0574
X3.6772Y-3.2863
X3.6772Y-3.5152
X3.6772Y-3.7441
X3.6772Y-4.1102
X3.6772Y-4.3391
X3.6772Y-4.5681
X3.6772Y-4.797
X3.6772Y-5.0259
X3.6772Y-5.2548
X3.6772Y-5.4837
X3.6772Y-5.7126
X3.7756Y-2.1417
X3.7756Y-2.3706
X3.7756Y-2.5996
X3.7756Y-2.8285
X3.7756Y-3.0574
X3.7756Y-3.2863
X3.7756Y-3.5152
X3.7756Y-3.7441
X3.7756Y-4.1102
X3.7756Y-4.3391
X3.7756Y-4.5681
X3.7756Y-4.797
X3.7756Y-5.0259
X3.7756Y-5.2548
X3.7756Y-5.4837
X3.7756Y-5.7126
X4.0945Y-3.4488
X4.0945Y-5.4173
X4.1929Y-3.4488
X4.1929Y-5.4173
X4.2913Y-3.4488
X4.2913Y-5.4173
X4.3898Y-3.4488
X4.3898Y-5.4173
X4.4882Y-3.4488
X4.4882Y-5.4173
X4.5866Y-3.4488
X4.5866Y-5.4173
X4.685Y-3.4488
X4.685Y-5.4173
X4.7835Y-3.4488
X4.7835Y-5.4173
X5.0591Y-3.4488
X5.0591Y-5.4173
X5.1575Y-3.4488
X5.1575Y-5.4173
X5.2559Y-3.4488
X5.2559Y-5.4173
X5.3543Y-3.4488
X5.3543Y-5.4173
X5.4528Y-3.4488
X5.4528Y-5.4173
X5.5512Y-3.4488
X5.5512Y-5.4173
X5.6496Y-3.4488
X5.6496Y-5.4173
X5.748Y-3.4488
X5.748Y-5.4173
T3
X2.0472Y-2.9228
X2.0472Y-3.0228
X2.0472Y-3.1228
X2.0472Y-3.2228
X2.0472Y-3.3228
X2.0472Y-3.4228
X2.0472Y-3.5228
X2.0472Y-3.6228
X2.0472Y-3.7228
X2.0472Y-3.8228
X2.0472Y-4.8913
X2.0472Y-4.9913
X2.0472Y-5.0913
X2.0472Y-5.1913
X2.0472Y-5.2913
X2.0472Y-5.3913
X2.0472Y-5.4913
X2.0472Y-5.5913
X2.0472Y-5.6913
X2.0472Y-5.7913
X2.1472Y-2.9228
X2.1472Y-3.0228
X2.1472Y-3.1228
X2.1472Y-3.2228
X2.1472Y-3.3228
X2.1472Y-3.4228
X2.1472Y-3.5228
X2.1472Y-3.6228
X2.1472Y-3.7228
X2.1472Y-3.8228
X2.1472Y-4.8913
X2.1472Y-4.9913
X2.1472Y-5.0913
X2.1472Y-5.1913
X2.1472Y-5.2913
X2.1472Y-5.3913
X2.1472Y-5.4913
X2.1472Y-5.5913
X2.1472Y-5.6913
X2.1472Y-5.7913
X2.6673Y-3.2664
X2.6673Y-5.2349
X2.7657Y-3.2664
X2.7657Y-5.2349
X3.1472Y-2.9228
X3.1472Y-3.0228
X3.1472Y-3.1228
X3.1472Y-3.2228
X3.1472Y-3.3228
X3.1472Y-3.4228
X3.1472Y-3.5228
X3.1472Y-3.6228
X3.1472Y-3.7228
X3.1472Y-3.8228
X3.1472Y-4.8913
X3.1472Y-4.9913
X3.1472Y-5.0913
X3.1472Y-5.1913
X3.1472Y-5.2913
X3.1472Y-5.3913
X3.1472Y-5.4913
X3.1472Y-5.5913
X3.1472Y-5.6913
X3.1472Y-5.7913
X3.2472Y-2.9228
X3.2472Y-3.0228
X3.2472Y-3.1228
X3.2472Y-3.2228
X3.2472Y-3.3228
X3.2472Y-3.4228
X3.2472Y-3.5228
X3.2472Y-3.6228
X3.2472Y-3.7228
X3.2472Y-3.8228
X3.2472Y-4.8913
X3.2472Y-4.9913
X3.2472Y-5.0913
X3.2472Y-5.1913
X3.2472Y-5.2913
X3.2472Y-5.3913
X3.2472Y-5.4913
X3.2472Y-5.5913
X3.2472Y-5.6913
X3.2472Y-5.7913
X4.2732Y-2.0945
X4.2732Y-2.1945
X4.2732Y-4.063
X4.2732Y-4.163
X4.3732Y-2.0945
X4.3732Y-2.1945
X4.3732Y-4.063
X4.3732Y-4.163
X4.4732Y-2.0945
X4.4732Y-2.1945
X4.4732Y-4.063
X4.4732Y-4.163
X4.5732Y-2.0945
X4.5732Y-2.1945
X4.5732Y-4.063
X4.5732Y-4.163
X4.6732Y-2.0945
X4.6732Y-2.1945
X4.6732Y-4.063
X4.6732Y-4.163
X4.7732Y-2.0945
X4.7732Y-2.1945
X4.7732Y-4.063
X4.7732Y-4.163
M30
