%TF.GenerationSoftware,KiCad,Pcbnew,9.0.0*%
%TF.CreationDate,2025-03-22T00:53:23+02:00*%
%TF.ProjectId,MainBoard,4d61696e-426f-4617-9264-2e6b69636164,rev?*%
%TF.SameCoordinates,Original*%
%TF.FileFunction,Paste,Top*%
%TF.FilePolarity,Positive*%
%FSLAX46Y46*%
G04 Gerber Fmt 4.6, Leading zero omitted, Abs format (unit mm)*
G04 Created by KiCad (PCBNEW 9.0.0) date 2025-03-22 00:53:23*
%MOMM*%
%LPD*%
G01*
G04 APERTURE LIST*
G04 Aperture macros list*
%AMRoundRect*
0 Rectangle with rounded corners*
0 $1 Rounding radius*
0 $2 $3 $4 $5 $6 $7 $8 $9 X,Y pos of 4 corners*
0 Add a 4 corners polygon primitive as box body*
4,1,4,$2,$3,$4,$5,$6,$7,$8,$9,$2,$3,0*
0 Add four circle primitives for the rounded corners*
1,1,$1+$1,$2,$3*
1,1,$1+$1,$4,$5*
1,1,$1+$1,$6,$7*
1,1,$1+$1,$8,$9*
0 Add four rect primitives between the rounded corners*
20,1,$1+$1,$2,$3,$4,$5,0*
20,1,$1+$1,$4,$5,$6,$7,0*
20,1,$1+$1,$6,$7,$8,$9,0*
20,1,$1+$1,$8,$9,$2,$3,0*%
G04 Aperture macros list end*
%ADD10RoundRect,0.250000X-0.337500X-0.475000X0.337500X-0.475000X0.337500X0.475000X-0.337500X0.475000X0*%
%ADD11RoundRect,0.250000X0.450000X-0.350000X0.450000X0.350000X-0.450000X0.350000X-0.450000X-0.350000X0*%
%ADD12RoundRect,0.250000X0.350000X0.450000X-0.350000X0.450000X-0.350000X-0.450000X0.350000X-0.450000X0*%
%ADD13R,1.750000X0.450000*%
%ADD14RoundRect,0.162500X0.162500X-0.750000X0.162500X0.750000X-0.162500X0.750000X-0.162500X-0.750000X0*%
G04 APERTURE END LIST*
D10*
%TO.C,C5*%
X67962500Y-79500000D03*
X70037500Y-79500000D03*
%TD*%
D11*
%TO.C,R6*%
X119333333Y-83000000D03*
X119333333Y-81000000D03*
%TD*%
%TO.C,R15*%
X139733333Y-83000000D03*
X139733333Y-81000000D03*
%TD*%
%TO.C,R28*%
X135266667Y-67215000D03*
X135266667Y-65215000D03*
%TD*%
%TO.C,R29*%
X138200000Y-67215000D03*
X138200000Y-65215000D03*
%TD*%
%TO.C,R32*%
X147000000Y-67215000D03*
X147000000Y-65215000D03*
%TD*%
%TO.C,R14*%
X137466667Y-83000000D03*
X137466667Y-81000000D03*
%TD*%
%TO.C,R10*%
X128400000Y-83000000D03*
X128400000Y-81000000D03*
%TD*%
%TO.C,R4*%
X114800000Y-83000000D03*
X114800000Y-81000000D03*
%TD*%
%TO.C,R8*%
X123866667Y-83000000D03*
X123866667Y-81000000D03*
%TD*%
%TO.C,R5*%
X117066667Y-83000000D03*
X117066667Y-81000000D03*
%TD*%
%TO.C,R1*%
X108000000Y-83000000D03*
X108000000Y-81000000D03*
%TD*%
%TO.C,R20*%
X111800000Y-67215000D03*
X111800000Y-65215000D03*
%TD*%
D10*
%TO.C,C1*%
X146325000Y-57790000D03*
X148400000Y-57790000D03*
%TD*%
D11*
%TO.C,R30*%
X141133333Y-67215000D03*
X141133333Y-65215000D03*
%TD*%
%TO.C,R23*%
X120600000Y-67215000D03*
X120600000Y-65215000D03*
%TD*%
D12*
%TO.C,R36*%
X59800000Y-87000000D03*
X57800000Y-87000000D03*
%TD*%
D11*
%TO.C,R24*%
X123533333Y-67215000D03*
X123533333Y-65215000D03*
%TD*%
%TO.C,R21*%
X114733333Y-67215000D03*
X114733333Y-65215000D03*
%TD*%
D13*
%TO.C,U5*%
X140600000Y-60650000D03*
X140600000Y-60000000D03*
X140600000Y-59350000D03*
X140600000Y-58700000D03*
X140600000Y-58050000D03*
X140600000Y-57400000D03*
X140600000Y-56750000D03*
X140600000Y-56100000D03*
X140600000Y-55450000D03*
X140600000Y-54800000D03*
X140600000Y-54150000D03*
X140600000Y-53500000D03*
X140600000Y-52850000D03*
X140600000Y-52200000D03*
X133400000Y-52200000D03*
X133400000Y-52850000D03*
X133400000Y-53500000D03*
X133400000Y-54150000D03*
X133400000Y-54800000D03*
X133400000Y-55450000D03*
X133400000Y-56100000D03*
X133400000Y-56750000D03*
X133400000Y-57400000D03*
X133400000Y-58050000D03*
X133400000Y-58700000D03*
X133400000Y-59350000D03*
X133400000Y-60000000D03*
X133400000Y-60650000D03*
%TD*%
D11*
%TO.C,R19*%
X108866667Y-67215000D03*
X108866667Y-65215000D03*
%TD*%
%TO.C,R22*%
X117666667Y-67215000D03*
X117666667Y-65215000D03*
%TD*%
D12*
%TO.C,R35*%
X59800000Y-82000000D03*
X57800000Y-82000000D03*
%TD*%
D11*
%TO.C,R11*%
X130666667Y-83000000D03*
X130666667Y-81000000D03*
%TD*%
%TO.C,R25*%
X126466667Y-67215000D03*
X126466667Y-65215000D03*
%TD*%
D10*
%TO.C,C2*%
X146325000Y-60100000D03*
X148400000Y-60100000D03*
%TD*%
D11*
%TO.C,R26*%
X129400000Y-67215000D03*
X129400000Y-65215000D03*
%TD*%
%TO.C,R9*%
X126133333Y-83000000D03*
X126133333Y-81000000D03*
%TD*%
%TO.C,R13*%
X135200000Y-83000000D03*
X135200000Y-81000000D03*
%TD*%
%TO.C,R18*%
X105933333Y-67215000D03*
X105933333Y-65215000D03*
%TD*%
D14*
%TO.C,U2*%
X114491667Y-76087500D03*
X115761667Y-76087500D03*
X117031667Y-76087500D03*
X118301667Y-76087500D03*
X119571667Y-76087500D03*
X120841667Y-76087500D03*
X122111667Y-76087500D03*
X123381667Y-76087500D03*
X123381667Y-69912500D03*
X122111667Y-69912500D03*
X120841667Y-69912500D03*
X119571667Y-69912500D03*
X118301667Y-69912500D03*
X117031667Y-69912500D03*
X115761667Y-69912500D03*
X114491667Y-69912500D03*
%TD*%
D11*
%TO.C,R12*%
X132933333Y-83000000D03*
X132933333Y-81000000D03*
%TD*%
D12*
%TO.C,R34*%
X59800000Y-74200000D03*
X57800000Y-74200000D03*
%TD*%
D11*
%TO.C,R31*%
X144066667Y-67215000D03*
X144066667Y-65215000D03*
%TD*%
%TO.C,R17*%
X103000000Y-67215000D03*
X103000000Y-65215000D03*
%TD*%
D14*
%TO.C,U4*%
X138555000Y-76087500D03*
X139825000Y-76087500D03*
X141095000Y-76087500D03*
X142365000Y-76087500D03*
X143635000Y-76087500D03*
X144905000Y-76087500D03*
X146175000Y-76087500D03*
X147445000Y-76087500D03*
X147445000Y-69912500D03*
X146175000Y-69912500D03*
X144905000Y-69912500D03*
X143635000Y-69912500D03*
X142365000Y-69912500D03*
X141095000Y-69912500D03*
X139825000Y-69912500D03*
X138555000Y-69912500D03*
%TD*%
D12*
%TO.C,R33*%
X120400000Y-59100000D03*
X118400000Y-59100000D03*
%TD*%
D11*
%TO.C,R7*%
X121600000Y-83000000D03*
X121600000Y-81000000D03*
%TD*%
D14*
%TO.C,U3*%
X126523333Y-76087500D03*
X127793333Y-76087500D03*
X129063333Y-76087500D03*
X130333333Y-76087500D03*
X131603333Y-76087500D03*
X132873333Y-76087500D03*
X134143333Y-76087500D03*
X135413333Y-76087500D03*
X135413333Y-69912500D03*
X134143333Y-69912500D03*
X132873333Y-69912500D03*
X131603333Y-69912500D03*
X130333333Y-69912500D03*
X129063333Y-69912500D03*
X127793333Y-69912500D03*
X126523333Y-69912500D03*
%TD*%
D11*
%TO.C,R3*%
X112533333Y-83000000D03*
X112533333Y-81000000D03*
%TD*%
D14*
%TO.C,U1*%
X102460000Y-76087500D03*
X103730000Y-76087500D03*
X105000000Y-76087500D03*
X106270000Y-76087500D03*
X107540000Y-76087500D03*
X108810000Y-76087500D03*
X110080000Y-76087500D03*
X111350000Y-76087500D03*
X111350000Y-69912500D03*
X110080000Y-69912500D03*
X108810000Y-69912500D03*
X107540000Y-69912500D03*
X106270000Y-69912500D03*
X105000000Y-69912500D03*
X103730000Y-69912500D03*
X102460000Y-69912500D03*
%TD*%
D11*
%TO.C,R2*%
X110266667Y-83000000D03*
X110266667Y-81000000D03*
%TD*%
%TO.C,R27*%
X132333333Y-67215000D03*
X132333333Y-65215000D03*
%TD*%
%TO.C,R16*%
X142000000Y-83000000D03*
X142000000Y-81000000D03*
%TD*%
D10*
%TO.C,C5*%
X70037500Y-129500000D03*
X67962500Y-129500000D03*
%TD*%
D11*
%TO.C,R25*%
X126466667Y-117215000D03*
X126466667Y-115215000D03*
%TD*%
%TO.C,R11*%
X130666667Y-133000000D03*
X130666667Y-131000000D03*
%TD*%
D12*
%TO.C,R35*%
X59800000Y-132000000D03*
X57800000Y-132000000D03*
%TD*%
D11*
%TO.C,R22*%
X117666667Y-117215000D03*
X117666667Y-115215000D03*
%TD*%
%TO.C,R19*%
X108866667Y-117215000D03*
X108866667Y-115215000D03*
%TD*%
D13*
%TO.C,U5*%
X140600000Y-110650000D03*
X140600000Y-110000000D03*
X140600000Y-109350000D03*
X140600000Y-108700000D03*
X140600000Y-108050000D03*
X140600000Y-107400000D03*
X140600000Y-106750000D03*
X140600000Y-106100000D03*
X140600000Y-105450000D03*
X140600000Y-104800000D03*
X140600000Y-104150000D03*
X140600000Y-103500000D03*
X140600000Y-102850000D03*
X140600000Y-102200000D03*
X133400000Y-102200000D03*
X133400000Y-102850000D03*
X133400000Y-103500000D03*
X133400000Y-104150000D03*
X133400000Y-104800000D03*
X133400000Y-105450000D03*
X133400000Y-106100000D03*
X133400000Y-106750000D03*
X133400000Y-107400000D03*
X133400000Y-108050000D03*
X133400000Y-108700000D03*
X133400000Y-109350000D03*
X133400000Y-110000000D03*
X133400000Y-110650000D03*
%TD*%
D11*
%TO.C,R21*%
X114733333Y-117215000D03*
X114733333Y-115215000D03*
%TD*%
%TO.C,R24*%
X123533333Y-117215000D03*
X123533333Y-115215000D03*
%TD*%
D12*
%TO.C,R36*%
X59800000Y-137000000D03*
X57800000Y-137000000D03*
%TD*%
D11*
%TO.C,R23*%
X120600000Y-117215000D03*
X120600000Y-115215000D03*
%TD*%
%TO.C,R30*%
X141133333Y-117215000D03*
X141133333Y-115215000D03*
%TD*%
%TO.C,R2*%
X110266667Y-133000000D03*
X110266667Y-131000000D03*
%TD*%
%TO.C,R16*%
X142000000Y-133000000D03*
X142000000Y-131000000D03*
%TD*%
%TO.C,R27*%
X132333333Y-117215000D03*
X132333333Y-115215000D03*
%TD*%
%TO.C,R32*%
X147000000Y-117215000D03*
X147000000Y-115215000D03*
%TD*%
%TO.C,R20*%
X111800000Y-117215000D03*
X111800000Y-115215000D03*
%TD*%
%TO.C,R5*%
X117066667Y-133000000D03*
X117066667Y-131000000D03*
%TD*%
%TO.C,R8*%
X123866667Y-133000000D03*
X123866667Y-131000000D03*
%TD*%
%TO.C,R1*%
X108000000Y-133000000D03*
X108000000Y-131000000D03*
%TD*%
%TO.C,R4*%
X114800000Y-133000000D03*
X114800000Y-131000000D03*
%TD*%
%TO.C,R10*%
X128400000Y-133000000D03*
X128400000Y-131000000D03*
%TD*%
%TO.C,R14*%
X137466667Y-133000000D03*
X137466667Y-131000000D03*
%TD*%
%TO.C,R29*%
X138200000Y-117215000D03*
X138200000Y-115215000D03*
%TD*%
%TO.C,R28*%
X135266667Y-117215000D03*
X135266667Y-115215000D03*
%TD*%
%TO.C,R15*%
X139733333Y-133000000D03*
X139733333Y-131000000D03*
%TD*%
D10*
%TO.C,C1*%
X146325000Y-107790000D03*
X148400000Y-107790000D03*
%TD*%
D11*
%TO.C,R6*%
X119333333Y-133000000D03*
X119333333Y-131000000D03*
%TD*%
%TO.C,R12*%
X132933333Y-133000000D03*
X132933333Y-131000000D03*
%TD*%
D14*
%TO.C,U1*%
X102460000Y-126087500D03*
X103730000Y-126087500D03*
X105000000Y-126087500D03*
X106270000Y-126087500D03*
X107540000Y-126087500D03*
X108810000Y-126087500D03*
X110080000Y-126087500D03*
X111350000Y-126087500D03*
X111350000Y-119912500D03*
X110080000Y-119912500D03*
X108810000Y-119912500D03*
X107540000Y-119912500D03*
X106270000Y-119912500D03*
X105000000Y-119912500D03*
X103730000Y-119912500D03*
X102460000Y-119912500D03*
%TD*%
%TO.C,U2*%
X114491667Y-126087500D03*
X115761667Y-126087500D03*
X117031667Y-126087500D03*
X118301667Y-126087500D03*
X119571667Y-126087500D03*
X120841667Y-126087500D03*
X122111667Y-126087500D03*
X123381667Y-126087500D03*
X123381667Y-119912500D03*
X122111667Y-119912500D03*
X120841667Y-119912500D03*
X119571667Y-119912500D03*
X118301667Y-119912500D03*
X117031667Y-119912500D03*
X115761667Y-119912500D03*
X114491667Y-119912500D03*
%TD*%
D11*
%TO.C,R7*%
X121600000Y-133000000D03*
X121600000Y-131000000D03*
%TD*%
D14*
%TO.C,U4*%
X138555000Y-126087500D03*
X139825000Y-126087500D03*
X141095000Y-126087500D03*
X142365000Y-126087500D03*
X143635000Y-126087500D03*
X144905000Y-126087500D03*
X146175000Y-126087500D03*
X147445000Y-126087500D03*
X147445000Y-119912500D03*
X146175000Y-119912500D03*
X144905000Y-119912500D03*
X143635000Y-119912500D03*
X142365000Y-119912500D03*
X141095000Y-119912500D03*
X139825000Y-119912500D03*
X138555000Y-119912500D03*
%TD*%
D11*
%TO.C,R18*%
X105933333Y-117215000D03*
X105933333Y-115215000D03*
%TD*%
%TO.C,R3*%
X112533333Y-133000000D03*
X112533333Y-131000000D03*
%TD*%
D12*
%TO.C,R33*%
X120400000Y-109100000D03*
X118400000Y-109100000D03*
%TD*%
D14*
%TO.C,U3*%
X126523333Y-126087500D03*
X127793333Y-126087500D03*
X129063333Y-126087500D03*
X130333333Y-126087500D03*
X131603333Y-126087500D03*
X132873333Y-126087500D03*
X134143333Y-126087500D03*
X135413333Y-126087500D03*
X135413333Y-119912500D03*
X134143333Y-119912500D03*
X132873333Y-119912500D03*
X131603333Y-119912500D03*
X130333333Y-119912500D03*
X129063333Y-119912500D03*
X127793333Y-119912500D03*
X126523333Y-119912500D03*
%TD*%
D11*
%TO.C,R31*%
X144066667Y-117215000D03*
X144066667Y-115215000D03*
%TD*%
D12*
%TO.C,R34*%
X59800000Y-124200000D03*
X57800000Y-124200000D03*
%TD*%
D11*
%TO.C,R17*%
X103000000Y-117215000D03*
X103000000Y-115215000D03*
%TD*%
%TO.C,R13*%
X135200000Y-133000000D03*
X135200000Y-131000000D03*
%TD*%
D10*
%TO.C,C2*%
X146325000Y-110100000D03*
X148400000Y-110100000D03*
%TD*%
D11*
%TO.C,R9*%
X126133333Y-133000000D03*
X126133333Y-131000000D03*
%TD*%
%TO.C,R26*%
X129400000Y-117215000D03*
X129400000Y-115215000D03*
%TD*%
M02*
