%TF.GenerationSoftware,KiCad,Pcbnew,9.0.0*%
%TF.CreationDate,2025-03-22T00:53:23+02:00*%
%TF.ProjectId,MainBoard,4d61696e-426f-4617-9264-2e6b69636164,rev?*%
%TF.SameCoordinates,Original*%
%TF.FileFunction,Soldermask,Top*%
%TF.FilePolarity,Negative*%
%FSLAX46Y46*%
G04 Gerber Fmt 4.6, Leading zero omitted, Abs format (unit mm)*
G04 Created by KiCad (PCBNEW 9.0.0) date 2025-03-22 00:53:23*
%MOMM*%
%LPD*%
G01*
G04 APERTURE LIST*
G04 Aperture macros list*
%AMRoundRect*
0 Rectangle with rounded corners*
0 $1 Rounding radius*
0 $2 $3 $4 $5 $6 $7 $8 $9 X,Y pos of 4 corners*
0 Add a 4 corners polygon primitive as box body*
4,1,4,$2,$3,$4,$5,$6,$7,$8,$9,$2,$3,0*
0 Add four circle primitives for the rounded corners*
1,1,$1+$1,$2,$3*
1,1,$1+$1,$4,$5*
1,1,$1+$1,$6,$7*
1,1,$1+$1,$8,$9*
0 Add four rect primitives between the rounded corners*
20,1,$1+$1,$2,$3,$4,$5,0*
20,1,$1+$1,$4,$5,$6,$7,0*
20,1,$1+$1,$6,$7,$8,$9,0*
20,1,$1+$1,$8,$9,$2,$3,0*%
G04 Aperture macros list end*
%ADD10RoundRect,0.250000X-0.337500X-0.475000X0.337500X-0.475000X0.337500X0.475000X-0.337500X0.475000X0*%
%ADD11RoundRect,0.250000X0.600000X0.750000X-0.600000X0.750000X-0.600000X-0.750000X0.600000X-0.750000X0*%
%ADD12O,1.700000X2.000000*%
%ADD13C,3.200000*%
%ADD14RoundRect,0.250000X0.450000X-0.350000X0.450000X0.350000X-0.450000X0.350000X-0.450000X-0.350000X0*%
%ADD15RoundRect,0.250000X0.600000X0.725000X-0.600000X0.725000X-0.600000X-0.725000X0.600000X-0.725000X0*%
%ADD16O,1.700000X1.950000*%
%ADD17R,1.700000X1.700000*%
%ADD18O,1.700000X1.700000*%
%ADD19RoundRect,0.250000X0.350000X0.450000X-0.350000X0.450000X-0.350000X-0.450000X0.350000X-0.450000X0*%
%ADD20R,1.000000X1.500000*%
%ADD21R,1.750000X0.450000*%
%ADD22RoundRect,0.162500X0.162500X-0.750000X0.162500X0.750000X-0.162500X0.750000X-0.162500X-0.750000X0*%
G04 APERTURE END LIST*
%TO.C,A2*%
G36*
X126800000Y-58150000D02*
G01*
X125200000Y-58150000D01*
X125200000Y-56650000D01*
X126800000Y-56650000D01*
X126800000Y-58150000D01*
G37*
%TO.C,A1*%
G36*
X126800000Y-55271250D02*
G01*
X125200000Y-55271250D01*
X125200000Y-53771250D01*
X126800000Y-53771250D01*
X126800000Y-55271250D01*
G37*
%TO.C,A0*%
G36*
X126800000Y-52392500D02*
G01*
X125200000Y-52392500D01*
X125200000Y-50892500D01*
X126800000Y-50892500D01*
X126800000Y-52392500D01*
G37*
%TO.C,A2*%
G36*
X126800000Y-108150000D02*
G01*
X125200000Y-108150000D01*
X125200000Y-106650000D01*
X126800000Y-106650000D01*
X126800000Y-108150000D01*
G37*
%TO.C,A1*%
G36*
X126800000Y-105271250D02*
G01*
X125200000Y-105271250D01*
X125200000Y-103771250D01*
X126800000Y-103771250D01*
X126800000Y-105271250D01*
G37*
%TO.C,A0*%
G36*
X126800000Y-102392500D02*
G01*
X125200000Y-102392500D01*
X125200000Y-100892500D01*
X126800000Y-100892500D01*
X126800000Y-102392500D01*
G37*
%TD*%
D10*
%TO.C,C5*%
X67962500Y-79500000D03*
X70037500Y-79500000D03*
%TD*%
D11*
%TO.C,J18*%
X70250000Y-82967500D03*
D12*
X67750000Y-82967500D03*
%TD*%
D13*
%TO.C,H8*%
X60000000Y-96000000D03*
%TD*%
%TO.C,H7*%
X103000000Y-96000000D03*
%TD*%
%TO.C,H6*%
X147000000Y-96000000D03*
%TD*%
%TO.C,H5*%
X53000000Y-53000000D03*
%TD*%
D14*
%TO.C,R6*%
X119333333Y-83000000D03*
X119333333Y-81000000D03*
%TD*%
%TO.C,R15*%
X139733333Y-83000000D03*
X139733333Y-81000000D03*
%TD*%
D15*
%TO.C,J1*%
X121500000Y-87600000D03*
D16*
X119000000Y-87600000D03*
X116500000Y-87600000D03*
X114000000Y-87600000D03*
X111500000Y-87600000D03*
X109000000Y-87600000D03*
X106500000Y-87600000D03*
X104000000Y-87600000D03*
%TD*%
D15*
%TO.C,J12*%
X95900000Y-83471429D03*
D16*
X93400000Y-83471429D03*
X90900000Y-83471429D03*
X88400000Y-83471429D03*
%TD*%
D14*
%TO.C,R28*%
X135266667Y-67215000D03*
X135266667Y-65215000D03*
%TD*%
%TO.C,R29*%
X138200000Y-67215000D03*
X138200000Y-65215000D03*
%TD*%
%TO.C,R32*%
X147000000Y-67215000D03*
X147000000Y-65215000D03*
%TD*%
%TO.C,R14*%
X137466667Y-83000000D03*
X137466667Y-81000000D03*
%TD*%
%TO.C,R10*%
X128400000Y-83000000D03*
X128400000Y-81000000D03*
%TD*%
%TO.C,R4*%
X114800000Y-83000000D03*
X114800000Y-81000000D03*
%TD*%
%TO.C,R8*%
X123866667Y-83000000D03*
X123866667Y-81000000D03*
%TD*%
%TO.C,R5*%
X117066667Y-83000000D03*
X117066667Y-81000000D03*
%TD*%
%TO.C,R1*%
X108000000Y-83000000D03*
X108000000Y-81000000D03*
%TD*%
%TO.C,R20*%
X111800000Y-67215000D03*
X111800000Y-65215000D03*
%TD*%
D17*
%TO.C,J3*%
X121240000Y-53200000D03*
D18*
X121240000Y-55740000D03*
X118700000Y-53200000D03*
X118700000Y-55740000D03*
X116160000Y-53200000D03*
X116160000Y-55740000D03*
X113620000Y-53200000D03*
X113620000Y-55740000D03*
X111080000Y-53200000D03*
X111080000Y-55740000D03*
X108540000Y-53200000D03*
X108540000Y-55740000D03*
%TD*%
D10*
%TO.C,C1*%
X146325000Y-57790000D03*
X148400000Y-57790000D03*
%TD*%
D13*
%TO.C,H2*%
X147000000Y-81000000D03*
%TD*%
D14*
%TO.C,R30*%
X141133333Y-67215000D03*
X141133333Y-65215000D03*
%TD*%
D13*
%TO.C,H1*%
X103000000Y-81000000D03*
%TD*%
D15*
%TO.C,J2*%
X146000000Y-87600000D03*
D16*
X143500000Y-87600000D03*
X141000000Y-87600000D03*
X138500000Y-87600000D03*
X136000000Y-87600000D03*
X133500000Y-87600000D03*
X131000000Y-87600000D03*
X128500000Y-87600000D03*
%TD*%
D14*
%TO.C,R23*%
X120600000Y-67215000D03*
X120600000Y-65215000D03*
%TD*%
D15*
%TO.C,J15*%
X95900000Y-66028571D03*
D16*
X93400000Y-66028571D03*
X90900000Y-66028571D03*
X88400000Y-66028571D03*
%TD*%
D19*
%TO.C,R36*%
X59800000Y-87000000D03*
X57800000Y-87000000D03*
%TD*%
D15*
%TO.C,J16*%
X95900000Y-60214286D03*
D16*
X93400000Y-60214286D03*
X90900000Y-60214286D03*
X88400000Y-60214286D03*
%TD*%
D14*
%TO.C,R24*%
X123533333Y-67215000D03*
X123533333Y-65215000D03*
%TD*%
%TO.C,R21*%
X114733333Y-67215000D03*
X114733333Y-65215000D03*
%TD*%
D20*
%TO.C,A2*%
X127300000Y-57400000D03*
X126000000Y-57400000D03*
X124700000Y-57400000D03*
%TD*%
D21*
%TO.C,U5*%
X140600000Y-60650000D03*
X140600000Y-60000000D03*
X140600000Y-59350000D03*
X140600000Y-58700000D03*
X140600000Y-58050000D03*
X140600000Y-57400000D03*
X140600000Y-56750000D03*
X140600000Y-56100000D03*
X140600000Y-55450000D03*
X140600000Y-54800000D03*
X140600000Y-54150000D03*
X140600000Y-53500000D03*
X140600000Y-52850000D03*
X140600000Y-52200000D03*
X133400000Y-52200000D03*
X133400000Y-52850000D03*
X133400000Y-53500000D03*
X133400000Y-54150000D03*
X133400000Y-54800000D03*
X133400000Y-55450000D03*
X133400000Y-56100000D03*
X133400000Y-56750000D03*
X133400000Y-57400000D03*
X133400000Y-58050000D03*
X133400000Y-58700000D03*
X133400000Y-59350000D03*
X133400000Y-60000000D03*
X133400000Y-60650000D03*
%TD*%
D14*
%TO.C,R19*%
X108866667Y-67215000D03*
X108866667Y-65215000D03*
%TD*%
%TO.C,R22*%
X117666667Y-67215000D03*
X117666667Y-65215000D03*
%TD*%
D19*
%TO.C,R35*%
X59800000Y-82000000D03*
X57800000Y-82000000D03*
%TD*%
D14*
%TO.C,R11*%
X130666667Y-83000000D03*
X130666667Y-81000000D03*
%TD*%
D17*
%TO.C,J9*%
X54540000Y-97100000D03*
D18*
X52000000Y-97100000D03*
X54540000Y-94560000D03*
X52000000Y-94560000D03*
X54540000Y-92020000D03*
X52000000Y-92020000D03*
X54540000Y-89480000D03*
X52000000Y-89480000D03*
X54540000Y-86940000D03*
X52000000Y-86940000D03*
X54540000Y-84400000D03*
X52000000Y-84400000D03*
X54540000Y-81860000D03*
X52000000Y-81860000D03*
X54540000Y-79320000D03*
X52000000Y-79320000D03*
X54540000Y-76780000D03*
X52000000Y-76780000D03*
X54540000Y-74240000D03*
X52000000Y-74240000D03*
%TD*%
D17*
%TO.C,J8*%
X82480000Y-97100000D03*
D18*
X79940000Y-97100000D03*
X82480000Y-94560000D03*
X79940000Y-94560000D03*
X82480000Y-92020000D03*
X79940000Y-92020000D03*
X82480000Y-89480000D03*
X79940000Y-89480000D03*
X82480000Y-86940000D03*
X79940000Y-86940000D03*
X82480000Y-84400000D03*
X79940000Y-84400000D03*
X82480000Y-81860000D03*
X79940000Y-81860000D03*
X82480000Y-79320000D03*
X79940000Y-79320000D03*
X82480000Y-76780000D03*
X79940000Y-76780000D03*
X82480000Y-74240000D03*
X79940000Y-74240000D03*
%TD*%
D15*
%TO.C,J17*%
X95900000Y-54400000D03*
D16*
X93400000Y-54400000D03*
X90900000Y-54400000D03*
X88400000Y-54400000D03*
%TD*%
D14*
%TO.C,R25*%
X126466667Y-67215000D03*
X126466667Y-65215000D03*
%TD*%
D13*
%TO.C,H3*%
X147000000Y-53000000D03*
%TD*%
D15*
%TO.C,J13*%
X95900000Y-77657143D03*
D16*
X93400000Y-77657143D03*
X90900000Y-77657143D03*
X88400000Y-77657143D03*
%TD*%
D10*
%TO.C,C2*%
X146325000Y-60100000D03*
X148400000Y-60100000D03*
%TD*%
D15*
%TO.C,J11*%
X95900000Y-89285714D03*
D16*
X93400000Y-89285714D03*
X90900000Y-89285714D03*
X88400000Y-89285714D03*
%TD*%
D14*
%TO.C,R26*%
X129400000Y-67215000D03*
X129400000Y-65215000D03*
%TD*%
%TO.C,R9*%
X126133333Y-83000000D03*
X126133333Y-81000000D03*
%TD*%
%TO.C,R13*%
X135200000Y-83000000D03*
X135200000Y-81000000D03*
%TD*%
%TO.C,R18*%
X105933333Y-67215000D03*
X105933333Y-65215000D03*
%TD*%
D13*
%TO.C,H4*%
X103000000Y-53000000D03*
%TD*%
D22*
%TO.C,U2*%
X114491667Y-76087500D03*
X115761667Y-76087500D03*
X117031667Y-76087500D03*
X118301667Y-76087500D03*
X119571667Y-76087500D03*
X120841667Y-76087500D03*
X122111667Y-76087500D03*
X123381667Y-76087500D03*
X123381667Y-69912500D03*
X122111667Y-69912500D03*
X120841667Y-69912500D03*
X119571667Y-69912500D03*
X118301667Y-69912500D03*
X117031667Y-69912500D03*
X115761667Y-69912500D03*
X114491667Y-69912500D03*
%TD*%
D20*
%TO.C,A1*%
X127300000Y-54521250D03*
X126000000Y-54521250D03*
X124700000Y-54521250D03*
%TD*%
D14*
%TO.C,R12*%
X132933333Y-83000000D03*
X132933333Y-81000000D03*
%TD*%
D15*
%TO.C,J14*%
X95900000Y-71842857D03*
D16*
X93400000Y-71842857D03*
X90900000Y-71842857D03*
X88400000Y-71842857D03*
%TD*%
D19*
%TO.C,R34*%
X59800000Y-74200000D03*
X57800000Y-74200000D03*
%TD*%
D14*
%TO.C,R31*%
X144066667Y-67215000D03*
X144066667Y-65215000D03*
%TD*%
%TO.C,R17*%
X103000000Y-67215000D03*
X103000000Y-65215000D03*
%TD*%
D22*
%TO.C,U4*%
X138555000Y-76087500D03*
X139825000Y-76087500D03*
X141095000Y-76087500D03*
X142365000Y-76087500D03*
X143635000Y-76087500D03*
X144905000Y-76087500D03*
X146175000Y-76087500D03*
X147445000Y-76087500D03*
X147445000Y-69912500D03*
X146175000Y-69912500D03*
X144905000Y-69912500D03*
X143635000Y-69912500D03*
X142365000Y-69912500D03*
X141095000Y-69912500D03*
X139825000Y-69912500D03*
X138555000Y-69912500D03*
%TD*%
D19*
%TO.C,R33*%
X120400000Y-59100000D03*
X118400000Y-59100000D03*
%TD*%
D14*
%TO.C,R7*%
X121600000Y-83000000D03*
X121600000Y-81000000D03*
%TD*%
D22*
%TO.C,U3*%
X126523333Y-76087500D03*
X127793333Y-76087500D03*
X129063333Y-76087500D03*
X130333333Y-76087500D03*
X131603333Y-76087500D03*
X132873333Y-76087500D03*
X134143333Y-76087500D03*
X135413333Y-76087500D03*
X135413333Y-69912500D03*
X134143333Y-69912500D03*
X132873333Y-69912500D03*
X131603333Y-69912500D03*
X130333333Y-69912500D03*
X129063333Y-69912500D03*
X127793333Y-69912500D03*
X126523333Y-69912500D03*
%TD*%
D14*
%TO.C,R3*%
X112533333Y-83000000D03*
X112533333Y-81000000D03*
%TD*%
D20*
%TO.C,A0*%
X127300000Y-51642500D03*
X126000000Y-51642500D03*
X124700000Y-51642500D03*
%TD*%
D22*
%TO.C,U1*%
X102460000Y-76087500D03*
X103730000Y-76087500D03*
X105000000Y-76087500D03*
X106270000Y-76087500D03*
X107540000Y-76087500D03*
X108810000Y-76087500D03*
X110080000Y-76087500D03*
X111350000Y-76087500D03*
X111350000Y-69912500D03*
X110080000Y-69912500D03*
X108810000Y-69912500D03*
X107540000Y-69912500D03*
X106270000Y-69912500D03*
X105000000Y-69912500D03*
X103730000Y-69912500D03*
X102460000Y-69912500D03*
%TD*%
D15*
%TO.C,J10*%
X95900000Y-95100000D03*
D16*
X93400000Y-95100000D03*
X90900000Y-95100000D03*
X88400000Y-95100000D03*
%TD*%
D14*
%TO.C,R2*%
X110266667Y-83000000D03*
X110266667Y-81000000D03*
%TD*%
%TO.C,R27*%
X132333333Y-67215000D03*
X132333333Y-65215000D03*
%TD*%
%TO.C,R16*%
X142000000Y-83000000D03*
X142000000Y-81000000D03*
%TD*%
D12*
%TO.C,J18*%
X67750000Y-132967500D03*
D11*
X70250000Y-132967500D03*
%TD*%
D10*
%TO.C,C5*%
X70037500Y-129500000D03*
X67962500Y-129500000D03*
%TD*%
D13*
%TO.C,H8*%
X60000000Y-146000000D03*
%TD*%
%TO.C,H7*%
X103000000Y-146000000D03*
%TD*%
%TO.C,H6*%
X147000000Y-146000000D03*
%TD*%
%TO.C,H5*%
X53000000Y-103000000D03*
%TD*%
D14*
%TO.C,R25*%
X126466667Y-117215000D03*
X126466667Y-115215000D03*
%TD*%
D15*
%TO.C,J17*%
X95900000Y-104400000D03*
D16*
X93400000Y-104400000D03*
X90900000Y-104400000D03*
X88400000Y-104400000D03*
%TD*%
D14*
%TO.C,R11*%
X130666667Y-133000000D03*
X130666667Y-131000000D03*
%TD*%
D19*
%TO.C,R35*%
X59800000Y-132000000D03*
X57800000Y-132000000D03*
%TD*%
D14*
%TO.C,R22*%
X117666667Y-117215000D03*
X117666667Y-115215000D03*
%TD*%
%TO.C,R19*%
X108866667Y-117215000D03*
X108866667Y-115215000D03*
%TD*%
D21*
%TO.C,U5*%
X140600000Y-110650000D03*
X140600000Y-110000000D03*
X140600000Y-109350000D03*
X140600000Y-108700000D03*
X140600000Y-108050000D03*
X140600000Y-107400000D03*
X140600000Y-106750000D03*
X140600000Y-106100000D03*
X140600000Y-105450000D03*
X140600000Y-104800000D03*
X140600000Y-104150000D03*
X140600000Y-103500000D03*
X140600000Y-102850000D03*
X140600000Y-102200000D03*
X133400000Y-102200000D03*
X133400000Y-102850000D03*
X133400000Y-103500000D03*
X133400000Y-104150000D03*
X133400000Y-104800000D03*
X133400000Y-105450000D03*
X133400000Y-106100000D03*
X133400000Y-106750000D03*
X133400000Y-107400000D03*
X133400000Y-108050000D03*
X133400000Y-108700000D03*
X133400000Y-109350000D03*
X133400000Y-110000000D03*
X133400000Y-110650000D03*
%TD*%
D20*
%TO.C,A2*%
X127300000Y-107400000D03*
X126000000Y-107400000D03*
X124700000Y-107400000D03*
%TD*%
D14*
%TO.C,R21*%
X114733333Y-117215000D03*
X114733333Y-115215000D03*
%TD*%
%TO.C,R24*%
X123533333Y-117215000D03*
X123533333Y-115215000D03*
%TD*%
D15*
%TO.C,J16*%
X95900000Y-110214286D03*
D16*
X93400000Y-110214286D03*
X90900000Y-110214286D03*
X88400000Y-110214286D03*
%TD*%
D19*
%TO.C,R36*%
X59800000Y-137000000D03*
X57800000Y-137000000D03*
%TD*%
D15*
%TO.C,J15*%
X95900000Y-116028571D03*
D16*
X93400000Y-116028571D03*
X90900000Y-116028571D03*
X88400000Y-116028571D03*
%TD*%
D14*
%TO.C,R23*%
X120600000Y-117215000D03*
X120600000Y-115215000D03*
%TD*%
D15*
%TO.C,J2*%
X146000000Y-137600000D03*
D16*
X143500000Y-137600000D03*
X141000000Y-137600000D03*
X138500000Y-137600000D03*
X136000000Y-137600000D03*
X133500000Y-137600000D03*
X131000000Y-137600000D03*
X128500000Y-137600000D03*
%TD*%
D13*
%TO.C,H1*%
X103000000Y-131000000D03*
%TD*%
D14*
%TO.C,R30*%
X141133333Y-117215000D03*
X141133333Y-115215000D03*
%TD*%
%TO.C,R2*%
X110266667Y-133000000D03*
X110266667Y-131000000D03*
%TD*%
%TO.C,R16*%
X142000000Y-133000000D03*
X142000000Y-131000000D03*
%TD*%
%TO.C,R27*%
X132333333Y-117215000D03*
X132333333Y-115215000D03*
%TD*%
%TO.C,R32*%
X147000000Y-117215000D03*
X147000000Y-115215000D03*
%TD*%
%TO.C,R20*%
X111800000Y-117215000D03*
X111800000Y-115215000D03*
%TD*%
%TO.C,R5*%
X117066667Y-133000000D03*
X117066667Y-131000000D03*
%TD*%
%TO.C,R8*%
X123866667Y-133000000D03*
X123866667Y-131000000D03*
%TD*%
%TO.C,R1*%
X108000000Y-133000000D03*
X108000000Y-131000000D03*
%TD*%
D17*
%TO.C,J8*%
X82480000Y-147100000D03*
D18*
X79940000Y-147100000D03*
X82480000Y-144560000D03*
X79940000Y-144560000D03*
X82480000Y-142020000D03*
X79940000Y-142020000D03*
X82480000Y-139480000D03*
X79940000Y-139480000D03*
X82480000Y-136940000D03*
X79940000Y-136940000D03*
X82480000Y-134400000D03*
X79940000Y-134400000D03*
X82480000Y-131860000D03*
X79940000Y-131860000D03*
X82480000Y-129320000D03*
X79940000Y-129320000D03*
X82480000Y-126780000D03*
X79940000Y-126780000D03*
X82480000Y-124240000D03*
X79940000Y-124240000D03*
%TD*%
D14*
%TO.C,R4*%
X114800000Y-133000000D03*
X114800000Y-131000000D03*
%TD*%
%TO.C,R10*%
X128400000Y-133000000D03*
X128400000Y-131000000D03*
%TD*%
%TO.C,R14*%
X137466667Y-133000000D03*
X137466667Y-131000000D03*
%TD*%
%TO.C,R29*%
X138200000Y-117215000D03*
X138200000Y-115215000D03*
%TD*%
%TO.C,R28*%
X135266667Y-117215000D03*
X135266667Y-115215000D03*
%TD*%
D15*
%TO.C,J12*%
X95900000Y-133471429D03*
D16*
X93400000Y-133471429D03*
X90900000Y-133471429D03*
X88400000Y-133471429D03*
%TD*%
D15*
%TO.C,J1*%
X121500000Y-137600000D03*
D16*
X119000000Y-137600000D03*
X116500000Y-137600000D03*
X114000000Y-137600000D03*
X111500000Y-137600000D03*
X109000000Y-137600000D03*
X106500000Y-137600000D03*
X104000000Y-137600000D03*
%TD*%
D14*
%TO.C,R15*%
X139733333Y-133000000D03*
X139733333Y-131000000D03*
%TD*%
D13*
%TO.C,H2*%
X147000000Y-131000000D03*
%TD*%
D10*
%TO.C,C1*%
X146325000Y-107790000D03*
X148400000Y-107790000D03*
%TD*%
D14*
%TO.C,R6*%
X119333333Y-133000000D03*
X119333333Y-131000000D03*
%TD*%
D17*
%TO.C,J3*%
X121240000Y-103200000D03*
D18*
X121240000Y-105740000D03*
X118700000Y-103200000D03*
X118700000Y-105740000D03*
X116160000Y-103200000D03*
X116160000Y-105740000D03*
X113620000Y-103200000D03*
X113620000Y-105740000D03*
X111080000Y-103200000D03*
X111080000Y-105740000D03*
X108540000Y-103200000D03*
X108540000Y-105740000D03*
%TD*%
D14*
%TO.C,R12*%
X132933333Y-133000000D03*
X132933333Y-131000000D03*
%TD*%
D22*
%TO.C,U1*%
X102460000Y-126087500D03*
X103730000Y-126087500D03*
X105000000Y-126087500D03*
X106270000Y-126087500D03*
X107540000Y-126087500D03*
X108810000Y-126087500D03*
X110080000Y-126087500D03*
X111350000Y-126087500D03*
X111350000Y-119912500D03*
X110080000Y-119912500D03*
X108810000Y-119912500D03*
X107540000Y-119912500D03*
X106270000Y-119912500D03*
X105000000Y-119912500D03*
X103730000Y-119912500D03*
X102460000Y-119912500D03*
%TD*%
%TO.C,U2*%
X114491667Y-126087500D03*
X115761667Y-126087500D03*
X117031667Y-126087500D03*
X118301667Y-126087500D03*
X119571667Y-126087500D03*
X120841667Y-126087500D03*
X122111667Y-126087500D03*
X123381667Y-126087500D03*
X123381667Y-119912500D03*
X122111667Y-119912500D03*
X120841667Y-119912500D03*
X119571667Y-119912500D03*
X118301667Y-119912500D03*
X117031667Y-119912500D03*
X115761667Y-119912500D03*
X114491667Y-119912500D03*
%TD*%
D15*
%TO.C,J14*%
X95900000Y-121842857D03*
D16*
X93400000Y-121842857D03*
X90900000Y-121842857D03*
X88400000Y-121842857D03*
%TD*%
D14*
%TO.C,R7*%
X121600000Y-133000000D03*
X121600000Y-131000000D03*
%TD*%
D20*
%TO.C,A1*%
X127300000Y-104521250D03*
X126000000Y-104521250D03*
X124700000Y-104521250D03*
%TD*%
D22*
%TO.C,U4*%
X138555000Y-126087500D03*
X139825000Y-126087500D03*
X141095000Y-126087500D03*
X142365000Y-126087500D03*
X143635000Y-126087500D03*
X144905000Y-126087500D03*
X146175000Y-126087500D03*
X147445000Y-126087500D03*
X147445000Y-119912500D03*
X146175000Y-119912500D03*
X144905000Y-119912500D03*
X143635000Y-119912500D03*
X142365000Y-119912500D03*
X141095000Y-119912500D03*
X139825000Y-119912500D03*
X138555000Y-119912500D03*
%TD*%
D17*
%TO.C,J9*%
X54540000Y-147100000D03*
D18*
X52000000Y-147100000D03*
X54540000Y-144560000D03*
X52000000Y-144560000D03*
X54540000Y-142020000D03*
X52000000Y-142020000D03*
X54540000Y-139480000D03*
X52000000Y-139480000D03*
X54540000Y-136940000D03*
X52000000Y-136940000D03*
X54540000Y-134400000D03*
X52000000Y-134400000D03*
X54540000Y-131860000D03*
X52000000Y-131860000D03*
X54540000Y-129320000D03*
X52000000Y-129320000D03*
X54540000Y-126780000D03*
X52000000Y-126780000D03*
X54540000Y-124240000D03*
X52000000Y-124240000D03*
%TD*%
D13*
%TO.C,H4*%
X103000000Y-103000000D03*
%TD*%
D15*
%TO.C,J10*%
X95900000Y-145100000D03*
D16*
X93400000Y-145100000D03*
X90900000Y-145100000D03*
X88400000Y-145100000D03*
%TD*%
D14*
%TO.C,R18*%
X105933333Y-117215000D03*
X105933333Y-115215000D03*
%TD*%
D20*
%TO.C,A0*%
X127300000Y-101642500D03*
X126000000Y-101642500D03*
X124700000Y-101642500D03*
%TD*%
D14*
%TO.C,R3*%
X112533333Y-133000000D03*
X112533333Y-131000000D03*
%TD*%
D19*
%TO.C,R33*%
X120400000Y-109100000D03*
X118400000Y-109100000D03*
%TD*%
D22*
%TO.C,U3*%
X126523333Y-126087500D03*
X127793333Y-126087500D03*
X129063333Y-126087500D03*
X130333333Y-126087500D03*
X131603333Y-126087500D03*
X132873333Y-126087500D03*
X134143333Y-126087500D03*
X135413333Y-126087500D03*
X135413333Y-119912500D03*
X134143333Y-119912500D03*
X132873333Y-119912500D03*
X131603333Y-119912500D03*
X130333333Y-119912500D03*
X129063333Y-119912500D03*
X127793333Y-119912500D03*
X126523333Y-119912500D03*
%TD*%
D14*
%TO.C,R31*%
X144066667Y-117215000D03*
X144066667Y-115215000D03*
%TD*%
D19*
%TO.C,R34*%
X59800000Y-124200000D03*
X57800000Y-124200000D03*
%TD*%
D14*
%TO.C,R17*%
X103000000Y-117215000D03*
X103000000Y-115215000D03*
%TD*%
D15*
%TO.C,J13*%
X95900000Y-127657143D03*
D16*
X93400000Y-127657143D03*
X90900000Y-127657143D03*
X88400000Y-127657143D03*
%TD*%
D14*
%TO.C,R13*%
X135200000Y-133000000D03*
X135200000Y-131000000D03*
%TD*%
D15*
%TO.C,J11*%
X95900000Y-139285714D03*
D16*
X93400000Y-139285714D03*
X90900000Y-139285714D03*
X88400000Y-139285714D03*
%TD*%
D10*
%TO.C,C2*%
X146325000Y-110100000D03*
X148400000Y-110100000D03*
%TD*%
D13*
%TO.C,H3*%
X147000000Y-103000000D03*
%TD*%
D14*
%TO.C,R9*%
X126133333Y-133000000D03*
X126133333Y-131000000D03*
%TD*%
%TO.C,R26*%
X129400000Y-117215000D03*
X129400000Y-115215000D03*
%TD*%
M02*
