%TF.GenerationSoftware,KiCad,Pcbnew,9.0.0*%
%TF.CreationDate,2025-04-02T11:16:36+03:00*%
%TF.ProjectId,Power,506f7765-722e-46b6-9963-61645f706362,rev?*%
%TF.SameCoordinates,Original*%
%TF.FileFunction,Copper,L1,Top*%
%TF.FilePolarity,Positive*%
%FSLAX46Y46*%
G04 Gerber Fmt 4.6, Leading zero omitted, Abs format (unit mm)*
G04 Created by KiCad (PCBNEW 9.0.0) date 2025-04-02 11:16:36*
%MOMM*%
%LPD*%
G01*
G04 APERTURE LIST*
G04 Aperture macros list*
%AMRoundRect*
0 Rectangle with rounded corners*
0 $1 Rounding radius*
0 $2 $3 $4 $5 $6 $7 $8 $9 X,Y pos of 4 corners*
0 Add a 4 corners polygon primitive as box body*
4,1,4,$2,$3,$4,$5,$6,$7,$8,$9,$2,$3,0*
0 Add four circle primitives for the rounded corners*
1,1,$1+$1,$2,$3*
1,1,$1+$1,$4,$5*
1,1,$1+$1,$6,$7*
1,1,$1+$1,$8,$9*
0 Add four rect primitives between the rounded corners*
20,1,$1+$1,$2,$3,$4,$5,0*
20,1,$1+$1,$4,$5,$6,$7,0*
20,1,$1+$1,$6,$7,$8,$9,0*
20,1,$1+$1,$8,$9,$2,$3,0*%
G04 Aperture macros list end*
%TA.AperFunction,ComponentPad*%
%ADD10R,3.000000X3.000000*%
%TD*%
%TA.AperFunction,ComponentPad*%
%ADD11C,3.000000*%
%TD*%
%TA.AperFunction,ComponentPad*%
%ADD12R,1.600000X1.600000*%
%TD*%
%TA.AperFunction,ComponentPad*%
%ADD13C,1.600000*%
%TD*%
%TA.AperFunction,ComponentPad*%
%ADD14RoundRect,0.250000X-0.600000X-0.725000X0.600000X-0.725000X0.600000X0.725000X-0.600000X0.725000X0*%
%TD*%
%TA.AperFunction,ComponentPad*%
%ADD15O,1.700000X1.950000*%
%TD*%
%TA.AperFunction,SMDPad,CuDef*%
%ADD16RoundRect,0.250000X0.475000X-0.337500X0.475000X0.337500X-0.475000X0.337500X-0.475000X-0.337500X0*%
%TD*%
%TA.AperFunction,ComponentPad*%
%ADD17RoundRect,0.250000X1.050000X1.050000X-1.050000X1.050000X-1.050000X-1.050000X1.050000X-1.050000X0*%
%TD*%
%TA.AperFunction,ComponentPad*%
%ADD18C,2.600000*%
%TD*%
%TA.AperFunction,ViaPad*%
%ADD19C,0.700000*%
%TD*%
%TA.AperFunction,Conductor*%
%ADD20C,0.500000*%
%TD*%
G04 APERTURE END LIST*
D10*
%TO.P,PS1,1,AC/N*%
%TO.N,VAC*%
X97250000Y-92500000D03*
D11*
%TO.P,PS1,2,AC/L*%
%TO.N,AC*%
X108000000Y-92500000D03*
%TO.P,PS1,3,-Vo*%
%TO.N,GND2*%
X108000000Y-54000000D03*
%TO.P,PS1,4,+Vo*%
%TO.N,+24V*%
X100000000Y-54000000D03*
%TD*%
D12*
%TO.P,C3,1*%
%TO.N,+24V*%
X82000000Y-55000000D03*
D13*
%TO.P,C3,2*%
%TO.N,GND2*%
X82000000Y-52500000D03*
%TD*%
D14*
%TO.P,J3,1,Pin_1*%
%TO.N,+12V*%
X58000000Y-89683333D03*
D15*
%TO.P,J3,2,Pin_2*%
X60500000Y-89683333D03*
%TO.P,J3,3,Pin_3*%
X63000000Y-89683333D03*
%TO.P,J3,4,Pin_4*%
X65500000Y-89683333D03*
%TO.P,J3,5,Pin_5*%
X68000000Y-89683333D03*
%TO.P,J3,6,Pin_6*%
X70500000Y-89683333D03*
%TO.P,J3,7,Pin_7*%
X73000000Y-89683333D03*
%TO.P,J3,8,Pin_8*%
X75500000Y-89683333D03*
%TD*%
D16*
%TO.P,C4,1*%
%TO.N,+24V*%
X80000000Y-62787500D03*
%TO.P,C4,2*%
%TO.N,GND2*%
X80000000Y-60712500D03*
%TD*%
D12*
%TO.P,C1,1*%
%TO.N,+12V*%
X82000000Y-93500000D03*
D13*
%TO.P,C1,2*%
%TO.N,GND*%
X82000000Y-96000000D03*
%TD*%
D16*
%TO.P,C2,1*%
%TO.N,+12V*%
X80000000Y-88287500D03*
%TO.P,C2,2*%
%TO.N,GND*%
X80000000Y-86212500D03*
%TD*%
D14*
%TO.P,J7,1,Pin_1*%
%TO.N,+24V*%
X58000000Y-76000000D03*
D15*
%TO.P,J7,2,Pin_2*%
X60500000Y-76000000D03*
%TO.P,J7,3,Pin_3*%
X63000000Y-76000000D03*
%TO.P,J7,4,Pin_4*%
X65500000Y-76000000D03*
%TO.P,J7,5,Pin_5*%
X68000000Y-76000000D03*
%TO.P,J7,6,Pin_6*%
X70500000Y-76000000D03*
%TO.P,J7,7,Pin_7*%
X73000000Y-76000000D03*
%TO.P,J7,8,Pin_8*%
X75500000Y-76000000D03*
%TD*%
D14*
%TO.P,J6,1,Pin_1*%
%TO.N,+24V*%
X58000000Y-70233333D03*
D15*
%TO.P,J6,2,Pin_2*%
X60500000Y-70233333D03*
%TO.P,J6,3,Pin_3*%
X63000000Y-70233333D03*
%TO.P,J6,4,Pin_4*%
X65500000Y-70233333D03*
%TO.P,J6,5,Pin_5*%
X68000000Y-70233333D03*
%TO.P,J6,6,Pin_6*%
X70500000Y-70233333D03*
%TO.P,J6,7,Pin_7*%
X73000000Y-70233333D03*
%TO.P,J6,8,Pin_8*%
X75500000Y-70233333D03*
%TD*%
D14*
%TO.P,J2,1,Pin_1*%
%TO.N,GND*%
X58000000Y-84000000D03*
D15*
%TO.P,J2,2,Pin_2*%
X60500000Y-84000000D03*
%TO.P,J2,3,Pin_3*%
X63000000Y-84000000D03*
%TO.P,J2,4,Pin_4*%
X65500000Y-84000000D03*
%TO.P,J2,5,Pin_5*%
X68000000Y-84000000D03*
%TO.P,J2,6,Pin_6*%
X70500000Y-84000000D03*
%TO.P,J2,7,Pin_7*%
X73000000Y-84000000D03*
%TO.P,J2,8,Pin_8*%
X75500000Y-84000000D03*
%TD*%
D17*
%TO.P,J1,1,Pin_1*%
%TO.N,AC*%
X147080000Y-84000000D03*
D18*
%TO.P,J1,2,Pin_2*%
%TO.N,VAC*%
X142000000Y-84000000D03*
%TD*%
D14*
%TO.P,J4,1,Pin_1*%
%TO.N,GND2*%
X58000000Y-58700000D03*
D15*
%TO.P,J4,2,Pin_2*%
X60500000Y-58700000D03*
%TO.P,J4,3,Pin_3*%
X63000000Y-58700000D03*
%TO.P,J4,4,Pin_4*%
X65500000Y-58700000D03*
%TO.P,J4,5,Pin_5*%
X68000000Y-58700000D03*
%TO.P,J4,6,Pin_6*%
X70500000Y-58700000D03*
%TO.P,J4,7,Pin_7*%
X73000000Y-58700000D03*
%TO.P,J4,8,Pin_8*%
X75500000Y-58700000D03*
%TD*%
D10*
%TO.P,PS2,1,AC/N*%
%TO.N,VAC*%
X123750000Y-92500000D03*
D11*
%TO.P,PS2,2,AC/L*%
%TO.N,AC*%
X134500000Y-92500000D03*
%TO.P,PS2,3,-Vo*%
%TO.N,GND*%
X134500000Y-54000000D03*
%TO.P,PS2,4,+Vo*%
%TO.N,+12V*%
X126500000Y-54000000D03*
%TD*%
D14*
%TO.P,J5,1,Pin_1*%
%TO.N,+24V*%
X58000000Y-64466667D03*
D15*
%TO.P,J5,2,Pin_2*%
X60500000Y-64466667D03*
%TO.P,J5,3,Pin_3*%
X63000000Y-64466667D03*
%TO.P,J5,4,Pin_4*%
X65500000Y-64466667D03*
%TO.P,J5,5,Pin_5*%
X68000000Y-64466667D03*
%TO.P,J5,6,Pin_6*%
X70500000Y-64466667D03*
%TO.P,J5,7,Pin_7*%
X73000000Y-64466667D03*
%TO.P,J5,8,Pin_8*%
X75500000Y-64466667D03*
%TD*%
D19*
%TO.N,GND*%
X127000000Y-58000000D03*
X131000000Y-58000000D03*
X135000000Y-58000000D03*
X135000000Y-62000000D03*
X131000000Y-62000000D03*
X127000000Y-62000000D03*
X123000000Y-62000000D03*
X119000000Y-66000000D03*
X123000000Y-66000000D03*
X127000000Y-66000000D03*
X131000000Y-66000000D03*
X135000000Y-66000000D03*
X135000000Y-70000000D03*
X131000000Y-70000000D03*
X127000000Y-70000000D03*
X123000000Y-70000000D03*
X119000000Y-70000000D03*
X115000000Y-70000000D03*
X115000000Y-74000000D03*
X119000000Y-74000000D03*
X123000000Y-74000000D03*
X127000000Y-74000000D03*
X131000000Y-74000000D03*
X135000000Y-74000000D03*
X67000000Y-94000000D03*
X73000000Y-97000000D03*
X61000000Y-94000000D03*
X67000000Y-97000000D03*
X64000000Y-97000000D03*
X70000000Y-97000000D03*
X61000000Y-97000000D03*
X58000000Y-97000000D03*
X76000000Y-97000000D03*
X70000000Y-94000000D03*
X76000000Y-94000000D03*
X64000000Y-94000000D03*
X58000000Y-94000000D03*
X73000000Y-94000000D03*
%TO.N,GND2*%
X70000000Y-52000000D03*
X67000000Y-55000000D03*
X76000000Y-55000000D03*
X61000000Y-55000000D03*
X70000000Y-55000000D03*
X58000000Y-55000000D03*
X61000000Y-52000000D03*
X58000000Y-52000000D03*
X76000000Y-52000000D03*
X73000000Y-55000000D03*
X64000000Y-52000000D03*
X67000000Y-52000000D03*
X64000000Y-55000000D03*
X73000000Y-52000000D03*
%TD*%
D20*
%TO.N,+12V*%
X78604167Y-89683333D02*
X80000000Y-88287500D01*
X73000000Y-89683333D02*
X75500000Y-89683333D01*
X63000000Y-89683333D02*
X60500000Y-89683333D01*
X68000000Y-89683333D02*
X70500000Y-89683333D01*
X78183333Y-89683333D02*
X82000000Y-93500000D01*
X63000000Y-89683333D02*
X65500000Y-89683333D01*
X65500000Y-89683333D02*
X68000000Y-89683333D01*
X58000000Y-89683333D02*
X60500000Y-89683333D01*
X80000000Y-88287500D02*
X92212500Y-88287500D01*
X92212500Y-88287500D02*
X126500000Y-54000000D01*
X75500000Y-89683333D02*
X78183333Y-89683333D01*
X78183333Y-89683333D02*
X78604167Y-89683333D01*
X70500000Y-89683333D02*
X73000000Y-89683333D01*
%TO.N,+24V*%
X73000000Y-64466667D02*
X75500000Y-64466667D01*
X82000000Y-55000000D02*
X82000000Y-60787500D01*
X65500000Y-76000000D02*
X63000000Y-76000000D01*
X65500000Y-70233333D02*
X68000000Y-70233333D01*
X82000000Y-60787500D02*
X80000000Y-62787500D01*
X82000000Y-55000000D02*
X99000000Y-55000000D01*
X75500000Y-64466667D02*
X78320833Y-64466667D01*
X73000000Y-70233333D02*
X75500000Y-70233333D01*
X70500000Y-70233333D02*
X73000000Y-70233333D01*
X91212500Y-62787500D02*
X100000000Y-54000000D01*
X68000000Y-64466667D02*
X70500000Y-64466667D01*
X68000000Y-76000000D02*
X65500000Y-76000000D01*
X58000000Y-76000000D02*
X58000000Y-70233333D01*
X70500000Y-76000000D02*
X68000000Y-76000000D01*
X73000000Y-76000000D02*
X70500000Y-76000000D01*
X68000000Y-70233333D02*
X70500000Y-70233333D01*
X63000000Y-76000000D02*
X60500000Y-76000000D01*
X75500000Y-70233333D02*
X75500000Y-76000000D01*
X70500000Y-64466667D02*
X73000000Y-64466667D01*
X80000000Y-62787500D02*
X91212500Y-62787500D01*
X58000000Y-70233333D02*
X60500000Y-70233333D01*
X58000000Y-70233333D02*
X58000000Y-64466667D01*
X63000000Y-70233333D02*
X65500000Y-70233333D01*
X60500000Y-76000000D02*
X58000000Y-76000000D01*
X60500000Y-64466667D02*
X63000000Y-64466667D01*
X75500000Y-76000000D02*
X73000000Y-76000000D01*
X63000000Y-64466667D02*
X65500000Y-64466667D01*
X78320833Y-64466667D02*
X80000000Y-62787500D01*
X75500000Y-64466667D02*
X75500000Y-70233333D01*
X60500000Y-70233333D02*
X63000000Y-70233333D01*
X65500000Y-64466667D02*
X68000000Y-64466667D01*
X58000000Y-64466667D02*
X60500000Y-64466667D01*
%TD*%
%TA.AperFunction,Conductor*%
%TO.N,GND2*%
G36*
X60057370Y-58516657D02*
G01*
X60025000Y-58637465D01*
X60025000Y-58762535D01*
X60057370Y-58883343D01*
X60095854Y-58950000D01*
X58404146Y-58950000D01*
X58442630Y-58883343D01*
X58475000Y-58762535D01*
X58475000Y-58637465D01*
X58442630Y-58516657D01*
X58404146Y-58450000D01*
X60095854Y-58450000D01*
X60057370Y-58516657D01*
G37*
%TD.AperFunction*%
%TA.AperFunction,Conductor*%
G36*
X62557370Y-58516657D02*
G01*
X62525000Y-58637465D01*
X62525000Y-58762535D01*
X62557370Y-58883343D01*
X62595854Y-58950000D01*
X60904146Y-58950000D01*
X60942630Y-58883343D01*
X60975000Y-58762535D01*
X60975000Y-58637465D01*
X60942630Y-58516657D01*
X60904146Y-58450000D01*
X62595854Y-58450000D01*
X62557370Y-58516657D01*
G37*
%TD.AperFunction*%
%TA.AperFunction,Conductor*%
G36*
X65057370Y-58516657D02*
G01*
X65025000Y-58637465D01*
X65025000Y-58762535D01*
X65057370Y-58883343D01*
X65095854Y-58950000D01*
X63404146Y-58950000D01*
X63442630Y-58883343D01*
X63475000Y-58762535D01*
X63475000Y-58637465D01*
X63442630Y-58516657D01*
X63404146Y-58450000D01*
X65095854Y-58450000D01*
X65057370Y-58516657D01*
G37*
%TD.AperFunction*%
%TA.AperFunction,Conductor*%
G36*
X67557370Y-58516657D02*
G01*
X67525000Y-58637465D01*
X67525000Y-58762535D01*
X67557370Y-58883343D01*
X67595854Y-58950000D01*
X65904146Y-58950000D01*
X65942630Y-58883343D01*
X65975000Y-58762535D01*
X65975000Y-58637465D01*
X65942630Y-58516657D01*
X65904146Y-58450000D01*
X67595854Y-58450000D01*
X67557370Y-58516657D01*
G37*
%TD.AperFunction*%
%TA.AperFunction,Conductor*%
G36*
X70057370Y-58516657D02*
G01*
X70025000Y-58637465D01*
X70025000Y-58762535D01*
X70057370Y-58883343D01*
X70095854Y-58950000D01*
X68404146Y-58950000D01*
X68442630Y-58883343D01*
X68475000Y-58762535D01*
X68475000Y-58637465D01*
X68442630Y-58516657D01*
X68404146Y-58450000D01*
X70095854Y-58450000D01*
X70057370Y-58516657D01*
G37*
%TD.AperFunction*%
%TA.AperFunction,Conductor*%
G36*
X72557370Y-58516657D02*
G01*
X72525000Y-58637465D01*
X72525000Y-58762535D01*
X72557370Y-58883343D01*
X72595854Y-58950000D01*
X70904146Y-58950000D01*
X70942630Y-58883343D01*
X70975000Y-58762535D01*
X70975000Y-58637465D01*
X70942630Y-58516657D01*
X70904146Y-58450000D01*
X72595854Y-58450000D01*
X72557370Y-58516657D01*
G37*
%TD.AperFunction*%
%TA.AperFunction,Conductor*%
G36*
X75057370Y-58516657D02*
G01*
X75025000Y-58637465D01*
X75025000Y-58762535D01*
X75057370Y-58883343D01*
X75095854Y-58950000D01*
X73404146Y-58950000D01*
X73442630Y-58883343D01*
X73475000Y-58762535D01*
X73475000Y-58637465D01*
X73442630Y-58516657D01*
X73404146Y-58450000D01*
X75095854Y-58450000D01*
X75057370Y-58516657D01*
G37*
%TD.AperFunction*%
%TA.AperFunction,Conductor*%
G36*
X111943039Y-50020185D02*
G01*
X111988794Y-50072989D01*
X112000000Y-50124500D01*
X112000000Y-64876000D01*
X111980315Y-64943039D01*
X111927511Y-64988794D01*
X111876000Y-65000000D01*
X81000000Y-65000000D01*
X81000000Y-78876000D01*
X80980315Y-78943039D01*
X80927511Y-78988794D01*
X80876000Y-79000000D01*
X50124500Y-79000000D01*
X50057461Y-78980315D01*
X50011706Y-78927511D01*
X50000500Y-78876000D01*
X50000500Y-63691650D01*
X56649500Y-63691650D01*
X56649500Y-65241668D01*
X56649501Y-65241685D01*
X56660000Y-65344463D01*
X56660001Y-65344466D01*
X56705894Y-65482961D01*
X56715186Y-65511001D01*
X56807288Y-65660323D01*
X56931344Y-65784379D01*
X57080666Y-65876481D01*
X57164505Y-65904262D01*
X57221948Y-65944033D01*
X57248772Y-66008549D01*
X57249500Y-66021967D01*
X57249500Y-68678032D01*
X57229815Y-68745071D01*
X57177011Y-68790826D01*
X57164507Y-68795736D01*
X57131962Y-68806521D01*
X57080668Y-68823518D01*
X57080663Y-68823520D01*
X56931342Y-68915622D01*
X56807289Y-69039675D01*
X56715187Y-69188996D01*
X56715185Y-69189001D01*
X56710325Y-69203667D01*
X56660001Y-69355536D01*
X56660001Y-69355537D01*
X56660000Y-69355537D01*
X56649500Y-69458316D01*
X56649500Y-71008334D01*
X56649501Y-71008351D01*
X56660000Y-71111129D01*
X56660001Y-71111132D01*
X56705894Y-71249627D01*
X56715186Y-71277667D01*
X56807288Y-71426989D01*
X56931344Y-71551045D01*
X57080666Y-71643147D01*
X57164505Y-71670928D01*
X57221948Y-71710699D01*
X57248772Y-71775215D01*
X57249500Y-71788633D01*
X57249500Y-74444699D01*
X57229815Y-74511738D01*
X57177011Y-74557493D01*
X57164507Y-74562403D01*
X57131962Y-74573188D01*
X57080668Y-74590185D01*
X57080663Y-74590187D01*
X56931342Y-74682289D01*
X56807289Y-74806342D01*
X56715187Y-74955663D01*
X56715185Y-74955668D01*
X56710325Y-74970334D01*
X56660001Y-75122203D01*
X56660001Y-75122204D01*
X56660000Y-75122204D01*
X56649500Y-75224983D01*
X56649500Y-76775001D01*
X56649501Y-76775018D01*
X56660000Y-76877796D01*
X56660001Y-76877799D01*
X56705894Y-77016294D01*
X56715186Y-77044334D01*
X56807288Y-77193656D01*
X56931344Y-77317712D01*
X57080666Y-77409814D01*
X57247203Y-77464999D01*
X57349991Y-77475500D01*
X58650008Y-77475499D01*
X58752797Y-77464999D01*
X58919334Y-77409814D01*
X59068656Y-77317712D01*
X59192712Y-77193656D01*
X59284814Y-77044334D01*
X59284814Y-77044331D01*
X59288178Y-77038879D01*
X59340126Y-76992154D01*
X59409088Y-76980931D01*
X59473170Y-77008774D01*
X59481398Y-77016294D01*
X59620213Y-77155109D01*
X59792179Y-77280048D01*
X59792181Y-77280049D01*
X59792184Y-77280051D01*
X59981588Y-77376557D01*
X60183757Y-77442246D01*
X60393713Y-77475500D01*
X60393714Y-77475500D01*
X60606286Y-77475500D01*
X60606287Y-77475500D01*
X60816243Y-77442246D01*
X61018412Y-77376557D01*
X61207816Y-77280051D01*
X61229789Y-77264086D01*
X61379786Y-77155109D01*
X61379788Y-77155106D01*
X61379792Y-77155104D01*
X61530104Y-77004792D01*
X61649683Y-76840204D01*
X61705011Y-76797540D01*
X61774624Y-76791561D01*
X61836420Y-76824166D01*
X61850313Y-76840199D01*
X61952560Y-76980931D01*
X61969896Y-77004792D01*
X62120213Y-77155109D01*
X62292179Y-77280048D01*
X62292181Y-77280049D01*
X62292184Y-77280051D01*
X62481588Y-77376557D01*
X62683757Y-77442246D01*
X62893713Y-77475500D01*
X62893714Y-77475500D01*
X63106286Y-77475500D01*
X63106287Y-77475500D01*
X63316243Y-77442246D01*
X63518412Y-77376557D01*
X63707816Y-77280051D01*
X63729789Y-77264086D01*
X63879786Y-77155109D01*
X63879788Y-77155106D01*
X63879792Y-77155104D01*
X64030104Y-77004792D01*
X64149683Y-76840204D01*
X64205011Y-76797540D01*
X64274624Y-76791561D01*
X64336420Y-76824166D01*
X64350313Y-76840199D01*
X64452560Y-76980931D01*
X64469896Y-77004792D01*
X64620213Y-77155109D01*
X64792179Y-77280048D01*
X64792181Y-77280049D01*
X64792184Y-77280051D01*
X64981588Y-77376557D01*
X65183757Y-77442246D01*
X65393713Y-77475500D01*
X65393714Y-77475500D01*
X65606286Y-77475500D01*
X65606287Y-77475500D01*
X65816243Y-77442246D01*
X66018412Y-77376557D01*
X66207816Y-77280051D01*
X66229789Y-77264086D01*
X66379786Y-77155109D01*
X66379788Y-77155106D01*
X66379792Y-77155104D01*
X66530104Y-77004792D01*
X66649683Y-76840204D01*
X66705011Y-76797540D01*
X66774624Y-76791561D01*
X66836420Y-76824166D01*
X66850313Y-76840199D01*
X66952560Y-76980931D01*
X66969896Y-77004792D01*
X67120213Y-77155109D01*
X67292179Y-77280048D01*
X67292181Y-77280049D01*
X67292184Y-77280051D01*
X67481588Y-77376557D01*
X67683757Y-77442246D01*
X67893713Y-77475500D01*
X67893714Y-77475500D01*
X68106286Y-77475500D01*
X68106287Y-77475500D01*
X68316243Y-77442246D01*
X68518412Y-77376557D01*
X68707816Y-77280051D01*
X68729789Y-77264086D01*
X68879786Y-77155109D01*
X68879788Y-77155106D01*
X68879792Y-77155104D01*
X69030104Y-77004792D01*
X69149683Y-76840204D01*
X69205011Y-76797540D01*
X69274624Y-76791561D01*
X69336420Y-76824166D01*
X69350313Y-76840199D01*
X69452560Y-76980931D01*
X69469896Y-77004792D01*
X69620213Y-77155109D01*
X69792179Y-77280048D01*
X69792181Y-77280049D01*
X69792184Y-77280051D01*
X69981588Y-77376557D01*
X70183757Y-77442246D01*
X70393713Y-77475500D01*
X70393714Y-77475500D01*
X70606286Y-77475500D01*
X70606287Y-77475500D01*
X70816243Y-77442246D01*
X71018412Y-77376557D01*
X71207816Y-77280051D01*
X71229789Y-77264086D01*
X71379786Y-77155109D01*
X71379788Y-77155106D01*
X71379792Y-77155104D01*
X71530104Y-77004792D01*
X71649683Y-76840204D01*
X71705011Y-76797540D01*
X71774624Y-76791561D01*
X71836420Y-76824166D01*
X71850313Y-76840199D01*
X71952560Y-76980931D01*
X71969896Y-77004792D01*
X72120213Y-77155109D01*
X72292179Y-77280048D01*
X72292181Y-77280049D01*
X72292184Y-77280051D01*
X72481588Y-77376557D01*
X72683757Y-77442246D01*
X72893713Y-77475500D01*
X72893714Y-77475500D01*
X73106286Y-77475500D01*
X73106287Y-77475500D01*
X73316243Y-77442246D01*
X73518412Y-77376557D01*
X73707816Y-77280051D01*
X73729789Y-77264086D01*
X73879786Y-77155109D01*
X73879788Y-77155106D01*
X73879792Y-77155104D01*
X74030104Y-77004792D01*
X74149683Y-76840204D01*
X74205011Y-76797540D01*
X74274624Y-76791561D01*
X74336420Y-76824166D01*
X74350313Y-76840199D01*
X74452560Y-76980931D01*
X74469896Y-77004792D01*
X74620213Y-77155109D01*
X74792179Y-77280048D01*
X74792181Y-77280049D01*
X74792184Y-77280051D01*
X74981588Y-77376557D01*
X75183757Y-77442246D01*
X75393713Y-77475500D01*
X75393714Y-77475500D01*
X75606286Y-77475500D01*
X75606287Y-77475500D01*
X75816243Y-77442246D01*
X76018412Y-77376557D01*
X76207816Y-77280051D01*
X76229789Y-77264086D01*
X76379786Y-77155109D01*
X76379788Y-77155106D01*
X76379792Y-77155104D01*
X76530104Y-77004792D01*
X76530106Y-77004788D01*
X76530109Y-77004786D01*
X76655048Y-76832820D01*
X76655047Y-76832820D01*
X76655051Y-76832816D01*
X76751557Y-76643412D01*
X76817246Y-76441243D01*
X76850500Y-76231287D01*
X76850500Y-75768713D01*
X76817246Y-75558757D01*
X76751557Y-75356588D01*
X76655051Y-75167184D01*
X76655049Y-75167181D01*
X76655048Y-75167179D01*
X76530109Y-74995213D01*
X76379794Y-74844898D01*
X76379788Y-74844893D01*
X76301615Y-74788097D01*
X76258949Y-74732767D01*
X76250500Y-74687779D01*
X76250500Y-71545553D01*
X76270185Y-71478514D01*
X76301614Y-71445235D01*
X76379792Y-71388437D01*
X76530104Y-71238125D01*
X76530106Y-71238121D01*
X76530109Y-71238119D01*
X76655048Y-71066153D01*
X76655047Y-71066153D01*
X76655051Y-71066149D01*
X76751557Y-70876745D01*
X76817246Y-70674576D01*
X76850500Y-70464620D01*
X76850500Y-70002046D01*
X76817246Y-69792090D01*
X76751557Y-69589921D01*
X76655051Y-69400517D01*
X76655049Y-69400514D01*
X76655048Y-69400512D01*
X76530109Y-69228546D01*
X76379794Y-69078231D01*
X76379788Y-69078226D01*
X76301615Y-69021430D01*
X76258949Y-68966100D01*
X76250500Y-68921112D01*
X76250500Y-65778887D01*
X76270185Y-65711848D01*
X76301614Y-65678569D01*
X76379792Y-65621771D01*
X76530104Y-65471459D01*
X76530106Y-65471455D01*
X76530109Y-65471453D01*
X76655049Y-65299486D01*
X76655347Y-65298903D01*
X76662497Y-65284870D01*
X76710473Y-65234075D01*
X76772981Y-65217167D01*
X78394753Y-65217167D01*
X78492295Y-65197763D01*
X78539746Y-65188325D01*
X78676328Y-65131751D01*
X78741040Y-65088512D01*
X78799249Y-65049619D01*
X79937049Y-63911817D01*
X79998372Y-63878333D01*
X80024730Y-63875499D01*
X80525002Y-63875499D01*
X80525008Y-63875499D01*
X80627797Y-63864999D01*
X80794334Y-63809814D01*
X80943656Y-63717712D01*
X81067712Y-63593656D01*
X81067715Y-63593650D01*
X81072193Y-63587989D01*
X81074015Y-63589430D01*
X81117665Y-63550175D01*
X81171248Y-63538000D01*
X91286420Y-63538000D01*
X91383962Y-63518596D01*
X91431413Y-63509158D01*
X91567995Y-63452584D01*
X91617229Y-63419686D01*
X91690916Y-63370452D01*
X99160798Y-55900567D01*
X99222119Y-55867084D01*
X99291811Y-55872068D01*
X99295921Y-55873686D01*
X99355581Y-55898398D01*
X99608884Y-55966270D01*
X99857188Y-55998960D01*
X99865074Y-55999999D01*
X99868880Y-56000500D01*
X99868887Y-56000500D01*
X100131113Y-56000500D01*
X100131120Y-56000500D01*
X100391116Y-55966270D01*
X100644419Y-55898398D01*
X100886697Y-55798043D01*
X101113803Y-55666924D01*
X101321851Y-55507282D01*
X101321855Y-55507277D01*
X101321860Y-55507274D01*
X101507274Y-55321860D01*
X101507277Y-55321855D01*
X101507282Y-55321851D01*
X101666924Y-55113803D01*
X101798043Y-54886697D01*
X101898398Y-54644419D01*
X101966270Y-54391116D01*
X102000500Y-54131120D01*
X102000500Y-53868905D01*
X106000000Y-53868905D01*
X106000000Y-54131094D01*
X106034220Y-54391009D01*
X106034222Y-54391020D01*
X106102075Y-54644255D01*
X106202404Y-54886471D01*
X106202409Y-54886482D01*
X106333488Y-55113516D01*
X106333494Y-55113524D01*
X106420080Y-55226365D01*
X107322421Y-54324024D01*
X107335359Y-54355258D01*
X107417437Y-54478097D01*
X107521903Y-54582563D01*
X107644742Y-54664641D01*
X107675974Y-54677577D01*
X106773633Y-55579917D01*
X106773633Y-55579918D01*
X106886475Y-55666505D01*
X106886483Y-55666511D01*
X107113517Y-55797590D01*
X107113528Y-55797595D01*
X107355744Y-55897924D01*
X107608979Y-55965777D01*
X107608990Y-55965779D01*
X107868905Y-55999999D01*
X107868920Y-56000000D01*
X108131080Y-56000000D01*
X108131094Y-55999999D01*
X108391009Y-55965779D01*
X108391020Y-55965777D01*
X108644255Y-55897924D01*
X108886471Y-55797595D01*
X108886482Y-55797590D01*
X109113516Y-55666511D01*
X109113534Y-55666499D01*
X109226365Y-55579919D01*
X109226365Y-55579917D01*
X108324025Y-54677578D01*
X108355258Y-54664641D01*
X108478097Y-54582563D01*
X108582563Y-54478097D01*
X108664641Y-54355258D01*
X108677578Y-54324025D01*
X109579917Y-55226365D01*
X109579919Y-55226365D01*
X109666499Y-55113534D01*
X109666511Y-55113516D01*
X109797590Y-54886482D01*
X109797595Y-54886471D01*
X109897924Y-54644255D01*
X109965777Y-54391020D01*
X109965779Y-54391009D01*
X109999999Y-54131094D01*
X110000000Y-54131080D01*
X110000000Y-53868919D01*
X109999999Y-53868905D01*
X109965779Y-53608990D01*
X109965777Y-53608979D01*
X109897924Y-53355744D01*
X109797595Y-53113528D01*
X109797590Y-53113517D01*
X109666511Y-52886483D01*
X109666505Y-52886475D01*
X109579918Y-52773633D01*
X109579917Y-52773633D01*
X108677577Y-53675973D01*
X108664641Y-53644742D01*
X108582563Y-53521903D01*
X108478097Y-53417437D01*
X108355258Y-53335359D01*
X108324023Y-53322421D01*
X109226365Y-52420080D01*
X109113524Y-52333494D01*
X109113516Y-52333488D01*
X108886482Y-52202409D01*
X108886471Y-52202404D01*
X108644255Y-52102075D01*
X108391020Y-52034222D01*
X108391009Y-52034220D01*
X108131094Y-52000000D01*
X107868905Y-52000000D01*
X107608990Y-52034220D01*
X107608979Y-52034222D01*
X107355744Y-52102075D01*
X107113528Y-52202404D01*
X107113517Y-52202409D01*
X106886471Y-52333496D01*
X106773633Y-52420079D01*
X106773633Y-52420080D01*
X107675974Y-53322421D01*
X107644742Y-53335359D01*
X107521903Y-53417437D01*
X107417437Y-53521903D01*
X107335359Y-53644742D01*
X107322421Y-53675974D01*
X106420080Y-52773633D01*
X106420079Y-52773633D01*
X106333496Y-52886471D01*
X106202409Y-53113517D01*
X106202404Y-53113528D01*
X106102075Y-53355744D01*
X106034222Y-53608979D01*
X106034220Y-53608990D01*
X106000000Y-53868905D01*
X102000500Y-53868905D01*
X102000500Y-53868880D01*
X101966270Y-53608884D01*
X101898398Y-53355581D01*
X101889838Y-53334916D01*
X101798046Y-53113309D01*
X101798041Y-53113299D01*
X101666924Y-52886196D01*
X101507281Y-52678148D01*
X101507274Y-52678140D01*
X101321860Y-52492726D01*
X101321851Y-52492718D01*
X101113803Y-52333075D01*
X100886700Y-52201958D01*
X100886690Y-52201953D01*
X100644428Y-52101605D01*
X100644421Y-52101603D01*
X100644419Y-52101602D01*
X100391116Y-52033730D01*
X100333339Y-52026123D01*
X100131127Y-51999500D01*
X100131120Y-51999500D01*
X99868880Y-51999500D01*
X99868872Y-51999500D01*
X99637772Y-52029926D01*
X99608884Y-52033730D01*
X99361560Y-52100000D01*
X99355581Y-52101602D01*
X99355571Y-52101605D01*
X99113309Y-52201953D01*
X99113299Y-52201958D01*
X98886196Y-52333075D01*
X98678148Y-52492718D01*
X98492718Y-52678148D01*
X98333075Y-52886196D01*
X98201958Y-53113299D01*
X98201953Y-53113309D01*
X98101605Y-53355571D01*
X98101602Y-53355581D01*
X98033730Y-53608884D01*
X98030404Y-53634150D01*
X97999500Y-53868872D01*
X97999500Y-54125500D01*
X97979815Y-54192539D01*
X97927011Y-54238294D01*
X97875500Y-54249500D01*
X83422351Y-54249500D01*
X83355312Y-54229815D01*
X83309557Y-54177011D01*
X83299061Y-54138752D01*
X83294091Y-54092516D01*
X83243797Y-53957671D01*
X83243793Y-53957664D01*
X83157547Y-53842455D01*
X83157544Y-53842452D01*
X83042335Y-53756206D01*
X83042328Y-53756202D01*
X82907482Y-53705908D01*
X82907483Y-53705908D01*
X82847883Y-53699501D01*
X82847881Y-53699500D01*
X82847873Y-53699500D01*
X82847864Y-53699500D01*
X82844548Y-53699322D01*
X82844632Y-53697742D01*
X82783579Y-53679815D01*
X82737824Y-53627011D01*
X82730173Y-53583725D01*
X82046447Y-52900000D01*
X82052661Y-52900000D01*
X82154394Y-52872741D01*
X82245606Y-52820080D01*
X82320080Y-52745606D01*
X82372741Y-52654394D01*
X82400000Y-52552661D01*
X82400000Y-52546447D01*
X83079474Y-53225921D01*
X83111859Y-53181349D01*
X83204755Y-52999031D01*
X83267990Y-52804417D01*
X83300000Y-52602317D01*
X83300000Y-52397682D01*
X83267990Y-52195582D01*
X83204755Y-52000968D01*
X83111859Y-51818650D01*
X83079474Y-51774077D01*
X83079474Y-51774076D01*
X82400000Y-52453551D01*
X82400000Y-52447339D01*
X82372741Y-52345606D01*
X82320080Y-52254394D01*
X82245606Y-52179920D01*
X82154394Y-52127259D01*
X82052661Y-52100000D01*
X82046446Y-52100000D01*
X82725922Y-51420524D01*
X82725921Y-51420523D01*
X82681359Y-51388147D01*
X82681350Y-51388141D01*
X82499031Y-51295244D01*
X82304417Y-51232009D01*
X82102317Y-51200000D01*
X81897683Y-51200000D01*
X81695582Y-51232009D01*
X81500968Y-51295244D01*
X81318644Y-51388143D01*
X81274077Y-51420523D01*
X81274077Y-51420524D01*
X81953554Y-52100000D01*
X81947339Y-52100000D01*
X81845606Y-52127259D01*
X81754394Y-52179920D01*
X81679920Y-52254394D01*
X81627259Y-52345606D01*
X81600000Y-52447339D01*
X81600000Y-52453553D01*
X80920524Y-51774077D01*
X80920523Y-51774077D01*
X80888143Y-51818644D01*
X80795244Y-52000968D01*
X80732009Y-52195582D01*
X80700000Y-52397682D01*
X80700000Y-52602317D01*
X80732009Y-52804417D01*
X80795244Y-52999031D01*
X80888141Y-53181350D01*
X80888147Y-53181359D01*
X80920523Y-53225921D01*
X80920524Y-53225922D01*
X81600000Y-52546446D01*
X81600000Y-52552661D01*
X81627259Y-52654394D01*
X81679920Y-52745606D01*
X81754394Y-52820080D01*
X81845606Y-52872741D01*
X81947339Y-52900000D01*
X81953553Y-52900000D01*
X81269067Y-53584483D01*
X81258633Y-53634150D01*
X81209581Y-53683906D01*
X81155365Y-53698000D01*
X81155423Y-53699099D01*
X81155429Y-53699146D01*
X81155426Y-53699146D01*
X81155436Y-53699324D01*
X81152123Y-53699501D01*
X81092516Y-53705908D01*
X80957671Y-53756202D01*
X80957664Y-53756206D01*
X80842455Y-53842452D01*
X80842452Y-53842455D01*
X80756206Y-53957664D01*
X80756202Y-53957671D01*
X80705908Y-54092517D01*
X80699501Y-54152116D01*
X80699500Y-54152135D01*
X80699500Y-55847870D01*
X80699501Y-55847876D01*
X80705908Y-55907483D01*
X80756202Y-56042328D01*
X80756206Y-56042335D01*
X80842452Y-56157544D01*
X80842455Y-56157547D01*
X80957664Y-56243793D01*
X80957671Y-56243797D01*
X81092516Y-56294091D01*
X81138757Y-56299063D01*
X81203307Y-56325801D01*
X81243155Y-56383194D01*
X81249500Y-56422352D01*
X81249500Y-59789477D01*
X81229815Y-59856516D01*
X81177011Y-59902271D01*
X81107853Y-59912215D01*
X81044297Y-59883190D01*
X81037819Y-59877158D01*
X80943345Y-59782684D01*
X80794124Y-59690643D01*
X80794119Y-59690641D01*
X80627697Y-59635494D01*
X80627690Y-59635493D01*
X80524986Y-59625000D01*
X80250000Y-59625000D01*
X80250000Y-60588500D01*
X80230315Y-60655539D01*
X80177511Y-60701294D01*
X80126000Y-60712500D01*
X80000000Y-60712500D01*
X80000000Y-60838500D01*
X79980315Y-60905539D01*
X79927511Y-60951294D01*
X79876000Y-60962500D01*
X78775001Y-60962500D01*
X78775001Y-61099986D01*
X78785494Y-61202697D01*
X78840641Y-61369119D01*
X78840643Y-61369124D01*
X78932684Y-61518345D01*
X79056655Y-61642316D01*
X79056659Y-61642319D01*
X79059656Y-61644168D01*
X79061279Y-61645972D01*
X79062323Y-61646798D01*
X79062181Y-61646976D01*
X79106381Y-61696116D01*
X79117602Y-61765079D01*
X79089759Y-61829161D01*
X79059661Y-61855241D01*
X79056349Y-61857283D01*
X79056343Y-61857288D01*
X78932289Y-61981342D01*
X78840187Y-62130663D01*
X78840186Y-62130666D01*
X78785001Y-62297203D01*
X78785001Y-62297204D01*
X78785000Y-62297204D01*
X78774500Y-62399983D01*
X78774500Y-62900269D01*
X78754815Y-62967308D01*
X78738181Y-62987950D01*
X78046284Y-63679848D01*
X77984961Y-63713333D01*
X77958603Y-63716167D01*
X76772981Y-63716167D01*
X76705942Y-63696482D01*
X76662497Y-63648464D01*
X76655049Y-63633847D01*
X76530109Y-63461880D01*
X76379786Y-63311557D01*
X76207820Y-63186618D01*
X76018414Y-63090111D01*
X76018413Y-63090110D01*
X76018412Y-63090110D01*
X75816243Y-63024421D01*
X75816241Y-63024420D01*
X75816240Y-63024420D01*
X75654957Y-62998875D01*
X75606287Y-62991167D01*
X75393713Y-62991167D01*
X75345042Y-62998875D01*
X75183760Y-63024420D01*
X74981585Y-63090111D01*
X74792179Y-63186618D01*
X74620213Y-63311557D01*
X74469894Y-63461876D01*
X74469890Y-63461881D01*
X74350318Y-63626460D01*
X74294989Y-63669126D01*
X74225375Y-63675105D01*
X74163580Y-63642500D01*
X74149682Y-63626460D01*
X74030109Y-63461881D01*
X74030105Y-63461876D01*
X73879786Y-63311557D01*
X73707820Y-63186618D01*
X73518414Y-63090111D01*
X73518413Y-63090110D01*
X73518412Y-63090110D01*
X73316243Y-63024421D01*
X73316241Y-63024420D01*
X73316240Y-63024420D01*
X73154957Y-62998875D01*
X73106287Y-62991167D01*
X72893713Y-62991167D01*
X72845042Y-62998875D01*
X72683760Y-63024420D01*
X72481585Y-63090111D01*
X72292179Y-63186618D01*
X72120213Y-63311557D01*
X71969894Y-63461876D01*
X71969890Y-63461881D01*
X71850318Y-63626460D01*
X71794989Y-63669126D01*
X71725375Y-63675105D01*
X71663580Y-63642500D01*
X71649682Y-63626460D01*
X71530109Y-63461881D01*
X71530105Y-63461876D01*
X71379786Y-63311557D01*
X71207820Y-63186618D01*
X71018414Y-63090111D01*
X71018413Y-63090110D01*
X71018412Y-63090110D01*
X70816243Y-63024421D01*
X70816241Y-63024420D01*
X70816240Y-63024420D01*
X70654957Y-62998875D01*
X70606287Y-62991167D01*
X70393713Y-62991167D01*
X70345042Y-62998875D01*
X70183760Y-63024420D01*
X69981585Y-63090111D01*
X69792179Y-63186618D01*
X69620213Y-63311557D01*
X69469894Y-63461876D01*
X69469890Y-63461881D01*
X69350318Y-63626460D01*
X69294989Y-63669126D01*
X69225375Y-63675105D01*
X69163580Y-63642500D01*
X69149682Y-63626460D01*
X69030109Y-63461881D01*
X69030105Y-63461876D01*
X68879786Y-63311557D01*
X68707820Y-63186618D01*
X68518414Y-63090111D01*
X68518413Y-63090110D01*
X68518412Y-63090110D01*
X68316243Y-63024421D01*
X68316241Y-63024420D01*
X68316240Y-63024420D01*
X68154957Y-62998875D01*
X68106287Y-62991167D01*
X67893713Y-62991167D01*
X67845042Y-62998875D01*
X67683760Y-63024420D01*
X67481585Y-63090111D01*
X67292179Y-63186618D01*
X67120213Y-63311557D01*
X66969894Y-63461876D01*
X66969890Y-63461881D01*
X66850318Y-63626460D01*
X66794989Y-63669126D01*
X66725375Y-63675105D01*
X66663580Y-63642500D01*
X66649682Y-63626460D01*
X66530109Y-63461881D01*
X66530105Y-63461876D01*
X66379786Y-63311557D01*
X66207820Y-63186618D01*
X66018414Y-63090111D01*
X66018413Y-63090110D01*
X66018412Y-63090110D01*
X65816243Y-63024421D01*
X65816241Y-63024420D01*
X65816240Y-63024420D01*
X65654957Y-62998875D01*
X65606287Y-62991167D01*
X65393713Y-62991167D01*
X65345042Y-62998875D01*
X65183760Y-63024420D01*
X64981585Y-63090111D01*
X64792179Y-63186618D01*
X64620213Y-63311557D01*
X64469894Y-63461876D01*
X64469890Y-63461881D01*
X64350318Y-63626460D01*
X64294989Y-63669126D01*
X64225375Y-63675105D01*
X64163580Y-63642500D01*
X64149682Y-63626460D01*
X64030109Y-63461881D01*
X64030105Y-63461876D01*
X63879786Y-63311557D01*
X63707820Y-63186618D01*
X63518414Y-63090111D01*
X63518413Y-63090110D01*
X63518412Y-63090110D01*
X63316243Y-63024421D01*
X63316241Y-63024420D01*
X63316240Y-63024420D01*
X63154957Y-62998875D01*
X63106287Y-62991167D01*
X62893713Y-62991167D01*
X62845042Y-62998875D01*
X62683760Y-63024420D01*
X62481585Y-63090111D01*
X62292179Y-63186618D01*
X62120213Y-63311557D01*
X61969894Y-63461876D01*
X61969890Y-63461881D01*
X61850318Y-63626460D01*
X61794989Y-63669126D01*
X61725375Y-63675105D01*
X61663580Y-63642500D01*
X61649682Y-63626460D01*
X61530109Y-63461881D01*
X61530105Y-63461876D01*
X61379786Y-63311557D01*
X61207820Y-63186618D01*
X61018414Y-63090111D01*
X61018413Y-63090110D01*
X61018412Y-63090110D01*
X60816243Y-63024421D01*
X60816241Y-63024420D01*
X60816240Y-63024420D01*
X60654957Y-62998875D01*
X60606287Y-62991167D01*
X60393713Y-62991167D01*
X60345042Y-62998875D01*
X60183760Y-63024420D01*
X59981585Y-63090111D01*
X59792179Y-63186618D01*
X59620215Y-63311556D01*
X59481398Y-63450373D01*
X59420075Y-63483857D01*
X59350383Y-63478873D01*
X59294450Y-63437001D01*
X59288178Y-63427787D01*
X59192712Y-63273011D01*
X59068657Y-63148956D01*
X59068656Y-63148955D01*
X58919334Y-63056853D01*
X58752797Y-63001668D01*
X58752795Y-63001667D01*
X58650010Y-62991167D01*
X57349998Y-62991167D01*
X57349981Y-62991168D01*
X57247203Y-63001667D01*
X57247200Y-63001668D01*
X57080668Y-63056852D01*
X57080663Y-63056854D01*
X56931342Y-63148956D01*
X56807289Y-63273009D01*
X56715187Y-63422330D01*
X56715185Y-63422335D01*
X56710325Y-63437001D01*
X56660001Y-63588870D01*
X56660001Y-63588871D01*
X56660000Y-63588871D01*
X56649500Y-63691650D01*
X50000500Y-63691650D01*
X50000500Y-60325013D01*
X78775000Y-60325013D01*
X78775000Y-60462500D01*
X79750000Y-60462500D01*
X79750000Y-59625000D01*
X79475029Y-59625000D01*
X79475012Y-59625001D01*
X79372302Y-59635494D01*
X79205880Y-59690641D01*
X79205875Y-59690643D01*
X79056654Y-59782684D01*
X78932684Y-59906654D01*
X78840643Y-60055875D01*
X78840641Y-60055880D01*
X78785494Y-60222302D01*
X78785493Y-60222309D01*
X78775000Y-60325013D01*
X50000500Y-60325013D01*
X50000500Y-57925013D01*
X56650000Y-57925013D01*
X56650000Y-58450000D01*
X57595854Y-58450000D01*
X57557370Y-58516657D01*
X57525000Y-58637465D01*
X57525000Y-58762535D01*
X57557370Y-58883343D01*
X57595854Y-58950000D01*
X56650001Y-58950000D01*
X56650001Y-59474986D01*
X56660494Y-59577697D01*
X56715641Y-59744119D01*
X56715643Y-59744124D01*
X56807684Y-59893345D01*
X56931654Y-60017315D01*
X57080875Y-60109356D01*
X57080880Y-60109358D01*
X57247302Y-60164505D01*
X57247309Y-60164506D01*
X57350019Y-60174999D01*
X57749999Y-60174999D01*
X57750000Y-60174998D01*
X57750000Y-59104145D01*
X57816657Y-59142630D01*
X57937465Y-59175000D01*
X58062535Y-59175000D01*
X58183343Y-59142630D01*
X58250000Y-59104145D01*
X58250000Y-60174999D01*
X58649972Y-60174999D01*
X58649986Y-60174998D01*
X58752697Y-60164505D01*
X58919119Y-60109358D01*
X58919124Y-60109356D01*
X59068345Y-60017315D01*
X59192317Y-59893343D01*
X59288085Y-59738078D01*
X59340033Y-59691353D01*
X59408995Y-59680130D01*
X59473077Y-59707973D01*
X59481305Y-59715493D01*
X59620535Y-59854723D01*
X59620540Y-59854727D01*
X59792442Y-59979620D01*
X59981782Y-60076095D01*
X60183871Y-60141757D01*
X60250000Y-60152231D01*
X60250000Y-59104145D01*
X60316657Y-59142630D01*
X60437465Y-59175000D01*
X60562535Y-59175000D01*
X60683343Y-59142630D01*
X60750000Y-59104145D01*
X60750000Y-60152230D01*
X60816126Y-60141757D01*
X60816129Y-60141757D01*
X61018217Y-60076095D01*
X61207557Y-59979620D01*
X61379459Y-59854727D01*
X61379464Y-59854723D01*
X61529727Y-59704460D01*
X61649682Y-59539355D01*
X61705011Y-59496689D01*
X61774625Y-59490710D01*
X61836420Y-59523315D01*
X61850318Y-59539355D01*
X61970272Y-59704460D01*
X62120535Y-59854723D01*
X62120540Y-59854727D01*
X62292442Y-59979620D01*
X62481782Y-60076095D01*
X62683871Y-60141757D01*
X62750000Y-60152231D01*
X62750000Y-59104145D01*
X62816657Y-59142630D01*
X62937465Y-59175000D01*
X63062535Y-59175000D01*
X63183343Y-59142630D01*
X63250000Y-59104145D01*
X63250000Y-60152230D01*
X63316126Y-60141757D01*
X63316129Y-60141757D01*
X63518217Y-60076095D01*
X63707557Y-59979620D01*
X63879459Y-59854727D01*
X63879464Y-59854723D01*
X64029727Y-59704460D01*
X64149682Y-59539355D01*
X64205011Y-59496689D01*
X64274625Y-59490710D01*
X64336420Y-59523315D01*
X64350318Y-59539355D01*
X64470272Y-59704460D01*
X64620535Y-59854723D01*
X64620540Y-59854727D01*
X64792442Y-59979620D01*
X64981782Y-60076095D01*
X65183871Y-60141757D01*
X65250000Y-60152231D01*
X65250000Y-59104145D01*
X65316657Y-59142630D01*
X65437465Y-59175000D01*
X65562535Y-59175000D01*
X65683343Y-59142630D01*
X65750000Y-59104145D01*
X65750000Y-60152230D01*
X65816126Y-60141757D01*
X65816129Y-60141757D01*
X66018217Y-60076095D01*
X66207557Y-59979620D01*
X66379459Y-59854727D01*
X66379464Y-59854723D01*
X66529727Y-59704460D01*
X66649682Y-59539355D01*
X66705011Y-59496689D01*
X66774625Y-59490710D01*
X66836420Y-59523315D01*
X66850318Y-59539355D01*
X66970272Y-59704460D01*
X67120535Y-59854723D01*
X67120540Y-59854727D01*
X67292442Y-59979620D01*
X67481782Y-60076095D01*
X67683871Y-60141757D01*
X67750000Y-60152231D01*
X67750000Y-59104145D01*
X67816657Y-59142630D01*
X67937465Y-59175000D01*
X68062535Y-59175000D01*
X68183343Y-59142630D01*
X68250000Y-59104145D01*
X68250000Y-60152230D01*
X68316126Y-60141757D01*
X68316129Y-60141757D01*
X68518217Y-60076095D01*
X68707557Y-59979620D01*
X68879459Y-59854727D01*
X68879464Y-59854723D01*
X69029727Y-59704460D01*
X69149682Y-59539355D01*
X69205011Y-59496689D01*
X69274625Y-59490710D01*
X69336420Y-59523315D01*
X69350318Y-59539355D01*
X69470272Y-59704460D01*
X69620535Y-59854723D01*
X69620540Y-59854727D01*
X69792442Y-59979620D01*
X69981782Y-60076095D01*
X70183871Y-60141757D01*
X70250000Y-60152231D01*
X70250000Y-59104145D01*
X70316657Y-59142630D01*
X70437465Y-59175000D01*
X70562535Y-59175000D01*
X70683343Y-59142630D01*
X70750000Y-59104145D01*
X70750000Y-60152231D01*
X70816126Y-60141757D01*
X70816129Y-60141757D01*
X71018217Y-60076095D01*
X71207557Y-59979620D01*
X71379459Y-59854727D01*
X71379464Y-59854723D01*
X71529727Y-59704460D01*
X71649682Y-59539355D01*
X71705011Y-59496689D01*
X71774625Y-59490710D01*
X71836420Y-59523315D01*
X71850318Y-59539355D01*
X71970272Y-59704460D01*
X72120535Y-59854723D01*
X72120540Y-59854727D01*
X72292442Y-59979620D01*
X72481782Y-60076095D01*
X72683871Y-60141757D01*
X72750000Y-60152231D01*
X72750000Y-59104145D01*
X72816657Y-59142630D01*
X72937465Y-59175000D01*
X73062535Y-59175000D01*
X73183343Y-59142630D01*
X73250000Y-59104145D01*
X73250000Y-60152231D01*
X73316126Y-60141757D01*
X73316129Y-60141757D01*
X73518217Y-60076095D01*
X73707557Y-59979620D01*
X73879459Y-59854727D01*
X73879464Y-59854723D01*
X74029727Y-59704460D01*
X74149682Y-59539355D01*
X74205011Y-59496689D01*
X74274625Y-59490710D01*
X74336420Y-59523315D01*
X74350318Y-59539355D01*
X74470272Y-59704460D01*
X74620535Y-59854723D01*
X74620540Y-59854727D01*
X74792442Y-59979620D01*
X74981782Y-60076095D01*
X75183871Y-60141757D01*
X75250000Y-60152231D01*
X75250000Y-59104145D01*
X75316657Y-59142630D01*
X75437465Y-59175000D01*
X75562535Y-59175000D01*
X75683343Y-59142630D01*
X75750000Y-59104145D01*
X75750000Y-60152230D01*
X75816126Y-60141757D01*
X75816129Y-60141757D01*
X76018217Y-60076095D01*
X76207557Y-59979620D01*
X76379459Y-59854727D01*
X76379464Y-59854723D01*
X76529723Y-59704464D01*
X76529727Y-59704459D01*
X76654620Y-59532557D01*
X76751095Y-59343217D01*
X76816757Y-59141130D01*
X76816757Y-59141127D01*
X76847030Y-58950000D01*
X75904146Y-58950000D01*
X75942630Y-58883343D01*
X75975000Y-58762535D01*
X75975000Y-58637465D01*
X75942630Y-58516657D01*
X75904146Y-58450000D01*
X76847030Y-58450000D01*
X76816757Y-58258872D01*
X76816757Y-58258869D01*
X76751095Y-58056782D01*
X76654620Y-57867442D01*
X76529727Y-57695540D01*
X76529723Y-57695535D01*
X76379464Y-57545276D01*
X76379459Y-57545272D01*
X76207557Y-57420379D01*
X76018215Y-57323903D01*
X75816124Y-57258241D01*
X75750000Y-57247768D01*
X75750000Y-58295854D01*
X75683343Y-58257370D01*
X75562535Y-58225000D01*
X75437465Y-58225000D01*
X75316657Y-58257370D01*
X75250000Y-58295854D01*
X75250000Y-57247768D01*
X75249999Y-57247768D01*
X75183875Y-57258241D01*
X74981784Y-57323903D01*
X74792442Y-57420379D01*
X74620540Y-57545272D01*
X74620535Y-57545276D01*
X74470276Y-57695535D01*
X74470272Y-57695540D01*
X74350318Y-57860644D01*
X74294988Y-57903310D01*
X74225375Y-57909289D01*
X74163580Y-57876684D01*
X74149682Y-57860644D01*
X74029727Y-57695540D01*
X74029723Y-57695535D01*
X73879464Y-57545276D01*
X73879459Y-57545272D01*
X73707557Y-57420379D01*
X73518215Y-57323903D01*
X73316124Y-57258241D01*
X73250000Y-57247768D01*
X73250000Y-58295854D01*
X73183343Y-58257370D01*
X73062535Y-58225000D01*
X72937465Y-58225000D01*
X72816657Y-58257370D01*
X72750000Y-58295854D01*
X72750000Y-57247768D01*
X72749999Y-57247768D01*
X72683875Y-57258241D01*
X72481784Y-57323903D01*
X72292442Y-57420379D01*
X72120540Y-57545272D01*
X72120535Y-57545276D01*
X71970276Y-57695535D01*
X71970272Y-57695540D01*
X71850318Y-57860644D01*
X71794988Y-57903310D01*
X71725375Y-57909289D01*
X71663580Y-57876684D01*
X71649682Y-57860644D01*
X71529727Y-57695540D01*
X71529723Y-57695535D01*
X71379464Y-57545276D01*
X71379459Y-57545272D01*
X71207557Y-57420379D01*
X71018215Y-57323903D01*
X70816124Y-57258241D01*
X70750000Y-57247768D01*
X70750000Y-58295854D01*
X70683343Y-58257370D01*
X70562535Y-58225000D01*
X70437465Y-58225000D01*
X70316657Y-58257370D01*
X70250000Y-58295854D01*
X70250000Y-57247768D01*
X70249999Y-57247768D01*
X70183875Y-57258241D01*
X69981784Y-57323903D01*
X69792442Y-57420379D01*
X69620540Y-57545272D01*
X69620535Y-57545276D01*
X69470276Y-57695535D01*
X69470272Y-57695540D01*
X69350318Y-57860644D01*
X69294988Y-57903310D01*
X69225375Y-57909289D01*
X69163580Y-57876684D01*
X69149682Y-57860644D01*
X69029727Y-57695540D01*
X69029723Y-57695535D01*
X68879464Y-57545276D01*
X68879459Y-57545272D01*
X68707557Y-57420379D01*
X68518215Y-57323903D01*
X68316124Y-57258241D01*
X68250000Y-57247768D01*
X68250000Y-58295854D01*
X68183343Y-58257370D01*
X68062535Y-58225000D01*
X67937465Y-58225000D01*
X67816657Y-58257370D01*
X67750000Y-58295854D01*
X67750000Y-57247768D01*
X67749999Y-57247768D01*
X67683875Y-57258241D01*
X67481784Y-57323903D01*
X67292442Y-57420379D01*
X67120540Y-57545272D01*
X67120535Y-57545276D01*
X66970276Y-57695535D01*
X66970272Y-57695540D01*
X66850318Y-57860644D01*
X66794988Y-57903310D01*
X66725375Y-57909289D01*
X66663580Y-57876684D01*
X66649682Y-57860644D01*
X66529727Y-57695540D01*
X66529723Y-57695535D01*
X66379464Y-57545276D01*
X66379459Y-57545272D01*
X66207557Y-57420379D01*
X66018215Y-57323903D01*
X65816124Y-57258241D01*
X65750000Y-57247768D01*
X65750000Y-58295854D01*
X65683343Y-58257370D01*
X65562535Y-58225000D01*
X65437465Y-58225000D01*
X65316657Y-58257370D01*
X65250000Y-58295854D01*
X65250000Y-57247768D01*
X65249999Y-57247768D01*
X65183875Y-57258241D01*
X64981784Y-57323903D01*
X64792442Y-57420379D01*
X64620540Y-57545272D01*
X64620535Y-57545276D01*
X64470276Y-57695535D01*
X64470272Y-57695540D01*
X64350318Y-57860644D01*
X64294988Y-57903310D01*
X64225375Y-57909289D01*
X64163580Y-57876684D01*
X64149682Y-57860644D01*
X64029727Y-57695540D01*
X64029723Y-57695535D01*
X63879464Y-57545276D01*
X63879459Y-57545272D01*
X63707557Y-57420379D01*
X63518215Y-57323903D01*
X63316124Y-57258241D01*
X63250000Y-57247768D01*
X63250000Y-58295854D01*
X63183343Y-58257370D01*
X63062535Y-58225000D01*
X62937465Y-58225000D01*
X62816657Y-58257370D01*
X62750000Y-58295854D01*
X62750000Y-57247768D01*
X62749999Y-57247768D01*
X62683875Y-57258241D01*
X62481784Y-57323903D01*
X62292442Y-57420379D01*
X62120540Y-57545272D01*
X62120535Y-57545276D01*
X61970276Y-57695535D01*
X61970272Y-57695540D01*
X61850318Y-57860644D01*
X61794988Y-57903310D01*
X61725375Y-57909289D01*
X61663580Y-57876684D01*
X61649682Y-57860644D01*
X61529727Y-57695540D01*
X61529723Y-57695535D01*
X61379464Y-57545276D01*
X61379459Y-57545272D01*
X61207557Y-57420379D01*
X61018215Y-57323903D01*
X60816124Y-57258241D01*
X60750000Y-57247768D01*
X60750000Y-58295854D01*
X60683343Y-58257370D01*
X60562535Y-58225000D01*
X60437465Y-58225000D01*
X60316657Y-58257370D01*
X60250000Y-58295854D01*
X60250000Y-57247768D01*
X60249999Y-57247768D01*
X60183875Y-57258241D01*
X59981784Y-57323903D01*
X59792442Y-57420379D01*
X59620541Y-57545271D01*
X59481305Y-57684507D01*
X59419982Y-57717991D01*
X59350290Y-57713007D01*
X59294357Y-57671135D01*
X59288085Y-57661922D01*
X59192315Y-57506654D01*
X59068345Y-57382684D01*
X58919124Y-57290643D01*
X58919119Y-57290641D01*
X58752697Y-57235494D01*
X58752690Y-57235493D01*
X58649986Y-57225000D01*
X58250000Y-57225000D01*
X58250000Y-58295854D01*
X58183343Y-58257370D01*
X58062535Y-58225000D01*
X57937465Y-58225000D01*
X57816657Y-58257370D01*
X57750000Y-58295854D01*
X57750000Y-57225000D01*
X57350028Y-57225000D01*
X57350012Y-57225001D01*
X57247302Y-57235494D01*
X57080880Y-57290641D01*
X57080875Y-57290643D01*
X56931654Y-57382684D01*
X56807684Y-57506654D01*
X56715643Y-57655875D01*
X56715641Y-57655880D01*
X56660494Y-57822302D01*
X56660493Y-57822309D01*
X56650000Y-57925013D01*
X50000500Y-57925013D01*
X50000500Y-52878711D01*
X51149500Y-52878711D01*
X51149500Y-53121288D01*
X51181161Y-53361785D01*
X51243947Y-53596104D01*
X51289430Y-53705909D01*
X51336776Y-53820212D01*
X51458064Y-54030289D01*
X51458066Y-54030292D01*
X51458067Y-54030293D01*
X51605733Y-54222736D01*
X51605739Y-54222743D01*
X51777256Y-54394260D01*
X51777262Y-54394265D01*
X51969711Y-54541936D01*
X52179788Y-54663224D01*
X52403900Y-54756054D01*
X52638211Y-54818838D01*
X52818586Y-54842584D01*
X52878711Y-54850500D01*
X52878712Y-54850500D01*
X53121289Y-54850500D01*
X53169388Y-54844167D01*
X53361789Y-54818838D01*
X53596100Y-54756054D01*
X53820212Y-54663224D01*
X54030289Y-54541936D01*
X54222738Y-54394265D01*
X54394265Y-54222738D01*
X54541936Y-54030289D01*
X54663224Y-53820212D01*
X54756054Y-53596100D01*
X54818838Y-53361789D01*
X54850500Y-53121288D01*
X54850500Y-52878712D01*
X54818838Y-52638211D01*
X54756054Y-52403900D01*
X54663224Y-52179788D01*
X54541936Y-51969711D01*
X54426023Y-51818650D01*
X54394266Y-51777263D01*
X54394260Y-51777256D01*
X54222743Y-51605739D01*
X54222736Y-51605733D01*
X54171162Y-51566159D01*
X54030293Y-51458067D01*
X54030292Y-51458066D01*
X54030289Y-51458064D01*
X53820212Y-51336776D01*
X53719945Y-51295244D01*
X53596104Y-51243947D01*
X53361785Y-51181161D01*
X53121289Y-51149500D01*
X53121288Y-51149500D01*
X52878712Y-51149500D01*
X52878711Y-51149500D01*
X52638214Y-51181161D01*
X52403895Y-51243947D01*
X52179794Y-51336773D01*
X52179785Y-51336777D01*
X51969706Y-51458067D01*
X51777263Y-51605733D01*
X51777256Y-51605739D01*
X51605739Y-51777256D01*
X51605733Y-51777263D01*
X51458067Y-51969706D01*
X51336777Y-52179785D01*
X51336773Y-52179794D01*
X51243947Y-52403895D01*
X51181161Y-52638214D01*
X51149500Y-52878711D01*
X50000500Y-52878711D01*
X50000500Y-50124500D01*
X50020185Y-50057461D01*
X50072989Y-50011706D01*
X50124500Y-50000500D01*
X111876000Y-50000500D01*
X111943039Y-50020185D01*
G37*
%TD.AperFunction*%
%TD*%
%TA.AperFunction,Conductor*%
%TO.N,GND*%
G36*
X60057370Y-83816657D02*
G01*
X60025000Y-83937465D01*
X60025000Y-84062535D01*
X60057370Y-84183343D01*
X60095854Y-84250000D01*
X58404146Y-84250000D01*
X58442630Y-84183343D01*
X58475000Y-84062535D01*
X58475000Y-83937465D01*
X58442630Y-83816657D01*
X58404146Y-83750000D01*
X60095854Y-83750000D01*
X60057370Y-83816657D01*
G37*
%TD.AperFunction*%
%TA.AperFunction,Conductor*%
G36*
X62557370Y-83816657D02*
G01*
X62525000Y-83937465D01*
X62525000Y-84062535D01*
X62557370Y-84183343D01*
X62595854Y-84250000D01*
X60904146Y-84250000D01*
X60942630Y-84183343D01*
X60975000Y-84062535D01*
X60975000Y-83937465D01*
X60942630Y-83816657D01*
X60904146Y-83750000D01*
X62595854Y-83750000D01*
X62557370Y-83816657D01*
G37*
%TD.AperFunction*%
%TA.AperFunction,Conductor*%
G36*
X65057370Y-83816657D02*
G01*
X65025000Y-83937465D01*
X65025000Y-84062535D01*
X65057370Y-84183343D01*
X65095854Y-84250000D01*
X63404146Y-84250000D01*
X63442630Y-84183343D01*
X63475000Y-84062535D01*
X63475000Y-83937465D01*
X63442630Y-83816657D01*
X63404146Y-83750000D01*
X65095854Y-83750000D01*
X65057370Y-83816657D01*
G37*
%TD.AperFunction*%
%TA.AperFunction,Conductor*%
G36*
X67557370Y-83816657D02*
G01*
X67525000Y-83937465D01*
X67525000Y-84062535D01*
X67557370Y-84183343D01*
X67595854Y-84250000D01*
X65904146Y-84250000D01*
X65942630Y-84183343D01*
X65975000Y-84062535D01*
X65975000Y-83937465D01*
X65942630Y-83816657D01*
X65904146Y-83750000D01*
X67595854Y-83750000D01*
X67557370Y-83816657D01*
G37*
%TD.AperFunction*%
%TA.AperFunction,Conductor*%
G36*
X70057370Y-83816657D02*
G01*
X70025000Y-83937465D01*
X70025000Y-84062535D01*
X70057370Y-84183343D01*
X70095854Y-84250000D01*
X68404146Y-84250000D01*
X68442630Y-84183343D01*
X68475000Y-84062535D01*
X68475000Y-83937465D01*
X68442630Y-83816657D01*
X68404146Y-83750000D01*
X70095854Y-83750000D01*
X70057370Y-83816657D01*
G37*
%TD.AperFunction*%
%TA.AperFunction,Conductor*%
G36*
X72557370Y-83816657D02*
G01*
X72525000Y-83937465D01*
X72525000Y-84062535D01*
X72557370Y-84183343D01*
X72595854Y-84250000D01*
X70904146Y-84250000D01*
X70942630Y-84183343D01*
X70975000Y-84062535D01*
X70975000Y-83937465D01*
X70942630Y-83816657D01*
X70904146Y-83750000D01*
X72595854Y-83750000D01*
X72557370Y-83816657D01*
G37*
%TD.AperFunction*%
%TA.AperFunction,Conductor*%
G36*
X75057370Y-83816657D02*
G01*
X75025000Y-83937465D01*
X75025000Y-84062535D01*
X75057370Y-84183343D01*
X75095854Y-84250000D01*
X73404146Y-84250000D01*
X73442630Y-84183343D01*
X73475000Y-84062535D01*
X73475000Y-83937465D01*
X73442630Y-83816657D01*
X73404146Y-83750000D01*
X75095854Y-83750000D01*
X75057370Y-83816657D01*
G37*
%TD.AperFunction*%
%TA.AperFunction,Conductor*%
G36*
X137943039Y-50020185D02*
G01*
X137988794Y-50072989D01*
X138000000Y-50124500D01*
X138000000Y-76876000D01*
X137980315Y-76943039D01*
X137927511Y-76988794D01*
X137876000Y-77000000D01*
X104860729Y-77000000D01*
X104793690Y-76980315D01*
X104747935Y-76927511D01*
X104737991Y-76858353D01*
X104767016Y-76794797D01*
X104773048Y-76788319D01*
X109951477Y-71609890D01*
X125660798Y-55900567D01*
X125722119Y-55867084D01*
X125791811Y-55872068D01*
X125795921Y-55873686D01*
X125855581Y-55898398D01*
X126108884Y-55966270D01*
X126357188Y-55998960D01*
X126365074Y-55999999D01*
X126368880Y-56000500D01*
X126368887Y-56000500D01*
X126631113Y-56000500D01*
X126631120Y-56000500D01*
X126891116Y-55966270D01*
X127144419Y-55898398D01*
X127386697Y-55798043D01*
X127613803Y-55666924D01*
X127821851Y-55507282D01*
X127821855Y-55507277D01*
X127821860Y-55507274D01*
X128007274Y-55321860D01*
X128007277Y-55321855D01*
X128007282Y-55321851D01*
X128166924Y-55113803D01*
X128298043Y-54886697D01*
X128398398Y-54644419D01*
X128466270Y-54391116D01*
X128500500Y-54131120D01*
X128500500Y-53868905D01*
X132500000Y-53868905D01*
X132500000Y-54131094D01*
X132534220Y-54391009D01*
X132534222Y-54391020D01*
X132602075Y-54644255D01*
X132702404Y-54886471D01*
X132702409Y-54886482D01*
X132833488Y-55113516D01*
X132833494Y-55113524D01*
X132920080Y-55226365D01*
X133822421Y-54324024D01*
X133835359Y-54355258D01*
X133917437Y-54478097D01*
X134021903Y-54582563D01*
X134144742Y-54664641D01*
X134175974Y-54677577D01*
X133273633Y-55579917D01*
X133273633Y-55579918D01*
X133386475Y-55666505D01*
X133386483Y-55666511D01*
X133613517Y-55797590D01*
X133613528Y-55797595D01*
X133855744Y-55897924D01*
X134108979Y-55965777D01*
X134108990Y-55965779D01*
X134368905Y-55999999D01*
X134368920Y-56000000D01*
X134631080Y-56000000D01*
X134631094Y-55999999D01*
X134891009Y-55965779D01*
X134891020Y-55965777D01*
X135144255Y-55897924D01*
X135386471Y-55797595D01*
X135386482Y-55797590D01*
X135613516Y-55666511D01*
X135613534Y-55666499D01*
X135726365Y-55579919D01*
X135726365Y-55579917D01*
X134824025Y-54677578D01*
X134855258Y-54664641D01*
X134978097Y-54582563D01*
X135082563Y-54478097D01*
X135164641Y-54355258D01*
X135177577Y-54324025D01*
X136079917Y-55226365D01*
X136079919Y-55226365D01*
X136166499Y-55113534D01*
X136166511Y-55113516D01*
X136297590Y-54886482D01*
X136297595Y-54886471D01*
X136397924Y-54644255D01*
X136465777Y-54391020D01*
X136465779Y-54391009D01*
X136499999Y-54131094D01*
X136500000Y-54131080D01*
X136500000Y-53868919D01*
X136499999Y-53868905D01*
X136465779Y-53608990D01*
X136465777Y-53608979D01*
X136397924Y-53355744D01*
X136297595Y-53113528D01*
X136297590Y-53113517D01*
X136166511Y-52886483D01*
X136166505Y-52886475D01*
X136079918Y-52773633D01*
X136079917Y-52773633D01*
X135177577Y-53675973D01*
X135164641Y-53644742D01*
X135082563Y-53521903D01*
X134978097Y-53417437D01*
X134855258Y-53335359D01*
X134824023Y-53322421D01*
X135726365Y-52420080D01*
X135613524Y-52333494D01*
X135613516Y-52333488D01*
X135386482Y-52202409D01*
X135386471Y-52202404D01*
X135144255Y-52102075D01*
X134891020Y-52034222D01*
X134891009Y-52034220D01*
X134631094Y-52000000D01*
X134368905Y-52000000D01*
X134108990Y-52034220D01*
X134108979Y-52034222D01*
X133855744Y-52102075D01*
X133613528Y-52202404D01*
X133613517Y-52202409D01*
X133386471Y-52333496D01*
X133273633Y-52420079D01*
X133273633Y-52420080D01*
X134175974Y-53322421D01*
X134144742Y-53335359D01*
X134021903Y-53417437D01*
X133917437Y-53521903D01*
X133835359Y-53644742D01*
X133822421Y-53675974D01*
X132920080Y-52773633D01*
X132920079Y-52773633D01*
X132833496Y-52886471D01*
X132702409Y-53113517D01*
X132702404Y-53113528D01*
X132602075Y-53355744D01*
X132534222Y-53608979D01*
X132534220Y-53608990D01*
X132500000Y-53868905D01*
X128500500Y-53868905D01*
X128500500Y-53868880D01*
X128466270Y-53608884D01*
X128398398Y-53355581D01*
X128390022Y-53335359D01*
X128298046Y-53113309D01*
X128298041Y-53113299D01*
X128166924Y-52886196D01*
X128007281Y-52678148D01*
X128007274Y-52678140D01*
X127821860Y-52492726D01*
X127821851Y-52492718D01*
X127613803Y-52333075D01*
X127386700Y-52201958D01*
X127386690Y-52201953D01*
X127144428Y-52101605D01*
X127144421Y-52101603D01*
X127144419Y-52101602D01*
X126891116Y-52033730D01*
X126833339Y-52026123D01*
X126631127Y-51999500D01*
X126631120Y-51999500D01*
X126368880Y-51999500D01*
X126368872Y-51999500D01*
X126137772Y-52029926D01*
X126108884Y-52033730D01*
X125855581Y-52101602D01*
X125855571Y-52101605D01*
X125613309Y-52201953D01*
X125613299Y-52201958D01*
X125386196Y-52333075D01*
X125178148Y-52492718D01*
X124992718Y-52678148D01*
X124833075Y-52886196D01*
X124701958Y-53113299D01*
X124701953Y-53113309D01*
X124601605Y-53355571D01*
X124601602Y-53355581D01*
X124533730Y-53608884D01*
X124533716Y-53608990D01*
X124499500Y-53868872D01*
X124499500Y-54131127D01*
X124515085Y-54249500D01*
X124533730Y-54391116D01*
X124574142Y-54541936D01*
X124601602Y-54644418D01*
X124601605Y-54644428D01*
X124626309Y-54704068D01*
X124633778Y-54773538D01*
X124602503Y-54836017D01*
X124599429Y-54839202D01*
X91937951Y-87500681D01*
X91876628Y-87534166D01*
X91850270Y-87537000D01*
X81171248Y-87537000D01*
X81104209Y-87517315D01*
X81084239Y-87501348D01*
X81073569Y-87490839D01*
X81067712Y-87481344D01*
X80943656Y-87357288D01*
X80928416Y-87347888D01*
X80918431Y-87338054D01*
X80907990Y-87319276D01*
X80893618Y-87303297D01*
X80891347Y-87289342D01*
X80884479Y-87276989D01*
X80885848Y-87255541D01*
X80882397Y-87234334D01*
X80888030Y-87221368D01*
X80888931Y-87207261D01*
X80901677Y-87189959D01*
X80910240Y-87170252D01*
X80926708Y-87155982D01*
X80930373Y-87151009D01*
X80934083Y-87149592D01*
X80940348Y-87144165D01*
X80943342Y-87142318D01*
X81067315Y-87018345D01*
X81159356Y-86869124D01*
X81159358Y-86869119D01*
X81214505Y-86702697D01*
X81214506Y-86702690D01*
X81224999Y-86599986D01*
X81225000Y-86599973D01*
X81225000Y-86462500D01*
X78775001Y-86462500D01*
X78775001Y-86599986D01*
X78785494Y-86702697D01*
X78840641Y-86869119D01*
X78840643Y-86869124D01*
X78932684Y-87018345D01*
X79056655Y-87142316D01*
X79056659Y-87142319D01*
X79059656Y-87144168D01*
X79061279Y-87145972D01*
X79062323Y-87146798D01*
X79062181Y-87146976D01*
X79106381Y-87196116D01*
X79117602Y-87265079D01*
X79089759Y-87329161D01*
X79059661Y-87355241D01*
X79056349Y-87357283D01*
X79056343Y-87357288D01*
X78932289Y-87481342D01*
X78840187Y-87630663D01*
X78840186Y-87630666D01*
X78785001Y-87797203D01*
X78785001Y-87797204D01*
X78785000Y-87797204D01*
X78774500Y-87899983D01*
X78774500Y-88400269D01*
X78754815Y-88467308D01*
X78738181Y-88487950D01*
X78329618Y-88896514D01*
X78268295Y-88929999D01*
X78241937Y-88932833D01*
X76772981Y-88932833D01*
X76705942Y-88913148D01*
X76662497Y-88865130D01*
X76655049Y-88850513D01*
X76530109Y-88678546D01*
X76379786Y-88528223D01*
X76207820Y-88403284D01*
X76018414Y-88306777D01*
X76018413Y-88306776D01*
X76018412Y-88306776D01*
X75816243Y-88241087D01*
X75816241Y-88241086D01*
X75816240Y-88241086D01*
X75654957Y-88215541D01*
X75606287Y-88207833D01*
X75393713Y-88207833D01*
X75345042Y-88215541D01*
X75183760Y-88241086D01*
X74981585Y-88306777D01*
X74792179Y-88403284D01*
X74620213Y-88528223D01*
X74469894Y-88678542D01*
X74469890Y-88678547D01*
X74350318Y-88843126D01*
X74294989Y-88885792D01*
X74225375Y-88891771D01*
X74163580Y-88859166D01*
X74149682Y-88843126D01*
X74030109Y-88678547D01*
X74030105Y-88678542D01*
X73879786Y-88528223D01*
X73707820Y-88403284D01*
X73518414Y-88306777D01*
X73518413Y-88306776D01*
X73518412Y-88306776D01*
X73316243Y-88241087D01*
X73316241Y-88241086D01*
X73316240Y-88241086D01*
X73154957Y-88215541D01*
X73106287Y-88207833D01*
X72893713Y-88207833D01*
X72845042Y-88215541D01*
X72683760Y-88241086D01*
X72481585Y-88306777D01*
X72292179Y-88403284D01*
X72120213Y-88528223D01*
X71969894Y-88678542D01*
X71969890Y-88678547D01*
X71850318Y-88843126D01*
X71794989Y-88885792D01*
X71725375Y-88891771D01*
X71663580Y-88859166D01*
X71649682Y-88843126D01*
X71530109Y-88678547D01*
X71530105Y-88678542D01*
X71379786Y-88528223D01*
X71207820Y-88403284D01*
X71018414Y-88306777D01*
X71018413Y-88306776D01*
X71018412Y-88306776D01*
X70816243Y-88241087D01*
X70816241Y-88241086D01*
X70816240Y-88241086D01*
X70654957Y-88215541D01*
X70606287Y-88207833D01*
X70393713Y-88207833D01*
X70345042Y-88215541D01*
X70183760Y-88241086D01*
X69981585Y-88306777D01*
X69792179Y-88403284D01*
X69620213Y-88528223D01*
X69469894Y-88678542D01*
X69469890Y-88678547D01*
X69350318Y-88843126D01*
X69294989Y-88885792D01*
X69225375Y-88891771D01*
X69163580Y-88859166D01*
X69149682Y-88843126D01*
X69030109Y-88678547D01*
X69030105Y-88678542D01*
X68879786Y-88528223D01*
X68707820Y-88403284D01*
X68518414Y-88306777D01*
X68518413Y-88306776D01*
X68518412Y-88306776D01*
X68316243Y-88241087D01*
X68316241Y-88241086D01*
X68316240Y-88241086D01*
X68154957Y-88215541D01*
X68106287Y-88207833D01*
X67893713Y-88207833D01*
X67845042Y-88215541D01*
X67683760Y-88241086D01*
X67481585Y-88306777D01*
X67292179Y-88403284D01*
X67120213Y-88528223D01*
X66969894Y-88678542D01*
X66969890Y-88678547D01*
X66850318Y-88843126D01*
X66794989Y-88885792D01*
X66725375Y-88891771D01*
X66663580Y-88859166D01*
X66649682Y-88843126D01*
X66530109Y-88678547D01*
X66530105Y-88678542D01*
X66379786Y-88528223D01*
X66207820Y-88403284D01*
X66018414Y-88306777D01*
X66018413Y-88306776D01*
X66018412Y-88306776D01*
X65816243Y-88241087D01*
X65816241Y-88241086D01*
X65816240Y-88241086D01*
X65654957Y-88215541D01*
X65606287Y-88207833D01*
X65393713Y-88207833D01*
X65345042Y-88215541D01*
X65183760Y-88241086D01*
X64981585Y-88306777D01*
X64792179Y-88403284D01*
X64620213Y-88528223D01*
X64469894Y-88678542D01*
X64469890Y-88678547D01*
X64350318Y-88843126D01*
X64294989Y-88885792D01*
X64225375Y-88891771D01*
X64163580Y-88859166D01*
X64149682Y-88843126D01*
X64030109Y-88678547D01*
X64030105Y-88678542D01*
X63879786Y-88528223D01*
X63707820Y-88403284D01*
X63518414Y-88306777D01*
X63518413Y-88306776D01*
X63518412Y-88306776D01*
X63316243Y-88241087D01*
X63316241Y-88241086D01*
X63316240Y-88241086D01*
X63154957Y-88215541D01*
X63106287Y-88207833D01*
X62893713Y-88207833D01*
X62845042Y-88215541D01*
X62683760Y-88241086D01*
X62481585Y-88306777D01*
X62292179Y-88403284D01*
X62120213Y-88528223D01*
X61969894Y-88678542D01*
X61969890Y-88678547D01*
X61850318Y-88843126D01*
X61794989Y-88885792D01*
X61725375Y-88891771D01*
X61663580Y-88859166D01*
X61649682Y-88843126D01*
X61530109Y-88678547D01*
X61530105Y-88678542D01*
X61379786Y-88528223D01*
X61207820Y-88403284D01*
X61018414Y-88306777D01*
X61018413Y-88306776D01*
X61018412Y-88306776D01*
X60816243Y-88241087D01*
X60816241Y-88241086D01*
X60816240Y-88241086D01*
X60654957Y-88215541D01*
X60606287Y-88207833D01*
X60393713Y-88207833D01*
X60345042Y-88215541D01*
X60183760Y-88241086D01*
X59981585Y-88306777D01*
X59792179Y-88403284D01*
X59620215Y-88528222D01*
X59481398Y-88667039D01*
X59420075Y-88700523D01*
X59350383Y-88695539D01*
X59294450Y-88653667D01*
X59288178Y-88644453D01*
X59192712Y-88489677D01*
X59068657Y-88365622D01*
X59068656Y-88365621D01*
X58919334Y-88273519D01*
X58752797Y-88218334D01*
X58752795Y-88218333D01*
X58650010Y-88207833D01*
X57349998Y-88207833D01*
X57349981Y-88207834D01*
X57247203Y-88218333D01*
X57247200Y-88218334D01*
X57080668Y-88273518D01*
X57080663Y-88273520D01*
X56931342Y-88365622D01*
X56807289Y-88489675D01*
X56715187Y-88638996D01*
X56715185Y-88639001D01*
X56710325Y-88653667D01*
X56660001Y-88805536D01*
X56660001Y-88805537D01*
X56660000Y-88805537D01*
X56649500Y-88908316D01*
X56649500Y-90458334D01*
X56649501Y-90458351D01*
X56660000Y-90561129D01*
X56660001Y-90561132D01*
X56713378Y-90722212D01*
X56715186Y-90727667D01*
X56807288Y-90876989D01*
X56931344Y-91001045D01*
X57080666Y-91093147D01*
X57247203Y-91148332D01*
X57349991Y-91158833D01*
X58650008Y-91158832D01*
X58752797Y-91148332D01*
X58919334Y-91093147D01*
X59068656Y-91001045D01*
X59192712Y-90876989D01*
X59284814Y-90727667D01*
X59284814Y-90727664D01*
X59288178Y-90722212D01*
X59340126Y-90675487D01*
X59409088Y-90664264D01*
X59473170Y-90692107D01*
X59481398Y-90699627D01*
X59620213Y-90838442D01*
X59792179Y-90963381D01*
X59792181Y-90963382D01*
X59792184Y-90963384D01*
X59981588Y-91059890D01*
X60183757Y-91125579D01*
X60393713Y-91158833D01*
X60393714Y-91158833D01*
X60606286Y-91158833D01*
X60606287Y-91158833D01*
X60816243Y-91125579D01*
X61018412Y-91059890D01*
X61207816Y-90963384D01*
X61305357Y-90892517D01*
X61379786Y-90838442D01*
X61379788Y-90838439D01*
X61379792Y-90838437D01*
X61530104Y-90688125D01*
X61649683Y-90523537D01*
X61705011Y-90480873D01*
X61774624Y-90474894D01*
X61836420Y-90507499D01*
X61850313Y-90523532D01*
X61952560Y-90664264D01*
X61969896Y-90688125D01*
X62120213Y-90838442D01*
X62292179Y-90963381D01*
X62292181Y-90963382D01*
X62292184Y-90963384D01*
X62481588Y-91059890D01*
X62683757Y-91125579D01*
X62893713Y-91158833D01*
X62893714Y-91158833D01*
X63106286Y-91158833D01*
X63106287Y-91158833D01*
X63316243Y-91125579D01*
X63518412Y-91059890D01*
X63707816Y-90963384D01*
X63805357Y-90892517D01*
X63879786Y-90838442D01*
X63879788Y-90838439D01*
X63879792Y-90838437D01*
X64030104Y-90688125D01*
X64149683Y-90523537D01*
X64205011Y-90480873D01*
X64274624Y-90474894D01*
X64336420Y-90507499D01*
X64350313Y-90523532D01*
X64452560Y-90664264D01*
X64469896Y-90688125D01*
X64620213Y-90838442D01*
X64792179Y-90963381D01*
X64792181Y-90963382D01*
X64792184Y-90963384D01*
X64981588Y-91059890D01*
X65183757Y-91125579D01*
X65393713Y-91158833D01*
X65393714Y-91158833D01*
X65606286Y-91158833D01*
X65606287Y-91158833D01*
X65816243Y-91125579D01*
X66018412Y-91059890D01*
X66207816Y-90963384D01*
X66305357Y-90892517D01*
X66379786Y-90838442D01*
X66379788Y-90838439D01*
X66379792Y-90838437D01*
X66530104Y-90688125D01*
X66649683Y-90523537D01*
X66705011Y-90480873D01*
X66774624Y-90474894D01*
X66836420Y-90507499D01*
X66850313Y-90523532D01*
X66952560Y-90664264D01*
X66969896Y-90688125D01*
X67120213Y-90838442D01*
X67292179Y-90963381D01*
X67292181Y-90963382D01*
X67292184Y-90963384D01*
X67481588Y-91059890D01*
X67683757Y-91125579D01*
X67893713Y-91158833D01*
X67893714Y-91158833D01*
X68106286Y-91158833D01*
X68106287Y-91158833D01*
X68316243Y-91125579D01*
X68518412Y-91059890D01*
X68707816Y-90963384D01*
X68805357Y-90892517D01*
X68879786Y-90838442D01*
X68879788Y-90838439D01*
X68879792Y-90838437D01*
X69030104Y-90688125D01*
X69149683Y-90523537D01*
X69205011Y-90480873D01*
X69274624Y-90474894D01*
X69336420Y-90507499D01*
X69350313Y-90523532D01*
X69452560Y-90664264D01*
X69469896Y-90688125D01*
X69620213Y-90838442D01*
X69792179Y-90963381D01*
X69792181Y-90963382D01*
X69792184Y-90963384D01*
X69981588Y-91059890D01*
X70183757Y-91125579D01*
X70393713Y-91158833D01*
X70393714Y-91158833D01*
X70606286Y-91158833D01*
X70606287Y-91158833D01*
X70816243Y-91125579D01*
X71018412Y-91059890D01*
X71207816Y-90963384D01*
X71305357Y-90892517D01*
X71379786Y-90838442D01*
X71379788Y-90838439D01*
X71379792Y-90838437D01*
X71530104Y-90688125D01*
X71649683Y-90523537D01*
X71705011Y-90480873D01*
X71774624Y-90474894D01*
X71836420Y-90507499D01*
X71850313Y-90523532D01*
X71952560Y-90664264D01*
X71969896Y-90688125D01*
X72120213Y-90838442D01*
X72292179Y-90963381D01*
X72292181Y-90963382D01*
X72292184Y-90963384D01*
X72481588Y-91059890D01*
X72683757Y-91125579D01*
X72893713Y-91158833D01*
X72893714Y-91158833D01*
X73106286Y-91158833D01*
X73106287Y-91158833D01*
X73316243Y-91125579D01*
X73518412Y-91059890D01*
X73707816Y-90963384D01*
X73805357Y-90892517D01*
X73879786Y-90838442D01*
X73879788Y-90838439D01*
X73879792Y-90838437D01*
X74030104Y-90688125D01*
X74149683Y-90523537D01*
X74205011Y-90480873D01*
X74274624Y-90474894D01*
X74336420Y-90507499D01*
X74350313Y-90523532D01*
X74452560Y-90664264D01*
X74469896Y-90688125D01*
X74620213Y-90838442D01*
X74792179Y-90963381D01*
X74792181Y-90963382D01*
X74792184Y-90963384D01*
X74981588Y-91059890D01*
X75183757Y-91125579D01*
X75393713Y-91158833D01*
X75393714Y-91158833D01*
X75606286Y-91158833D01*
X75606287Y-91158833D01*
X75816243Y-91125579D01*
X76018412Y-91059890D01*
X76207816Y-90963384D01*
X76305357Y-90892517D01*
X76379786Y-90838442D01*
X76379788Y-90838439D01*
X76379792Y-90838437D01*
X76530104Y-90688125D01*
X76530106Y-90688121D01*
X76530109Y-90688119D01*
X76655049Y-90516152D01*
X76655347Y-90515569D01*
X76662497Y-90501536D01*
X76710473Y-90450741D01*
X76772981Y-90433833D01*
X77821103Y-90433833D01*
X77888142Y-90453518D01*
X77908784Y-90470152D01*
X80663181Y-93224548D01*
X80696666Y-93285871D01*
X80699500Y-93312229D01*
X80699500Y-94347870D01*
X80699501Y-94347876D01*
X80705908Y-94407483D01*
X80756202Y-94542328D01*
X80756206Y-94542335D01*
X80842452Y-94657544D01*
X80842455Y-94657547D01*
X80957664Y-94743793D01*
X80957671Y-94743797D01*
X81002618Y-94760561D01*
X81092517Y-94794091D01*
X81152127Y-94800500D01*
X81152153Y-94800499D01*
X81155453Y-94800678D01*
X81155365Y-94802308D01*
X81216238Y-94820067D01*
X81262084Y-94872791D01*
X81269804Y-94916251D01*
X81953554Y-95600000D01*
X81947339Y-95600000D01*
X81845606Y-95627259D01*
X81754394Y-95679920D01*
X81679920Y-95754394D01*
X81627259Y-95845606D01*
X81600000Y-95947339D01*
X81600000Y-95953553D01*
X80920524Y-95274077D01*
X80920523Y-95274077D01*
X80888143Y-95318644D01*
X80795244Y-95500968D01*
X80732009Y-95695582D01*
X80700000Y-95897682D01*
X80700000Y-96102317D01*
X80732009Y-96304417D01*
X80795244Y-96499031D01*
X80888141Y-96681350D01*
X80888147Y-96681359D01*
X80920523Y-96725921D01*
X80920524Y-96725922D01*
X81600000Y-96046446D01*
X81600000Y-96052661D01*
X81627259Y-96154394D01*
X81679920Y-96245606D01*
X81754394Y-96320080D01*
X81845606Y-96372741D01*
X81947339Y-96400000D01*
X81953553Y-96400000D01*
X81274076Y-97079474D01*
X81318650Y-97111859D01*
X81500968Y-97204755D01*
X81695582Y-97267990D01*
X81897683Y-97300000D01*
X82102317Y-97300000D01*
X82304417Y-97267990D01*
X82499031Y-97204755D01*
X82681349Y-97111859D01*
X82725921Y-97079474D01*
X82046447Y-96400000D01*
X82052661Y-96400000D01*
X82154394Y-96372741D01*
X82245606Y-96320080D01*
X82320080Y-96245606D01*
X82372741Y-96154394D01*
X82400000Y-96052661D01*
X82400000Y-96046447D01*
X83079474Y-96725921D01*
X83111859Y-96681349D01*
X83204755Y-96499031D01*
X83267990Y-96304417D01*
X83300000Y-96102317D01*
X83300000Y-95897682D01*
X83267990Y-95695582D01*
X83204755Y-95500968D01*
X83111859Y-95318650D01*
X83079474Y-95274077D01*
X83079474Y-95274076D01*
X82400000Y-95953551D01*
X82400000Y-95947339D01*
X82372741Y-95845606D01*
X82320080Y-95754394D01*
X82245606Y-95679920D01*
X82154394Y-95627259D01*
X82052661Y-95600000D01*
X82046446Y-95600000D01*
X82730931Y-94915515D01*
X82741364Y-94865852D01*
X82790415Y-94816094D01*
X82844637Y-94802048D01*
X82844576Y-94800900D01*
X82844571Y-94800854D01*
X82844573Y-94800853D01*
X82844564Y-94800676D01*
X82847857Y-94800499D01*
X82847872Y-94800499D01*
X82907483Y-94794091D01*
X83042331Y-94743796D01*
X83157546Y-94657546D01*
X83243796Y-94542331D01*
X83294091Y-94407483D01*
X83300500Y-94347873D01*
X83300499Y-92652128D01*
X83294091Y-92592517D01*
X83243796Y-92457669D01*
X83243795Y-92457668D01*
X83243793Y-92457664D01*
X83157547Y-92342455D01*
X83157544Y-92342452D01*
X83042335Y-92256206D01*
X83042328Y-92256202D01*
X82907482Y-92205908D01*
X82907483Y-92205908D01*
X82847883Y-92199501D01*
X82847881Y-92199500D01*
X82847873Y-92199500D01*
X82847865Y-92199500D01*
X81812229Y-92199500D01*
X81745190Y-92179815D01*
X81724548Y-92163181D01*
X79542798Y-89981431D01*
X79509313Y-89920108D01*
X79514297Y-89850416D01*
X79542798Y-89806069D01*
X79937049Y-89411818D01*
X79998372Y-89378333D01*
X80024730Y-89375499D01*
X80525002Y-89375499D01*
X80525008Y-89375499D01*
X80627797Y-89364999D01*
X80794334Y-89309814D01*
X80943656Y-89217712D01*
X81067712Y-89093656D01*
X81067715Y-89093650D01*
X81072193Y-89087989D01*
X81074015Y-89089430D01*
X81117665Y-89050175D01*
X81171248Y-89038000D01*
X90662638Y-89038000D01*
X90729677Y-89057685D01*
X90775432Y-89110489D01*
X90785376Y-89179647D01*
X90756351Y-89243203D01*
X90750319Y-89249681D01*
X90000000Y-89999999D01*
X90000000Y-99875500D01*
X89980315Y-99942539D01*
X89927511Y-99988294D01*
X89876000Y-99999500D01*
X50124500Y-99999500D01*
X50057461Y-99979815D01*
X50011706Y-99927011D01*
X50000500Y-99875500D01*
X50000500Y-96878711D01*
X51149500Y-96878711D01*
X51149500Y-97121288D01*
X51181161Y-97361785D01*
X51243947Y-97596104D01*
X51336773Y-97820205D01*
X51336776Y-97820212D01*
X51458064Y-98030289D01*
X51458066Y-98030292D01*
X51458067Y-98030293D01*
X51605733Y-98222736D01*
X51605739Y-98222743D01*
X51777256Y-98394260D01*
X51777262Y-98394265D01*
X51969711Y-98541936D01*
X52179788Y-98663224D01*
X52403900Y-98756054D01*
X52638211Y-98818838D01*
X52818586Y-98842584D01*
X52878711Y-98850500D01*
X52878712Y-98850500D01*
X53121289Y-98850500D01*
X53169388Y-98844167D01*
X53361789Y-98818838D01*
X53596100Y-98756054D01*
X53820212Y-98663224D01*
X54030289Y-98541936D01*
X54222738Y-98394265D01*
X54394265Y-98222738D01*
X54541936Y-98030289D01*
X54663224Y-97820212D01*
X54756054Y-97596100D01*
X54818838Y-97361789D01*
X54850500Y-97121288D01*
X54850500Y-96878712D01*
X54818838Y-96638211D01*
X54756054Y-96403900D01*
X54663224Y-96179788D01*
X54541936Y-95969711D01*
X54541933Y-95969708D01*
X54541932Y-95969705D01*
X54540856Y-95968303D01*
X54540855Y-95968302D01*
X54394266Y-95777263D01*
X54394260Y-95777256D01*
X54222743Y-95605739D01*
X54222736Y-95605733D01*
X54030293Y-95458067D01*
X54030292Y-95458066D01*
X54030289Y-95458064D01*
X53820212Y-95336776D01*
X53776452Y-95318650D01*
X53596104Y-95243947D01*
X53361785Y-95181161D01*
X53121289Y-95149500D01*
X53121288Y-95149500D01*
X52878712Y-95149500D01*
X52878711Y-95149500D01*
X52638214Y-95181161D01*
X52403895Y-95243947D01*
X52179794Y-95336773D01*
X52179785Y-95336777D01*
X51969706Y-95458067D01*
X51777263Y-95605733D01*
X51777256Y-95605739D01*
X51605739Y-95777256D01*
X51605733Y-95777263D01*
X51458067Y-95969706D01*
X51336777Y-96179785D01*
X51336773Y-96179794D01*
X51243947Y-96403895D01*
X51181161Y-96638214D01*
X51149500Y-96878711D01*
X50000500Y-96878711D01*
X50000500Y-85825013D01*
X78775000Y-85825013D01*
X78775000Y-85962500D01*
X79750000Y-85962500D01*
X80250000Y-85962500D01*
X81224999Y-85962500D01*
X81224999Y-85825028D01*
X81224998Y-85825013D01*
X81214505Y-85722302D01*
X81159358Y-85555880D01*
X81159356Y-85555875D01*
X81067315Y-85406654D01*
X80943345Y-85282684D01*
X80794124Y-85190643D01*
X80794119Y-85190641D01*
X80627697Y-85135494D01*
X80627690Y-85135493D01*
X80524986Y-85125000D01*
X80250000Y-85125000D01*
X80250000Y-85962500D01*
X79750000Y-85962500D01*
X79750000Y-85125000D01*
X79475029Y-85125000D01*
X79475012Y-85125001D01*
X79372302Y-85135494D01*
X79205880Y-85190641D01*
X79205875Y-85190643D01*
X79056654Y-85282684D01*
X78932684Y-85406654D01*
X78840643Y-85555875D01*
X78840641Y-85555880D01*
X78785494Y-85722302D01*
X78785493Y-85722309D01*
X78775000Y-85825013D01*
X50000500Y-85825013D01*
X50000500Y-83225013D01*
X56650000Y-83225013D01*
X56650000Y-83750000D01*
X57595854Y-83750000D01*
X57557370Y-83816657D01*
X57525000Y-83937465D01*
X57525000Y-84062535D01*
X57557370Y-84183343D01*
X57595854Y-84250000D01*
X56650001Y-84250000D01*
X56650001Y-84774986D01*
X56660494Y-84877697D01*
X56715641Y-85044119D01*
X56715643Y-85044124D01*
X56807684Y-85193345D01*
X56931654Y-85317315D01*
X57080875Y-85409356D01*
X57080880Y-85409358D01*
X57247302Y-85464505D01*
X57247309Y-85464506D01*
X57350019Y-85474999D01*
X57749999Y-85474999D01*
X57750000Y-85474998D01*
X57750000Y-84404145D01*
X57816657Y-84442630D01*
X57937465Y-84475000D01*
X58062535Y-84475000D01*
X58183343Y-84442630D01*
X58250000Y-84404145D01*
X58250000Y-85474999D01*
X58649972Y-85474999D01*
X58649986Y-85474998D01*
X58752697Y-85464505D01*
X58919119Y-85409358D01*
X58919124Y-85409356D01*
X59068345Y-85317315D01*
X59192317Y-85193343D01*
X59288085Y-85038078D01*
X59340033Y-84991353D01*
X59408995Y-84980130D01*
X59473077Y-85007973D01*
X59481305Y-85015493D01*
X59620535Y-85154723D01*
X59620540Y-85154727D01*
X59792442Y-85279620D01*
X59981782Y-85376095D01*
X60183871Y-85441757D01*
X60250000Y-85452231D01*
X60250000Y-84404145D01*
X60316657Y-84442630D01*
X60437465Y-84475000D01*
X60562535Y-84475000D01*
X60683343Y-84442630D01*
X60750000Y-84404145D01*
X60750000Y-85452230D01*
X60816126Y-85441757D01*
X60816129Y-85441757D01*
X61018217Y-85376095D01*
X61207557Y-85279620D01*
X61379459Y-85154727D01*
X61379464Y-85154723D01*
X61529727Y-85004460D01*
X61649682Y-84839355D01*
X61705011Y-84796689D01*
X61774625Y-84790710D01*
X61836420Y-84823315D01*
X61850318Y-84839355D01*
X61970272Y-85004460D01*
X62120535Y-85154723D01*
X62120540Y-85154727D01*
X62292442Y-85279620D01*
X62481782Y-85376095D01*
X62683871Y-85441757D01*
X62750000Y-85452231D01*
X62750000Y-84404145D01*
X62816657Y-84442630D01*
X62937465Y-84475000D01*
X63062535Y-84475000D01*
X63183343Y-84442630D01*
X63250000Y-84404145D01*
X63250000Y-85452230D01*
X63316126Y-85441757D01*
X63316129Y-85441757D01*
X63518217Y-85376095D01*
X63707557Y-85279620D01*
X63879459Y-85154727D01*
X63879464Y-85154723D01*
X64029727Y-85004460D01*
X64149682Y-84839355D01*
X64205011Y-84796689D01*
X64274625Y-84790710D01*
X64336420Y-84823315D01*
X64350318Y-84839355D01*
X64470272Y-85004460D01*
X64620535Y-85154723D01*
X64620540Y-85154727D01*
X64792442Y-85279620D01*
X64981782Y-85376095D01*
X65183871Y-85441757D01*
X65250000Y-85452231D01*
X65250000Y-84404145D01*
X65316657Y-84442630D01*
X65437465Y-84475000D01*
X65562535Y-84475000D01*
X65683343Y-84442630D01*
X65750000Y-84404145D01*
X65750000Y-85452230D01*
X65816126Y-85441757D01*
X65816129Y-85441757D01*
X66018217Y-85376095D01*
X66207557Y-85279620D01*
X66379459Y-85154727D01*
X66379464Y-85154723D01*
X66529727Y-85004460D01*
X66649682Y-84839355D01*
X66705011Y-84796689D01*
X66774625Y-84790710D01*
X66836420Y-84823315D01*
X66850318Y-84839355D01*
X66970272Y-85004460D01*
X67120535Y-85154723D01*
X67120540Y-85154727D01*
X67292442Y-85279620D01*
X67481782Y-85376095D01*
X67683871Y-85441757D01*
X67750000Y-85452231D01*
X67750000Y-84404145D01*
X67816657Y-84442630D01*
X67937465Y-84475000D01*
X68062535Y-84475000D01*
X68183343Y-84442630D01*
X68250000Y-84404145D01*
X68250000Y-85452230D01*
X68316126Y-85441757D01*
X68316129Y-85441757D01*
X68518217Y-85376095D01*
X68707557Y-85279620D01*
X68879459Y-85154727D01*
X68879464Y-85154723D01*
X69029727Y-85004460D01*
X69149682Y-84839355D01*
X69205011Y-84796689D01*
X69274625Y-84790710D01*
X69336420Y-84823315D01*
X69350318Y-84839355D01*
X69470272Y-85004460D01*
X69620535Y-85154723D01*
X69620540Y-85154727D01*
X69792442Y-85279620D01*
X69981782Y-85376095D01*
X70183871Y-85441757D01*
X70250000Y-85452231D01*
X70250000Y-84404145D01*
X70316657Y-84442630D01*
X70437465Y-84475000D01*
X70562535Y-84475000D01*
X70683343Y-84442630D01*
X70750000Y-84404145D01*
X70750000Y-85452231D01*
X70816126Y-85441757D01*
X70816129Y-85441757D01*
X71018217Y-85376095D01*
X71207557Y-85279620D01*
X71379459Y-85154727D01*
X71379464Y-85154723D01*
X71529727Y-85004460D01*
X71649682Y-84839355D01*
X71705011Y-84796689D01*
X71774625Y-84790710D01*
X71836420Y-84823315D01*
X71850318Y-84839355D01*
X71970272Y-85004460D01*
X72120535Y-85154723D01*
X72120540Y-85154727D01*
X72292442Y-85279620D01*
X72481782Y-85376095D01*
X72683871Y-85441757D01*
X72750000Y-85452231D01*
X72750000Y-84404145D01*
X72816657Y-84442630D01*
X72937465Y-84475000D01*
X73062535Y-84475000D01*
X73183343Y-84442630D01*
X73250000Y-84404145D01*
X73250000Y-85452231D01*
X73316126Y-85441757D01*
X73316129Y-85441757D01*
X73518217Y-85376095D01*
X73707557Y-85279620D01*
X73879459Y-85154727D01*
X73879464Y-85154723D01*
X74029727Y-85004460D01*
X74149682Y-84839355D01*
X74205011Y-84796689D01*
X74274625Y-84790710D01*
X74336420Y-84823315D01*
X74350318Y-84839355D01*
X74470272Y-85004460D01*
X74620535Y-85154723D01*
X74620540Y-85154727D01*
X74792442Y-85279620D01*
X74981782Y-85376095D01*
X75183871Y-85441757D01*
X75250000Y-85452231D01*
X75250000Y-84404145D01*
X75316657Y-84442630D01*
X75437465Y-84475000D01*
X75562535Y-84475000D01*
X75683343Y-84442630D01*
X75750000Y-84404145D01*
X75750000Y-85452230D01*
X75816126Y-85441757D01*
X75816129Y-85441757D01*
X76018217Y-85376095D01*
X76207557Y-85279620D01*
X76379459Y-85154727D01*
X76379464Y-85154723D01*
X76529723Y-85004464D01*
X76529727Y-85004459D01*
X76654620Y-84832557D01*
X76751095Y-84643217D01*
X76816757Y-84441130D01*
X76816757Y-84441127D01*
X76847030Y-84250000D01*
X75904146Y-84250000D01*
X75942630Y-84183343D01*
X75975000Y-84062535D01*
X75975000Y-83937465D01*
X75942630Y-83816657D01*
X75904146Y-83750000D01*
X76847030Y-83750000D01*
X76816757Y-83558872D01*
X76816757Y-83558869D01*
X76751095Y-83356782D01*
X76654620Y-83167442D01*
X76529727Y-82995540D01*
X76529723Y-82995535D01*
X76379464Y-82845276D01*
X76379459Y-82845272D01*
X76207557Y-82720379D01*
X76018215Y-82623903D01*
X75816124Y-82558241D01*
X75750000Y-82547768D01*
X75750000Y-83595854D01*
X75683343Y-83557370D01*
X75562535Y-83525000D01*
X75437465Y-83525000D01*
X75316657Y-83557370D01*
X75250000Y-83595854D01*
X75250000Y-82547768D01*
X75249999Y-82547768D01*
X75183875Y-82558241D01*
X74981784Y-82623903D01*
X74792442Y-82720379D01*
X74620540Y-82845272D01*
X74620535Y-82845276D01*
X74470276Y-82995535D01*
X74470272Y-82995540D01*
X74350318Y-83160644D01*
X74294988Y-83203310D01*
X74225375Y-83209289D01*
X74163580Y-83176684D01*
X74149682Y-83160644D01*
X74029727Y-82995540D01*
X74029723Y-82995535D01*
X73879464Y-82845276D01*
X73879459Y-82845272D01*
X73707557Y-82720379D01*
X73518215Y-82623903D01*
X73316124Y-82558241D01*
X73250000Y-82547768D01*
X73250000Y-83595854D01*
X73183343Y-83557370D01*
X73062535Y-83525000D01*
X72937465Y-83525000D01*
X72816657Y-83557370D01*
X72750000Y-83595854D01*
X72750000Y-82547768D01*
X72749999Y-82547768D01*
X72683875Y-82558241D01*
X72481784Y-82623903D01*
X72292442Y-82720379D01*
X72120540Y-82845272D01*
X72120535Y-82845276D01*
X71970276Y-82995535D01*
X71970272Y-82995540D01*
X71850318Y-83160644D01*
X71794988Y-83203310D01*
X71725375Y-83209289D01*
X71663580Y-83176684D01*
X71649682Y-83160644D01*
X71529727Y-82995540D01*
X71529723Y-82995535D01*
X71379464Y-82845276D01*
X71379459Y-82845272D01*
X71207557Y-82720379D01*
X71018215Y-82623903D01*
X70816124Y-82558241D01*
X70750000Y-82547768D01*
X70750000Y-83595854D01*
X70683343Y-83557370D01*
X70562535Y-83525000D01*
X70437465Y-83525000D01*
X70316657Y-83557370D01*
X70250000Y-83595854D01*
X70250000Y-82547768D01*
X70249999Y-82547768D01*
X70183875Y-82558241D01*
X69981784Y-82623903D01*
X69792442Y-82720379D01*
X69620540Y-82845272D01*
X69620535Y-82845276D01*
X69470276Y-82995535D01*
X69470272Y-82995540D01*
X69350318Y-83160644D01*
X69294988Y-83203310D01*
X69225375Y-83209289D01*
X69163580Y-83176684D01*
X69149682Y-83160644D01*
X69029727Y-82995540D01*
X69029723Y-82995535D01*
X68879464Y-82845276D01*
X68879459Y-82845272D01*
X68707557Y-82720379D01*
X68518215Y-82623903D01*
X68316124Y-82558241D01*
X68250000Y-82547768D01*
X68250000Y-83595854D01*
X68183343Y-83557370D01*
X68062535Y-83525000D01*
X67937465Y-83525000D01*
X67816657Y-83557370D01*
X67750000Y-83595854D01*
X67750000Y-82547768D01*
X67749999Y-82547768D01*
X67683875Y-82558241D01*
X67481784Y-82623903D01*
X67292442Y-82720379D01*
X67120540Y-82845272D01*
X67120535Y-82845276D01*
X66970276Y-82995535D01*
X66970272Y-82995540D01*
X66850318Y-83160644D01*
X66794988Y-83203310D01*
X66725375Y-83209289D01*
X66663580Y-83176684D01*
X66649682Y-83160644D01*
X66529727Y-82995540D01*
X66529723Y-82995535D01*
X66379464Y-82845276D01*
X66379459Y-82845272D01*
X66207557Y-82720379D01*
X66018215Y-82623903D01*
X65816124Y-82558241D01*
X65750000Y-82547768D01*
X65750000Y-83595854D01*
X65683343Y-83557370D01*
X65562535Y-83525000D01*
X65437465Y-83525000D01*
X65316657Y-83557370D01*
X65250000Y-83595854D01*
X65250000Y-82547768D01*
X65249999Y-82547768D01*
X65183875Y-82558241D01*
X64981784Y-82623903D01*
X64792442Y-82720379D01*
X64620540Y-82845272D01*
X64620535Y-82845276D01*
X64470276Y-82995535D01*
X64470272Y-82995540D01*
X64350318Y-83160644D01*
X64294988Y-83203310D01*
X64225375Y-83209289D01*
X64163580Y-83176684D01*
X64149682Y-83160644D01*
X64029727Y-82995540D01*
X64029723Y-82995535D01*
X63879464Y-82845276D01*
X63879459Y-82845272D01*
X63707557Y-82720379D01*
X63518215Y-82623903D01*
X63316124Y-82558241D01*
X63250000Y-82547768D01*
X63250000Y-83595854D01*
X63183343Y-83557370D01*
X63062535Y-83525000D01*
X62937465Y-83525000D01*
X62816657Y-83557370D01*
X62750000Y-83595854D01*
X62750000Y-82547768D01*
X62749999Y-82547768D01*
X62683875Y-82558241D01*
X62481784Y-82623903D01*
X62292442Y-82720379D01*
X62120540Y-82845272D01*
X62120535Y-82845276D01*
X61970276Y-82995535D01*
X61970272Y-82995540D01*
X61850318Y-83160644D01*
X61794988Y-83203310D01*
X61725375Y-83209289D01*
X61663580Y-83176684D01*
X61649682Y-83160644D01*
X61529727Y-82995540D01*
X61529723Y-82995535D01*
X61379464Y-82845276D01*
X61379459Y-82845272D01*
X61207557Y-82720379D01*
X61018215Y-82623903D01*
X60816124Y-82558241D01*
X60750000Y-82547768D01*
X60750000Y-83595854D01*
X60683343Y-83557370D01*
X60562535Y-83525000D01*
X60437465Y-83525000D01*
X60316657Y-83557370D01*
X60250000Y-83595854D01*
X60250000Y-82547768D01*
X60249999Y-82547768D01*
X60183875Y-82558241D01*
X59981784Y-82623903D01*
X59792442Y-82720379D01*
X59620541Y-82845271D01*
X59481305Y-82984507D01*
X59419982Y-83017991D01*
X59350290Y-83013007D01*
X59294357Y-82971135D01*
X59288085Y-82961922D01*
X59192315Y-82806654D01*
X59068345Y-82682684D01*
X58919124Y-82590643D01*
X58919119Y-82590641D01*
X58752697Y-82535494D01*
X58752690Y-82535493D01*
X58649986Y-82525000D01*
X58250000Y-82525000D01*
X58250000Y-83595854D01*
X58183343Y-83557370D01*
X58062535Y-83525000D01*
X57937465Y-83525000D01*
X57816657Y-83557370D01*
X57750000Y-83595854D01*
X57750000Y-82525000D01*
X57350028Y-82525000D01*
X57350012Y-82525001D01*
X57247302Y-82535494D01*
X57080880Y-82590641D01*
X57080875Y-82590643D01*
X56931654Y-82682684D01*
X56807684Y-82806654D01*
X56715643Y-82955875D01*
X56715641Y-82955880D01*
X56660494Y-83122302D01*
X56660493Y-83122309D01*
X56650000Y-83225013D01*
X50000500Y-83225013D01*
X50000500Y-80124000D01*
X50020185Y-80056961D01*
X50072989Y-80011206D01*
X50124500Y-80000000D01*
X82000000Y-80000000D01*
X82000000Y-66124000D01*
X82019685Y-66056961D01*
X82072489Y-66011206D01*
X82124000Y-66000000D01*
X113000000Y-66000000D01*
X113000000Y-50124500D01*
X113019685Y-50057461D01*
X113072489Y-50011706D01*
X113124000Y-50000500D01*
X137876000Y-50000500D01*
X137943039Y-50020185D01*
G37*
%TD.AperFunction*%
%TD*%
M02*
