M48
; DRILL file {KiCad 9.0.0} date 2025-04-02T11:16:33+0300
; FORMAT={-:-/ absolute / inch / decimal}
; #@! TF.CreationDate,2025-04-02T11:16:33+03:00
; #@! TF.GenerationSoftware,Kicad,Pcbnew,9.0.0
; #@! TF.FileFunction,Plated,1,2,PTH
FMAT,2
INCH
; #@! TA.AperFunction,Plated,PTH,ViaDrill
T1C0.0118
; #@! TA.AperFunction,Plated,PTH,ComponentDrill
T2C0.0315
; #@! TA.AperFunction,Plated,PTH,ComponentDrill
T3C0.0374
; #@! TA.AperFunction,Plated,PTH,ComponentDrill
T4C0.0512
; #@! TA.AperFunction,Plated,PTH,ComponentDrill
T5C0.0591
%
G90
G05
T1
X2.2835Y-2.0472
X2.2835Y-2.1654
X2.2835Y-3.7008
X2.2835Y-3.8189
X2.4016Y-2.0472
X2.4016Y-2.1654
X2.4016Y-3.7008
X2.4016Y-3.8189
X2.5197Y-2.0472
X2.5197Y-2.1654
X2.5197Y-3.7008
X2.5197Y-3.8189
X2.6378Y-2.0472
X2.6378Y-2.1654
X2.6378Y-3.7008
X2.6378Y-3.8189
X2.7559Y-2.0472
X2.7559Y-2.1654
X2.7559Y-3.7008
X2.7559Y-3.8189
X2.874Y-2.0472
X2.874Y-2.1654
X2.874Y-3.7008
X2.874Y-3.8189
X2.9921Y-2.0472
X2.9921Y-2.1654
X2.9921Y-3.7008
X2.9921Y-3.8189
X4.5276Y-2.7559
X4.5276Y-2.9134
X4.685Y-2.5984
X4.685Y-2.7559
X4.685Y-2.9134
X4.8425Y-2.4409
X4.8425Y-2.5984
X4.8425Y-2.7559
X4.8425Y-2.9134
X5.0Y-2.2835
X5.0Y-2.4409
X5.0Y-2.5984
X5.0Y-2.7559
X5.0Y-2.9134
X5.1575Y-2.2835
X5.1575Y-2.4409
X5.1575Y-2.5984
X5.1575Y-2.7559
X5.1575Y-2.9134
X5.315Y-2.2835
X5.315Y-2.4409
X5.315Y-2.5984
X5.315Y-2.7559
X5.315Y-2.9134
T2
X3.2283Y-2.0669
X3.2283Y-2.1654
X3.2283Y-3.6811
X3.2283Y-3.7795
T3
X2.2835Y-2.311
X2.2835Y-2.5381
X2.2835Y-2.7651
X2.2835Y-2.9921
X2.2835Y-3.3071
X2.2835Y-3.5308
X2.3819Y-2.311
X2.3819Y-2.5381
X2.3819Y-2.7651
X2.3819Y-2.9921
X2.3819Y-3.3071
X2.3819Y-3.5308
X2.4803Y-2.311
X2.4803Y-2.5381
X2.4803Y-2.7651
X2.4803Y-2.9921
X2.4803Y-3.3071
X2.4803Y-3.5308
X2.5787Y-2.311
X2.5787Y-2.5381
X2.5787Y-2.7651
X2.5787Y-2.9921
X2.5787Y-3.3071
X2.5787Y-3.5308
X2.6772Y-2.311
X2.6772Y-2.5381
X2.6772Y-2.7651
X2.6772Y-2.9921
X2.6772Y-3.3071
X2.6772Y-3.5308
X2.7756Y-2.311
X2.7756Y-2.5381
X2.7756Y-2.7651
X2.7756Y-2.9921
X2.7756Y-3.3071
X2.7756Y-3.5308
X2.874Y-2.311
X2.874Y-2.5381
X2.874Y-2.7651
X2.874Y-2.9921
X2.874Y-3.3071
X2.874Y-3.5308
X2.9724Y-2.311
X2.9724Y-2.5381
X2.9724Y-2.7651
X2.9724Y-2.9921
X2.9724Y-3.3071
X2.9724Y-3.5308
T4
X5.5906Y-3.3071
X5.7906Y-3.3071
T5
X3.8287Y-3.6417
X3.937Y-2.126
X4.252Y-2.126
X4.252Y-3.6417
X4.872Y-3.6417
X4.9803Y-2.126
X5.2953Y-2.126
X5.2953Y-3.6417
M30
