%TF.GenerationSoftware,KiCad,Pcbnew,9.0.0*%
%TF.CreationDate,2025-04-02T11:16:36+03:00*%
%TF.ProjectId,Power,506f7765-722e-46b6-9963-61645f706362,rev?*%
%TF.SameCoordinates,Original*%
%TF.FileFunction,Legend,Top*%
%TF.FilePolarity,Positive*%
%FSLAX46Y46*%
G04 Gerber Fmt 4.6, Leading zero omitted, Abs format (unit mm)*
G04 Created by KiCad (PCBNEW 9.0.0) date 2025-04-02 11:16:36*
%MOMM*%
%LPD*%
G01*
G04 APERTURE LIST*
%ADD10C,0.150000*%
%ADD11C,0.120000*%
G04 APERTURE END LIST*
D10*
X51285714Y-64433181D02*
X51285714Y-63433181D01*
X51285714Y-63433181D02*
X51666666Y-63433181D01*
X51666666Y-63433181D02*
X51761904Y-63480800D01*
X51761904Y-63480800D02*
X51809523Y-63528419D01*
X51809523Y-63528419D02*
X51857142Y-63623657D01*
X51857142Y-63623657D02*
X51857142Y-63766514D01*
X51857142Y-63766514D02*
X51809523Y-63861752D01*
X51809523Y-63861752D02*
X51761904Y-63909371D01*
X51761904Y-63909371D02*
X51666666Y-63956990D01*
X51666666Y-63956990D02*
X51285714Y-63956990D01*
X52238095Y-64385562D02*
X52380952Y-64433181D01*
X52380952Y-64433181D02*
X52619047Y-64433181D01*
X52619047Y-64433181D02*
X52714285Y-64385562D01*
X52714285Y-64385562D02*
X52761904Y-64337942D01*
X52761904Y-64337942D02*
X52809523Y-64242704D01*
X52809523Y-64242704D02*
X52809523Y-64147466D01*
X52809523Y-64147466D02*
X52761904Y-64052228D01*
X52761904Y-64052228D02*
X52714285Y-64004609D01*
X52714285Y-64004609D02*
X52619047Y-63956990D01*
X52619047Y-63956990D02*
X52428571Y-63909371D01*
X52428571Y-63909371D02*
X52333333Y-63861752D01*
X52333333Y-63861752D02*
X52285714Y-63814133D01*
X52285714Y-63814133D02*
X52238095Y-63718895D01*
X52238095Y-63718895D02*
X52238095Y-63623657D01*
X52238095Y-63623657D02*
X52285714Y-63528419D01*
X52285714Y-63528419D02*
X52333333Y-63480800D01*
X52333333Y-63480800D02*
X52428571Y-63433181D01*
X52428571Y-63433181D02*
X52666666Y-63433181D01*
X52666666Y-63433181D02*
X52809523Y-63480800D01*
X53761904Y-64433181D02*
X53190476Y-64433181D01*
X53476190Y-64433181D02*
X53476190Y-63433181D01*
X53476190Y-63433181D02*
X53380952Y-63576038D01*
X53380952Y-63576038D02*
X53285714Y-63671276D01*
X53285714Y-63671276D02*
X53190476Y-63718895D01*
X50738095Y-65662172D02*
X51500000Y-65662172D01*
X51119047Y-66043125D02*
X51119047Y-65281220D01*
X51928571Y-65138363D02*
X51976190Y-65090744D01*
X51976190Y-65090744D02*
X52071428Y-65043125D01*
X52071428Y-65043125D02*
X52309523Y-65043125D01*
X52309523Y-65043125D02*
X52404761Y-65090744D01*
X52404761Y-65090744D02*
X52452380Y-65138363D01*
X52452380Y-65138363D02*
X52499999Y-65233601D01*
X52499999Y-65233601D02*
X52499999Y-65328839D01*
X52499999Y-65328839D02*
X52452380Y-65471696D01*
X52452380Y-65471696D02*
X51880952Y-66043125D01*
X51880952Y-66043125D02*
X52499999Y-66043125D01*
X53357142Y-65376458D02*
X53357142Y-66043125D01*
X53119047Y-64995506D02*
X52880952Y-65709791D01*
X52880952Y-65709791D02*
X53499999Y-65709791D01*
X53738095Y-65043125D02*
X54071428Y-66043125D01*
X54071428Y-66043125D02*
X54404761Y-65043125D01*
X51285714Y-70199847D02*
X51285714Y-69199847D01*
X51285714Y-69199847D02*
X51666666Y-69199847D01*
X51666666Y-69199847D02*
X51761904Y-69247466D01*
X51761904Y-69247466D02*
X51809523Y-69295085D01*
X51809523Y-69295085D02*
X51857142Y-69390323D01*
X51857142Y-69390323D02*
X51857142Y-69533180D01*
X51857142Y-69533180D02*
X51809523Y-69628418D01*
X51809523Y-69628418D02*
X51761904Y-69676037D01*
X51761904Y-69676037D02*
X51666666Y-69723656D01*
X51666666Y-69723656D02*
X51285714Y-69723656D01*
X52238095Y-70152228D02*
X52380952Y-70199847D01*
X52380952Y-70199847D02*
X52619047Y-70199847D01*
X52619047Y-70199847D02*
X52714285Y-70152228D01*
X52714285Y-70152228D02*
X52761904Y-70104608D01*
X52761904Y-70104608D02*
X52809523Y-70009370D01*
X52809523Y-70009370D02*
X52809523Y-69914132D01*
X52809523Y-69914132D02*
X52761904Y-69818894D01*
X52761904Y-69818894D02*
X52714285Y-69771275D01*
X52714285Y-69771275D02*
X52619047Y-69723656D01*
X52619047Y-69723656D02*
X52428571Y-69676037D01*
X52428571Y-69676037D02*
X52333333Y-69628418D01*
X52333333Y-69628418D02*
X52285714Y-69580799D01*
X52285714Y-69580799D02*
X52238095Y-69485561D01*
X52238095Y-69485561D02*
X52238095Y-69390323D01*
X52238095Y-69390323D02*
X52285714Y-69295085D01*
X52285714Y-69295085D02*
X52333333Y-69247466D01*
X52333333Y-69247466D02*
X52428571Y-69199847D01*
X52428571Y-69199847D02*
X52666666Y-69199847D01*
X52666666Y-69199847D02*
X52809523Y-69247466D01*
X53761904Y-70199847D02*
X53190476Y-70199847D01*
X53476190Y-70199847D02*
X53476190Y-69199847D01*
X53476190Y-69199847D02*
X53380952Y-69342704D01*
X53380952Y-69342704D02*
X53285714Y-69437942D01*
X53285714Y-69437942D02*
X53190476Y-69485561D01*
X50738095Y-71428838D02*
X51500000Y-71428838D01*
X51119047Y-71809791D02*
X51119047Y-71047886D01*
X51928571Y-70905029D02*
X51976190Y-70857410D01*
X51976190Y-70857410D02*
X52071428Y-70809791D01*
X52071428Y-70809791D02*
X52309523Y-70809791D01*
X52309523Y-70809791D02*
X52404761Y-70857410D01*
X52404761Y-70857410D02*
X52452380Y-70905029D01*
X52452380Y-70905029D02*
X52499999Y-71000267D01*
X52499999Y-71000267D02*
X52499999Y-71095505D01*
X52499999Y-71095505D02*
X52452380Y-71238362D01*
X52452380Y-71238362D02*
X51880952Y-71809791D01*
X51880952Y-71809791D02*
X52499999Y-71809791D01*
X53357142Y-71143124D02*
X53357142Y-71809791D01*
X53119047Y-70762172D02*
X52880952Y-71476457D01*
X52880952Y-71476457D02*
X53499999Y-71476457D01*
X53738095Y-70809791D02*
X54071428Y-71809791D01*
X54071428Y-71809791D02*
X54404761Y-70809791D01*
X51285714Y-75966514D02*
X51285714Y-74966514D01*
X51285714Y-74966514D02*
X51666666Y-74966514D01*
X51666666Y-74966514D02*
X51761904Y-75014133D01*
X51761904Y-75014133D02*
X51809523Y-75061752D01*
X51809523Y-75061752D02*
X51857142Y-75156990D01*
X51857142Y-75156990D02*
X51857142Y-75299847D01*
X51857142Y-75299847D02*
X51809523Y-75395085D01*
X51809523Y-75395085D02*
X51761904Y-75442704D01*
X51761904Y-75442704D02*
X51666666Y-75490323D01*
X51666666Y-75490323D02*
X51285714Y-75490323D01*
X52238095Y-75918895D02*
X52380952Y-75966514D01*
X52380952Y-75966514D02*
X52619047Y-75966514D01*
X52619047Y-75966514D02*
X52714285Y-75918895D01*
X52714285Y-75918895D02*
X52761904Y-75871275D01*
X52761904Y-75871275D02*
X52809523Y-75776037D01*
X52809523Y-75776037D02*
X52809523Y-75680799D01*
X52809523Y-75680799D02*
X52761904Y-75585561D01*
X52761904Y-75585561D02*
X52714285Y-75537942D01*
X52714285Y-75537942D02*
X52619047Y-75490323D01*
X52619047Y-75490323D02*
X52428571Y-75442704D01*
X52428571Y-75442704D02*
X52333333Y-75395085D01*
X52333333Y-75395085D02*
X52285714Y-75347466D01*
X52285714Y-75347466D02*
X52238095Y-75252228D01*
X52238095Y-75252228D02*
X52238095Y-75156990D01*
X52238095Y-75156990D02*
X52285714Y-75061752D01*
X52285714Y-75061752D02*
X52333333Y-75014133D01*
X52333333Y-75014133D02*
X52428571Y-74966514D01*
X52428571Y-74966514D02*
X52666666Y-74966514D01*
X52666666Y-74966514D02*
X52809523Y-75014133D01*
X53761904Y-75966514D02*
X53190476Y-75966514D01*
X53476190Y-75966514D02*
X53476190Y-74966514D01*
X53476190Y-74966514D02*
X53380952Y-75109371D01*
X53380952Y-75109371D02*
X53285714Y-75204609D01*
X53285714Y-75204609D02*
X53190476Y-75252228D01*
X50738095Y-77195505D02*
X51500000Y-77195505D01*
X51119047Y-77576458D02*
X51119047Y-76814553D01*
X51928571Y-76671696D02*
X51976190Y-76624077D01*
X51976190Y-76624077D02*
X52071428Y-76576458D01*
X52071428Y-76576458D02*
X52309523Y-76576458D01*
X52309523Y-76576458D02*
X52404761Y-76624077D01*
X52404761Y-76624077D02*
X52452380Y-76671696D01*
X52452380Y-76671696D02*
X52499999Y-76766934D01*
X52499999Y-76766934D02*
X52499999Y-76862172D01*
X52499999Y-76862172D02*
X52452380Y-77005029D01*
X52452380Y-77005029D02*
X51880952Y-77576458D01*
X51880952Y-77576458D02*
X52499999Y-77576458D01*
X53357142Y-76909791D02*
X53357142Y-77576458D01*
X53119047Y-76528839D02*
X52880952Y-77243124D01*
X52880952Y-77243124D02*
X53499999Y-77243124D01*
X53738095Y-76576458D02*
X54071428Y-77576458D01*
X54071428Y-77576458D02*
X54404761Y-76576458D01*
X51285714Y-89649847D02*
X51285714Y-88649847D01*
X51285714Y-88649847D02*
X51666666Y-88649847D01*
X51666666Y-88649847D02*
X51761904Y-88697466D01*
X51761904Y-88697466D02*
X51809523Y-88745085D01*
X51809523Y-88745085D02*
X51857142Y-88840323D01*
X51857142Y-88840323D02*
X51857142Y-88983180D01*
X51857142Y-88983180D02*
X51809523Y-89078418D01*
X51809523Y-89078418D02*
X51761904Y-89126037D01*
X51761904Y-89126037D02*
X51666666Y-89173656D01*
X51666666Y-89173656D02*
X51285714Y-89173656D01*
X52238095Y-89602228D02*
X52380952Y-89649847D01*
X52380952Y-89649847D02*
X52619047Y-89649847D01*
X52619047Y-89649847D02*
X52714285Y-89602228D01*
X52714285Y-89602228D02*
X52761904Y-89554608D01*
X52761904Y-89554608D02*
X52809523Y-89459370D01*
X52809523Y-89459370D02*
X52809523Y-89364132D01*
X52809523Y-89364132D02*
X52761904Y-89268894D01*
X52761904Y-89268894D02*
X52714285Y-89221275D01*
X52714285Y-89221275D02*
X52619047Y-89173656D01*
X52619047Y-89173656D02*
X52428571Y-89126037D01*
X52428571Y-89126037D02*
X52333333Y-89078418D01*
X52333333Y-89078418D02*
X52285714Y-89030799D01*
X52285714Y-89030799D02*
X52238095Y-88935561D01*
X52238095Y-88935561D02*
X52238095Y-88840323D01*
X52238095Y-88840323D02*
X52285714Y-88745085D01*
X52285714Y-88745085D02*
X52333333Y-88697466D01*
X52333333Y-88697466D02*
X52428571Y-88649847D01*
X52428571Y-88649847D02*
X52666666Y-88649847D01*
X52666666Y-88649847D02*
X52809523Y-88697466D01*
X53190476Y-88745085D02*
X53238095Y-88697466D01*
X53238095Y-88697466D02*
X53333333Y-88649847D01*
X53333333Y-88649847D02*
X53571428Y-88649847D01*
X53571428Y-88649847D02*
X53666666Y-88697466D01*
X53666666Y-88697466D02*
X53714285Y-88745085D01*
X53714285Y-88745085D02*
X53761904Y-88840323D01*
X53761904Y-88840323D02*
X53761904Y-88935561D01*
X53761904Y-88935561D02*
X53714285Y-89078418D01*
X53714285Y-89078418D02*
X53142857Y-89649847D01*
X53142857Y-89649847D02*
X53761904Y-89649847D01*
X50738095Y-90878838D02*
X51500000Y-90878838D01*
X51119047Y-91259791D02*
X51119047Y-90497886D01*
X51928571Y-90355029D02*
X51976190Y-90307410D01*
X51976190Y-90307410D02*
X52071428Y-90259791D01*
X52071428Y-90259791D02*
X52309523Y-90259791D01*
X52309523Y-90259791D02*
X52404761Y-90307410D01*
X52404761Y-90307410D02*
X52452380Y-90355029D01*
X52452380Y-90355029D02*
X52499999Y-90450267D01*
X52499999Y-90450267D02*
X52499999Y-90545505D01*
X52499999Y-90545505D02*
X52452380Y-90688362D01*
X52452380Y-90688362D02*
X51880952Y-91259791D01*
X51880952Y-91259791D02*
X52499999Y-91259791D01*
X53357142Y-90593124D02*
X53357142Y-91259791D01*
X53119047Y-90212172D02*
X52880952Y-90926457D01*
X52880952Y-90926457D02*
X53499999Y-90926457D01*
X53738095Y-90259791D02*
X54071428Y-91259791D01*
X54071428Y-91259791D02*
X54404761Y-90259791D01*
X65785714Y-54454819D02*
X65785714Y-53454819D01*
X65785714Y-53454819D02*
X66166666Y-53454819D01*
X66166666Y-53454819D02*
X66261904Y-53502438D01*
X66261904Y-53502438D02*
X66309523Y-53550057D01*
X66309523Y-53550057D02*
X66357142Y-53645295D01*
X66357142Y-53645295D02*
X66357142Y-53788152D01*
X66357142Y-53788152D02*
X66309523Y-53883390D01*
X66309523Y-53883390D02*
X66261904Y-53931009D01*
X66261904Y-53931009D02*
X66166666Y-53978628D01*
X66166666Y-53978628D02*
X65785714Y-53978628D01*
X66738095Y-54407200D02*
X66880952Y-54454819D01*
X66880952Y-54454819D02*
X67119047Y-54454819D01*
X67119047Y-54454819D02*
X67214285Y-54407200D01*
X67214285Y-54407200D02*
X67261904Y-54359580D01*
X67261904Y-54359580D02*
X67309523Y-54264342D01*
X67309523Y-54264342D02*
X67309523Y-54169104D01*
X67309523Y-54169104D02*
X67261904Y-54073866D01*
X67261904Y-54073866D02*
X67214285Y-54026247D01*
X67214285Y-54026247D02*
X67119047Y-53978628D01*
X67119047Y-53978628D02*
X66928571Y-53931009D01*
X66928571Y-53931009D02*
X66833333Y-53883390D01*
X66833333Y-53883390D02*
X66785714Y-53835771D01*
X66785714Y-53835771D02*
X66738095Y-53740533D01*
X66738095Y-53740533D02*
X66738095Y-53645295D01*
X66738095Y-53645295D02*
X66785714Y-53550057D01*
X66785714Y-53550057D02*
X66833333Y-53502438D01*
X66833333Y-53502438D02*
X66928571Y-53454819D01*
X66928571Y-53454819D02*
X67166666Y-53454819D01*
X67166666Y-53454819D02*
X67309523Y-53502438D01*
X68261904Y-54454819D02*
X67690476Y-54454819D01*
X67976190Y-54454819D02*
X67976190Y-53454819D01*
X67976190Y-53454819D02*
X67880952Y-53597676D01*
X67880952Y-53597676D02*
X67785714Y-53692914D01*
X67785714Y-53692914D02*
X67690476Y-53740533D01*
X51761904Y-83966514D02*
X51761904Y-82966514D01*
X51761904Y-82966514D02*
X52142856Y-82966514D01*
X52142856Y-82966514D02*
X52238094Y-83014133D01*
X52238094Y-83014133D02*
X52285713Y-83061752D01*
X52285713Y-83061752D02*
X52333332Y-83156990D01*
X52333332Y-83156990D02*
X52333332Y-83299847D01*
X52333332Y-83299847D02*
X52285713Y-83395085D01*
X52285713Y-83395085D02*
X52238094Y-83442704D01*
X52238094Y-83442704D02*
X52142856Y-83490323D01*
X52142856Y-83490323D02*
X51761904Y-83490323D01*
X52714285Y-83918895D02*
X52857142Y-83966514D01*
X52857142Y-83966514D02*
X53095237Y-83966514D01*
X53095237Y-83966514D02*
X53190475Y-83918895D01*
X53190475Y-83918895D02*
X53238094Y-83871275D01*
X53238094Y-83871275D02*
X53285713Y-83776037D01*
X53285713Y-83776037D02*
X53285713Y-83680799D01*
X53285713Y-83680799D02*
X53238094Y-83585561D01*
X53238094Y-83585561D02*
X53190475Y-83537942D01*
X53190475Y-83537942D02*
X53095237Y-83490323D01*
X53095237Y-83490323D02*
X52904761Y-83442704D01*
X52904761Y-83442704D02*
X52809523Y-83395085D01*
X52809523Y-83395085D02*
X52761904Y-83347466D01*
X52761904Y-83347466D02*
X52714285Y-83252228D01*
X52714285Y-83252228D02*
X52714285Y-83156990D01*
X52714285Y-83156990D02*
X52761904Y-83061752D01*
X52761904Y-83061752D02*
X52809523Y-83014133D01*
X52809523Y-83014133D02*
X52904761Y-82966514D01*
X52904761Y-82966514D02*
X53142856Y-82966514D01*
X53142856Y-82966514D02*
X53285713Y-83014133D01*
X53666666Y-83061752D02*
X53714285Y-83014133D01*
X53714285Y-83014133D02*
X53809523Y-82966514D01*
X53809523Y-82966514D02*
X54047618Y-82966514D01*
X54047618Y-82966514D02*
X54142856Y-83014133D01*
X54142856Y-83014133D02*
X54190475Y-83061752D01*
X54190475Y-83061752D02*
X54238094Y-83156990D01*
X54238094Y-83156990D02*
X54238094Y-83252228D01*
X54238094Y-83252228D02*
X54190475Y-83395085D01*
X54190475Y-83395085D02*
X53619047Y-83966514D01*
X53619047Y-83966514D02*
X54238094Y-83966514D01*
X52214285Y-84624077D02*
X52119047Y-84576458D01*
X52119047Y-84576458D02*
X51976190Y-84576458D01*
X51976190Y-84576458D02*
X51833333Y-84624077D01*
X51833333Y-84624077D02*
X51738095Y-84719315D01*
X51738095Y-84719315D02*
X51690476Y-84814553D01*
X51690476Y-84814553D02*
X51642857Y-85005029D01*
X51642857Y-85005029D02*
X51642857Y-85147886D01*
X51642857Y-85147886D02*
X51690476Y-85338362D01*
X51690476Y-85338362D02*
X51738095Y-85433600D01*
X51738095Y-85433600D02*
X51833333Y-85528839D01*
X51833333Y-85528839D02*
X51976190Y-85576458D01*
X51976190Y-85576458D02*
X52071428Y-85576458D01*
X52071428Y-85576458D02*
X52214285Y-85528839D01*
X52214285Y-85528839D02*
X52261904Y-85481219D01*
X52261904Y-85481219D02*
X52261904Y-85147886D01*
X52261904Y-85147886D02*
X52071428Y-85147886D01*
X52690476Y-85576458D02*
X52690476Y-84576458D01*
X52690476Y-84576458D02*
X53261904Y-85576458D01*
X53261904Y-85576458D02*
X53261904Y-84576458D01*
X53738095Y-85576458D02*
X53738095Y-84576458D01*
X53738095Y-84576458D02*
X53976190Y-84576458D01*
X53976190Y-84576458D02*
X54119047Y-84624077D01*
X54119047Y-84624077D02*
X54214285Y-84719315D01*
X54214285Y-84719315D02*
X54261904Y-84814553D01*
X54261904Y-84814553D02*
X54309523Y-85005029D01*
X54309523Y-85005029D02*
X54309523Y-85147886D01*
X54309523Y-85147886D02*
X54261904Y-85338362D01*
X54261904Y-85338362D02*
X54214285Y-85433600D01*
X54214285Y-85433600D02*
X54119047Y-85528839D01*
X54119047Y-85528839D02*
X53976190Y-85576458D01*
X53976190Y-85576458D02*
X53738095Y-85576458D01*
X51761904Y-58666514D02*
X51761904Y-57666514D01*
X51761904Y-57666514D02*
X52142856Y-57666514D01*
X52142856Y-57666514D02*
X52238094Y-57714133D01*
X52238094Y-57714133D02*
X52285713Y-57761752D01*
X52285713Y-57761752D02*
X52333332Y-57856990D01*
X52333332Y-57856990D02*
X52333332Y-57999847D01*
X52333332Y-57999847D02*
X52285713Y-58095085D01*
X52285713Y-58095085D02*
X52238094Y-58142704D01*
X52238094Y-58142704D02*
X52142856Y-58190323D01*
X52142856Y-58190323D02*
X51761904Y-58190323D01*
X52714285Y-58618895D02*
X52857142Y-58666514D01*
X52857142Y-58666514D02*
X53095237Y-58666514D01*
X53095237Y-58666514D02*
X53190475Y-58618895D01*
X53190475Y-58618895D02*
X53238094Y-58571275D01*
X53238094Y-58571275D02*
X53285713Y-58476037D01*
X53285713Y-58476037D02*
X53285713Y-58380799D01*
X53285713Y-58380799D02*
X53238094Y-58285561D01*
X53238094Y-58285561D02*
X53190475Y-58237942D01*
X53190475Y-58237942D02*
X53095237Y-58190323D01*
X53095237Y-58190323D02*
X52904761Y-58142704D01*
X52904761Y-58142704D02*
X52809523Y-58095085D01*
X52809523Y-58095085D02*
X52761904Y-58047466D01*
X52761904Y-58047466D02*
X52714285Y-57952228D01*
X52714285Y-57952228D02*
X52714285Y-57856990D01*
X52714285Y-57856990D02*
X52761904Y-57761752D01*
X52761904Y-57761752D02*
X52809523Y-57714133D01*
X52809523Y-57714133D02*
X52904761Y-57666514D01*
X52904761Y-57666514D02*
X53142856Y-57666514D01*
X53142856Y-57666514D02*
X53285713Y-57714133D01*
X54238094Y-58666514D02*
X53666666Y-58666514D01*
X53952380Y-58666514D02*
X53952380Y-57666514D01*
X53952380Y-57666514D02*
X53857142Y-57809371D01*
X53857142Y-57809371D02*
X53761904Y-57904609D01*
X53761904Y-57904609D02*
X53666666Y-57952228D01*
X52214285Y-59324077D02*
X52119047Y-59276458D01*
X52119047Y-59276458D02*
X51976190Y-59276458D01*
X51976190Y-59276458D02*
X51833333Y-59324077D01*
X51833333Y-59324077D02*
X51738095Y-59419315D01*
X51738095Y-59419315D02*
X51690476Y-59514553D01*
X51690476Y-59514553D02*
X51642857Y-59705029D01*
X51642857Y-59705029D02*
X51642857Y-59847886D01*
X51642857Y-59847886D02*
X51690476Y-60038362D01*
X51690476Y-60038362D02*
X51738095Y-60133600D01*
X51738095Y-60133600D02*
X51833333Y-60228839D01*
X51833333Y-60228839D02*
X51976190Y-60276458D01*
X51976190Y-60276458D02*
X52071428Y-60276458D01*
X52071428Y-60276458D02*
X52214285Y-60228839D01*
X52214285Y-60228839D02*
X52261904Y-60181219D01*
X52261904Y-60181219D02*
X52261904Y-59847886D01*
X52261904Y-59847886D02*
X52071428Y-59847886D01*
X52690476Y-60276458D02*
X52690476Y-59276458D01*
X52690476Y-59276458D02*
X53261904Y-60276458D01*
X53261904Y-60276458D02*
X53261904Y-59276458D01*
X53738095Y-60276458D02*
X53738095Y-59276458D01*
X53738095Y-59276458D02*
X53976190Y-59276458D01*
X53976190Y-59276458D02*
X54119047Y-59324077D01*
X54119047Y-59324077D02*
X54214285Y-59419315D01*
X54214285Y-59419315D02*
X54261904Y-59514553D01*
X54261904Y-59514553D02*
X54309523Y-59705029D01*
X54309523Y-59705029D02*
X54309523Y-59847886D01*
X54309523Y-59847886D02*
X54261904Y-60038362D01*
X54261904Y-60038362D02*
X54214285Y-60133600D01*
X54214285Y-60133600D02*
X54119047Y-60228839D01*
X54119047Y-60228839D02*
X53976190Y-60276458D01*
X53976190Y-60276458D02*
X53738095Y-60276458D01*
X96585714Y-98454819D02*
X96585714Y-97454819D01*
X96585714Y-97454819D02*
X96966666Y-97454819D01*
X96966666Y-97454819D02*
X97061904Y-97502438D01*
X97061904Y-97502438D02*
X97109523Y-97550057D01*
X97109523Y-97550057D02*
X97157142Y-97645295D01*
X97157142Y-97645295D02*
X97157142Y-97788152D01*
X97157142Y-97788152D02*
X97109523Y-97883390D01*
X97109523Y-97883390D02*
X97061904Y-97931009D01*
X97061904Y-97931009D02*
X96966666Y-97978628D01*
X96966666Y-97978628D02*
X96585714Y-97978628D01*
X97538095Y-98407200D02*
X97680952Y-98454819D01*
X97680952Y-98454819D02*
X97919047Y-98454819D01*
X97919047Y-98454819D02*
X98014285Y-98407200D01*
X98014285Y-98407200D02*
X98061904Y-98359580D01*
X98061904Y-98359580D02*
X98109523Y-98264342D01*
X98109523Y-98264342D02*
X98109523Y-98169104D01*
X98109523Y-98169104D02*
X98061904Y-98073866D01*
X98061904Y-98073866D02*
X98014285Y-98026247D01*
X98014285Y-98026247D02*
X97919047Y-97978628D01*
X97919047Y-97978628D02*
X97728571Y-97931009D01*
X97728571Y-97931009D02*
X97633333Y-97883390D01*
X97633333Y-97883390D02*
X97585714Y-97835771D01*
X97585714Y-97835771D02*
X97538095Y-97740533D01*
X97538095Y-97740533D02*
X97538095Y-97645295D01*
X97538095Y-97645295D02*
X97585714Y-97550057D01*
X97585714Y-97550057D02*
X97633333Y-97502438D01*
X97633333Y-97502438D02*
X97728571Y-97454819D01*
X97728571Y-97454819D02*
X97966666Y-97454819D01*
X97966666Y-97454819D02*
X98109523Y-97502438D01*
X99061904Y-98454819D02*
X98490476Y-98454819D01*
X98776190Y-98454819D02*
X98776190Y-97454819D01*
X98776190Y-97454819D02*
X98680952Y-97597676D01*
X98680952Y-97597676D02*
X98585714Y-97692914D01*
X98585714Y-97692914D02*
X98490476Y-97740533D01*
X84833333Y-57359580D02*
X84785714Y-57407200D01*
X84785714Y-57407200D02*
X84642857Y-57454819D01*
X84642857Y-57454819D02*
X84547619Y-57454819D01*
X84547619Y-57454819D02*
X84404762Y-57407200D01*
X84404762Y-57407200D02*
X84309524Y-57311961D01*
X84309524Y-57311961D02*
X84261905Y-57216723D01*
X84261905Y-57216723D02*
X84214286Y-57026247D01*
X84214286Y-57026247D02*
X84214286Y-56883390D01*
X84214286Y-56883390D02*
X84261905Y-56692914D01*
X84261905Y-56692914D02*
X84309524Y-56597676D01*
X84309524Y-56597676D02*
X84404762Y-56502438D01*
X84404762Y-56502438D02*
X84547619Y-56454819D01*
X84547619Y-56454819D02*
X84642857Y-56454819D01*
X84642857Y-56454819D02*
X84785714Y-56502438D01*
X84785714Y-56502438D02*
X84833333Y-56550057D01*
X85166667Y-56454819D02*
X85785714Y-56454819D01*
X85785714Y-56454819D02*
X85452381Y-56835771D01*
X85452381Y-56835771D02*
X85595238Y-56835771D01*
X85595238Y-56835771D02*
X85690476Y-56883390D01*
X85690476Y-56883390D02*
X85738095Y-56931009D01*
X85738095Y-56931009D02*
X85785714Y-57026247D01*
X85785714Y-57026247D02*
X85785714Y-57264342D01*
X85785714Y-57264342D02*
X85738095Y-57359580D01*
X85738095Y-57359580D02*
X85690476Y-57407200D01*
X85690476Y-57407200D02*
X85595238Y-57454819D01*
X85595238Y-57454819D02*
X85309524Y-57454819D01*
X85309524Y-57454819D02*
X85214286Y-57407200D01*
X85214286Y-57407200D02*
X85166667Y-57359580D01*
X66416666Y-90538152D02*
X66416666Y-91252437D01*
X66416666Y-91252437D02*
X66369047Y-91395294D01*
X66369047Y-91395294D02*
X66273809Y-91490533D01*
X66273809Y-91490533D02*
X66130952Y-91538152D01*
X66130952Y-91538152D02*
X66035714Y-91538152D01*
X66797619Y-90538152D02*
X67416666Y-90538152D01*
X67416666Y-90538152D02*
X67083333Y-90919104D01*
X67083333Y-90919104D02*
X67226190Y-90919104D01*
X67226190Y-90919104D02*
X67321428Y-90966723D01*
X67321428Y-90966723D02*
X67369047Y-91014342D01*
X67369047Y-91014342D02*
X67416666Y-91109580D01*
X67416666Y-91109580D02*
X67416666Y-91347675D01*
X67416666Y-91347675D02*
X67369047Y-91442913D01*
X67369047Y-91442913D02*
X67321428Y-91490533D01*
X67321428Y-91490533D02*
X67226190Y-91538152D01*
X67226190Y-91538152D02*
X66940476Y-91538152D01*
X66940476Y-91538152D02*
X66845238Y-91490533D01*
X66845238Y-91490533D02*
X66797619Y-91442913D01*
X81833333Y-62109580D02*
X81785714Y-62157200D01*
X81785714Y-62157200D02*
X81642857Y-62204819D01*
X81642857Y-62204819D02*
X81547619Y-62204819D01*
X81547619Y-62204819D02*
X81404762Y-62157200D01*
X81404762Y-62157200D02*
X81309524Y-62061961D01*
X81309524Y-62061961D02*
X81261905Y-61966723D01*
X81261905Y-61966723D02*
X81214286Y-61776247D01*
X81214286Y-61776247D02*
X81214286Y-61633390D01*
X81214286Y-61633390D02*
X81261905Y-61442914D01*
X81261905Y-61442914D02*
X81309524Y-61347676D01*
X81309524Y-61347676D02*
X81404762Y-61252438D01*
X81404762Y-61252438D02*
X81547619Y-61204819D01*
X81547619Y-61204819D02*
X81642857Y-61204819D01*
X81642857Y-61204819D02*
X81785714Y-61252438D01*
X81785714Y-61252438D02*
X81833333Y-61300057D01*
X82690476Y-61538152D02*
X82690476Y-62204819D01*
X82452381Y-61157200D02*
X82214286Y-61871485D01*
X82214286Y-61871485D02*
X82833333Y-61871485D01*
X84833333Y-98359580D02*
X84785714Y-98407200D01*
X84785714Y-98407200D02*
X84642857Y-98454819D01*
X84642857Y-98454819D02*
X84547619Y-98454819D01*
X84547619Y-98454819D02*
X84404762Y-98407200D01*
X84404762Y-98407200D02*
X84309524Y-98311961D01*
X84309524Y-98311961D02*
X84261905Y-98216723D01*
X84261905Y-98216723D02*
X84214286Y-98026247D01*
X84214286Y-98026247D02*
X84214286Y-97883390D01*
X84214286Y-97883390D02*
X84261905Y-97692914D01*
X84261905Y-97692914D02*
X84309524Y-97597676D01*
X84309524Y-97597676D02*
X84404762Y-97502438D01*
X84404762Y-97502438D02*
X84547619Y-97454819D01*
X84547619Y-97454819D02*
X84642857Y-97454819D01*
X84642857Y-97454819D02*
X84785714Y-97502438D01*
X84785714Y-97502438D02*
X84833333Y-97550057D01*
X85785714Y-98454819D02*
X85214286Y-98454819D01*
X85500000Y-98454819D02*
X85500000Y-97454819D01*
X85500000Y-97454819D02*
X85404762Y-97597676D01*
X85404762Y-97597676D02*
X85309524Y-97692914D01*
X85309524Y-97692914D02*
X85214286Y-97740533D01*
X81833333Y-87509580D02*
X81785714Y-87557200D01*
X81785714Y-87557200D02*
X81642857Y-87604819D01*
X81642857Y-87604819D02*
X81547619Y-87604819D01*
X81547619Y-87604819D02*
X81404762Y-87557200D01*
X81404762Y-87557200D02*
X81309524Y-87461961D01*
X81309524Y-87461961D02*
X81261905Y-87366723D01*
X81261905Y-87366723D02*
X81214286Y-87176247D01*
X81214286Y-87176247D02*
X81214286Y-87033390D01*
X81214286Y-87033390D02*
X81261905Y-86842914D01*
X81261905Y-86842914D02*
X81309524Y-86747676D01*
X81309524Y-86747676D02*
X81404762Y-86652438D01*
X81404762Y-86652438D02*
X81547619Y-86604819D01*
X81547619Y-86604819D02*
X81642857Y-86604819D01*
X81642857Y-86604819D02*
X81785714Y-86652438D01*
X81785714Y-86652438D02*
X81833333Y-86700057D01*
X82214286Y-86700057D02*
X82261905Y-86652438D01*
X82261905Y-86652438D02*
X82357143Y-86604819D01*
X82357143Y-86604819D02*
X82595238Y-86604819D01*
X82595238Y-86604819D02*
X82690476Y-86652438D01*
X82690476Y-86652438D02*
X82738095Y-86700057D01*
X82738095Y-86700057D02*
X82785714Y-86795295D01*
X82785714Y-86795295D02*
X82785714Y-86890533D01*
X82785714Y-86890533D02*
X82738095Y-87033390D01*
X82738095Y-87033390D02*
X82166667Y-87604819D01*
X82166667Y-87604819D02*
X82785714Y-87604819D01*
X66366666Y-76954819D02*
X66366666Y-77669104D01*
X66366666Y-77669104D02*
X66319047Y-77811961D01*
X66319047Y-77811961D02*
X66223809Y-77907200D01*
X66223809Y-77907200D02*
X66080952Y-77954819D01*
X66080952Y-77954819D02*
X65985714Y-77954819D01*
X66747619Y-76954819D02*
X67414285Y-76954819D01*
X67414285Y-76954819D02*
X66985714Y-77954819D01*
X66366666Y-71088152D02*
X66366666Y-71802437D01*
X66366666Y-71802437D02*
X66319047Y-71945294D01*
X66319047Y-71945294D02*
X66223809Y-72040533D01*
X66223809Y-72040533D02*
X66080952Y-72088152D01*
X66080952Y-72088152D02*
X65985714Y-72088152D01*
X67271428Y-71088152D02*
X67080952Y-71088152D01*
X67080952Y-71088152D02*
X66985714Y-71135771D01*
X66985714Y-71135771D02*
X66938095Y-71183390D01*
X66938095Y-71183390D02*
X66842857Y-71326247D01*
X66842857Y-71326247D02*
X66795238Y-71516723D01*
X66795238Y-71516723D02*
X66795238Y-71897675D01*
X66795238Y-71897675D02*
X66842857Y-71992913D01*
X66842857Y-71992913D02*
X66890476Y-72040533D01*
X66890476Y-72040533D02*
X66985714Y-72088152D01*
X66985714Y-72088152D02*
X67176190Y-72088152D01*
X67176190Y-72088152D02*
X67271428Y-72040533D01*
X67271428Y-72040533D02*
X67319047Y-71992913D01*
X67319047Y-71992913D02*
X67366666Y-71897675D01*
X67366666Y-71897675D02*
X67366666Y-71659580D01*
X67366666Y-71659580D02*
X67319047Y-71564342D01*
X67319047Y-71564342D02*
X67271428Y-71516723D01*
X67271428Y-71516723D02*
X67176190Y-71469104D01*
X67176190Y-71469104D02*
X66985714Y-71469104D01*
X66985714Y-71469104D02*
X66890476Y-71516723D01*
X66890476Y-71516723D02*
X66842857Y-71564342D01*
X66842857Y-71564342D02*
X66795238Y-71659580D01*
X66416666Y-84854819D02*
X66416666Y-85569104D01*
X66416666Y-85569104D02*
X66369047Y-85711961D01*
X66369047Y-85711961D02*
X66273809Y-85807200D01*
X66273809Y-85807200D02*
X66130952Y-85854819D01*
X66130952Y-85854819D02*
X66035714Y-85854819D01*
X66845238Y-84950057D02*
X66892857Y-84902438D01*
X66892857Y-84902438D02*
X66988095Y-84854819D01*
X66988095Y-84854819D02*
X67226190Y-84854819D01*
X67226190Y-84854819D02*
X67321428Y-84902438D01*
X67321428Y-84902438D02*
X67369047Y-84950057D01*
X67369047Y-84950057D02*
X67416666Y-85045295D01*
X67416666Y-85045295D02*
X67416666Y-85140533D01*
X67416666Y-85140533D02*
X67369047Y-85283390D01*
X67369047Y-85283390D02*
X66797619Y-85854819D01*
X66797619Y-85854819D02*
X67416666Y-85854819D01*
X66366666Y-59554819D02*
X66366666Y-60269104D01*
X66366666Y-60269104D02*
X66319047Y-60411961D01*
X66319047Y-60411961D02*
X66223809Y-60507200D01*
X66223809Y-60507200D02*
X66080952Y-60554819D01*
X66080952Y-60554819D02*
X65985714Y-60554819D01*
X67271428Y-59888152D02*
X67271428Y-60554819D01*
X67033333Y-59507200D02*
X66795238Y-60221485D01*
X66795238Y-60221485D02*
X67414285Y-60221485D01*
X123285714Y-98454819D02*
X123285714Y-97454819D01*
X123285714Y-97454819D02*
X123666666Y-97454819D01*
X123666666Y-97454819D02*
X123761904Y-97502438D01*
X123761904Y-97502438D02*
X123809523Y-97550057D01*
X123809523Y-97550057D02*
X123857142Y-97645295D01*
X123857142Y-97645295D02*
X123857142Y-97788152D01*
X123857142Y-97788152D02*
X123809523Y-97883390D01*
X123809523Y-97883390D02*
X123761904Y-97931009D01*
X123761904Y-97931009D02*
X123666666Y-97978628D01*
X123666666Y-97978628D02*
X123285714Y-97978628D01*
X124238095Y-98407200D02*
X124380952Y-98454819D01*
X124380952Y-98454819D02*
X124619047Y-98454819D01*
X124619047Y-98454819D02*
X124714285Y-98407200D01*
X124714285Y-98407200D02*
X124761904Y-98359580D01*
X124761904Y-98359580D02*
X124809523Y-98264342D01*
X124809523Y-98264342D02*
X124809523Y-98169104D01*
X124809523Y-98169104D02*
X124761904Y-98073866D01*
X124761904Y-98073866D02*
X124714285Y-98026247D01*
X124714285Y-98026247D02*
X124619047Y-97978628D01*
X124619047Y-97978628D02*
X124428571Y-97931009D01*
X124428571Y-97931009D02*
X124333333Y-97883390D01*
X124333333Y-97883390D02*
X124285714Y-97835771D01*
X124285714Y-97835771D02*
X124238095Y-97740533D01*
X124238095Y-97740533D02*
X124238095Y-97645295D01*
X124238095Y-97645295D02*
X124285714Y-97550057D01*
X124285714Y-97550057D02*
X124333333Y-97502438D01*
X124333333Y-97502438D02*
X124428571Y-97454819D01*
X124428571Y-97454819D02*
X124666666Y-97454819D01*
X124666666Y-97454819D02*
X124809523Y-97502438D01*
X125190476Y-97550057D02*
X125238095Y-97502438D01*
X125238095Y-97502438D02*
X125333333Y-97454819D01*
X125333333Y-97454819D02*
X125571428Y-97454819D01*
X125571428Y-97454819D02*
X125666666Y-97502438D01*
X125666666Y-97502438D02*
X125714285Y-97550057D01*
X125714285Y-97550057D02*
X125761904Y-97645295D01*
X125761904Y-97645295D02*
X125761904Y-97740533D01*
X125761904Y-97740533D02*
X125714285Y-97883390D01*
X125714285Y-97883390D02*
X125142857Y-98454819D01*
X125142857Y-98454819D02*
X125761904Y-98454819D01*
X66366666Y-65321486D02*
X66366666Y-66035771D01*
X66366666Y-66035771D02*
X66319047Y-66178628D01*
X66319047Y-66178628D02*
X66223809Y-66273867D01*
X66223809Y-66273867D02*
X66080952Y-66321486D01*
X66080952Y-66321486D02*
X65985714Y-66321486D01*
X67319047Y-65321486D02*
X66842857Y-65321486D01*
X66842857Y-65321486D02*
X66795238Y-65797676D01*
X66795238Y-65797676D02*
X66842857Y-65750057D01*
X66842857Y-65750057D02*
X66938095Y-65702438D01*
X66938095Y-65702438D02*
X67176190Y-65702438D01*
X67176190Y-65702438D02*
X67271428Y-65750057D01*
X67271428Y-65750057D02*
X67319047Y-65797676D01*
X67319047Y-65797676D02*
X67366666Y-65892914D01*
X67366666Y-65892914D02*
X67366666Y-66131009D01*
X67366666Y-66131009D02*
X67319047Y-66226247D01*
X67319047Y-66226247D02*
X67271428Y-66273867D01*
X67271428Y-66273867D02*
X67176190Y-66321486D01*
X67176190Y-66321486D02*
X66938095Y-66321486D01*
X66938095Y-66321486D02*
X66842857Y-66273867D01*
X66842857Y-66273867D02*
X66795238Y-66226247D01*
D11*
%TO.C,PS1*%
X85950000Y-50300000D02*
X111550000Y-50300000D01*
X85950000Y-96200000D02*
X85950000Y-50300000D01*
X85950000Y-96200000D02*
X111550000Y-96200000D01*
X96250000Y-96500000D02*
X98250000Y-96500000D01*
X111550000Y-96200000D02*
X111550000Y-50300000D01*
%TO.C,C3*%
X78770000Y-53670000D02*
X85230000Y-53670000D01*
X78770000Y-53710000D02*
X85230000Y-53710000D01*
X78770000Y-53750000D02*
X85230000Y-53750000D01*
X78772000Y-53630000D02*
X85228000Y-53630000D01*
X78773000Y-53590000D02*
X85227000Y-53590000D01*
X78776000Y-53550000D02*
X85224000Y-53550000D01*
X78778000Y-53510000D02*
X80960000Y-53510000D01*
X78782000Y-53470000D02*
X80960000Y-53470000D01*
X78785000Y-53430000D02*
X80960000Y-53430000D01*
X78789000Y-53390000D02*
X80960000Y-53390000D01*
X78794000Y-53350000D02*
X80960000Y-53350000D01*
X78799000Y-53310000D02*
X80960000Y-53310000D01*
X78805000Y-53270000D02*
X80960000Y-53270000D01*
X78811000Y-53230000D02*
X80960000Y-53230000D01*
X78818000Y-53190000D02*
X80960000Y-53190000D01*
X78825000Y-53150000D02*
X80960000Y-53150000D01*
X78833000Y-53110000D02*
X80960000Y-53110000D01*
X78841000Y-53070000D02*
X80960000Y-53070000D01*
X78850000Y-53029000D02*
X80960000Y-53029000D01*
X78859000Y-52989000D02*
X80960000Y-52989000D01*
X78869000Y-52949000D02*
X80960000Y-52949000D01*
X78879000Y-52909000D02*
X80960000Y-52909000D01*
X78890000Y-52869000D02*
X80960000Y-52869000D01*
X78902000Y-52829000D02*
X80960000Y-52829000D01*
X78914000Y-52789000D02*
X80960000Y-52789000D01*
X78926000Y-52749000D02*
X80960000Y-52749000D01*
X78939000Y-52709000D02*
X80960000Y-52709000D01*
X78953000Y-52669000D02*
X80960000Y-52669000D01*
X78967000Y-52629000D02*
X80960000Y-52629000D01*
X78982000Y-52589000D02*
X80960000Y-52589000D01*
X78998000Y-52549000D02*
X80960000Y-52549000D01*
X79014000Y-52509000D02*
X80960000Y-52509000D01*
X79030000Y-52469000D02*
X80960000Y-52469000D01*
X79048000Y-52429000D02*
X80960000Y-52429000D01*
X79066000Y-52389000D02*
X80960000Y-52389000D01*
X79084000Y-52349000D02*
X80960000Y-52349000D01*
X79104000Y-52309000D02*
X80960000Y-52309000D01*
X79124000Y-52269000D02*
X80960000Y-52269000D01*
X79144000Y-52229000D02*
X80960000Y-52229000D01*
X79166000Y-52189000D02*
X80960000Y-52189000D01*
X79188000Y-52149000D02*
X80960000Y-52149000D01*
X79210000Y-52109000D02*
X80960000Y-52109000D01*
X79234000Y-52069000D02*
X80960000Y-52069000D01*
X79258000Y-52029000D02*
X80960000Y-52029000D01*
X79284000Y-51989000D02*
X80960000Y-51989000D01*
X79310000Y-51949000D02*
X80960000Y-51949000D01*
X79336000Y-51909000D02*
X80960000Y-51909000D01*
X79364000Y-51869000D02*
X80960000Y-51869000D01*
X79393000Y-51829000D02*
X80960000Y-51829000D01*
X79422000Y-51789000D02*
X80960000Y-51789000D01*
X79452000Y-51749000D02*
X80960000Y-51749000D01*
X79484000Y-51709000D02*
X80960000Y-51709000D01*
X79516000Y-51669000D02*
X80960000Y-51669000D01*
X79550000Y-51629000D02*
X80960000Y-51629000D01*
X79584000Y-51589000D02*
X80960000Y-51589000D01*
X79620000Y-51549000D02*
X80960000Y-51549000D01*
X79657000Y-51509000D02*
X80960000Y-51509000D01*
X79695000Y-51469000D02*
X80960000Y-51469000D01*
X79735000Y-51429000D02*
X84265000Y-51429000D01*
X79776000Y-51389000D02*
X84224000Y-51389000D01*
X79818000Y-51349000D02*
X84182000Y-51349000D01*
X79846000Y-56935241D02*
X80476000Y-56935241D01*
X79863000Y-51309000D02*
X84137000Y-51309000D01*
X79908000Y-51269000D02*
X84092000Y-51269000D01*
X79956000Y-51229000D02*
X84044000Y-51229000D01*
X80005000Y-51189000D02*
X83995000Y-51189000D01*
X80056000Y-51149000D02*
X83944000Y-51149000D01*
X80110000Y-51109000D02*
X83890000Y-51109000D01*
X80161000Y-57250241D02*
X80161000Y-56620241D01*
X80166000Y-51069000D02*
X83834000Y-51069000D01*
X80224000Y-51029000D02*
X83776000Y-51029000D01*
X80286000Y-50989000D02*
X83714000Y-50989000D01*
X80350000Y-50949000D02*
X83650000Y-50949000D01*
X80419000Y-50909000D02*
X83581000Y-50909000D01*
X80491000Y-50869000D02*
X83509000Y-50869000D01*
X80568000Y-50829000D02*
X83432000Y-50829000D01*
X80650000Y-50789000D02*
X83350000Y-50789000D01*
X80738000Y-50749000D02*
X83262000Y-50749000D01*
X80835000Y-50709000D02*
X83165000Y-50709000D01*
X80941000Y-50669000D02*
X83059000Y-50669000D01*
X81060000Y-50629000D02*
X82940000Y-50629000D01*
X81198000Y-50589000D02*
X82802000Y-50589000D01*
X81367000Y-50549000D02*
X82633000Y-50549000D01*
X81598000Y-50509000D02*
X82402000Y-50509000D01*
X83040000Y-51469000D02*
X84305000Y-51469000D01*
X83040000Y-51509000D02*
X84343000Y-51509000D01*
X83040000Y-51549000D02*
X84380000Y-51549000D01*
X83040000Y-51589000D02*
X84416000Y-51589000D01*
X83040000Y-51629000D02*
X84450000Y-51629000D01*
X83040000Y-51669000D02*
X84484000Y-51669000D01*
X83040000Y-51709000D02*
X84516000Y-51709000D01*
X83040000Y-51749000D02*
X84548000Y-51749000D01*
X83040000Y-51789000D02*
X84578000Y-51789000D01*
X83040000Y-51829000D02*
X84607000Y-51829000D01*
X83040000Y-51869000D02*
X84636000Y-51869000D01*
X83040000Y-51909000D02*
X84664000Y-51909000D01*
X83040000Y-51949000D02*
X84690000Y-51949000D01*
X83040000Y-51989000D02*
X84716000Y-51989000D01*
X83040000Y-52029000D02*
X84742000Y-52029000D01*
X83040000Y-52069000D02*
X84766000Y-52069000D01*
X83040000Y-52109000D02*
X84790000Y-52109000D01*
X83040000Y-52149000D02*
X84812000Y-52149000D01*
X83040000Y-52189000D02*
X84834000Y-52189000D01*
X83040000Y-52229000D02*
X84856000Y-52229000D01*
X83040000Y-52269000D02*
X84876000Y-52269000D01*
X83040000Y-52309000D02*
X84896000Y-52309000D01*
X83040000Y-52349000D02*
X84916000Y-52349000D01*
X83040000Y-52389000D02*
X84934000Y-52389000D01*
X83040000Y-52429000D02*
X84952000Y-52429000D01*
X83040000Y-52469000D02*
X84970000Y-52469000D01*
X83040000Y-52509000D02*
X84986000Y-52509000D01*
X83040000Y-52549000D02*
X85002000Y-52549000D01*
X83040000Y-52589000D02*
X85018000Y-52589000D01*
X83040000Y-52629000D02*
X85033000Y-52629000D01*
X83040000Y-52669000D02*
X85047000Y-52669000D01*
X83040000Y-52709000D02*
X85061000Y-52709000D01*
X83040000Y-52749000D02*
X85074000Y-52749000D01*
X83040000Y-52789000D02*
X85086000Y-52789000D01*
X83040000Y-52829000D02*
X85098000Y-52829000D01*
X83040000Y-52869000D02*
X85110000Y-52869000D01*
X83040000Y-52909000D02*
X85121000Y-52909000D01*
X83040000Y-52949000D02*
X85131000Y-52949000D01*
X83040000Y-52989000D02*
X85141000Y-52989000D01*
X83040000Y-53029000D02*
X85150000Y-53029000D01*
X83040000Y-53070000D02*
X85159000Y-53070000D01*
X83040000Y-53110000D02*
X85167000Y-53110000D01*
X83040000Y-53150000D02*
X85175000Y-53150000D01*
X83040000Y-53190000D02*
X85182000Y-53190000D01*
X83040000Y-53230000D02*
X85189000Y-53230000D01*
X83040000Y-53270000D02*
X85195000Y-53270000D01*
X83040000Y-53310000D02*
X85201000Y-53310000D01*
X83040000Y-53350000D02*
X85206000Y-53350000D01*
X83040000Y-53390000D02*
X85211000Y-53390000D01*
X83040000Y-53430000D02*
X85215000Y-53430000D01*
X83040000Y-53470000D02*
X85218000Y-53470000D01*
X83040000Y-53510000D02*
X85222000Y-53510000D01*
X85270000Y-53750000D02*
G75*
G02*
X78730000Y-53750000I-3270000J0D01*
G01*
X78730000Y-53750000D02*
G75*
G02*
X85270000Y-53750000I3270000J0D01*
G01*
%TO.C,J3*%
X55090000Y-89793333D02*
X55090000Y-92293333D01*
X55090000Y-92293333D02*
X57590000Y-92293333D01*
X55390000Y-87973333D02*
X55390000Y-91993333D01*
X55390000Y-89683333D02*
X55890000Y-89683333D01*
X55390000Y-90493333D02*
X56390000Y-90493333D01*
X55390000Y-91993333D02*
X78110000Y-91993333D01*
X55890000Y-88473333D02*
X77610000Y-88473333D01*
X55890000Y-89683333D02*
X55890000Y-88473333D01*
X56390000Y-90493333D02*
X56390000Y-91993333D01*
X77110000Y-90493333D02*
X77110000Y-91993333D01*
X77610000Y-88473333D02*
X77610000Y-89683333D01*
X77610000Y-89683333D02*
X78110000Y-89683333D01*
X78110000Y-87973333D02*
X55390000Y-87973333D01*
X78110000Y-90493333D02*
X77110000Y-90493333D01*
X78110000Y-91993333D02*
X78110000Y-87973333D01*
%TO.C,C4*%
X79265000Y-62011252D02*
X79265000Y-61488748D01*
X80735000Y-62011252D02*
X80735000Y-61488748D01*
%TO.C,C1*%
X80960000Y-94990000D02*
X78778000Y-94990000D01*
X80960000Y-95030000D02*
X78782000Y-95030000D01*
X80960000Y-95070000D02*
X78785000Y-95070000D01*
X80960000Y-95110000D02*
X78789000Y-95110000D01*
X80960000Y-95150000D02*
X78794000Y-95150000D01*
X80960000Y-95190000D02*
X78799000Y-95190000D01*
X80960000Y-95230000D02*
X78805000Y-95230000D01*
X80960000Y-95270000D02*
X78811000Y-95270000D01*
X80960000Y-95310000D02*
X78818000Y-95310000D01*
X80960000Y-95350000D02*
X78825000Y-95350000D01*
X80960000Y-95390000D02*
X78833000Y-95390000D01*
X80960000Y-95430000D02*
X78841000Y-95430000D01*
X80960000Y-95471000D02*
X78850000Y-95471000D01*
X80960000Y-95511000D02*
X78859000Y-95511000D01*
X80960000Y-95551000D02*
X78869000Y-95551000D01*
X80960000Y-95591000D02*
X78879000Y-95591000D01*
X80960000Y-95631000D02*
X78890000Y-95631000D01*
X80960000Y-95671000D02*
X78902000Y-95671000D01*
X80960000Y-95711000D02*
X78914000Y-95711000D01*
X80960000Y-95751000D02*
X78926000Y-95751000D01*
X80960000Y-95791000D02*
X78939000Y-95791000D01*
X80960000Y-95831000D02*
X78953000Y-95831000D01*
X80960000Y-95871000D02*
X78967000Y-95871000D01*
X80960000Y-95911000D02*
X78982000Y-95911000D01*
X80960000Y-95951000D02*
X78998000Y-95951000D01*
X80960000Y-95991000D02*
X79014000Y-95991000D01*
X80960000Y-96031000D02*
X79030000Y-96031000D01*
X80960000Y-96071000D02*
X79048000Y-96071000D01*
X80960000Y-96111000D02*
X79066000Y-96111000D01*
X80960000Y-96151000D02*
X79084000Y-96151000D01*
X80960000Y-96191000D02*
X79104000Y-96191000D01*
X80960000Y-96231000D02*
X79124000Y-96231000D01*
X80960000Y-96271000D02*
X79144000Y-96271000D01*
X80960000Y-96311000D02*
X79166000Y-96311000D01*
X80960000Y-96351000D02*
X79188000Y-96351000D01*
X80960000Y-96391000D02*
X79210000Y-96391000D01*
X80960000Y-96431000D02*
X79234000Y-96431000D01*
X80960000Y-96471000D02*
X79258000Y-96471000D01*
X80960000Y-96511000D02*
X79284000Y-96511000D01*
X80960000Y-96551000D02*
X79310000Y-96551000D01*
X80960000Y-96591000D02*
X79336000Y-96591000D01*
X80960000Y-96631000D02*
X79364000Y-96631000D01*
X80960000Y-96671000D02*
X79393000Y-96671000D01*
X80960000Y-96711000D02*
X79422000Y-96711000D01*
X80960000Y-96751000D02*
X79452000Y-96751000D01*
X80960000Y-96791000D02*
X79484000Y-96791000D01*
X80960000Y-96831000D02*
X79516000Y-96831000D01*
X80960000Y-96871000D02*
X79550000Y-96871000D01*
X80960000Y-96911000D02*
X79584000Y-96911000D01*
X80960000Y-96951000D02*
X79620000Y-96951000D01*
X80960000Y-96991000D02*
X79657000Y-96991000D01*
X80960000Y-97031000D02*
X79695000Y-97031000D01*
X82402000Y-97991000D02*
X81598000Y-97991000D01*
X82633000Y-97951000D02*
X81367000Y-97951000D01*
X82802000Y-97911000D02*
X81198000Y-97911000D01*
X82940000Y-97871000D02*
X81060000Y-97871000D01*
X83059000Y-97831000D02*
X80941000Y-97831000D01*
X83165000Y-97791000D02*
X80835000Y-97791000D01*
X83262000Y-97751000D02*
X80738000Y-97751000D01*
X83350000Y-97711000D02*
X80650000Y-97711000D01*
X83432000Y-97671000D02*
X80568000Y-97671000D01*
X83509000Y-97631000D02*
X80491000Y-97631000D01*
X83581000Y-97591000D02*
X80419000Y-97591000D01*
X83650000Y-97551000D02*
X80350000Y-97551000D01*
X83714000Y-97511000D02*
X80286000Y-97511000D01*
X83776000Y-97471000D02*
X80224000Y-97471000D01*
X83834000Y-97431000D02*
X80166000Y-97431000D01*
X83839000Y-91249759D02*
X83839000Y-91879759D01*
X83890000Y-97391000D02*
X80110000Y-97391000D01*
X83944000Y-97351000D02*
X80056000Y-97351000D01*
X83995000Y-97311000D02*
X80005000Y-97311000D01*
X84044000Y-97271000D02*
X79956000Y-97271000D01*
X84092000Y-97231000D02*
X79908000Y-97231000D01*
X84137000Y-97191000D02*
X79863000Y-97191000D01*
X84154000Y-91564759D02*
X83524000Y-91564759D01*
X84182000Y-97151000D02*
X79818000Y-97151000D01*
X84224000Y-97111000D02*
X79776000Y-97111000D01*
X84265000Y-97071000D02*
X79735000Y-97071000D01*
X84305000Y-97031000D02*
X83040000Y-97031000D01*
X84343000Y-96991000D02*
X83040000Y-96991000D01*
X84380000Y-96951000D02*
X83040000Y-96951000D01*
X84416000Y-96911000D02*
X83040000Y-96911000D01*
X84450000Y-96871000D02*
X83040000Y-96871000D01*
X84484000Y-96831000D02*
X83040000Y-96831000D01*
X84516000Y-96791000D02*
X83040000Y-96791000D01*
X84548000Y-96751000D02*
X83040000Y-96751000D01*
X84578000Y-96711000D02*
X83040000Y-96711000D01*
X84607000Y-96671000D02*
X83040000Y-96671000D01*
X84636000Y-96631000D02*
X83040000Y-96631000D01*
X84664000Y-96591000D02*
X83040000Y-96591000D01*
X84690000Y-96551000D02*
X83040000Y-96551000D01*
X84716000Y-96511000D02*
X83040000Y-96511000D01*
X84742000Y-96471000D02*
X83040000Y-96471000D01*
X84766000Y-96431000D02*
X83040000Y-96431000D01*
X84790000Y-96391000D02*
X83040000Y-96391000D01*
X84812000Y-96351000D02*
X83040000Y-96351000D01*
X84834000Y-96311000D02*
X83040000Y-96311000D01*
X84856000Y-96271000D02*
X83040000Y-96271000D01*
X84876000Y-96231000D02*
X83040000Y-96231000D01*
X84896000Y-96191000D02*
X83040000Y-96191000D01*
X84916000Y-96151000D02*
X83040000Y-96151000D01*
X84934000Y-96111000D02*
X83040000Y-96111000D01*
X84952000Y-96071000D02*
X83040000Y-96071000D01*
X84970000Y-96031000D02*
X83040000Y-96031000D01*
X84986000Y-95991000D02*
X83040000Y-95991000D01*
X85002000Y-95951000D02*
X83040000Y-95951000D01*
X85018000Y-95911000D02*
X83040000Y-95911000D01*
X85033000Y-95871000D02*
X83040000Y-95871000D01*
X85047000Y-95831000D02*
X83040000Y-95831000D01*
X85061000Y-95791000D02*
X83040000Y-95791000D01*
X85074000Y-95751000D02*
X83040000Y-95751000D01*
X85086000Y-95711000D02*
X83040000Y-95711000D01*
X85098000Y-95671000D02*
X83040000Y-95671000D01*
X85110000Y-95631000D02*
X83040000Y-95631000D01*
X85121000Y-95591000D02*
X83040000Y-95591000D01*
X85131000Y-95551000D02*
X83040000Y-95551000D01*
X85141000Y-95511000D02*
X83040000Y-95511000D01*
X85150000Y-95471000D02*
X83040000Y-95471000D01*
X85159000Y-95430000D02*
X83040000Y-95430000D01*
X85167000Y-95390000D02*
X83040000Y-95390000D01*
X85175000Y-95350000D02*
X83040000Y-95350000D01*
X85182000Y-95310000D02*
X83040000Y-95310000D01*
X85189000Y-95270000D02*
X83040000Y-95270000D01*
X85195000Y-95230000D02*
X83040000Y-95230000D01*
X85201000Y-95190000D02*
X83040000Y-95190000D01*
X85206000Y-95150000D02*
X83040000Y-95150000D01*
X85211000Y-95110000D02*
X83040000Y-95110000D01*
X85215000Y-95070000D02*
X83040000Y-95070000D01*
X85218000Y-95030000D02*
X83040000Y-95030000D01*
X85222000Y-94990000D02*
X83040000Y-94990000D01*
X85224000Y-94950000D02*
X78776000Y-94950000D01*
X85227000Y-94910000D02*
X78773000Y-94910000D01*
X85228000Y-94870000D02*
X78772000Y-94870000D01*
X85230000Y-94750000D02*
X78770000Y-94750000D01*
X85230000Y-94790000D02*
X78770000Y-94790000D01*
X85230000Y-94830000D02*
X78770000Y-94830000D01*
X85270000Y-94750000D02*
G75*
G02*
X78730000Y-94750000I-3270000J0D01*
G01*
X78730000Y-94750000D02*
G75*
G02*
X85270000Y-94750000I3270000J0D01*
G01*
%TO.C,C2*%
X79265000Y-87511252D02*
X79265000Y-86988748D01*
X80735000Y-87511252D02*
X80735000Y-86988748D01*
%TO.C,J7*%
X55090000Y-76110000D02*
X55090000Y-78610000D01*
X55090000Y-78610000D02*
X57590000Y-78610000D01*
X55390000Y-74290000D02*
X55390000Y-78310000D01*
X55390000Y-76000000D02*
X55890000Y-76000000D01*
X55390000Y-76810000D02*
X56390000Y-76810000D01*
X55390000Y-78310000D02*
X78110000Y-78310000D01*
X55890000Y-74790000D02*
X77610000Y-74790000D01*
X55890000Y-76000000D02*
X55890000Y-74790000D01*
X56390000Y-76810000D02*
X56390000Y-78310000D01*
X77110000Y-76810000D02*
X77110000Y-78310000D01*
X77610000Y-74790000D02*
X77610000Y-76000000D01*
X77610000Y-76000000D02*
X78110000Y-76000000D01*
X78110000Y-74290000D02*
X55390000Y-74290000D01*
X78110000Y-76810000D02*
X77110000Y-76810000D01*
X78110000Y-78310000D02*
X78110000Y-74290000D01*
%TO.C,J6*%
X55090000Y-70343333D02*
X55090000Y-72843333D01*
X55090000Y-72843333D02*
X57590000Y-72843333D01*
X55390000Y-68523333D02*
X55390000Y-72543333D01*
X55390000Y-70233333D02*
X55890000Y-70233333D01*
X55390000Y-71043333D02*
X56390000Y-71043333D01*
X55390000Y-72543333D02*
X78110000Y-72543333D01*
X55890000Y-69023333D02*
X77610000Y-69023333D01*
X55890000Y-70233333D02*
X55890000Y-69023333D01*
X56390000Y-71043333D02*
X56390000Y-72543333D01*
X77110000Y-71043333D02*
X77110000Y-72543333D01*
X77610000Y-69023333D02*
X77610000Y-70233333D01*
X77610000Y-70233333D02*
X78110000Y-70233333D01*
X78110000Y-68523333D02*
X55390000Y-68523333D01*
X78110000Y-71043333D02*
X77110000Y-71043333D01*
X78110000Y-72543333D02*
X78110000Y-68523333D01*
%TO.C,J2*%
X55090000Y-84110000D02*
X55090000Y-86610000D01*
X55090000Y-86610000D02*
X57590000Y-86610000D01*
X55390000Y-82290000D02*
X55390000Y-86310000D01*
X55390000Y-84000000D02*
X55890000Y-84000000D01*
X55390000Y-84810000D02*
X56390000Y-84810000D01*
X55390000Y-86310000D02*
X78110000Y-86310000D01*
X55890000Y-82790000D02*
X77610000Y-82790000D01*
X55890000Y-84000000D02*
X55890000Y-82790000D01*
X56390000Y-84810000D02*
X56390000Y-86310000D01*
X77110000Y-84810000D02*
X77110000Y-86310000D01*
X77610000Y-82790000D02*
X77610000Y-84000000D01*
X77610000Y-84000000D02*
X78110000Y-84000000D01*
X78110000Y-82290000D02*
X55390000Y-82290000D01*
X78110000Y-84810000D02*
X77110000Y-84810000D01*
X78110000Y-86310000D02*
X78110000Y-82290000D01*
%TO.C,J1*%
X139340000Y-89320000D02*
X139340000Y-79280000D01*
X140589000Y-85184000D02*
X140633000Y-85140000D01*
X140816000Y-85411000D02*
X140860000Y-85367000D01*
X143140000Y-82633000D02*
X143184000Y-82590000D01*
X143367000Y-82860000D02*
X143411000Y-82817000D01*
X146780000Y-79280000D02*
X139340000Y-79280000D01*
X149740000Y-79280000D02*
X147380000Y-79280000D01*
X149740000Y-79900000D02*
X139340000Y-79900000D01*
X149740000Y-81400000D02*
X139340000Y-81400000D01*
X149740000Y-86300000D02*
X139340000Y-86300000D01*
X149740000Y-89320000D02*
X139340000Y-89320000D01*
X149740000Y-89320000D02*
X149740000Y-79280000D01*
X145300000Y-84540000D02*
G75*
G02*
X145299794Y-83460679I1780013J540000D01*
G01*
X146540000Y-82220000D02*
G75*
G02*
X147619321Y-82219794I540000J-1780013D01*
G01*
X147620000Y-85780000D02*
G75*
G02*
X146540679Y-85780206I-540000J1780000D01*
G01*
X148860000Y-83460000D02*
G75*
G02*
X148860206Y-84539321I-1780000J-540000D01*
G01*
X143860000Y-84000000D02*
G75*
G02*
X140140000Y-84000000I-1860000J0D01*
G01*
X140140000Y-84000000D02*
G75*
G02*
X143860000Y-84000000I1860000J0D01*
G01*
X147080000Y-79280000D02*
X146640000Y-78670000D01*
X147520000Y-78670000D01*
X147080000Y-79280000D01*
G36*
X147080000Y-79280000D02*
G01*
X146640000Y-78670000D01*
X147520000Y-78670000D01*
X147080000Y-79280000D01*
G37*
%TO.C,J4*%
X55090000Y-58810000D02*
X55090000Y-61310000D01*
X55090000Y-61310000D02*
X57590000Y-61310000D01*
X55390000Y-56990000D02*
X55390000Y-61010000D01*
X55390000Y-58700000D02*
X55890000Y-58700000D01*
X55390000Y-59510000D02*
X56390000Y-59510000D01*
X55390000Y-61010000D02*
X78110000Y-61010000D01*
X55890000Y-57490000D02*
X77610000Y-57490000D01*
X55890000Y-58700000D02*
X55890000Y-57490000D01*
X56390000Y-59510000D02*
X56390000Y-61010000D01*
X77110000Y-59510000D02*
X77110000Y-61010000D01*
X77610000Y-57490000D02*
X77610000Y-58700000D01*
X77610000Y-58700000D02*
X78110000Y-58700000D01*
X78110000Y-56990000D02*
X55390000Y-56990000D01*
X78110000Y-59510000D02*
X77110000Y-59510000D01*
X78110000Y-61010000D02*
X78110000Y-56990000D01*
%TO.C,PS2*%
X112450000Y-50300000D02*
X138050000Y-50300000D01*
X112450000Y-96200000D02*
X112450000Y-50300000D01*
X112450000Y-96200000D02*
X138050000Y-96200000D01*
X122750000Y-96500000D02*
X124750000Y-96500000D01*
X138050000Y-96200000D02*
X138050000Y-50300000D01*
%TO.C,J5*%
X55090000Y-64576667D02*
X55090000Y-67076667D01*
X55090000Y-67076667D02*
X57590000Y-67076667D01*
X55390000Y-62756667D02*
X55390000Y-66776667D01*
X55390000Y-64466667D02*
X55890000Y-64466667D01*
X55390000Y-65276667D02*
X56390000Y-65276667D01*
X55390000Y-66776667D02*
X78110000Y-66776667D01*
X55890000Y-63256667D02*
X77610000Y-63256667D01*
X55890000Y-64466667D02*
X55890000Y-63256667D01*
X56390000Y-65276667D02*
X56390000Y-66776667D01*
X77110000Y-65276667D02*
X77110000Y-66776667D01*
X77610000Y-63256667D02*
X77610000Y-64466667D01*
X77610000Y-64466667D02*
X78110000Y-64466667D01*
X78110000Y-62756667D02*
X55390000Y-62756667D01*
X78110000Y-65276667D02*
X77110000Y-65276667D01*
X78110000Y-66776667D02*
X78110000Y-62756667D01*
%TD*%
M02*
