%TF.GenerationSoftware,KiCad,Pcbnew,9.0.0*%
%TF.CreationDate,2025-03-28T23:30:51+02:00*%
%TF.ProjectId,Power,506f7765-722e-46b6-9963-61645f706362,rev?*%
%TF.SameCoordinates,Original*%
%TF.FileFunction,Copper,L2,Bot*%
%TF.FilePolarity,Positive*%
%FSLAX46Y46*%
G04 Gerber Fmt 4.6, Leading zero omitted, Abs format (unit mm)*
G04 Created by KiCad (PCBNEW 9.0.0) date 2025-03-28 23:30:51*
%MOMM*%
%LPD*%
G01*
G04 APERTURE LIST*
G04 Aperture macros list*
%AMRoundRect*
0 Rectangle with rounded corners*
0 $1 Rounding radius*
0 $2 $3 $4 $5 $6 $7 $8 $9 X,Y pos of 4 corners*
0 Add a 4 corners polygon primitive as box body*
4,1,4,$2,$3,$4,$5,$6,$7,$8,$9,$2,$3,0*
0 Add four circle primitives for the rounded corners*
1,1,$1+$1,$2,$3*
1,1,$1+$1,$4,$5*
1,1,$1+$1,$6,$7*
1,1,$1+$1,$8,$9*
0 Add four rect primitives between the rounded corners*
20,1,$1+$1,$2,$3,$4,$5,0*
20,1,$1+$1,$4,$5,$6,$7,0*
20,1,$1+$1,$6,$7,$8,$9,0*
20,1,$1+$1,$8,$9,$2,$3,0*%
G04 Aperture macros list end*
%TA.AperFunction,ComponentPad*%
%ADD10R,1.600000X1.600000*%
%TD*%
%TA.AperFunction,ComponentPad*%
%ADD11C,1.600000*%
%TD*%
%TA.AperFunction,ComponentPad*%
%ADD12RoundRect,0.250000X-0.600000X-0.725000X0.600000X-0.725000X0.600000X0.725000X-0.600000X0.725000X0*%
%TD*%
%TA.AperFunction,ComponentPad*%
%ADD13O,1.700000X1.950000*%
%TD*%
%TA.AperFunction,ComponentPad*%
%ADD14R,3.000000X3.000000*%
%TD*%
%TA.AperFunction,ComponentPad*%
%ADD15C,3.000000*%
%TD*%
%TA.AperFunction,ComponentPad*%
%ADD16RoundRect,0.250000X1.050000X1.050000X-1.050000X1.050000X-1.050000X-1.050000X1.050000X-1.050000X0*%
%TD*%
%TA.AperFunction,ComponentPad*%
%ADD17C,2.600000*%
%TD*%
%TA.AperFunction,ViaPad*%
%ADD18C,0.700000*%
%TD*%
%TA.AperFunction,Conductor*%
%ADD19C,2.000000*%
%TD*%
G04 APERTURE END LIST*
D10*
%TO.P,C1,1*%
%TO.N,+12V*%
X136000000Y-109000000D03*
D11*
%TO.P,C1,2*%
%TO.N,GND*%
X136000000Y-106500000D03*
%TD*%
D12*
%TO.P,J3,1,Pin_1*%
%TO.N,+12V*%
X121642857Y-120700000D03*
D13*
%TO.P,J3,2,Pin_2*%
X124142857Y-120700000D03*
%TO.P,J3,3,Pin_3*%
X126642857Y-120700000D03*
%TO.P,J3,4,Pin_4*%
X129142857Y-120700000D03*
%TO.P,J3,5,Pin_5*%
X131642857Y-120700000D03*
%TO.P,J3,6,Pin_6*%
X134142857Y-120700000D03*
%TO.P,J3,7,Pin_7*%
X136642857Y-120700000D03*
%TO.P,J3,8,Pin_8*%
X139142857Y-120700000D03*
%TD*%
D14*
%TO.P,PS1,1,AC/N*%
%TO.N,VAC*%
X135000000Y-65500000D03*
D15*
%TO.P,PS1,2,AC/L*%
%TO.N,AC*%
X135000000Y-54750000D03*
%TO.P,PS1,3,-Vo*%
%TO.N,GND2*%
X96500000Y-54750000D03*
%TO.P,PS1,4,+Vo*%
%TO.N,+24V*%
X96500000Y-62750000D03*
%TD*%
%TO.P,PS2,4,+Vo*%
%TO.N,+12V*%
X96500000Y-89700000D03*
%TO.P,PS2,3,-Vo*%
%TO.N,GND*%
X96500000Y-81700000D03*
%TO.P,PS2,2,AC/L*%
%TO.N,AC*%
X135000000Y-81700000D03*
D14*
%TO.P,PS2,1,AC/N*%
%TO.N,VAC*%
X135000000Y-92450000D03*
%TD*%
D10*
%TO.P,C3,1*%
%TO.N,+24V*%
X122000000Y-109000000D03*
D11*
%TO.P,C3,2*%
%TO.N,GND2*%
X122000000Y-106500000D03*
%TD*%
D16*
%TO.P,J1,1,Pin_1*%
%TO.N,VAC*%
X147000000Y-88000000D03*
D17*
%TO.P,J1,2,Pin_2*%
%TO.N,AC*%
X141920000Y-88000000D03*
%TD*%
D13*
%TO.P,J2,8,Pin_8*%
%TO.N,GND*%
X139142857Y-114150000D03*
%TO.P,J2,7,Pin_7*%
X136642857Y-114150000D03*
%TO.P,J2,6,Pin_6*%
X134142857Y-114150000D03*
%TO.P,J2,5,Pin_5*%
X131642857Y-114150000D03*
%TO.P,J2,4,Pin_4*%
X129142857Y-114150000D03*
%TO.P,J2,3,Pin_3*%
X126642857Y-114150000D03*
%TO.P,J2,2,Pin_2*%
X124142857Y-114150000D03*
D12*
%TO.P,J2,1,Pin_1*%
X121642857Y-114150000D03*
%TD*%
%TO.P,J7,1,Pin_1*%
%TO.N,+24V*%
X96000000Y-127000000D03*
D13*
%TO.P,J7,2,Pin_2*%
X98500000Y-127000000D03*
%TO.P,J7,3,Pin_3*%
X101000000Y-127000000D03*
%TO.P,J7,4,Pin_4*%
X103500000Y-127000000D03*
%TO.P,J7,5,Pin_5*%
X106000000Y-127000000D03*
%TO.P,J7,6,Pin_6*%
X108500000Y-127000000D03*
%TO.P,J7,7,Pin_7*%
X111000000Y-127000000D03*
%TO.P,J7,8,Pin_8*%
X113500000Y-127000000D03*
%TD*%
%TO.P,J6,8,Pin_8*%
%TO.N,+24V*%
X113500000Y-120550000D03*
%TO.P,J6,7,Pin_7*%
X111000000Y-120550000D03*
%TO.P,J6,6,Pin_6*%
X108500000Y-120550000D03*
%TO.P,J6,5,Pin_5*%
X106000000Y-120550000D03*
%TO.P,J6,4,Pin_4*%
X103500000Y-120550000D03*
%TO.P,J6,3,Pin_3*%
X101000000Y-120550000D03*
%TO.P,J6,2,Pin_2*%
X98500000Y-120550000D03*
D12*
%TO.P,J6,1,Pin_1*%
X96000000Y-120550000D03*
%TD*%
D13*
%TO.P,J4,8,Pin_8*%
%TO.N,GND2*%
X113500000Y-107650000D03*
%TO.P,J4,7,Pin_7*%
X111000000Y-107650000D03*
%TO.P,J4,6,Pin_6*%
X108500000Y-107650000D03*
%TO.P,J4,5,Pin_5*%
X106000000Y-107650000D03*
%TO.P,J4,4,Pin_4*%
X103500000Y-107650000D03*
%TO.P,J4,3,Pin_3*%
X101000000Y-107650000D03*
%TO.P,J4,2,Pin_2*%
X98500000Y-107650000D03*
D12*
%TO.P,J4,1,Pin_1*%
X96000000Y-107650000D03*
%TD*%
%TO.P,J5,1,Pin_1*%
%TO.N,+24V*%
X96000000Y-114100000D03*
D13*
%TO.P,J5,2,Pin_2*%
X98500000Y-114100000D03*
%TO.P,J5,3,Pin_3*%
X101000000Y-114100000D03*
%TO.P,J5,4,Pin_4*%
X103500000Y-114100000D03*
%TO.P,J5,5,Pin_5*%
X106000000Y-114100000D03*
%TO.P,J5,6,Pin_6*%
X108500000Y-114100000D03*
%TO.P,J5,7,Pin_7*%
X111000000Y-114100000D03*
%TO.P,J5,8,Pin_8*%
X113500000Y-114100000D03*
%TD*%
D18*
%TO.N,GND2*%
X110000000Y-111000000D03*
X104000000Y-111000000D03*
X97000000Y-111000000D03*
X91000000Y-60000000D03*
X87000000Y-60000000D03*
X91000000Y-64000000D03*
X87000000Y-64000000D03*
X87000000Y-68000000D03*
X91000000Y-72000000D03*
X87000000Y-72000000D03*
X91000000Y-76000000D03*
X87000000Y-76000000D03*
X91000000Y-80000000D03*
X87000000Y-80000000D03*
X87000000Y-84000000D03*
X91000000Y-84000000D03*
X87000000Y-88000000D03*
X91000000Y-88000000D03*
X91000000Y-93000000D03*
X87000000Y-93000000D03*
X87000000Y-97000000D03*
X91000000Y-97000000D03*
X91000000Y-101000000D03*
X87000000Y-101000000D03*
X87000000Y-105000000D03*
X91000000Y-105000000D03*
%TO.N,GND*%
X122000000Y-93000000D03*
%TO.N,GND2*%
X91000000Y-115000000D03*
X87000000Y-115000000D03*
X87000000Y-119000000D03*
X91000000Y-119000000D03*
X91000000Y-123000000D03*
X87000000Y-123000000D03*
%TO.N,GND*%
X142000000Y-125000000D03*
X142000000Y-129000000D03*
X138000000Y-129000000D03*
X138000000Y-125000000D03*
X134000000Y-125000000D03*
X134000000Y-129000000D03*
X130000000Y-129000000D03*
X130000000Y-125000000D03*
X126000000Y-125000000D03*
X126000000Y-129000000D03*
X122000000Y-129000000D03*
X122000000Y-125000000D03*
X97000000Y-102000000D03*
X97000000Y-96000000D03*
X116000000Y-96000000D03*
X116000000Y-102000000D03*
X110000000Y-102000000D03*
X110000000Y-96000000D03*
X104000000Y-96000000D03*
X104000000Y-102000000D03*
X122000000Y-81000000D03*
X122000000Y-87000000D03*
X116000000Y-87000000D03*
X116000000Y-81000000D03*
X110000000Y-81000000D03*
X110000000Y-87000000D03*
X104000000Y-87000000D03*
X104000000Y-81000000D03*
%TD*%
D19*
%TO.N,AC*%
X142000000Y-61000000D02*
X141920000Y-61080000D01*
X135750000Y-54750000D02*
X142000000Y-61000000D01*
X135000000Y-54750000D02*
X135750000Y-54750000D01*
X141920000Y-61080000D02*
X141920000Y-88000000D01*
X135620000Y-81700000D02*
X141920000Y-88000000D01*
X135000000Y-81700000D02*
X135620000Y-81700000D01*
%TO.N,VAC*%
X130000000Y-88000000D02*
X130000000Y-70500000D01*
X134450000Y-92450000D02*
X130000000Y-88000000D01*
X135000000Y-92450000D02*
X134450000Y-92450000D01*
X130000000Y-70500000D02*
X135000000Y-65500000D01*
X147000000Y-90000000D02*
X144550000Y-92450000D01*
X147000000Y-88000000D02*
X147000000Y-90000000D01*
X144550000Y-92450000D02*
X135000000Y-92450000D01*
%TD*%
%TA.AperFunction,Conductor*%
%TO.N,GND2*%
G36*
X98057370Y-107466657D02*
G01*
X98025000Y-107587465D01*
X98025000Y-107712535D01*
X98057370Y-107833343D01*
X98095854Y-107900000D01*
X96404146Y-107900000D01*
X96442630Y-107833343D01*
X96475000Y-107712535D01*
X96475000Y-107587465D01*
X96442630Y-107466657D01*
X96404146Y-107400000D01*
X98095854Y-107400000D01*
X98057370Y-107466657D01*
G37*
%TD.AperFunction*%
%TA.AperFunction,Conductor*%
G36*
X100557370Y-107466657D02*
G01*
X100525000Y-107587465D01*
X100525000Y-107712535D01*
X100557370Y-107833343D01*
X100595854Y-107900000D01*
X98904146Y-107900000D01*
X98942630Y-107833343D01*
X98975000Y-107712535D01*
X98975000Y-107587465D01*
X98942630Y-107466657D01*
X98904146Y-107400000D01*
X100595854Y-107400000D01*
X100557370Y-107466657D01*
G37*
%TD.AperFunction*%
%TA.AperFunction,Conductor*%
G36*
X103057370Y-107466657D02*
G01*
X103025000Y-107587465D01*
X103025000Y-107712535D01*
X103057370Y-107833343D01*
X103095854Y-107900000D01*
X101404146Y-107900000D01*
X101442630Y-107833343D01*
X101475000Y-107712535D01*
X101475000Y-107587465D01*
X101442630Y-107466657D01*
X101404146Y-107400000D01*
X103095854Y-107400000D01*
X103057370Y-107466657D01*
G37*
%TD.AperFunction*%
%TA.AperFunction,Conductor*%
G36*
X105557370Y-107466657D02*
G01*
X105525000Y-107587465D01*
X105525000Y-107712535D01*
X105557370Y-107833343D01*
X105595854Y-107900000D01*
X103904146Y-107900000D01*
X103942630Y-107833343D01*
X103975000Y-107712535D01*
X103975000Y-107587465D01*
X103942630Y-107466657D01*
X103904146Y-107400000D01*
X105595854Y-107400000D01*
X105557370Y-107466657D01*
G37*
%TD.AperFunction*%
%TA.AperFunction,Conductor*%
G36*
X108057370Y-107466657D02*
G01*
X108025000Y-107587465D01*
X108025000Y-107712535D01*
X108057370Y-107833343D01*
X108095854Y-107900000D01*
X106404146Y-107900000D01*
X106442630Y-107833343D01*
X106475000Y-107712535D01*
X106475000Y-107587465D01*
X106442630Y-107466657D01*
X106404146Y-107400000D01*
X108095854Y-107400000D01*
X108057370Y-107466657D01*
G37*
%TD.AperFunction*%
%TA.AperFunction,Conductor*%
G36*
X110557370Y-107466657D02*
G01*
X110525000Y-107587465D01*
X110525000Y-107712535D01*
X110557370Y-107833343D01*
X110595854Y-107900000D01*
X108904146Y-107900000D01*
X108942630Y-107833343D01*
X108975000Y-107712535D01*
X108975000Y-107587465D01*
X108942630Y-107466657D01*
X108904146Y-107400000D01*
X110595854Y-107400000D01*
X110557370Y-107466657D01*
G37*
%TD.AperFunction*%
%TA.AperFunction,Conductor*%
G36*
X113057370Y-107466657D02*
G01*
X113025000Y-107587465D01*
X113025000Y-107712535D01*
X113057370Y-107833343D01*
X113095854Y-107900000D01*
X111404146Y-107900000D01*
X111442630Y-107833343D01*
X111475000Y-107712535D01*
X111475000Y-107587465D01*
X111442630Y-107466657D01*
X111404146Y-107400000D01*
X113095854Y-107400000D01*
X113057370Y-107466657D01*
G37*
%TD.AperFunction*%
%TA.AperFunction,Conductor*%
G36*
X99943039Y-50020185D02*
G01*
X99988794Y-50072989D01*
X100000000Y-50124500D01*
X100000000Y-69876000D01*
X99980315Y-69943039D01*
X99927511Y-69988794D01*
X99876000Y-70000000D01*
X92000000Y-70000000D01*
X92000000Y-105000000D01*
X116876000Y-105000000D01*
X116943039Y-105019685D01*
X116988794Y-105072489D01*
X117000000Y-105124000D01*
X117000000Y-129875500D01*
X116980315Y-129942539D01*
X116927511Y-129988294D01*
X116876000Y-129999500D01*
X85124500Y-129999500D01*
X85057461Y-129979815D01*
X85011706Y-129927011D01*
X85000500Y-129875500D01*
X85000500Y-126878711D01*
X86149500Y-126878711D01*
X86149500Y-127121288D01*
X86181161Y-127361785D01*
X86243947Y-127596104D01*
X86336773Y-127820205D01*
X86336777Y-127820214D01*
X86358974Y-127858661D01*
X86458064Y-128030289D01*
X86458066Y-128030292D01*
X86458067Y-128030293D01*
X86605733Y-128222736D01*
X86605739Y-128222743D01*
X86777256Y-128394260D01*
X86777263Y-128394266D01*
X86883127Y-128475498D01*
X86969711Y-128541936D01*
X87179788Y-128663224D01*
X87403900Y-128756054D01*
X87638211Y-128818838D01*
X87818586Y-128842584D01*
X87878711Y-128850500D01*
X87878712Y-128850500D01*
X88121289Y-128850500D01*
X88169388Y-128844167D01*
X88361789Y-128818838D01*
X88596100Y-128756054D01*
X88820212Y-128663224D01*
X89030289Y-128541936D01*
X89222738Y-128394265D01*
X89394265Y-128222738D01*
X89541936Y-128030289D01*
X89663224Y-127820212D01*
X89756054Y-127596100D01*
X89818838Y-127361789D01*
X89850500Y-127121288D01*
X89850500Y-126878712D01*
X89818838Y-126638211D01*
X89756054Y-126403900D01*
X89681944Y-126224983D01*
X94649500Y-126224983D01*
X94649500Y-127775001D01*
X94649501Y-127775018D01*
X94660000Y-127877796D01*
X94660001Y-127877799D01*
X94705894Y-128016294D01*
X94715186Y-128044334D01*
X94807288Y-128193656D01*
X94931344Y-128317712D01*
X95080666Y-128409814D01*
X95247203Y-128464999D01*
X95349991Y-128475500D01*
X96650008Y-128475499D01*
X96752797Y-128464999D01*
X96919334Y-128409814D01*
X97068656Y-128317712D01*
X97192712Y-128193656D01*
X97284814Y-128044334D01*
X97284814Y-128044331D01*
X97288178Y-128038879D01*
X97340126Y-127992154D01*
X97409088Y-127980931D01*
X97473170Y-128008774D01*
X97481398Y-128016294D01*
X97620213Y-128155109D01*
X97792179Y-128280048D01*
X97792181Y-128280049D01*
X97792184Y-128280051D01*
X97981588Y-128376557D01*
X98183757Y-128442246D01*
X98393713Y-128475500D01*
X98393714Y-128475500D01*
X98606286Y-128475500D01*
X98606287Y-128475500D01*
X98816243Y-128442246D01*
X99018412Y-128376557D01*
X99207816Y-128280051D01*
X99229789Y-128264086D01*
X99379786Y-128155109D01*
X99379788Y-128155106D01*
X99379792Y-128155104D01*
X99530104Y-128004792D01*
X99649683Y-127840204D01*
X99705011Y-127797540D01*
X99774624Y-127791561D01*
X99836420Y-127824166D01*
X99850313Y-127840199D01*
X99952560Y-127980931D01*
X99969896Y-128004792D01*
X100120213Y-128155109D01*
X100292179Y-128280048D01*
X100292181Y-128280049D01*
X100292184Y-128280051D01*
X100481588Y-128376557D01*
X100683757Y-128442246D01*
X100893713Y-128475500D01*
X100893714Y-128475500D01*
X101106286Y-128475500D01*
X101106287Y-128475500D01*
X101316243Y-128442246D01*
X101518412Y-128376557D01*
X101707816Y-128280051D01*
X101729789Y-128264086D01*
X101879786Y-128155109D01*
X101879788Y-128155106D01*
X101879792Y-128155104D01*
X102030104Y-128004792D01*
X102149683Y-127840204D01*
X102205011Y-127797540D01*
X102274624Y-127791561D01*
X102336420Y-127824166D01*
X102350313Y-127840199D01*
X102452560Y-127980931D01*
X102469896Y-128004792D01*
X102620213Y-128155109D01*
X102792179Y-128280048D01*
X102792181Y-128280049D01*
X102792184Y-128280051D01*
X102981588Y-128376557D01*
X103183757Y-128442246D01*
X103393713Y-128475500D01*
X103393714Y-128475500D01*
X103606286Y-128475500D01*
X103606287Y-128475500D01*
X103816243Y-128442246D01*
X104018412Y-128376557D01*
X104207816Y-128280051D01*
X104229789Y-128264086D01*
X104379786Y-128155109D01*
X104379788Y-128155106D01*
X104379792Y-128155104D01*
X104530104Y-128004792D01*
X104649683Y-127840204D01*
X104705011Y-127797540D01*
X104774624Y-127791561D01*
X104836420Y-127824166D01*
X104850313Y-127840199D01*
X104952560Y-127980931D01*
X104969896Y-128004792D01*
X105120213Y-128155109D01*
X105292179Y-128280048D01*
X105292181Y-128280049D01*
X105292184Y-128280051D01*
X105481588Y-128376557D01*
X105683757Y-128442246D01*
X105893713Y-128475500D01*
X105893714Y-128475500D01*
X106106286Y-128475500D01*
X106106287Y-128475500D01*
X106316243Y-128442246D01*
X106518412Y-128376557D01*
X106707816Y-128280051D01*
X106729789Y-128264086D01*
X106879786Y-128155109D01*
X106879788Y-128155106D01*
X106879792Y-128155104D01*
X107030104Y-128004792D01*
X107149683Y-127840204D01*
X107205011Y-127797540D01*
X107274624Y-127791561D01*
X107336420Y-127824166D01*
X107350313Y-127840199D01*
X107452560Y-127980931D01*
X107469896Y-128004792D01*
X107620213Y-128155109D01*
X107792179Y-128280048D01*
X107792181Y-128280049D01*
X107792184Y-128280051D01*
X107981588Y-128376557D01*
X108183757Y-128442246D01*
X108393713Y-128475500D01*
X108393714Y-128475500D01*
X108606286Y-128475500D01*
X108606287Y-128475500D01*
X108816243Y-128442246D01*
X109018412Y-128376557D01*
X109207816Y-128280051D01*
X109229789Y-128264086D01*
X109379786Y-128155109D01*
X109379788Y-128155106D01*
X109379792Y-128155104D01*
X109530104Y-128004792D01*
X109649683Y-127840204D01*
X109705011Y-127797540D01*
X109774624Y-127791561D01*
X109836420Y-127824166D01*
X109850313Y-127840199D01*
X109952560Y-127980931D01*
X109969896Y-128004792D01*
X110120213Y-128155109D01*
X110292179Y-128280048D01*
X110292181Y-128280049D01*
X110292184Y-128280051D01*
X110481588Y-128376557D01*
X110683757Y-128442246D01*
X110893713Y-128475500D01*
X110893714Y-128475500D01*
X111106286Y-128475500D01*
X111106287Y-128475500D01*
X111316243Y-128442246D01*
X111518412Y-128376557D01*
X111707816Y-128280051D01*
X111729789Y-128264086D01*
X111879786Y-128155109D01*
X111879788Y-128155106D01*
X111879792Y-128155104D01*
X112030104Y-128004792D01*
X112149683Y-127840204D01*
X112205011Y-127797540D01*
X112274624Y-127791561D01*
X112336420Y-127824166D01*
X112350313Y-127840199D01*
X112452560Y-127980931D01*
X112469896Y-128004792D01*
X112620213Y-128155109D01*
X112792179Y-128280048D01*
X112792181Y-128280049D01*
X112792184Y-128280051D01*
X112981588Y-128376557D01*
X113183757Y-128442246D01*
X113393713Y-128475500D01*
X113393714Y-128475500D01*
X113606286Y-128475500D01*
X113606287Y-128475500D01*
X113816243Y-128442246D01*
X114018412Y-128376557D01*
X114207816Y-128280051D01*
X114229789Y-128264086D01*
X114379786Y-128155109D01*
X114379788Y-128155106D01*
X114379792Y-128155104D01*
X114530104Y-128004792D01*
X114530106Y-128004788D01*
X114530109Y-128004786D01*
X114655048Y-127832820D01*
X114655047Y-127832820D01*
X114655051Y-127832816D01*
X114751557Y-127643412D01*
X114817246Y-127441243D01*
X114850500Y-127231287D01*
X114850500Y-126768713D01*
X114817246Y-126558757D01*
X114751557Y-126356588D01*
X114655051Y-126167184D01*
X114655049Y-126167181D01*
X114655048Y-126167179D01*
X114530109Y-125995213D01*
X114379786Y-125844890D01*
X114207820Y-125719951D01*
X114018414Y-125623444D01*
X114018413Y-125623443D01*
X114018412Y-125623443D01*
X113816243Y-125557754D01*
X113816241Y-125557753D01*
X113816240Y-125557753D01*
X113654957Y-125532208D01*
X113606287Y-125524500D01*
X113393713Y-125524500D01*
X113345042Y-125532208D01*
X113183760Y-125557753D01*
X112981585Y-125623444D01*
X112792179Y-125719951D01*
X112620213Y-125844890D01*
X112469894Y-125995209D01*
X112469890Y-125995214D01*
X112350318Y-126159793D01*
X112294989Y-126202459D01*
X112225375Y-126208438D01*
X112163580Y-126175833D01*
X112149682Y-126159793D01*
X112030109Y-125995214D01*
X112030105Y-125995209D01*
X111879786Y-125844890D01*
X111707820Y-125719951D01*
X111518414Y-125623444D01*
X111518413Y-125623443D01*
X111518412Y-125623443D01*
X111316243Y-125557754D01*
X111316241Y-125557753D01*
X111316240Y-125557753D01*
X111154957Y-125532208D01*
X111106287Y-125524500D01*
X110893713Y-125524500D01*
X110845042Y-125532208D01*
X110683760Y-125557753D01*
X110481585Y-125623444D01*
X110292179Y-125719951D01*
X110120213Y-125844890D01*
X109969894Y-125995209D01*
X109969890Y-125995214D01*
X109850318Y-126159793D01*
X109794989Y-126202459D01*
X109725375Y-126208438D01*
X109663580Y-126175833D01*
X109649682Y-126159793D01*
X109530109Y-125995214D01*
X109530105Y-125995209D01*
X109379786Y-125844890D01*
X109207820Y-125719951D01*
X109018414Y-125623444D01*
X109018413Y-125623443D01*
X109018412Y-125623443D01*
X108816243Y-125557754D01*
X108816241Y-125557753D01*
X108816240Y-125557753D01*
X108654957Y-125532208D01*
X108606287Y-125524500D01*
X108393713Y-125524500D01*
X108345042Y-125532208D01*
X108183760Y-125557753D01*
X107981585Y-125623444D01*
X107792179Y-125719951D01*
X107620213Y-125844890D01*
X107469894Y-125995209D01*
X107469890Y-125995214D01*
X107350318Y-126159793D01*
X107294989Y-126202459D01*
X107225375Y-126208438D01*
X107163580Y-126175833D01*
X107149682Y-126159793D01*
X107030109Y-125995214D01*
X107030105Y-125995209D01*
X106879786Y-125844890D01*
X106707820Y-125719951D01*
X106518414Y-125623444D01*
X106518413Y-125623443D01*
X106518412Y-125623443D01*
X106316243Y-125557754D01*
X106316241Y-125557753D01*
X106316240Y-125557753D01*
X106154957Y-125532208D01*
X106106287Y-125524500D01*
X105893713Y-125524500D01*
X105845042Y-125532208D01*
X105683760Y-125557753D01*
X105481585Y-125623444D01*
X105292179Y-125719951D01*
X105120213Y-125844890D01*
X104969894Y-125995209D01*
X104969890Y-125995214D01*
X104850318Y-126159793D01*
X104794989Y-126202459D01*
X104725375Y-126208438D01*
X104663580Y-126175833D01*
X104649682Y-126159793D01*
X104530109Y-125995214D01*
X104530105Y-125995209D01*
X104379786Y-125844890D01*
X104207820Y-125719951D01*
X104018414Y-125623444D01*
X104018413Y-125623443D01*
X104018412Y-125623443D01*
X103816243Y-125557754D01*
X103816241Y-125557753D01*
X103816240Y-125557753D01*
X103654957Y-125532208D01*
X103606287Y-125524500D01*
X103393713Y-125524500D01*
X103345042Y-125532208D01*
X103183760Y-125557753D01*
X102981585Y-125623444D01*
X102792179Y-125719951D01*
X102620213Y-125844890D01*
X102469894Y-125995209D01*
X102469890Y-125995214D01*
X102350318Y-126159793D01*
X102294989Y-126202459D01*
X102225375Y-126208438D01*
X102163580Y-126175833D01*
X102149682Y-126159793D01*
X102030109Y-125995214D01*
X102030105Y-125995209D01*
X101879786Y-125844890D01*
X101707820Y-125719951D01*
X101518414Y-125623444D01*
X101518413Y-125623443D01*
X101518412Y-125623443D01*
X101316243Y-125557754D01*
X101316241Y-125557753D01*
X101316240Y-125557753D01*
X101154957Y-125532208D01*
X101106287Y-125524500D01*
X100893713Y-125524500D01*
X100845042Y-125532208D01*
X100683760Y-125557753D01*
X100481585Y-125623444D01*
X100292179Y-125719951D01*
X100120213Y-125844890D01*
X99969894Y-125995209D01*
X99969890Y-125995214D01*
X99850318Y-126159793D01*
X99794989Y-126202459D01*
X99725375Y-126208438D01*
X99663580Y-126175833D01*
X99649682Y-126159793D01*
X99530109Y-125995214D01*
X99530105Y-125995209D01*
X99379786Y-125844890D01*
X99207820Y-125719951D01*
X99018414Y-125623444D01*
X99018413Y-125623443D01*
X99018412Y-125623443D01*
X98816243Y-125557754D01*
X98816241Y-125557753D01*
X98816240Y-125557753D01*
X98654957Y-125532208D01*
X98606287Y-125524500D01*
X98393713Y-125524500D01*
X98345042Y-125532208D01*
X98183760Y-125557753D01*
X97981585Y-125623444D01*
X97792179Y-125719951D01*
X97620215Y-125844889D01*
X97481398Y-125983706D01*
X97420075Y-126017190D01*
X97350383Y-126012206D01*
X97294450Y-125970334D01*
X97288178Y-125961120D01*
X97192712Y-125806344D01*
X97068657Y-125682289D01*
X97068656Y-125682288D01*
X96919334Y-125590186D01*
X96752797Y-125535001D01*
X96752795Y-125535000D01*
X96650010Y-125524500D01*
X95349998Y-125524500D01*
X95349981Y-125524501D01*
X95247203Y-125535000D01*
X95247200Y-125535001D01*
X95080668Y-125590185D01*
X95080663Y-125590187D01*
X94931342Y-125682289D01*
X94807289Y-125806342D01*
X94715187Y-125955663D01*
X94715185Y-125955668D01*
X94710532Y-125969711D01*
X94660001Y-126122203D01*
X94660001Y-126122204D01*
X94660000Y-126122204D01*
X94649500Y-126224983D01*
X89681944Y-126224983D01*
X89663224Y-126179788D01*
X89541936Y-125969711D01*
X89446157Y-125844889D01*
X89394266Y-125777263D01*
X89394260Y-125777256D01*
X89222743Y-125605739D01*
X89222736Y-125605733D01*
X89030293Y-125458067D01*
X89030292Y-125458066D01*
X89030289Y-125458064D01*
X88820212Y-125336776D01*
X88820205Y-125336773D01*
X88596104Y-125243947D01*
X88361785Y-125181161D01*
X88121289Y-125149500D01*
X88121288Y-125149500D01*
X87878712Y-125149500D01*
X87878711Y-125149500D01*
X87638214Y-125181161D01*
X87403895Y-125243947D01*
X87179794Y-125336773D01*
X87179785Y-125336777D01*
X86969706Y-125458067D01*
X86777263Y-125605733D01*
X86777256Y-125605739D01*
X86605739Y-125777256D01*
X86605733Y-125777263D01*
X86458067Y-125969706D01*
X86336777Y-126179785D01*
X86336773Y-126179794D01*
X86243947Y-126403895D01*
X86181161Y-126638214D01*
X86149500Y-126878711D01*
X85000500Y-126878711D01*
X85000500Y-119774983D01*
X94649500Y-119774983D01*
X94649500Y-121325001D01*
X94649501Y-121325018D01*
X94660000Y-121427796D01*
X94660001Y-121427799D01*
X94705894Y-121566294D01*
X94715186Y-121594334D01*
X94807288Y-121743656D01*
X94931344Y-121867712D01*
X95080666Y-121959814D01*
X95247203Y-122014999D01*
X95349991Y-122025500D01*
X96650008Y-122025499D01*
X96752797Y-122014999D01*
X96919334Y-121959814D01*
X97068656Y-121867712D01*
X97192712Y-121743656D01*
X97284814Y-121594334D01*
X97284814Y-121594331D01*
X97288178Y-121588879D01*
X97340126Y-121542154D01*
X97409088Y-121530931D01*
X97473170Y-121558774D01*
X97481398Y-121566294D01*
X97620213Y-121705109D01*
X97792179Y-121830048D01*
X97792181Y-121830049D01*
X97792184Y-121830051D01*
X97981588Y-121926557D01*
X98183757Y-121992246D01*
X98393713Y-122025500D01*
X98393714Y-122025500D01*
X98606286Y-122025500D01*
X98606287Y-122025500D01*
X98816243Y-121992246D01*
X99018412Y-121926557D01*
X99207816Y-121830051D01*
X99229789Y-121814086D01*
X99379786Y-121705109D01*
X99379788Y-121705106D01*
X99379792Y-121705104D01*
X99530104Y-121554792D01*
X99649683Y-121390204D01*
X99705011Y-121347540D01*
X99774624Y-121341561D01*
X99836420Y-121374166D01*
X99850313Y-121390199D01*
X99952560Y-121530931D01*
X99969896Y-121554792D01*
X100120213Y-121705109D01*
X100292179Y-121830048D01*
X100292181Y-121830049D01*
X100292184Y-121830051D01*
X100481588Y-121926557D01*
X100683757Y-121992246D01*
X100893713Y-122025500D01*
X100893714Y-122025500D01*
X101106286Y-122025500D01*
X101106287Y-122025500D01*
X101316243Y-121992246D01*
X101518412Y-121926557D01*
X101707816Y-121830051D01*
X101729789Y-121814086D01*
X101879786Y-121705109D01*
X101879788Y-121705106D01*
X101879792Y-121705104D01*
X102030104Y-121554792D01*
X102149683Y-121390204D01*
X102205011Y-121347540D01*
X102274624Y-121341561D01*
X102336420Y-121374166D01*
X102350313Y-121390199D01*
X102452560Y-121530931D01*
X102469896Y-121554792D01*
X102620213Y-121705109D01*
X102792179Y-121830048D01*
X102792181Y-121830049D01*
X102792184Y-121830051D01*
X102981588Y-121926557D01*
X103183757Y-121992246D01*
X103393713Y-122025500D01*
X103393714Y-122025500D01*
X103606286Y-122025500D01*
X103606287Y-122025500D01*
X103816243Y-121992246D01*
X104018412Y-121926557D01*
X104207816Y-121830051D01*
X104229789Y-121814086D01*
X104379786Y-121705109D01*
X104379788Y-121705106D01*
X104379792Y-121705104D01*
X104530104Y-121554792D01*
X104649683Y-121390204D01*
X104705011Y-121347540D01*
X104774624Y-121341561D01*
X104836420Y-121374166D01*
X104850313Y-121390199D01*
X104952560Y-121530931D01*
X104969896Y-121554792D01*
X105120213Y-121705109D01*
X105292179Y-121830048D01*
X105292181Y-121830049D01*
X105292184Y-121830051D01*
X105481588Y-121926557D01*
X105683757Y-121992246D01*
X105893713Y-122025500D01*
X105893714Y-122025500D01*
X106106286Y-122025500D01*
X106106287Y-122025500D01*
X106316243Y-121992246D01*
X106518412Y-121926557D01*
X106707816Y-121830051D01*
X106729789Y-121814086D01*
X106879786Y-121705109D01*
X106879788Y-121705106D01*
X106879792Y-121705104D01*
X107030104Y-121554792D01*
X107149683Y-121390204D01*
X107205011Y-121347540D01*
X107274624Y-121341561D01*
X107336420Y-121374166D01*
X107350313Y-121390199D01*
X107452560Y-121530931D01*
X107469896Y-121554792D01*
X107620213Y-121705109D01*
X107792179Y-121830048D01*
X107792181Y-121830049D01*
X107792184Y-121830051D01*
X107981588Y-121926557D01*
X108183757Y-121992246D01*
X108393713Y-122025500D01*
X108393714Y-122025500D01*
X108606286Y-122025500D01*
X108606287Y-122025500D01*
X108816243Y-121992246D01*
X109018412Y-121926557D01*
X109207816Y-121830051D01*
X109229789Y-121814086D01*
X109379786Y-121705109D01*
X109379788Y-121705106D01*
X109379792Y-121705104D01*
X109530104Y-121554792D01*
X109649683Y-121390204D01*
X109705011Y-121347540D01*
X109774624Y-121341561D01*
X109836420Y-121374166D01*
X109850313Y-121390199D01*
X109952560Y-121530931D01*
X109969896Y-121554792D01*
X110120213Y-121705109D01*
X110292179Y-121830048D01*
X110292181Y-121830049D01*
X110292184Y-121830051D01*
X110481588Y-121926557D01*
X110683757Y-121992246D01*
X110893713Y-122025500D01*
X110893714Y-122025500D01*
X111106286Y-122025500D01*
X111106287Y-122025500D01*
X111316243Y-121992246D01*
X111518412Y-121926557D01*
X111707816Y-121830051D01*
X111729789Y-121814086D01*
X111879786Y-121705109D01*
X111879788Y-121705106D01*
X111879792Y-121705104D01*
X112030104Y-121554792D01*
X112149683Y-121390204D01*
X112205011Y-121347540D01*
X112274624Y-121341561D01*
X112336420Y-121374166D01*
X112350313Y-121390199D01*
X112452560Y-121530931D01*
X112469896Y-121554792D01*
X112620213Y-121705109D01*
X112792179Y-121830048D01*
X112792181Y-121830049D01*
X112792184Y-121830051D01*
X112981588Y-121926557D01*
X113183757Y-121992246D01*
X113393713Y-122025500D01*
X113393714Y-122025500D01*
X113606286Y-122025500D01*
X113606287Y-122025500D01*
X113816243Y-121992246D01*
X114018412Y-121926557D01*
X114207816Y-121830051D01*
X114229789Y-121814086D01*
X114379786Y-121705109D01*
X114379788Y-121705106D01*
X114379792Y-121705104D01*
X114530104Y-121554792D01*
X114530106Y-121554788D01*
X114530109Y-121554786D01*
X114655048Y-121382820D01*
X114655047Y-121382820D01*
X114655051Y-121382816D01*
X114751557Y-121193412D01*
X114817246Y-120991243D01*
X114850500Y-120781287D01*
X114850500Y-120318713D01*
X114817246Y-120108757D01*
X114751557Y-119906588D01*
X114655051Y-119717184D01*
X114655049Y-119717181D01*
X114655048Y-119717179D01*
X114530109Y-119545213D01*
X114379786Y-119394890D01*
X114207820Y-119269951D01*
X114018414Y-119173444D01*
X114018413Y-119173443D01*
X114018412Y-119173443D01*
X113816243Y-119107754D01*
X113816241Y-119107753D01*
X113816240Y-119107753D01*
X113654957Y-119082208D01*
X113606287Y-119074500D01*
X113393713Y-119074500D01*
X113345042Y-119082208D01*
X113183760Y-119107753D01*
X112981585Y-119173444D01*
X112792179Y-119269951D01*
X112620213Y-119394890D01*
X112469894Y-119545209D01*
X112469890Y-119545214D01*
X112350318Y-119709793D01*
X112294989Y-119752459D01*
X112225375Y-119758438D01*
X112163580Y-119725833D01*
X112149682Y-119709793D01*
X112030109Y-119545214D01*
X112030105Y-119545209D01*
X111879786Y-119394890D01*
X111707820Y-119269951D01*
X111518414Y-119173444D01*
X111518413Y-119173443D01*
X111518412Y-119173443D01*
X111316243Y-119107754D01*
X111316241Y-119107753D01*
X111316240Y-119107753D01*
X111154957Y-119082208D01*
X111106287Y-119074500D01*
X110893713Y-119074500D01*
X110845042Y-119082208D01*
X110683760Y-119107753D01*
X110481585Y-119173444D01*
X110292179Y-119269951D01*
X110120213Y-119394890D01*
X109969894Y-119545209D01*
X109969890Y-119545214D01*
X109850318Y-119709793D01*
X109794989Y-119752459D01*
X109725375Y-119758438D01*
X109663580Y-119725833D01*
X109649682Y-119709793D01*
X109530109Y-119545214D01*
X109530105Y-119545209D01*
X109379786Y-119394890D01*
X109207820Y-119269951D01*
X109018414Y-119173444D01*
X109018413Y-119173443D01*
X109018412Y-119173443D01*
X108816243Y-119107754D01*
X108816241Y-119107753D01*
X108816240Y-119107753D01*
X108654957Y-119082208D01*
X108606287Y-119074500D01*
X108393713Y-119074500D01*
X108345042Y-119082208D01*
X108183760Y-119107753D01*
X107981585Y-119173444D01*
X107792179Y-119269951D01*
X107620213Y-119394890D01*
X107469894Y-119545209D01*
X107469890Y-119545214D01*
X107350318Y-119709793D01*
X107294989Y-119752459D01*
X107225375Y-119758438D01*
X107163580Y-119725833D01*
X107149682Y-119709793D01*
X107030109Y-119545214D01*
X107030105Y-119545209D01*
X106879786Y-119394890D01*
X106707820Y-119269951D01*
X106518414Y-119173444D01*
X106518413Y-119173443D01*
X106518412Y-119173443D01*
X106316243Y-119107754D01*
X106316241Y-119107753D01*
X106316240Y-119107753D01*
X106154957Y-119082208D01*
X106106287Y-119074500D01*
X105893713Y-119074500D01*
X105845042Y-119082208D01*
X105683760Y-119107753D01*
X105481585Y-119173444D01*
X105292179Y-119269951D01*
X105120213Y-119394890D01*
X104969894Y-119545209D01*
X104969890Y-119545214D01*
X104850318Y-119709793D01*
X104794989Y-119752459D01*
X104725375Y-119758438D01*
X104663580Y-119725833D01*
X104649682Y-119709793D01*
X104530109Y-119545214D01*
X104530105Y-119545209D01*
X104379786Y-119394890D01*
X104207820Y-119269951D01*
X104018414Y-119173444D01*
X104018413Y-119173443D01*
X104018412Y-119173443D01*
X103816243Y-119107754D01*
X103816241Y-119107753D01*
X103816240Y-119107753D01*
X103654957Y-119082208D01*
X103606287Y-119074500D01*
X103393713Y-119074500D01*
X103345042Y-119082208D01*
X103183760Y-119107753D01*
X102981585Y-119173444D01*
X102792179Y-119269951D01*
X102620213Y-119394890D01*
X102469894Y-119545209D01*
X102469890Y-119545214D01*
X102350318Y-119709793D01*
X102294989Y-119752459D01*
X102225375Y-119758438D01*
X102163580Y-119725833D01*
X102149682Y-119709793D01*
X102030109Y-119545214D01*
X102030105Y-119545209D01*
X101879786Y-119394890D01*
X101707820Y-119269951D01*
X101518414Y-119173444D01*
X101518413Y-119173443D01*
X101518412Y-119173443D01*
X101316243Y-119107754D01*
X101316241Y-119107753D01*
X101316240Y-119107753D01*
X101154957Y-119082208D01*
X101106287Y-119074500D01*
X100893713Y-119074500D01*
X100845042Y-119082208D01*
X100683760Y-119107753D01*
X100481585Y-119173444D01*
X100292179Y-119269951D01*
X100120213Y-119394890D01*
X99969894Y-119545209D01*
X99969890Y-119545214D01*
X99850318Y-119709793D01*
X99794989Y-119752459D01*
X99725375Y-119758438D01*
X99663580Y-119725833D01*
X99649682Y-119709793D01*
X99530109Y-119545214D01*
X99530105Y-119545209D01*
X99379786Y-119394890D01*
X99207820Y-119269951D01*
X99018414Y-119173444D01*
X99018413Y-119173443D01*
X99018412Y-119173443D01*
X98816243Y-119107754D01*
X98816241Y-119107753D01*
X98816240Y-119107753D01*
X98654957Y-119082208D01*
X98606287Y-119074500D01*
X98393713Y-119074500D01*
X98345042Y-119082208D01*
X98183760Y-119107753D01*
X97981585Y-119173444D01*
X97792179Y-119269951D01*
X97620215Y-119394889D01*
X97481398Y-119533706D01*
X97420075Y-119567190D01*
X97350383Y-119562206D01*
X97294450Y-119520334D01*
X97288178Y-119511120D01*
X97192712Y-119356344D01*
X97068657Y-119232289D01*
X97068656Y-119232288D01*
X96919334Y-119140186D01*
X96752797Y-119085001D01*
X96752795Y-119085000D01*
X96650010Y-119074500D01*
X95349998Y-119074500D01*
X95349981Y-119074501D01*
X95247203Y-119085000D01*
X95247200Y-119085001D01*
X95080668Y-119140185D01*
X95080663Y-119140187D01*
X94931342Y-119232289D01*
X94807289Y-119356342D01*
X94715187Y-119505663D01*
X94715185Y-119505668D01*
X94710325Y-119520334D01*
X94660001Y-119672203D01*
X94660001Y-119672204D01*
X94660000Y-119672204D01*
X94649500Y-119774983D01*
X85000500Y-119774983D01*
X85000500Y-113324983D01*
X94649500Y-113324983D01*
X94649500Y-114875001D01*
X94649501Y-114875018D01*
X94660000Y-114977796D01*
X94660001Y-114977799D01*
X94705894Y-115116294D01*
X94715186Y-115144334D01*
X94807288Y-115293656D01*
X94931344Y-115417712D01*
X95080666Y-115509814D01*
X95247203Y-115564999D01*
X95349991Y-115575500D01*
X96650008Y-115575499D01*
X96752797Y-115564999D01*
X96919334Y-115509814D01*
X97068656Y-115417712D01*
X97192712Y-115293656D01*
X97284814Y-115144334D01*
X97284814Y-115144331D01*
X97288178Y-115138879D01*
X97340126Y-115092154D01*
X97409088Y-115080931D01*
X97473170Y-115108774D01*
X97481398Y-115116294D01*
X97620213Y-115255109D01*
X97792179Y-115380048D01*
X97792181Y-115380049D01*
X97792184Y-115380051D01*
X97981588Y-115476557D01*
X98183757Y-115542246D01*
X98393713Y-115575500D01*
X98393714Y-115575500D01*
X98606286Y-115575500D01*
X98606287Y-115575500D01*
X98816243Y-115542246D01*
X99018412Y-115476557D01*
X99207816Y-115380051D01*
X99229789Y-115364086D01*
X99379786Y-115255109D01*
X99379788Y-115255106D01*
X99379792Y-115255104D01*
X99530104Y-115104792D01*
X99649683Y-114940204D01*
X99705011Y-114897540D01*
X99774624Y-114891561D01*
X99836420Y-114924166D01*
X99850313Y-114940199D01*
X99952560Y-115080931D01*
X99969896Y-115104792D01*
X100120213Y-115255109D01*
X100292179Y-115380048D01*
X100292181Y-115380049D01*
X100292184Y-115380051D01*
X100481588Y-115476557D01*
X100683757Y-115542246D01*
X100893713Y-115575500D01*
X100893714Y-115575500D01*
X101106286Y-115575500D01*
X101106287Y-115575500D01*
X101316243Y-115542246D01*
X101518412Y-115476557D01*
X101707816Y-115380051D01*
X101729789Y-115364086D01*
X101879786Y-115255109D01*
X101879788Y-115255106D01*
X101879792Y-115255104D01*
X102030104Y-115104792D01*
X102149683Y-114940204D01*
X102205011Y-114897540D01*
X102274624Y-114891561D01*
X102336420Y-114924166D01*
X102350313Y-114940199D01*
X102452560Y-115080931D01*
X102469896Y-115104792D01*
X102620213Y-115255109D01*
X102792179Y-115380048D01*
X102792181Y-115380049D01*
X102792184Y-115380051D01*
X102981588Y-115476557D01*
X103183757Y-115542246D01*
X103393713Y-115575500D01*
X103393714Y-115575500D01*
X103606286Y-115575500D01*
X103606287Y-115575500D01*
X103816243Y-115542246D01*
X104018412Y-115476557D01*
X104207816Y-115380051D01*
X104229789Y-115364086D01*
X104379786Y-115255109D01*
X104379788Y-115255106D01*
X104379792Y-115255104D01*
X104530104Y-115104792D01*
X104649683Y-114940204D01*
X104705011Y-114897540D01*
X104774624Y-114891561D01*
X104836420Y-114924166D01*
X104850313Y-114940199D01*
X104952560Y-115080931D01*
X104969896Y-115104792D01*
X105120213Y-115255109D01*
X105292179Y-115380048D01*
X105292181Y-115380049D01*
X105292184Y-115380051D01*
X105481588Y-115476557D01*
X105683757Y-115542246D01*
X105893713Y-115575500D01*
X105893714Y-115575500D01*
X106106286Y-115575500D01*
X106106287Y-115575500D01*
X106316243Y-115542246D01*
X106518412Y-115476557D01*
X106707816Y-115380051D01*
X106729789Y-115364086D01*
X106879786Y-115255109D01*
X106879788Y-115255106D01*
X106879792Y-115255104D01*
X107030104Y-115104792D01*
X107149683Y-114940204D01*
X107205011Y-114897540D01*
X107274624Y-114891561D01*
X107336420Y-114924166D01*
X107350313Y-114940199D01*
X107452560Y-115080931D01*
X107469896Y-115104792D01*
X107620213Y-115255109D01*
X107792179Y-115380048D01*
X107792181Y-115380049D01*
X107792184Y-115380051D01*
X107981588Y-115476557D01*
X108183757Y-115542246D01*
X108393713Y-115575500D01*
X108393714Y-115575500D01*
X108606286Y-115575500D01*
X108606287Y-115575500D01*
X108816243Y-115542246D01*
X109018412Y-115476557D01*
X109207816Y-115380051D01*
X109229789Y-115364086D01*
X109379786Y-115255109D01*
X109379788Y-115255106D01*
X109379792Y-115255104D01*
X109530104Y-115104792D01*
X109649683Y-114940204D01*
X109705011Y-114897540D01*
X109774624Y-114891561D01*
X109836420Y-114924166D01*
X109850313Y-114940199D01*
X109952560Y-115080931D01*
X109969896Y-115104792D01*
X110120213Y-115255109D01*
X110292179Y-115380048D01*
X110292181Y-115380049D01*
X110292184Y-115380051D01*
X110481588Y-115476557D01*
X110683757Y-115542246D01*
X110893713Y-115575500D01*
X110893714Y-115575500D01*
X111106286Y-115575500D01*
X111106287Y-115575500D01*
X111316243Y-115542246D01*
X111518412Y-115476557D01*
X111707816Y-115380051D01*
X111729789Y-115364086D01*
X111879786Y-115255109D01*
X111879788Y-115255106D01*
X111879792Y-115255104D01*
X112030104Y-115104792D01*
X112149683Y-114940204D01*
X112205011Y-114897540D01*
X112274624Y-114891561D01*
X112336420Y-114924166D01*
X112350313Y-114940199D01*
X112452560Y-115080931D01*
X112469896Y-115104792D01*
X112620213Y-115255109D01*
X112792179Y-115380048D01*
X112792181Y-115380049D01*
X112792184Y-115380051D01*
X112981588Y-115476557D01*
X113183757Y-115542246D01*
X113393713Y-115575500D01*
X113393714Y-115575500D01*
X113606286Y-115575500D01*
X113606287Y-115575500D01*
X113816243Y-115542246D01*
X114018412Y-115476557D01*
X114207816Y-115380051D01*
X114229789Y-115364086D01*
X114379786Y-115255109D01*
X114379788Y-115255106D01*
X114379792Y-115255104D01*
X114530104Y-115104792D01*
X114530106Y-115104788D01*
X114530109Y-115104786D01*
X114655048Y-114932820D01*
X114655047Y-114932820D01*
X114655051Y-114932816D01*
X114751557Y-114743412D01*
X114817246Y-114541243D01*
X114850500Y-114331287D01*
X114850500Y-113868713D01*
X114817246Y-113658757D01*
X114751557Y-113456588D01*
X114655051Y-113267184D01*
X114655049Y-113267181D01*
X114655048Y-113267179D01*
X114530109Y-113095213D01*
X114379786Y-112944890D01*
X114207820Y-112819951D01*
X114018414Y-112723444D01*
X114018413Y-112723443D01*
X114018412Y-112723443D01*
X113816243Y-112657754D01*
X113816241Y-112657753D01*
X113816240Y-112657753D01*
X113654957Y-112632208D01*
X113606287Y-112624500D01*
X113393713Y-112624500D01*
X113345042Y-112632208D01*
X113183760Y-112657753D01*
X112981585Y-112723444D01*
X112792179Y-112819951D01*
X112620213Y-112944890D01*
X112469894Y-113095209D01*
X112469890Y-113095214D01*
X112350318Y-113259793D01*
X112294989Y-113302459D01*
X112225375Y-113308438D01*
X112163580Y-113275833D01*
X112149682Y-113259793D01*
X112030109Y-113095214D01*
X112030105Y-113095209D01*
X111879786Y-112944890D01*
X111707820Y-112819951D01*
X111518414Y-112723444D01*
X111518413Y-112723443D01*
X111518412Y-112723443D01*
X111316243Y-112657754D01*
X111316241Y-112657753D01*
X111316240Y-112657753D01*
X111154957Y-112632208D01*
X111106287Y-112624500D01*
X110893713Y-112624500D01*
X110845042Y-112632208D01*
X110683760Y-112657753D01*
X110481585Y-112723444D01*
X110292179Y-112819951D01*
X110120213Y-112944890D01*
X109969894Y-113095209D01*
X109969890Y-113095214D01*
X109850318Y-113259793D01*
X109794989Y-113302459D01*
X109725375Y-113308438D01*
X109663580Y-113275833D01*
X109649682Y-113259793D01*
X109530109Y-113095214D01*
X109530105Y-113095209D01*
X109379786Y-112944890D01*
X109207820Y-112819951D01*
X109018414Y-112723444D01*
X109018413Y-112723443D01*
X109018412Y-112723443D01*
X108816243Y-112657754D01*
X108816241Y-112657753D01*
X108816240Y-112657753D01*
X108654957Y-112632208D01*
X108606287Y-112624500D01*
X108393713Y-112624500D01*
X108345042Y-112632208D01*
X108183760Y-112657753D01*
X107981585Y-112723444D01*
X107792179Y-112819951D01*
X107620213Y-112944890D01*
X107469894Y-113095209D01*
X107469890Y-113095214D01*
X107350318Y-113259793D01*
X107294989Y-113302459D01*
X107225375Y-113308438D01*
X107163580Y-113275833D01*
X107149682Y-113259793D01*
X107030109Y-113095214D01*
X107030105Y-113095209D01*
X106879786Y-112944890D01*
X106707820Y-112819951D01*
X106518414Y-112723444D01*
X106518413Y-112723443D01*
X106518412Y-112723443D01*
X106316243Y-112657754D01*
X106316241Y-112657753D01*
X106316240Y-112657753D01*
X106154957Y-112632208D01*
X106106287Y-112624500D01*
X105893713Y-112624500D01*
X105845042Y-112632208D01*
X105683760Y-112657753D01*
X105481585Y-112723444D01*
X105292179Y-112819951D01*
X105120213Y-112944890D01*
X104969894Y-113095209D01*
X104969890Y-113095214D01*
X104850318Y-113259793D01*
X104794989Y-113302459D01*
X104725375Y-113308438D01*
X104663580Y-113275833D01*
X104649682Y-113259793D01*
X104530109Y-113095214D01*
X104530105Y-113095209D01*
X104379786Y-112944890D01*
X104207820Y-112819951D01*
X104018414Y-112723444D01*
X104018413Y-112723443D01*
X104018412Y-112723443D01*
X103816243Y-112657754D01*
X103816241Y-112657753D01*
X103816240Y-112657753D01*
X103654957Y-112632208D01*
X103606287Y-112624500D01*
X103393713Y-112624500D01*
X103345042Y-112632208D01*
X103183760Y-112657753D01*
X102981585Y-112723444D01*
X102792179Y-112819951D01*
X102620213Y-112944890D01*
X102469894Y-113095209D01*
X102469890Y-113095214D01*
X102350318Y-113259793D01*
X102294989Y-113302459D01*
X102225375Y-113308438D01*
X102163580Y-113275833D01*
X102149682Y-113259793D01*
X102030109Y-113095214D01*
X102030105Y-113095209D01*
X101879786Y-112944890D01*
X101707820Y-112819951D01*
X101518414Y-112723444D01*
X101518413Y-112723443D01*
X101518412Y-112723443D01*
X101316243Y-112657754D01*
X101316241Y-112657753D01*
X101316240Y-112657753D01*
X101154957Y-112632208D01*
X101106287Y-112624500D01*
X100893713Y-112624500D01*
X100845042Y-112632208D01*
X100683760Y-112657753D01*
X100481585Y-112723444D01*
X100292179Y-112819951D01*
X100120213Y-112944890D01*
X99969894Y-113095209D01*
X99969890Y-113095214D01*
X99850318Y-113259793D01*
X99794989Y-113302459D01*
X99725375Y-113308438D01*
X99663580Y-113275833D01*
X99649682Y-113259793D01*
X99530109Y-113095214D01*
X99530105Y-113095209D01*
X99379786Y-112944890D01*
X99207820Y-112819951D01*
X99018414Y-112723444D01*
X99018413Y-112723443D01*
X99018412Y-112723443D01*
X98816243Y-112657754D01*
X98816241Y-112657753D01*
X98816240Y-112657753D01*
X98654957Y-112632208D01*
X98606287Y-112624500D01*
X98393713Y-112624500D01*
X98345042Y-112632208D01*
X98183760Y-112657753D01*
X97981585Y-112723444D01*
X97792179Y-112819951D01*
X97620215Y-112944889D01*
X97481398Y-113083706D01*
X97420075Y-113117190D01*
X97350383Y-113112206D01*
X97294450Y-113070334D01*
X97288178Y-113061120D01*
X97192712Y-112906344D01*
X97068657Y-112782289D01*
X97068656Y-112782288D01*
X96919334Y-112690186D01*
X96752797Y-112635001D01*
X96752795Y-112635000D01*
X96650010Y-112624500D01*
X95349998Y-112624500D01*
X95349981Y-112624501D01*
X95247203Y-112635000D01*
X95247200Y-112635001D01*
X95080668Y-112690185D01*
X95080663Y-112690187D01*
X94931342Y-112782289D01*
X94807289Y-112906342D01*
X94715187Y-113055663D01*
X94715185Y-113055668D01*
X94710325Y-113070334D01*
X94660001Y-113222203D01*
X94660001Y-113222204D01*
X94660000Y-113222204D01*
X94649500Y-113324983D01*
X85000500Y-113324983D01*
X85000500Y-106875013D01*
X94650000Y-106875013D01*
X94650000Y-107400000D01*
X95595854Y-107400000D01*
X95557370Y-107466657D01*
X95525000Y-107587465D01*
X95525000Y-107712535D01*
X95557370Y-107833343D01*
X95595854Y-107900000D01*
X94650001Y-107900000D01*
X94650001Y-108424986D01*
X94660494Y-108527697D01*
X94715641Y-108694119D01*
X94715643Y-108694124D01*
X94807684Y-108843345D01*
X94931654Y-108967315D01*
X95080875Y-109059356D01*
X95080880Y-109059358D01*
X95247302Y-109114505D01*
X95247309Y-109114506D01*
X95350019Y-109124999D01*
X95749999Y-109124999D01*
X95750000Y-109124998D01*
X95750000Y-108054145D01*
X95816657Y-108092630D01*
X95937465Y-108125000D01*
X96062535Y-108125000D01*
X96183343Y-108092630D01*
X96250000Y-108054145D01*
X96250000Y-109124999D01*
X96649972Y-109124999D01*
X96649986Y-109124998D01*
X96752697Y-109114505D01*
X96919119Y-109059358D01*
X96919124Y-109059356D01*
X97068345Y-108967315D01*
X97192317Y-108843343D01*
X97288085Y-108688078D01*
X97340033Y-108641353D01*
X97408995Y-108630130D01*
X97473077Y-108657973D01*
X97481305Y-108665493D01*
X97620535Y-108804723D01*
X97620540Y-108804727D01*
X97792442Y-108929620D01*
X97981782Y-109026095D01*
X98183871Y-109091757D01*
X98250000Y-109102231D01*
X98250000Y-108054145D01*
X98316657Y-108092630D01*
X98437465Y-108125000D01*
X98562535Y-108125000D01*
X98683343Y-108092630D01*
X98750000Y-108054145D01*
X98750000Y-109102230D01*
X98816126Y-109091757D01*
X98816129Y-109091757D01*
X99018217Y-109026095D01*
X99207557Y-108929620D01*
X99379459Y-108804727D01*
X99379464Y-108804723D01*
X99529727Y-108654460D01*
X99649682Y-108489355D01*
X99705011Y-108446689D01*
X99774625Y-108440710D01*
X99836420Y-108473315D01*
X99850318Y-108489355D01*
X99970272Y-108654460D01*
X100120535Y-108804723D01*
X100120540Y-108804727D01*
X100292442Y-108929620D01*
X100481782Y-109026095D01*
X100683871Y-109091757D01*
X100750000Y-109102231D01*
X100750000Y-108054145D01*
X100816657Y-108092630D01*
X100937465Y-108125000D01*
X101062535Y-108125000D01*
X101183343Y-108092630D01*
X101250000Y-108054145D01*
X101250000Y-109102230D01*
X101316126Y-109091757D01*
X101316129Y-109091757D01*
X101518217Y-109026095D01*
X101707557Y-108929620D01*
X101879459Y-108804727D01*
X101879464Y-108804723D01*
X102029727Y-108654460D01*
X102149682Y-108489355D01*
X102205011Y-108446689D01*
X102274625Y-108440710D01*
X102336420Y-108473315D01*
X102350318Y-108489355D01*
X102470272Y-108654460D01*
X102620535Y-108804723D01*
X102620540Y-108804727D01*
X102792442Y-108929620D01*
X102981782Y-109026095D01*
X103183871Y-109091757D01*
X103250000Y-109102231D01*
X103250000Y-108054145D01*
X103316657Y-108092630D01*
X103437465Y-108125000D01*
X103562535Y-108125000D01*
X103683343Y-108092630D01*
X103750000Y-108054145D01*
X103750000Y-109102230D01*
X103816126Y-109091757D01*
X103816129Y-109091757D01*
X104018217Y-109026095D01*
X104207557Y-108929620D01*
X104379459Y-108804727D01*
X104379464Y-108804723D01*
X104529727Y-108654460D01*
X104649682Y-108489355D01*
X104705011Y-108446689D01*
X104774625Y-108440710D01*
X104836420Y-108473315D01*
X104850318Y-108489355D01*
X104970272Y-108654460D01*
X105120535Y-108804723D01*
X105120540Y-108804727D01*
X105292442Y-108929620D01*
X105481782Y-109026095D01*
X105683871Y-109091757D01*
X105750000Y-109102231D01*
X105750000Y-108054145D01*
X105816657Y-108092630D01*
X105937465Y-108125000D01*
X106062535Y-108125000D01*
X106183343Y-108092630D01*
X106250000Y-108054145D01*
X106250000Y-109102230D01*
X106316126Y-109091757D01*
X106316129Y-109091757D01*
X106518217Y-109026095D01*
X106707557Y-108929620D01*
X106879459Y-108804727D01*
X106879464Y-108804723D01*
X107029727Y-108654460D01*
X107149682Y-108489355D01*
X107205011Y-108446689D01*
X107274625Y-108440710D01*
X107336420Y-108473315D01*
X107350318Y-108489355D01*
X107470272Y-108654460D01*
X107620535Y-108804723D01*
X107620540Y-108804727D01*
X107792442Y-108929620D01*
X107981782Y-109026095D01*
X108183871Y-109091757D01*
X108250000Y-109102231D01*
X108250000Y-108054145D01*
X108316657Y-108092630D01*
X108437465Y-108125000D01*
X108562535Y-108125000D01*
X108683343Y-108092630D01*
X108750000Y-108054145D01*
X108750000Y-109102231D01*
X108816126Y-109091757D01*
X108816129Y-109091757D01*
X109018217Y-109026095D01*
X109207557Y-108929620D01*
X109379459Y-108804727D01*
X109379464Y-108804723D01*
X109529727Y-108654460D01*
X109649682Y-108489355D01*
X109705011Y-108446689D01*
X109774625Y-108440710D01*
X109836420Y-108473315D01*
X109850318Y-108489355D01*
X109970272Y-108654460D01*
X110120535Y-108804723D01*
X110120540Y-108804727D01*
X110292442Y-108929620D01*
X110481782Y-109026095D01*
X110683871Y-109091757D01*
X110750000Y-109102231D01*
X110750000Y-108054145D01*
X110816657Y-108092630D01*
X110937465Y-108125000D01*
X111062535Y-108125000D01*
X111183343Y-108092630D01*
X111250000Y-108054145D01*
X111250000Y-109102231D01*
X111316126Y-109091757D01*
X111316129Y-109091757D01*
X111518217Y-109026095D01*
X111707557Y-108929620D01*
X111879459Y-108804727D01*
X111879464Y-108804723D01*
X112029727Y-108654460D01*
X112149682Y-108489355D01*
X112205011Y-108446689D01*
X112274625Y-108440710D01*
X112336420Y-108473315D01*
X112350318Y-108489355D01*
X112470272Y-108654460D01*
X112620535Y-108804723D01*
X112620540Y-108804727D01*
X112792442Y-108929620D01*
X112981782Y-109026095D01*
X113183871Y-109091757D01*
X113250000Y-109102231D01*
X113250000Y-108054145D01*
X113316657Y-108092630D01*
X113437465Y-108125000D01*
X113562535Y-108125000D01*
X113683343Y-108092630D01*
X113750000Y-108054145D01*
X113750000Y-109102230D01*
X113816126Y-109091757D01*
X113816129Y-109091757D01*
X114018217Y-109026095D01*
X114207557Y-108929620D01*
X114379459Y-108804727D01*
X114379464Y-108804723D01*
X114529723Y-108654464D01*
X114529727Y-108654459D01*
X114654620Y-108482557D01*
X114751095Y-108293217D01*
X114816757Y-108091130D01*
X114816757Y-108091127D01*
X114847030Y-107900000D01*
X113904146Y-107900000D01*
X113942630Y-107833343D01*
X113975000Y-107712535D01*
X113975000Y-107587465D01*
X113942630Y-107466657D01*
X113904146Y-107400000D01*
X114847030Y-107400000D01*
X114816757Y-107208872D01*
X114816757Y-107208869D01*
X114751095Y-107006782D01*
X114654620Y-106817442D01*
X114529727Y-106645540D01*
X114529723Y-106645535D01*
X114379464Y-106495276D01*
X114379459Y-106495272D01*
X114207557Y-106370379D01*
X114018215Y-106273903D01*
X113816124Y-106208241D01*
X113750000Y-106197768D01*
X113750000Y-107245854D01*
X113683343Y-107207370D01*
X113562535Y-107175000D01*
X113437465Y-107175000D01*
X113316657Y-107207370D01*
X113250000Y-107245854D01*
X113250000Y-106197768D01*
X113249999Y-106197768D01*
X113183875Y-106208241D01*
X112981784Y-106273903D01*
X112792442Y-106370379D01*
X112620540Y-106495272D01*
X112620535Y-106495276D01*
X112470276Y-106645535D01*
X112470272Y-106645540D01*
X112350318Y-106810644D01*
X112294988Y-106853310D01*
X112225375Y-106859289D01*
X112163580Y-106826684D01*
X112149682Y-106810644D01*
X112029727Y-106645540D01*
X112029723Y-106645535D01*
X111879464Y-106495276D01*
X111879459Y-106495272D01*
X111707557Y-106370379D01*
X111518215Y-106273903D01*
X111316124Y-106208241D01*
X111250000Y-106197768D01*
X111250000Y-107245854D01*
X111183343Y-107207370D01*
X111062535Y-107175000D01*
X110937465Y-107175000D01*
X110816657Y-107207370D01*
X110750000Y-107245854D01*
X110750000Y-106197768D01*
X110749999Y-106197768D01*
X110683875Y-106208241D01*
X110481784Y-106273903D01*
X110292442Y-106370379D01*
X110120540Y-106495272D01*
X110120535Y-106495276D01*
X109970276Y-106645535D01*
X109970272Y-106645540D01*
X109850318Y-106810644D01*
X109794988Y-106853310D01*
X109725375Y-106859289D01*
X109663580Y-106826684D01*
X109649682Y-106810644D01*
X109529727Y-106645540D01*
X109529723Y-106645535D01*
X109379464Y-106495276D01*
X109379459Y-106495272D01*
X109207557Y-106370379D01*
X109018215Y-106273903D01*
X108816124Y-106208241D01*
X108750000Y-106197768D01*
X108750000Y-107245854D01*
X108683343Y-107207370D01*
X108562535Y-107175000D01*
X108437465Y-107175000D01*
X108316657Y-107207370D01*
X108250000Y-107245854D01*
X108250000Y-106197768D01*
X108249999Y-106197768D01*
X108183875Y-106208241D01*
X107981784Y-106273903D01*
X107792442Y-106370379D01*
X107620540Y-106495272D01*
X107620535Y-106495276D01*
X107470276Y-106645535D01*
X107470272Y-106645540D01*
X107350318Y-106810644D01*
X107294988Y-106853310D01*
X107225375Y-106859289D01*
X107163580Y-106826684D01*
X107149682Y-106810644D01*
X107029727Y-106645540D01*
X107029723Y-106645535D01*
X106879464Y-106495276D01*
X106879459Y-106495272D01*
X106707557Y-106370379D01*
X106518215Y-106273903D01*
X106316124Y-106208241D01*
X106250000Y-106197768D01*
X106250000Y-107245854D01*
X106183343Y-107207370D01*
X106062535Y-107175000D01*
X105937465Y-107175000D01*
X105816657Y-107207370D01*
X105750000Y-107245854D01*
X105750000Y-106197768D01*
X105749999Y-106197768D01*
X105683875Y-106208241D01*
X105481784Y-106273903D01*
X105292442Y-106370379D01*
X105120540Y-106495272D01*
X105120535Y-106495276D01*
X104970276Y-106645535D01*
X104970272Y-106645540D01*
X104850318Y-106810644D01*
X104794988Y-106853310D01*
X104725375Y-106859289D01*
X104663580Y-106826684D01*
X104649682Y-106810644D01*
X104529727Y-106645540D01*
X104529723Y-106645535D01*
X104379464Y-106495276D01*
X104379459Y-106495272D01*
X104207557Y-106370379D01*
X104018215Y-106273903D01*
X103816124Y-106208241D01*
X103750000Y-106197768D01*
X103750000Y-107245854D01*
X103683343Y-107207370D01*
X103562535Y-107175000D01*
X103437465Y-107175000D01*
X103316657Y-107207370D01*
X103250000Y-107245854D01*
X103250000Y-106197768D01*
X103249999Y-106197768D01*
X103183875Y-106208241D01*
X102981784Y-106273903D01*
X102792442Y-106370379D01*
X102620540Y-106495272D01*
X102620535Y-106495276D01*
X102470276Y-106645535D01*
X102470272Y-106645540D01*
X102350318Y-106810644D01*
X102294988Y-106853310D01*
X102225375Y-106859289D01*
X102163580Y-106826684D01*
X102149682Y-106810644D01*
X102029727Y-106645540D01*
X102029723Y-106645535D01*
X101879464Y-106495276D01*
X101879459Y-106495272D01*
X101707557Y-106370379D01*
X101518215Y-106273903D01*
X101316124Y-106208241D01*
X101250000Y-106197768D01*
X101250000Y-107245854D01*
X101183343Y-107207370D01*
X101062535Y-107175000D01*
X100937465Y-107175000D01*
X100816657Y-107207370D01*
X100750000Y-107245854D01*
X100750000Y-106197768D01*
X100749999Y-106197768D01*
X100683875Y-106208241D01*
X100481784Y-106273903D01*
X100292442Y-106370379D01*
X100120540Y-106495272D01*
X100120535Y-106495276D01*
X99970276Y-106645535D01*
X99970272Y-106645540D01*
X99850318Y-106810644D01*
X99794988Y-106853310D01*
X99725375Y-106859289D01*
X99663580Y-106826684D01*
X99649682Y-106810644D01*
X99529727Y-106645540D01*
X99529723Y-106645535D01*
X99379464Y-106495276D01*
X99379459Y-106495272D01*
X99207557Y-106370379D01*
X99018215Y-106273903D01*
X98816124Y-106208241D01*
X98750000Y-106197768D01*
X98750000Y-107245854D01*
X98683343Y-107207370D01*
X98562535Y-107175000D01*
X98437465Y-107175000D01*
X98316657Y-107207370D01*
X98250000Y-107245854D01*
X98250000Y-106197768D01*
X98249999Y-106197768D01*
X98183875Y-106208241D01*
X97981784Y-106273903D01*
X97792442Y-106370379D01*
X97620541Y-106495271D01*
X97481305Y-106634507D01*
X97419982Y-106667991D01*
X97350290Y-106663007D01*
X97294357Y-106621135D01*
X97288085Y-106611922D01*
X97192315Y-106456654D01*
X97068345Y-106332684D01*
X96919124Y-106240643D01*
X96919119Y-106240641D01*
X96752697Y-106185494D01*
X96752690Y-106185493D01*
X96649986Y-106175000D01*
X96250000Y-106175000D01*
X96250000Y-107245854D01*
X96183343Y-107207370D01*
X96062535Y-107175000D01*
X95937465Y-107175000D01*
X95816657Y-107207370D01*
X95750000Y-107245854D01*
X95750000Y-106175000D01*
X95350028Y-106175000D01*
X95350012Y-106175001D01*
X95247302Y-106185494D01*
X95080880Y-106240641D01*
X95080875Y-106240643D01*
X94931654Y-106332684D01*
X94807684Y-106456654D01*
X94715643Y-106605875D01*
X94715641Y-106605880D01*
X94660494Y-106772302D01*
X94660493Y-106772309D01*
X94650000Y-106875013D01*
X85000500Y-106875013D01*
X85000500Y-62618872D01*
X94499500Y-62618872D01*
X94499500Y-62881127D01*
X94526123Y-63083339D01*
X94533730Y-63141116D01*
X94601602Y-63394418D01*
X94601605Y-63394428D01*
X94701953Y-63636690D01*
X94701958Y-63636700D01*
X94833075Y-63863803D01*
X94992718Y-64071851D01*
X94992726Y-64071860D01*
X95178140Y-64257274D01*
X95178148Y-64257281D01*
X95386196Y-64416924D01*
X95613299Y-64548041D01*
X95613309Y-64548046D01*
X95855571Y-64648394D01*
X95855581Y-64648398D01*
X96108884Y-64716270D01*
X96368880Y-64750500D01*
X96368887Y-64750500D01*
X96631113Y-64750500D01*
X96631120Y-64750500D01*
X96891116Y-64716270D01*
X97144419Y-64648398D01*
X97386697Y-64548043D01*
X97613803Y-64416924D01*
X97821851Y-64257282D01*
X97821855Y-64257277D01*
X97821860Y-64257274D01*
X98007274Y-64071860D01*
X98007277Y-64071855D01*
X98007282Y-64071851D01*
X98166924Y-63863803D01*
X98298043Y-63636697D01*
X98398398Y-63394419D01*
X98466270Y-63141116D01*
X98500500Y-62881120D01*
X98500500Y-62618880D01*
X98466270Y-62358884D01*
X98398398Y-62105581D01*
X98398394Y-62105571D01*
X98298046Y-61863309D01*
X98298041Y-61863299D01*
X98166924Y-61636196D01*
X98007281Y-61428148D01*
X98007274Y-61428140D01*
X97821860Y-61242726D01*
X97821851Y-61242718D01*
X97613803Y-61083075D01*
X97386700Y-60951958D01*
X97386690Y-60951953D01*
X97144428Y-60851605D01*
X97144421Y-60851603D01*
X97144419Y-60851602D01*
X96891116Y-60783730D01*
X96833339Y-60776123D01*
X96631127Y-60749500D01*
X96631120Y-60749500D01*
X96368880Y-60749500D01*
X96368872Y-60749500D01*
X96137772Y-60779926D01*
X96108884Y-60783730D01*
X95855581Y-60851602D01*
X95855571Y-60851605D01*
X95613309Y-60951953D01*
X95613299Y-60951958D01*
X95386196Y-61083075D01*
X95178148Y-61242718D01*
X94992718Y-61428148D01*
X94833075Y-61636196D01*
X94701958Y-61863299D01*
X94701953Y-61863309D01*
X94601605Y-62105571D01*
X94601602Y-62105581D01*
X94533730Y-62358885D01*
X94499500Y-62618872D01*
X85000500Y-62618872D01*
X85000500Y-52878711D01*
X86149500Y-52878711D01*
X86149500Y-53121288D01*
X86181161Y-53361785D01*
X86243947Y-53596104D01*
X86260673Y-53636483D01*
X86336776Y-53820212D01*
X86458064Y-54030289D01*
X86458066Y-54030292D01*
X86458067Y-54030293D01*
X86605733Y-54222736D01*
X86605739Y-54222743D01*
X86777256Y-54394260D01*
X86777263Y-54394266D01*
X86780104Y-54396446D01*
X86969711Y-54541936D01*
X87179788Y-54663224D01*
X87403900Y-54756054D01*
X87638211Y-54818838D01*
X87818586Y-54842584D01*
X87878711Y-54850500D01*
X87878712Y-54850500D01*
X88121289Y-54850500D01*
X88169388Y-54844167D01*
X88361789Y-54818838D01*
X88596100Y-54756054D01*
X88820212Y-54663224D01*
X88896975Y-54618905D01*
X94500000Y-54618905D01*
X94500000Y-54881094D01*
X94534220Y-55141009D01*
X94534222Y-55141020D01*
X94602075Y-55394255D01*
X94702404Y-55636471D01*
X94702409Y-55636482D01*
X94833488Y-55863516D01*
X94833494Y-55863524D01*
X94920080Y-55976365D01*
X95822421Y-55074024D01*
X95835359Y-55105258D01*
X95917437Y-55228097D01*
X96021903Y-55332563D01*
X96144742Y-55414641D01*
X96175974Y-55427577D01*
X95273633Y-56329917D01*
X95273633Y-56329918D01*
X95386475Y-56416505D01*
X95386483Y-56416511D01*
X95613517Y-56547590D01*
X95613528Y-56547595D01*
X95855744Y-56647924D01*
X96108979Y-56715777D01*
X96108990Y-56715779D01*
X96368905Y-56749999D01*
X96368920Y-56750000D01*
X96631080Y-56750000D01*
X96631094Y-56749999D01*
X96891009Y-56715779D01*
X96891020Y-56715777D01*
X97144255Y-56647924D01*
X97386471Y-56547595D01*
X97386482Y-56547590D01*
X97613516Y-56416511D01*
X97613534Y-56416499D01*
X97726365Y-56329919D01*
X97726365Y-56329917D01*
X96824025Y-55427578D01*
X96855258Y-55414641D01*
X96978097Y-55332563D01*
X97082563Y-55228097D01*
X97164641Y-55105258D01*
X97177577Y-55074025D01*
X98079917Y-55976365D01*
X98079919Y-55976365D01*
X98166499Y-55863534D01*
X98166511Y-55863516D01*
X98297590Y-55636482D01*
X98297595Y-55636471D01*
X98397924Y-55394255D01*
X98465777Y-55141020D01*
X98465779Y-55141009D01*
X98499999Y-54881094D01*
X98500000Y-54881080D01*
X98500000Y-54618919D01*
X98499999Y-54618905D01*
X98465779Y-54358990D01*
X98465777Y-54358979D01*
X98397924Y-54105744D01*
X98297595Y-53863528D01*
X98297590Y-53863517D01*
X98166511Y-53636483D01*
X98166505Y-53636475D01*
X98079918Y-53523633D01*
X98079917Y-53523633D01*
X97177577Y-54425973D01*
X97164641Y-54394742D01*
X97082563Y-54271903D01*
X96978097Y-54167437D01*
X96855258Y-54085359D01*
X96824023Y-54072421D01*
X97726365Y-53170080D01*
X97613524Y-53083494D01*
X97613516Y-53083488D01*
X97386482Y-52952409D01*
X97386471Y-52952404D01*
X97144255Y-52852075D01*
X96891020Y-52784222D01*
X96891009Y-52784220D01*
X96631094Y-52750000D01*
X96368905Y-52750000D01*
X96108990Y-52784220D01*
X96108979Y-52784222D01*
X95855744Y-52852075D01*
X95613528Y-52952404D01*
X95613517Y-52952409D01*
X95386471Y-53083496D01*
X95273633Y-53170079D01*
X95273633Y-53170080D01*
X96175974Y-54072421D01*
X96144742Y-54085359D01*
X96021903Y-54167437D01*
X95917437Y-54271903D01*
X95835359Y-54394742D01*
X95822421Y-54425974D01*
X94920080Y-53523633D01*
X94920079Y-53523633D01*
X94833496Y-53636471D01*
X94702409Y-53863517D01*
X94702404Y-53863528D01*
X94602075Y-54105744D01*
X94534222Y-54358979D01*
X94534220Y-54358990D01*
X94500000Y-54618905D01*
X88896975Y-54618905D01*
X89030289Y-54541936D01*
X89222738Y-54394265D01*
X89394265Y-54222738D01*
X89541936Y-54030289D01*
X89663224Y-53820212D01*
X89756054Y-53596100D01*
X89818838Y-53361789D01*
X89850500Y-53121288D01*
X89850500Y-52878712D01*
X89818838Y-52638211D01*
X89756054Y-52403900D01*
X89663224Y-52179788D01*
X89541936Y-51969711D01*
X89394265Y-51777262D01*
X89394260Y-51777256D01*
X89222743Y-51605739D01*
X89222736Y-51605733D01*
X89030293Y-51458067D01*
X89030292Y-51458066D01*
X89030289Y-51458064D01*
X88820212Y-51336776D01*
X88820205Y-51336773D01*
X88596104Y-51243947D01*
X88361785Y-51181161D01*
X88121289Y-51149500D01*
X88121288Y-51149500D01*
X87878712Y-51149500D01*
X87878711Y-51149500D01*
X87638214Y-51181161D01*
X87403895Y-51243947D01*
X87179794Y-51336773D01*
X87179785Y-51336777D01*
X86969706Y-51458067D01*
X86777263Y-51605733D01*
X86777256Y-51605739D01*
X86605739Y-51777256D01*
X86605733Y-51777263D01*
X86458067Y-51969706D01*
X86336777Y-52179785D01*
X86336773Y-52179794D01*
X86243947Y-52403895D01*
X86181161Y-52638214D01*
X86149500Y-52878711D01*
X85000500Y-52878711D01*
X85000500Y-50124500D01*
X85020185Y-50057461D01*
X85072989Y-50011706D01*
X85124500Y-50000500D01*
X99876000Y-50000500D01*
X99943039Y-50020185D01*
G37*
%TD.AperFunction*%
%TD*%
%TA.AperFunction,Conductor*%
%TO.N,GND*%
G36*
X123700227Y-113966657D02*
G01*
X123667857Y-114087465D01*
X123667857Y-114212535D01*
X123700227Y-114333343D01*
X123738711Y-114400000D01*
X122047003Y-114400000D01*
X122085487Y-114333343D01*
X122117857Y-114212535D01*
X122117857Y-114087465D01*
X122085487Y-113966657D01*
X122047003Y-113900000D01*
X123738711Y-113900000D01*
X123700227Y-113966657D01*
G37*
%TD.AperFunction*%
%TA.AperFunction,Conductor*%
G36*
X126200227Y-113966657D02*
G01*
X126167857Y-114087465D01*
X126167857Y-114212535D01*
X126200227Y-114333343D01*
X126238711Y-114400000D01*
X124547003Y-114400000D01*
X124585487Y-114333343D01*
X124617857Y-114212535D01*
X124617857Y-114087465D01*
X124585487Y-113966657D01*
X124547003Y-113900000D01*
X126238711Y-113900000D01*
X126200227Y-113966657D01*
G37*
%TD.AperFunction*%
%TA.AperFunction,Conductor*%
G36*
X128700227Y-113966657D02*
G01*
X128667857Y-114087465D01*
X128667857Y-114212535D01*
X128700227Y-114333343D01*
X128738711Y-114400000D01*
X127047003Y-114400000D01*
X127085487Y-114333343D01*
X127117857Y-114212535D01*
X127117857Y-114087465D01*
X127085487Y-113966657D01*
X127047003Y-113900000D01*
X128738711Y-113900000D01*
X128700227Y-113966657D01*
G37*
%TD.AperFunction*%
%TA.AperFunction,Conductor*%
G36*
X131200227Y-113966657D02*
G01*
X131167857Y-114087465D01*
X131167857Y-114212535D01*
X131200227Y-114333343D01*
X131238711Y-114400000D01*
X129547003Y-114400000D01*
X129585487Y-114333343D01*
X129617857Y-114212535D01*
X129617857Y-114087465D01*
X129585487Y-113966657D01*
X129547003Y-113900000D01*
X131238711Y-113900000D01*
X131200227Y-113966657D01*
G37*
%TD.AperFunction*%
%TA.AperFunction,Conductor*%
G36*
X133700227Y-113966657D02*
G01*
X133667857Y-114087465D01*
X133667857Y-114212535D01*
X133700227Y-114333343D01*
X133738711Y-114400000D01*
X132047003Y-114400000D01*
X132085487Y-114333343D01*
X132117857Y-114212535D01*
X132117857Y-114087465D01*
X132085487Y-113966657D01*
X132047003Y-113900000D01*
X133738711Y-113900000D01*
X133700227Y-113966657D01*
G37*
%TD.AperFunction*%
%TA.AperFunction,Conductor*%
G36*
X136200227Y-113966657D02*
G01*
X136167857Y-114087465D01*
X136167857Y-114212535D01*
X136200227Y-114333343D01*
X136238711Y-114400000D01*
X134547003Y-114400000D01*
X134585487Y-114333343D01*
X134617857Y-114212535D01*
X134617857Y-114087465D01*
X134585487Y-113966657D01*
X134547003Y-113900000D01*
X136238711Y-113900000D01*
X136200227Y-113966657D01*
G37*
%TD.AperFunction*%
%TA.AperFunction,Conductor*%
G36*
X138700227Y-113966657D02*
G01*
X138667857Y-114087465D01*
X138667857Y-114212535D01*
X138700227Y-114333343D01*
X138738711Y-114400000D01*
X137047003Y-114400000D01*
X137085487Y-114333343D01*
X137117857Y-114212535D01*
X137117857Y-114087465D01*
X137085487Y-113966657D01*
X137047003Y-113900000D01*
X138738711Y-113900000D01*
X138700227Y-113966657D01*
G37*
%TD.AperFunction*%
%TA.AperFunction,Conductor*%
G36*
X123943039Y-79019685D02*
G01*
X123988794Y-79072489D01*
X124000000Y-79124000D01*
X124000000Y-101000000D01*
X149875500Y-101000000D01*
X149942539Y-101019685D01*
X149988294Y-101072489D01*
X149999500Y-101124000D01*
X149999500Y-129875500D01*
X149979815Y-129942539D01*
X149927011Y-129988294D01*
X149875500Y-129999500D01*
X119124000Y-129999500D01*
X119056961Y-129979815D01*
X119011206Y-129927011D01*
X119000000Y-129875500D01*
X119000000Y-126878711D01*
X145149500Y-126878711D01*
X145149500Y-127121288D01*
X145181161Y-127361785D01*
X145243947Y-127596104D01*
X145318052Y-127775008D01*
X145336776Y-127820212D01*
X145458064Y-128030289D01*
X145458066Y-128030292D01*
X145458067Y-128030293D01*
X145605733Y-128222736D01*
X145605739Y-128222743D01*
X145777256Y-128394260D01*
X145777263Y-128394266D01*
X145883128Y-128475499D01*
X145969711Y-128541936D01*
X146179788Y-128663224D01*
X146403900Y-128756054D01*
X146638211Y-128818838D01*
X146818586Y-128842584D01*
X146878711Y-128850500D01*
X146878712Y-128850500D01*
X147121289Y-128850500D01*
X147169388Y-128844167D01*
X147361789Y-128818838D01*
X147596100Y-128756054D01*
X147820212Y-128663224D01*
X148030289Y-128541936D01*
X148222738Y-128394265D01*
X148394265Y-128222738D01*
X148541936Y-128030289D01*
X148663224Y-127820212D01*
X148756054Y-127596100D01*
X148818838Y-127361789D01*
X148850500Y-127121288D01*
X148850500Y-126878712D01*
X148818838Y-126638211D01*
X148756054Y-126403900D01*
X148663224Y-126179788D01*
X148541936Y-125969711D01*
X148446162Y-125844896D01*
X148394266Y-125777263D01*
X148394260Y-125777256D01*
X148222743Y-125605739D01*
X148222736Y-125605733D01*
X148030293Y-125458067D01*
X148030292Y-125458066D01*
X148030289Y-125458064D01*
X147820212Y-125336776D01*
X147820205Y-125336773D01*
X147596104Y-125243947D01*
X147361785Y-125181161D01*
X147121289Y-125149500D01*
X147121288Y-125149500D01*
X146878712Y-125149500D01*
X146878711Y-125149500D01*
X146638214Y-125181161D01*
X146403895Y-125243947D01*
X146179794Y-125336773D01*
X146179785Y-125336777D01*
X145969706Y-125458067D01*
X145777263Y-125605733D01*
X145777256Y-125605739D01*
X145605739Y-125777256D01*
X145605733Y-125777263D01*
X145458067Y-125969706D01*
X145336777Y-126179785D01*
X145336773Y-126179794D01*
X145243947Y-126403895D01*
X145181161Y-126638214D01*
X145149500Y-126878711D01*
X119000000Y-126878711D01*
X119000000Y-119924983D01*
X120292357Y-119924983D01*
X120292357Y-121475001D01*
X120292358Y-121475018D01*
X120302857Y-121577796D01*
X120302858Y-121577799D01*
X120348751Y-121716294D01*
X120358043Y-121744334D01*
X120450145Y-121893656D01*
X120574201Y-122017712D01*
X120723523Y-122109814D01*
X120890060Y-122164999D01*
X120992848Y-122175500D01*
X122292865Y-122175499D01*
X122395654Y-122164999D01*
X122562191Y-122109814D01*
X122711513Y-122017712D01*
X122835569Y-121893656D01*
X122927671Y-121744334D01*
X122927671Y-121744331D01*
X122931035Y-121738879D01*
X122982983Y-121692154D01*
X123051945Y-121680931D01*
X123116027Y-121708774D01*
X123124255Y-121716294D01*
X123263070Y-121855109D01*
X123435036Y-121980048D01*
X123435038Y-121980049D01*
X123435041Y-121980051D01*
X123624445Y-122076557D01*
X123826614Y-122142246D01*
X124036570Y-122175500D01*
X124036571Y-122175500D01*
X124249143Y-122175500D01*
X124249144Y-122175500D01*
X124459100Y-122142246D01*
X124661269Y-122076557D01*
X124850673Y-121980051D01*
X124924302Y-121926557D01*
X125022643Y-121855109D01*
X125022645Y-121855106D01*
X125022649Y-121855104D01*
X125172961Y-121704792D01*
X125292540Y-121540204D01*
X125347868Y-121497540D01*
X125417481Y-121491561D01*
X125479277Y-121524166D01*
X125493170Y-121540199D01*
X125595417Y-121680931D01*
X125612753Y-121704792D01*
X125763070Y-121855109D01*
X125935036Y-121980048D01*
X125935038Y-121980049D01*
X125935041Y-121980051D01*
X126124445Y-122076557D01*
X126326614Y-122142246D01*
X126536570Y-122175500D01*
X126536571Y-122175500D01*
X126749143Y-122175500D01*
X126749144Y-122175500D01*
X126959100Y-122142246D01*
X127161269Y-122076557D01*
X127350673Y-121980051D01*
X127424302Y-121926557D01*
X127522643Y-121855109D01*
X127522645Y-121855106D01*
X127522649Y-121855104D01*
X127672961Y-121704792D01*
X127792540Y-121540204D01*
X127847868Y-121497540D01*
X127917481Y-121491561D01*
X127979277Y-121524166D01*
X127993170Y-121540199D01*
X128095417Y-121680931D01*
X128112753Y-121704792D01*
X128263070Y-121855109D01*
X128435036Y-121980048D01*
X128435038Y-121980049D01*
X128435041Y-121980051D01*
X128624445Y-122076557D01*
X128826614Y-122142246D01*
X129036570Y-122175500D01*
X129036571Y-122175500D01*
X129249143Y-122175500D01*
X129249144Y-122175500D01*
X129459100Y-122142246D01*
X129661269Y-122076557D01*
X129850673Y-121980051D01*
X129924302Y-121926557D01*
X130022643Y-121855109D01*
X130022645Y-121855106D01*
X130022649Y-121855104D01*
X130172961Y-121704792D01*
X130292540Y-121540204D01*
X130347868Y-121497540D01*
X130417481Y-121491561D01*
X130479277Y-121524166D01*
X130493170Y-121540199D01*
X130595417Y-121680931D01*
X130612753Y-121704792D01*
X130763070Y-121855109D01*
X130935036Y-121980048D01*
X130935038Y-121980049D01*
X130935041Y-121980051D01*
X131124445Y-122076557D01*
X131326614Y-122142246D01*
X131536570Y-122175500D01*
X131536571Y-122175500D01*
X131749143Y-122175500D01*
X131749144Y-122175500D01*
X131959100Y-122142246D01*
X132161269Y-122076557D01*
X132350673Y-121980051D01*
X132424302Y-121926557D01*
X132522643Y-121855109D01*
X132522645Y-121855106D01*
X132522649Y-121855104D01*
X132672961Y-121704792D01*
X132792540Y-121540204D01*
X132847868Y-121497540D01*
X132917481Y-121491561D01*
X132979277Y-121524166D01*
X132993170Y-121540199D01*
X133095417Y-121680931D01*
X133112753Y-121704792D01*
X133263070Y-121855109D01*
X133435036Y-121980048D01*
X133435038Y-121980049D01*
X133435041Y-121980051D01*
X133624445Y-122076557D01*
X133826614Y-122142246D01*
X134036570Y-122175500D01*
X134036571Y-122175500D01*
X134249143Y-122175500D01*
X134249144Y-122175500D01*
X134459100Y-122142246D01*
X134661269Y-122076557D01*
X134850673Y-121980051D01*
X134924302Y-121926557D01*
X135022643Y-121855109D01*
X135022645Y-121855106D01*
X135022649Y-121855104D01*
X135172961Y-121704792D01*
X135292540Y-121540204D01*
X135347868Y-121497540D01*
X135417481Y-121491561D01*
X135479277Y-121524166D01*
X135493170Y-121540199D01*
X135595417Y-121680931D01*
X135612753Y-121704792D01*
X135763070Y-121855109D01*
X135935036Y-121980048D01*
X135935038Y-121980049D01*
X135935041Y-121980051D01*
X136124445Y-122076557D01*
X136326614Y-122142246D01*
X136536570Y-122175500D01*
X136536571Y-122175500D01*
X136749143Y-122175500D01*
X136749144Y-122175500D01*
X136959100Y-122142246D01*
X137161269Y-122076557D01*
X137350673Y-121980051D01*
X137424302Y-121926557D01*
X137522643Y-121855109D01*
X137522645Y-121855106D01*
X137522649Y-121855104D01*
X137672961Y-121704792D01*
X137792540Y-121540204D01*
X137847868Y-121497540D01*
X137917481Y-121491561D01*
X137979277Y-121524166D01*
X137993170Y-121540199D01*
X138095417Y-121680931D01*
X138112753Y-121704792D01*
X138263070Y-121855109D01*
X138435036Y-121980048D01*
X138435038Y-121980049D01*
X138435041Y-121980051D01*
X138624445Y-122076557D01*
X138826614Y-122142246D01*
X139036570Y-122175500D01*
X139036571Y-122175500D01*
X139249143Y-122175500D01*
X139249144Y-122175500D01*
X139459100Y-122142246D01*
X139661269Y-122076557D01*
X139850673Y-121980051D01*
X139924302Y-121926557D01*
X140022643Y-121855109D01*
X140022645Y-121855106D01*
X140022649Y-121855104D01*
X140172961Y-121704792D01*
X140172963Y-121704788D01*
X140172966Y-121704786D01*
X140297905Y-121532820D01*
X140297904Y-121532820D01*
X140297908Y-121532816D01*
X140394414Y-121343412D01*
X140460103Y-121141243D01*
X140493357Y-120931287D01*
X140493357Y-120468713D01*
X140460103Y-120258757D01*
X140394414Y-120056588D01*
X140297908Y-119867184D01*
X140297906Y-119867181D01*
X140297905Y-119867179D01*
X140172966Y-119695213D01*
X140022643Y-119544890D01*
X139850677Y-119419951D01*
X139661271Y-119323444D01*
X139661270Y-119323443D01*
X139661269Y-119323443D01*
X139459100Y-119257754D01*
X139459098Y-119257753D01*
X139459097Y-119257753D01*
X139297814Y-119232208D01*
X139249144Y-119224500D01*
X139036570Y-119224500D01*
X138987899Y-119232208D01*
X138826617Y-119257753D01*
X138624442Y-119323444D01*
X138435036Y-119419951D01*
X138263070Y-119544890D01*
X138112751Y-119695209D01*
X138112747Y-119695214D01*
X137993175Y-119859793D01*
X137937846Y-119902459D01*
X137868232Y-119908438D01*
X137806437Y-119875833D01*
X137792539Y-119859793D01*
X137672966Y-119695214D01*
X137672962Y-119695209D01*
X137522643Y-119544890D01*
X137350677Y-119419951D01*
X137161271Y-119323444D01*
X137161270Y-119323443D01*
X137161269Y-119323443D01*
X136959100Y-119257754D01*
X136959098Y-119257753D01*
X136959097Y-119257753D01*
X136797814Y-119232208D01*
X136749144Y-119224500D01*
X136536570Y-119224500D01*
X136487899Y-119232208D01*
X136326617Y-119257753D01*
X136124442Y-119323444D01*
X135935036Y-119419951D01*
X135763070Y-119544890D01*
X135612751Y-119695209D01*
X135612747Y-119695214D01*
X135493175Y-119859793D01*
X135437846Y-119902459D01*
X135368232Y-119908438D01*
X135306437Y-119875833D01*
X135292539Y-119859793D01*
X135172966Y-119695214D01*
X135172962Y-119695209D01*
X135022643Y-119544890D01*
X134850677Y-119419951D01*
X134661271Y-119323444D01*
X134661270Y-119323443D01*
X134661269Y-119323443D01*
X134459100Y-119257754D01*
X134459098Y-119257753D01*
X134459097Y-119257753D01*
X134297814Y-119232208D01*
X134249144Y-119224500D01*
X134036570Y-119224500D01*
X133987899Y-119232208D01*
X133826617Y-119257753D01*
X133624442Y-119323444D01*
X133435036Y-119419951D01*
X133263070Y-119544890D01*
X133112751Y-119695209D01*
X133112747Y-119695214D01*
X132993175Y-119859793D01*
X132937846Y-119902459D01*
X132868232Y-119908438D01*
X132806437Y-119875833D01*
X132792539Y-119859793D01*
X132672966Y-119695214D01*
X132672962Y-119695209D01*
X132522643Y-119544890D01*
X132350677Y-119419951D01*
X132161271Y-119323444D01*
X132161270Y-119323443D01*
X132161269Y-119323443D01*
X131959100Y-119257754D01*
X131959098Y-119257753D01*
X131959097Y-119257753D01*
X131797814Y-119232208D01*
X131749144Y-119224500D01*
X131536570Y-119224500D01*
X131487899Y-119232208D01*
X131326617Y-119257753D01*
X131124442Y-119323444D01*
X130935036Y-119419951D01*
X130763070Y-119544890D01*
X130612751Y-119695209D01*
X130612747Y-119695214D01*
X130493175Y-119859793D01*
X130437846Y-119902459D01*
X130368232Y-119908438D01*
X130306437Y-119875833D01*
X130292539Y-119859793D01*
X130172966Y-119695214D01*
X130172962Y-119695209D01*
X130022643Y-119544890D01*
X129850677Y-119419951D01*
X129661271Y-119323444D01*
X129661270Y-119323443D01*
X129661269Y-119323443D01*
X129459100Y-119257754D01*
X129459098Y-119257753D01*
X129459097Y-119257753D01*
X129297814Y-119232208D01*
X129249144Y-119224500D01*
X129036570Y-119224500D01*
X128987899Y-119232208D01*
X128826617Y-119257753D01*
X128624442Y-119323444D01*
X128435036Y-119419951D01*
X128263070Y-119544890D01*
X128112751Y-119695209D01*
X128112747Y-119695214D01*
X127993175Y-119859793D01*
X127937846Y-119902459D01*
X127868232Y-119908438D01*
X127806437Y-119875833D01*
X127792539Y-119859793D01*
X127672966Y-119695214D01*
X127672962Y-119695209D01*
X127522643Y-119544890D01*
X127350677Y-119419951D01*
X127161271Y-119323444D01*
X127161270Y-119323443D01*
X127161269Y-119323443D01*
X126959100Y-119257754D01*
X126959098Y-119257753D01*
X126959097Y-119257753D01*
X126797814Y-119232208D01*
X126749144Y-119224500D01*
X126536570Y-119224500D01*
X126487899Y-119232208D01*
X126326617Y-119257753D01*
X126124442Y-119323444D01*
X125935036Y-119419951D01*
X125763070Y-119544890D01*
X125612751Y-119695209D01*
X125612747Y-119695214D01*
X125493175Y-119859793D01*
X125437846Y-119902459D01*
X125368232Y-119908438D01*
X125306437Y-119875833D01*
X125292539Y-119859793D01*
X125172966Y-119695214D01*
X125172962Y-119695209D01*
X125022643Y-119544890D01*
X124850677Y-119419951D01*
X124661271Y-119323444D01*
X124661270Y-119323443D01*
X124661269Y-119323443D01*
X124459100Y-119257754D01*
X124459098Y-119257753D01*
X124459097Y-119257753D01*
X124297814Y-119232208D01*
X124249144Y-119224500D01*
X124036570Y-119224500D01*
X123987899Y-119232208D01*
X123826617Y-119257753D01*
X123624442Y-119323444D01*
X123435036Y-119419951D01*
X123263072Y-119544889D01*
X123124255Y-119683706D01*
X123062932Y-119717190D01*
X122993240Y-119712206D01*
X122937307Y-119670334D01*
X122931035Y-119661120D01*
X122835569Y-119506344D01*
X122711514Y-119382289D01*
X122711513Y-119382288D01*
X122562191Y-119290186D01*
X122395654Y-119235001D01*
X122395652Y-119235000D01*
X122292867Y-119224500D01*
X120992855Y-119224500D01*
X120992838Y-119224501D01*
X120890060Y-119235000D01*
X120890057Y-119235001D01*
X120723525Y-119290185D01*
X120723520Y-119290187D01*
X120574199Y-119382289D01*
X120450146Y-119506342D01*
X120358044Y-119655663D01*
X120358042Y-119655668D01*
X120353182Y-119670334D01*
X120302858Y-119822203D01*
X120302858Y-119822204D01*
X120302857Y-119822204D01*
X120292357Y-119924983D01*
X119000000Y-119924983D01*
X119000000Y-113375013D01*
X120292857Y-113375013D01*
X120292857Y-113900000D01*
X121238711Y-113900000D01*
X121200227Y-113966657D01*
X121167857Y-114087465D01*
X121167857Y-114212535D01*
X121200227Y-114333343D01*
X121238711Y-114400000D01*
X120292858Y-114400000D01*
X120292858Y-114924986D01*
X120303351Y-115027697D01*
X120358498Y-115194119D01*
X120358500Y-115194124D01*
X120450541Y-115343345D01*
X120574511Y-115467315D01*
X120723732Y-115559356D01*
X120723737Y-115559358D01*
X120890159Y-115614505D01*
X120890166Y-115614506D01*
X120992876Y-115624999D01*
X121392856Y-115624999D01*
X121392857Y-115624998D01*
X121392857Y-114554145D01*
X121459514Y-114592630D01*
X121580322Y-114625000D01*
X121705392Y-114625000D01*
X121826200Y-114592630D01*
X121892857Y-114554145D01*
X121892857Y-115624999D01*
X122292829Y-115624999D01*
X122292843Y-115624998D01*
X122395554Y-115614505D01*
X122561976Y-115559358D01*
X122561981Y-115559356D01*
X122711202Y-115467315D01*
X122835174Y-115343343D01*
X122930942Y-115188078D01*
X122982890Y-115141353D01*
X123051852Y-115130130D01*
X123115934Y-115157973D01*
X123124162Y-115165493D01*
X123263392Y-115304723D01*
X123263397Y-115304727D01*
X123435299Y-115429620D01*
X123624639Y-115526095D01*
X123826728Y-115591757D01*
X123892857Y-115602231D01*
X123892857Y-114554145D01*
X123959514Y-114592630D01*
X124080322Y-114625000D01*
X124205392Y-114625000D01*
X124326200Y-114592630D01*
X124392857Y-114554145D01*
X124392857Y-115602230D01*
X124458983Y-115591757D01*
X124458986Y-115591757D01*
X124661074Y-115526095D01*
X124850414Y-115429620D01*
X125022316Y-115304727D01*
X125022321Y-115304723D01*
X125172584Y-115154460D01*
X125292539Y-114989355D01*
X125347868Y-114946689D01*
X125417482Y-114940710D01*
X125479277Y-114973315D01*
X125493175Y-114989355D01*
X125613129Y-115154460D01*
X125763392Y-115304723D01*
X125763397Y-115304727D01*
X125935299Y-115429620D01*
X126124639Y-115526095D01*
X126326728Y-115591757D01*
X126392857Y-115602231D01*
X126392857Y-114554145D01*
X126459514Y-114592630D01*
X126580322Y-114625000D01*
X126705392Y-114625000D01*
X126826200Y-114592630D01*
X126892857Y-114554145D01*
X126892857Y-115602230D01*
X126958983Y-115591757D01*
X126958986Y-115591757D01*
X127161074Y-115526095D01*
X127350414Y-115429620D01*
X127522316Y-115304727D01*
X127522321Y-115304723D01*
X127672584Y-115154460D01*
X127792539Y-114989355D01*
X127847868Y-114946689D01*
X127917482Y-114940710D01*
X127979277Y-114973315D01*
X127993175Y-114989355D01*
X128113129Y-115154460D01*
X128263392Y-115304723D01*
X128263397Y-115304727D01*
X128435299Y-115429620D01*
X128624639Y-115526095D01*
X128826728Y-115591757D01*
X128892857Y-115602231D01*
X128892857Y-114554145D01*
X128959514Y-114592630D01*
X129080322Y-114625000D01*
X129205392Y-114625000D01*
X129326200Y-114592630D01*
X129392857Y-114554145D01*
X129392857Y-115602230D01*
X129458983Y-115591757D01*
X129458986Y-115591757D01*
X129661074Y-115526095D01*
X129850414Y-115429620D01*
X130022316Y-115304727D01*
X130022321Y-115304723D01*
X130172584Y-115154460D01*
X130292539Y-114989355D01*
X130347868Y-114946689D01*
X130417482Y-114940710D01*
X130479277Y-114973315D01*
X130493175Y-114989355D01*
X130613129Y-115154460D01*
X130763392Y-115304723D01*
X130763397Y-115304727D01*
X130935299Y-115429620D01*
X131124639Y-115526095D01*
X131326728Y-115591757D01*
X131392857Y-115602231D01*
X131392857Y-114554145D01*
X131459514Y-114592630D01*
X131580322Y-114625000D01*
X131705392Y-114625000D01*
X131826200Y-114592630D01*
X131892857Y-114554145D01*
X131892857Y-115602230D01*
X131958983Y-115591757D01*
X131958986Y-115591757D01*
X132161074Y-115526095D01*
X132350414Y-115429620D01*
X132522316Y-115304727D01*
X132522321Y-115304723D01*
X132672584Y-115154460D01*
X132792539Y-114989355D01*
X132847868Y-114946689D01*
X132917482Y-114940710D01*
X132979277Y-114973315D01*
X132993175Y-114989355D01*
X133113129Y-115154460D01*
X133263392Y-115304723D01*
X133263397Y-115304727D01*
X133435299Y-115429620D01*
X133624639Y-115526095D01*
X133826728Y-115591757D01*
X133892857Y-115602231D01*
X133892857Y-114554145D01*
X133959514Y-114592630D01*
X134080322Y-114625000D01*
X134205392Y-114625000D01*
X134326200Y-114592630D01*
X134392857Y-114554145D01*
X134392857Y-115602231D01*
X134458983Y-115591757D01*
X134458986Y-115591757D01*
X134661074Y-115526095D01*
X134850414Y-115429620D01*
X135022316Y-115304727D01*
X135022321Y-115304723D01*
X135172584Y-115154460D01*
X135292539Y-114989355D01*
X135347868Y-114946689D01*
X135417482Y-114940710D01*
X135479277Y-114973315D01*
X135493175Y-114989355D01*
X135613129Y-115154460D01*
X135763392Y-115304723D01*
X135763397Y-115304727D01*
X135935299Y-115429620D01*
X136124639Y-115526095D01*
X136326728Y-115591757D01*
X136392857Y-115602231D01*
X136392857Y-114554145D01*
X136459514Y-114592630D01*
X136580322Y-114625000D01*
X136705392Y-114625000D01*
X136826200Y-114592630D01*
X136892857Y-114554145D01*
X136892857Y-115602231D01*
X136958983Y-115591757D01*
X136958986Y-115591757D01*
X137161074Y-115526095D01*
X137350414Y-115429620D01*
X137522316Y-115304727D01*
X137522321Y-115304723D01*
X137672584Y-115154460D01*
X137792539Y-114989355D01*
X137847868Y-114946689D01*
X137917482Y-114940710D01*
X137979277Y-114973315D01*
X137993175Y-114989355D01*
X138113129Y-115154460D01*
X138263392Y-115304723D01*
X138263397Y-115304727D01*
X138435299Y-115429620D01*
X138624639Y-115526095D01*
X138826728Y-115591757D01*
X138892857Y-115602231D01*
X138892857Y-114554145D01*
X138959514Y-114592630D01*
X139080322Y-114625000D01*
X139205392Y-114625000D01*
X139326200Y-114592630D01*
X139392857Y-114554145D01*
X139392857Y-115602230D01*
X139458983Y-115591757D01*
X139458986Y-115591757D01*
X139661074Y-115526095D01*
X139850414Y-115429620D01*
X140022316Y-115304727D01*
X140022321Y-115304723D01*
X140172580Y-115154464D01*
X140172584Y-115154459D01*
X140297477Y-114982557D01*
X140393952Y-114793217D01*
X140459614Y-114591130D01*
X140459614Y-114591127D01*
X140489887Y-114400000D01*
X139547003Y-114400000D01*
X139585487Y-114333343D01*
X139617857Y-114212535D01*
X139617857Y-114087465D01*
X139585487Y-113966657D01*
X139547003Y-113900000D01*
X140489887Y-113900000D01*
X140459614Y-113708872D01*
X140459614Y-113708869D01*
X140393952Y-113506782D01*
X140297477Y-113317442D01*
X140172584Y-113145540D01*
X140172580Y-113145535D01*
X140022321Y-112995276D01*
X140022316Y-112995272D01*
X139850414Y-112870379D01*
X139661072Y-112773903D01*
X139458981Y-112708241D01*
X139392857Y-112697768D01*
X139392857Y-113745854D01*
X139326200Y-113707370D01*
X139205392Y-113675000D01*
X139080322Y-113675000D01*
X138959514Y-113707370D01*
X138892857Y-113745854D01*
X138892857Y-112697768D01*
X138892856Y-112697768D01*
X138826732Y-112708241D01*
X138624641Y-112773903D01*
X138435299Y-112870379D01*
X138263397Y-112995272D01*
X138263392Y-112995276D01*
X138113133Y-113145535D01*
X138113129Y-113145540D01*
X137993175Y-113310644D01*
X137937845Y-113353310D01*
X137868232Y-113359289D01*
X137806437Y-113326684D01*
X137792539Y-113310644D01*
X137672584Y-113145540D01*
X137672580Y-113145535D01*
X137522321Y-112995276D01*
X137522316Y-112995272D01*
X137350414Y-112870379D01*
X137161072Y-112773903D01*
X136958981Y-112708241D01*
X136892857Y-112697768D01*
X136892857Y-113745854D01*
X136826200Y-113707370D01*
X136705392Y-113675000D01*
X136580322Y-113675000D01*
X136459514Y-113707370D01*
X136392857Y-113745854D01*
X136392857Y-112697768D01*
X136392856Y-112697768D01*
X136326732Y-112708241D01*
X136124641Y-112773903D01*
X135935299Y-112870379D01*
X135763397Y-112995272D01*
X135763392Y-112995276D01*
X135613133Y-113145535D01*
X135613129Y-113145540D01*
X135493175Y-113310644D01*
X135437845Y-113353310D01*
X135368232Y-113359289D01*
X135306437Y-113326684D01*
X135292539Y-113310644D01*
X135172584Y-113145540D01*
X135172580Y-113145535D01*
X135022321Y-112995276D01*
X135022316Y-112995272D01*
X134850414Y-112870379D01*
X134661072Y-112773903D01*
X134458981Y-112708241D01*
X134392857Y-112697768D01*
X134392857Y-113745854D01*
X134326200Y-113707370D01*
X134205392Y-113675000D01*
X134080322Y-113675000D01*
X133959514Y-113707370D01*
X133892857Y-113745854D01*
X133892857Y-112697768D01*
X133892856Y-112697768D01*
X133826732Y-112708241D01*
X133624641Y-112773903D01*
X133435299Y-112870379D01*
X133263397Y-112995272D01*
X133263392Y-112995276D01*
X133113133Y-113145535D01*
X133113129Y-113145540D01*
X132993175Y-113310644D01*
X132937845Y-113353310D01*
X132868232Y-113359289D01*
X132806437Y-113326684D01*
X132792539Y-113310644D01*
X132672584Y-113145540D01*
X132672580Y-113145535D01*
X132522321Y-112995276D01*
X132522316Y-112995272D01*
X132350414Y-112870379D01*
X132161072Y-112773903D01*
X131958981Y-112708241D01*
X131892857Y-112697768D01*
X131892857Y-113745854D01*
X131826200Y-113707370D01*
X131705392Y-113675000D01*
X131580322Y-113675000D01*
X131459514Y-113707370D01*
X131392857Y-113745854D01*
X131392857Y-112697768D01*
X131392856Y-112697768D01*
X131326732Y-112708241D01*
X131124641Y-112773903D01*
X130935299Y-112870379D01*
X130763397Y-112995272D01*
X130763392Y-112995276D01*
X130613133Y-113145535D01*
X130613129Y-113145540D01*
X130493175Y-113310644D01*
X130437845Y-113353310D01*
X130368232Y-113359289D01*
X130306437Y-113326684D01*
X130292539Y-113310644D01*
X130172584Y-113145540D01*
X130172580Y-113145535D01*
X130022321Y-112995276D01*
X130022316Y-112995272D01*
X129850414Y-112870379D01*
X129661072Y-112773903D01*
X129458981Y-112708241D01*
X129392857Y-112697768D01*
X129392857Y-113745854D01*
X129326200Y-113707370D01*
X129205392Y-113675000D01*
X129080322Y-113675000D01*
X128959514Y-113707370D01*
X128892857Y-113745854D01*
X128892857Y-112697768D01*
X128892856Y-112697768D01*
X128826732Y-112708241D01*
X128624641Y-112773903D01*
X128435299Y-112870379D01*
X128263397Y-112995272D01*
X128263392Y-112995276D01*
X128113133Y-113145535D01*
X128113129Y-113145540D01*
X127993175Y-113310644D01*
X127937845Y-113353310D01*
X127868232Y-113359289D01*
X127806437Y-113326684D01*
X127792539Y-113310644D01*
X127672584Y-113145540D01*
X127672580Y-113145535D01*
X127522321Y-112995276D01*
X127522316Y-112995272D01*
X127350414Y-112870379D01*
X127161072Y-112773903D01*
X126958981Y-112708241D01*
X126892857Y-112697768D01*
X126892857Y-113745854D01*
X126826200Y-113707370D01*
X126705392Y-113675000D01*
X126580322Y-113675000D01*
X126459514Y-113707370D01*
X126392857Y-113745854D01*
X126392857Y-112697768D01*
X126392856Y-112697768D01*
X126326732Y-112708241D01*
X126124641Y-112773903D01*
X125935299Y-112870379D01*
X125763397Y-112995272D01*
X125763392Y-112995276D01*
X125613133Y-113145535D01*
X125613129Y-113145540D01*
X125493175Y-113310644D01*
X125437845Y-113353310D01*
X125368232Y-113359289D01*
X125306437Y-113326684D01*
X125292539Y-113310644D01*
X125172584Y-113145540D01*
X125172580Y-113145535D01*
X125022321Y-112995276D01*
X125022316Y-112995272D01*
X124850414Y-112870379D01*
X124661072Y-112773903D01*
X124458981Y-112708241D01*
X124392857Y-112697768D01*
X124392857Y-113745854D01*
X124326200Y-113707370D01*
X124205392Y-113675000D01*
X124080322Y-113675000D01*
X123959514Y-113707370D01*
X123892857Y-113745854D01*
X123892857Y-112697768D01*
X123892856Y-112697768D01*
X123826732Y-112708241D01*
X123624641Y-112773903D01*
X123435299Y-112870379D01*
X123263398Y-112995271D01*
X123124162Y-113134507D01*
X123062839Y-113167991D01*
X122993147Y-113163007D01*
X122937214Y-113121135D01*
X122930942Y-113111922D01*
X122835172Y-112956654D01*
X122711202Y-112832684D01*
X122561981Y-112740643D01*
X122561976Y-112740641D01*
X122395554Y-112685494D01*
X122395547Y-112685493D01*
X122292843Y-112675000D01*
X121892857Y-112675000D01*
X121892857Y-113745854D01*
X121826200Y-113707370D01*
X121705392Y-113675000D01*
X121580322Y-113675000D01*
X121459514Y-113707370D01*
X121392857Y-113745854D01*
X121392857Y-112675000D01*
X120992885Y-112675000D01*
X120992869Y-112675001D01*
X120890159Y-112685494D01*
X120723737Y-112740641D01*
X120723732Y-112740643D01*
X120574511Y-112832684D01*
X120450541Y-112956654D01*
X120358500Y-113105875D01*
X120358498Y-113105880D01*
X120303351Y-113272302D01*
X120303350Y-113272309D01*
X120292857Y-113375013D01*
X119000000Y-113375013D01*
X119000000Y-106397648D01*
X120699500Y-106397648D01*
X120699500Y-106602351D01*
X120731522Y-106804534D01*
X120794781Y-106999223D01*
X120858691Y-107124653D01*
X120887585Y-107181359D01*
X120887715Y-107181613D01*
X121008028Y-107347213D01*
X121156226Y-107495411D01*
X121154778Y-107496858D01*
X121188259Y-107548183D01*
X121188734Y-107618051D01*
X121151361Y-107677085D01*
X121098043Y-107704602D01*
X121092522Y-107705906D01*
X120957671Y-107756202D01*
X120957664Y-107756206D01*
X120842455Y-107842452D01*
X120842452Y-107842455D01*
X120756206Y-107957664D01*
X120756202Y-107957671D01*
X120705908Y-108092517D01*
X120699501Y-108152116D01*
X120699501Y-108152123D01*
X120699500Y-108152135D01*
X120699500Y-109847870D01*
X120699501Y-109847876D01*
X120705908Y-109907483D01*
X120756202Y-110042328D01*
X120756206Y-110042335D01*
X120842452Y-110157544D01*
X120842455Y-110157547D01*
X120957664Y-110243793D01*
X120957671Y-110243797D01*
X121092517Y-110294091D01*
X121092516Y-110294091D01*
X121099444Y-110294835D01*
X121152127Y-110300500D01*
X122847872Y-110300499D01*
X122907483Y-110294091D01*
X123042331Y-110243796D01*
X123157546Y-110157546D01*
X123243796Y-110042331D01*
X123294091Y-109907483D01*
X123300500Y-109847873D01*
X123300499Y-108152135D01*
X134699500Y-108152135D01*
X134699500Y-109847870D01*
X134699501Y-109847876D01*
X134705908Y-109907483D01*
X134756202Y-110042328D01*
X134756206Y-110042335D01*
X134842452Y-110157544D01*
X134842455Y-110157547D01*
X134957664Y-110243793D01*
X134957671Y-110243797D01*
X135092517Y-110294091D01*
X135092516Y-110294091D01*
X135099444Y-110294835D01*
X135152127Y-110300500D01*
X136847872Y-110300499D01*
X136907483Y-110294091D01*
X137042331Y-110243796D01*
X137157546Y-110157546D01*
X137243796Y-110042331D01*
X137294091Y-109907483D01*
X137300500Y-109847873D01*
X137300499Y-108152128D01*
X137294091Y-108092517D01*
X137243796Y-107957669D01*
X137243795Y-107957668D01*
X137243793Y-107957664D01*
X137157547Y-107842455D01*
X137157544Y-107842452D01*
X137042335Y-107756206D01*
X137042328Y-107756202D01*
X136907482Y-107705908D01*
X136907483Y-107705908D01*
X136847883Y-107699501D01*
X136847881Y-107699500D01*
X136847873Y-107699500D01*
X136847864Y-107699500D01*
X136844548Y-107699322D01*
X136844632Y-107697742D01*
X136783579Y-107679815D01*
X136737824Y-107627011D01*
X136730173Y-107583725D01*
X136046447Y-106900000D01*
X136052661Y-106900000D01*
X136154394Y-106872741D01*
X136245606Y-106820080D01*
X136320080Y-106745606D01*
X136372741Y-106654394D01*
X136400000Y-106552661D01*
X136400000Y-106546448D01*
X137079474Y-107225922D01*
X137079474Y-107225921D01*
X137111859Y-107181349D01*
X137204755Y-106999031D01*
X137267990Y-106804417D01*
X137300000Y-106602317D01*
X137300000Y-106397682D01*
X137267990Y-106195582D01*
X137204755Y-106000968D01*
X137111859Y-105818650D01*
X137079474Y-105774077D01*
X137079474Y-105774076D01*
X136400000Y-106453551D01*
X136400000Y-106447339D01*
X136372741Y-106345606D01*
X136320080Y-106254394D01*
X136245606Y-106179920D01*
X136154394Y-106127259D01*
X136052661Y-106100000D01*
X136046446Y-106100000D01*
X136725922Y-105420524D01*
X136725921Y-105420523D01*
X136681359Y-105388147D01*
X136681350Y-105388141D01*
X136499031Y-105295244D01*
X136304417Y-105232009D01*
X136102317Y-105200000D01*
X135897683Y-105200000D01*
X135695582Y-105232009D01*
X135500968Y-105295244D01*
X135318644Y-105388143D01*
X135274077Y-105420523D01*
X135274077Y-105420524D01*
X135953554Y-106100000D01*
X135947339Y-106100000D01*
X135845606Y-106127259D01*
X135754394Y-106179920D01*
X135679920Y-106254394D01*
X135627259Y-106345606D01*
X135600000Y-106447339D01*
X135600000Y-106453553D01*
X134920524Y-105774077D01*
X134920523Y-105774077D01*
X134888143Y-105818644D01*
X134795244Y-106000968D01*
X134732009Y-106195582D01*
X134700000Y-106397682D01*
X134700000Y-106602317D01*
X134732009Y-106804417D01*
X134795244Y-106999031D01*
X134888141Y-107181350D01*
X134888147Y-107181359D01*
X134920523Y-107225921D01*
X134920524Y-107225922D01*
X135600000Y-106546446D01*
X135600000Y-106552661D01*
X135627259Y-106654394D01*
X135679920Y-106745606D01*
X135754394Y-106820080D01*
X135845606Y-106872741D01*
X135947339Y-106900000D01*
X135953553Y-106900000D01*
X135269067Y-107584483D01*
X135258633Y-107634150D01*
X135209581Y-107683906D01*
X135155365Y-107698000D01*
X135155423Y-107699099D01*
X135155429Y-107699146D01*
X135155426Y-107699146D01*
X135155436Y-107699324D01*
X135152123Y-107699501D01*
X135092516Y-107705908D01*
X134957671Y-107756202D01*
X134957664Y-107756206D01*
X134842455Y-107842452D01*
X134842452Y-107842455D01*
X134756206Y-107957664D01*
X134756202Y-107957671D01*
X134705908Y-108092517D01*
X134699501Y-108152116D01*
X134699501Y-108152123D01*
X134699500Y-108152135D01*
X123300499Y-108152135D01*
X123300499Y-108152128D01*
X123294091Y-108092517D01*
X123243796Y-107957669D01*
X123243795Y-107957668D01*
X123243793Y-107957664D01*
X123157547Y-107842455D01*
X123157544Y-107842452D01*
X123042335Y-107756206D01*
X123042328Y-107756202D01*
X122907479Y-107705907D01*
X122901959Y-107704603D01*
X122841244Y-107670029D01*
X122808859Y-107608118D01*
X122815086Y-107538527D01*
X122844984Y-107496621D01*
X122843774Y-107495411D01*
X122847219Y-107491966D01*
X122991966Y-107347219D01*
X122991968Y-107347215D01*
X122991971Y-107347213D01*
X123044732Y-107274590D01*
X123112287Y-107181610D01*
X123205220Y-106999219D01*
X123268477Y-106804534D01*
X123300500Y-106602352D01*
X123300500Y-106397648D01*
X123280828Y-106273443D01*
X123268477Y-106195465D01*
X123237458Y-106100000D01*
X123205220Y-106000781D01*
X123205218Y-106000778D01*
X123205218Y-106000776D01*
X123112419Y-105818650D01*
X123112287Y-105818390D01*
X123080092Y-105774077D01*
X122991971Y-105652786D01*
X122847213Y-105508028D01*
X122681613Y-105387715D01*
X122681612Y-105387714D01*
X122681610Y-105387713D01*
X122624653Y-105358691D01*
X122499223Y-105294781D01*
X122304534Y-105231522D01*
X122129995Y-105203878D01*
X122102352Y-105199500D01*
X121897648Y-105199500D01*
X121873329Y-105203351D01*
X121695465Y-105231522D01*
X121500776Y-105294781D01*
X121318386Y-105387715D01*
X121152786Y-105508028D01*
X121008028Y-105652786D01*
X120887715Y-105818386D01*
X120794781Y-106000776D01*
X120731522Y-106195465D01*
X120699500Y-106397648D01*
X119000000Y-106397648D01*
X119000000Y-103000000D01*
X94124000Y-103000000D01*
X94056961Y-102980315D01*
X94011206Y-102927511D01*
X94000000Y-102876000D01*
X94000000Y-89568872D01*
X94499500Y-89568872D01*
X94499500Y-89831127D01*
X94526123Y-90033339D01*
X94533730Y-90091116D01*
X94601602Y-90344418D01*
X94601605Y-90344428D01*
X94701953Y-90586690D01*
X94701958Y-90586700D01*
X94833075Y-90813803D01*
X94992718Y-91021851D01*
X94992726Y-91021860D01*
X95178140Y-91207274D01*
X95178148Y-91207281D01*
X95386196Y-91366924D01*
X95613299Y-91498041D01*
X95613309Y-91498046D01*
X95855571Y-91598394D01*
X95855581Y-91598398D01*
X96108884Y-91666270D01*
X96368880Y-91700500D01*
X96368887Y-91700500D01*
X96631113Y-91700500D01*
X96631120Y-91700500D01*
X96891116Y-91666270D01*
X97144419Y-91598398D01*
X97386697Y-91498043D01*
X97613803Y-91366924D01*
X97821851Y-91207282D01*
X97821855Y-91207277D01*
X97821860Y-91207274D01*
X98007274Y-91021860D01*
X98007277Y-91021855D01*
X98007282Y-91021851D01*
X98166924Y-90813803D01*
X98298043Y-90586697D01*
X98398398Y-90344419D01*
X98466270Y-90091116D01*
X98500500Y-89831120D01*
X98500500Y-89568880D01*
X98466270Y-89308884D01*
X98398398Y-89055581D01*
X98398394Y-89055571D01*
X98298046Y-88813309D01*
X98298041Y-88813299D01*
X98166924Y-88586196D01*
X98007281Y-88378148D01*
X98007274Y-88378140D01*
X97821860Y-88192726D01*
X97821851Y-88192718D01*
X97613803Y-88033075D01*
X97386700Y-87901958D01*
X97386690Y-87901953D01*
X97144428Y-87801605D01*
X97144421Y-87801603D01*
X97144419Y-87801602D01*
X96891116Y-87733730D01*
X96833339Y-87726123D01*
X96631127Y-87699500D01*
X96631120Y-87699500D01*
X96368880Y-87699500D01*
X96368872Y-87699500D01*
X96137772Y-87729926D01*
X96108884Y-87733730D01*
X95855581Y-87801602D01*
X95855571Y-87801605D01*
X95613309Y-87901953D01*
X95613299Y-87901958D01*
X95386196Y-88033075D01*
X95178148Y-88192718D01*
X94992718Y-88378148D01*
X94833075Y-88586196D01*
X94701958Y-88813299D01*
X94701953Y-88813309D01*
X94601605Y-89055571D01*
X94601602Y-89055581D01*
X94565666Y-89189699D01*
X94533730Y-89308885D01*
X94499500Y-89568872D01*
X94000000Y-89568872D01*
X94000000Y-81568905D01*
X94500000Y-81568905D01*
X94500000Y-81831094D01*
X94534220Y-82091009D01*
X94534222Y-82091020D01*
X94602075Y-82344255D01*
X94702404Y-82586471D01*
X94702409Y-82586482D01*
X94833488Y-82813516D01*
X94833494Y-82813524D01*
X94920080Y-82926365D01*
X95822421Y-82024024D01*
X95835359Y-82055258D01*
X95917437Y-82178097D01*
X96021903Y-82282563D01*
X96144742Y-82364641D01*
X96175974Y-82377577D01*
X95273633Y-83279917D01*
X95273633Y-83279918D01*
X95386475Y-83366505D01*
X95386483Y-83366511D01*
X95613517Y-83497590D01*
X95613528Y-83497595D01*
X95855744Y-83597924D01*
X96108979Y-83665777D01*
X96108990Y-83665779D01*
X96368905Y-83699999D01*
X96368920Y-83700000D01*
X96631080Y-83700000D01*
X96631094Y-83699999D01*
X96891009Y-83665779D01*
X96891020Y-83665777D01*
X97144255Y-83597924D01*
X97386471Y-83497595D01*
X97386482Y-83497590D01*
X97613516Y-83366511D01*
X97613534Y-83366499D01*
X97726365Y-83279919D01*
X97726365Y-83279917D01*
X96824025Y-82377578D01*
X96855258Y-82364641D01*
X96978097Y-82282563D01*
X97082563Y-82178097D01*
X97164641Y-82055258D01*
X97177577Y-82024025D01*
X98079917Y-82926365D01*
X98079919Y-82926365D01*
X98166499Y-82813534D01*
X98166511Y-82813516D01*
X98297590Y-82586482D01*
X98297595Y-82586471D01*
X98397924Y-82344255D01*
X98465777Y-82091020D01*
X98465779Y-82091009D01*
X98499999Y-81831094D01*
X98500000Y-81831080D01*
X98500000Y-81568919D01*
X98499999Y-81568905D01*
X98465779Y-81308990D01*
X98465777Y-81308979D01*
X98397924Y-81055744D01*
X98297595Y-80813528D01*
X98297590Y-80813517D01*
X98166511Y-80586483D01*
X98166505Y-80586475D01*
X98079918Y-80473633D01*
X98079917Y-80473633D01*
X97177577Y-81375973D01*
X97164641Y-81344742D01*
X97082563Y-81221903D01*
X96978097Y-81117437D01*
X96855258Y-81035359D01*
X96824023Y-81022421D01*
X97726365Y-80120080D01*
X97613524Y-80033494D01*
X97613516Y-80033488D01*
X97386482Y-79902409D01*
X97386471Y-79902404D01*
X97144255Y-79802075D01*
X96891020Y-79734222D01*
X96891009Y-79734220D01*
X96631094Y-79700000D01*
X96368905Y-79700000D01*
X96108990Y-79734220D01*
X96108979Y-79734222D01*
X95855744Y-79802075D01*
X95613528Y-79902404D01*
X95613517Y-79902409D01*
X95386471Y-80033496D01*
X95273633Y-80120079D01*
X95273633Y-80120080D01*
X96175974Y-81022421D01*
X96144742Y-81035359D01*
X96021903Y-81117437D01*
X95917437Y-81221903D01*
X95835359Y-81344742D01*
X95822421Y-81375974D01*
X94920080Y-80473633D01*
X94920079Y-80473633D01*
X94833496Y-80586471D01*
X94702409Y-80813517D01*
X94702404Y-80813528D01*
X94602075Y-81055744D01*
X94534222Y-81308979D01*
X94534220Y-81308990D01*
X94500000Y-81568905D01*
X94000000Y-81568905D01*
X94000000Y-79124000D01*
X94019685Y-79056961D01*
X94072489Y-79011206D01*
X94124000Y-79000000D01*
X123876000Y-79000000D01*
X123943039Y-79019685D01*
G37*
%TD.AperFunction*%
%TD*%
M02*
