M48
; DRILL file {KiCad 9.0.0} date 2025-03-28T23:30:50+0200
; FORMAT={-:-/ absolute / inch / decimal}
; #@! TF.CreationDate,2025-03-28T23:30:50+02:00
; #@! TF.GenerationSoftware,Kicad,Pcbnew,9.0.0
; #@! TF.FileFunction,Plated,1,2,PTH
FMAT,2
INCH
; #@! TA.AperFunction,Plated,PTH,ViaDrill
T1C0.0118
; #@! TA.AperFunction,Plated,PTH,ComponentDrill
T2C0.0315
; #@! TA.AperFunction,Plated,PTH,ComponentDrill
T3C0.0374
; #@! TA.AperFunction,Plated,PTH,ComponentDrill
T4C0.0512
; #@! TA.AperFunction,Plated,PTH,ComponentDrill
T5C0.0591
%
G90
G05
T1
X3.4252Y-2.3622
X3.4252Y-2.5197
X3.4252Y-2.6772
X3.4252Y-2.8346
X3.4252Y-2.9921
X3.4252Y-3.1496
X3.4252Y-3.3071
X3.4252Y-3.4646
X3.4252Y-3.6614
X3.4252Y-3.8189
X3.4252Y-3.9764
X3.4252Y-4.1339
X3.4252Y-4.5276
X3.4252Y-4.685
X3.4252Y-4.8425
X3.5827Y-2.3622
X3.5827Y-2.5197
X3.5827Y-2.8346
X3.5827Y-2.9921
X3.5827Y-3.1496
X3.5827Y-3.3071
X3.5827Y-3.4646
X3.5827Y-3.6614
X3.5827Y-3.8189
X3.5827Y-3.9764
X3.5827Y-4.1339
X3.5827Y-4.5276
X3.5827Y-4.685
X3.5827Y-4.8425
X3.8189Y-3.7795
X3.8189Y-4.0157
X3.8189Y-4.3701
X4.0945Y-3.189
X4.0945Y-3.4252
X4.0945Y-3.7795
X4.0945Y-4.0157
X4.0945Y-4.3701
X4.3307Y-3.189
X4.3307Y-3.4252
X4.3307Y-3.7795
X4.3307Y-4.0157
X4.3307Y-4.3701
X4.5669Y-3.189
X4.5669Y-3.4252
X4.5669Y-3.7795
X4.5669Y-4.0157
X4.8031Y-3.189
X4.8031Y-3.4252
X4.8031Y-3.6614
X4.8031Y-4.9213
X4.8031Y-5.0787
X4.9606Y-4.9213
X4.9606Y-5.0787
X5.1181Y-4.9213
X5.1181Y-5.0787
X5.2756Y-4.9213
X5.2756Y-5.0787
X5.4331Y-4.9213
X5.4331Y-5.0787
X5.5906Y-4.9213
X5.5906Y-5.0787
T2
X4.8031Y-4.1929
X4.8031Y-4.2913
X5.3543Y-4.1929
X5.3543Y-4.2913
T3
X3.7795Y-4.2382
X3.7795Y-4.4921
X3.7795Y-4.7461
X3.7795Y-5.0
X3.878Y-4.2382
X3.878Y-4.4921
X3.878Y-4.7461
X3.878Y-5.0
X3.9764Y-4.2382
X3.9764Y-4.4921
X3.9764Y-4.7461
X3.9764Y-5.0
X4.0748Y-4.2382
X4.0748Y-4.4921
X4.0748Y-4.7461
X4.0748Y-5.0
X4.1732Y-4.2382
X4.1732Y-4.4921
X4.1732Y-4.7461
X4.1732Y-5.0
X4.2717Y-4.2382
X4.2717Y-4.4921
X4.2717Y-4.7461
X4.2717Y-5.0
X4.3701Y-4.2382
X4.3701Y-4.4921
X4.3701Y-4.7461
X4.3701Y-5.0
X4.4685Y-4.2382
X4.4685Y-4.4921
X4.4685Y-4.7461
X4.4685Y-5.0
X4.7891Y-4.4941
X4.7891Y-4.752
X4.8875Y-4.4941
X4.8875Y-4.752
X4.9859Y-4.4941
X4.9859Y-4.752
X5.0844Y-4.4941
X5.0844Y-4.752
X5.1828Y-4.4941
X5.1828Y-4.752
X5.2812Y-4.4941
X5.2812Y-4.752
X5.3796Y-4.4941
X5.3796Y-4.752
X5.4781Y-4.4941
X5.4781Y-4.752
T4
X5.5874Y-3.4646
X5.7874Y-3.4646
T5
X3.7992Y-2.1555
X3.7992Y-2.4705
X3.7992Y-3.2165
X3.7992Y-3.5315
X5.315Y-2.1555
X5.315Y-2.5787
X5.315Y-3.2165
X5.315Y-3.6398
M30
