%TF.GenerationSoftware,KiCad,Pcbnew,9.0.0*%
%TF.CreationDate,2025-03-28T23:30:51+02:00*%
%TF.ProjectId,Power,506f7765-722e-46b6-9963-61645f706362,rev?*%
%TF.SameCoordinates,Original*%
%TF.FileFunction,Soldermask,Bot*%
%TF.FilePolarity,Negative*%
%FSLAX46Y46*%
G04 Gerber Fmt 4.6, Leading zero omitted, Abs format (unit mm)*
G04 Created by KiCad (PCBNEW 9.0.0) date 2025-03-28 23:30:51*
%MOMM*%
%LPD*%
G01*
G04 APERTURE LIST*
G04 Aperture macros list*
%AMRoundRect*
0 Rectangle with rounded corners*
0 $1 Rounding radius*
0 $2 $3 $4 $5 $6 $7 $8 $9 X,Y pos of 4 corners*
0 Add a 4 corners polygon primitive as box body*
4,1,4,$2,$3,$4,$5,$6,$7,$8,$9,$2,$3,0*
0 Add four circle primitives for the rounded corners*
1,1,$1+$1,$2,$3*
1,1,$1+$1,$4,$5*
1,1,$1+$1,$6,$7*
1,1,$1+$1,$8,$9*
0 Add four rect primitives between the rounded corners*
20,1,$1+$1,$2,$3,$4,$5,0*
20,1,$1+$1,$4,$5,$6,$7,0*
20,1,$1+$1,$6,$7,$8,$9,0*
20,1,$1+$1,$8,$9,$2,$3,0*%
G04 Aperture macros list end*
%ADD10R,1.600000X1.600000*%
%ADD11C,1.600000*%
%ADD12RoundRect,0.250000X-0.600000X-0.725000X0.600000X-0.725000X0.600000X0.725000X-0.600000X0.725000X0*%
%ADD13O,1.700000X1.950000*%
%ADD14R,3.000000X3.000000*%
%ADD15C,3.000000*%
%ADD16C,3.200000*%
%ADD17RoundRect,0.250000X1.050000X1.050000X-1.050000X1.050000X-1.050000X-1.050000X1.050000X-1.050000X0*%
%ADD18C,2.600000*%
G04 APERTURE END LIST*
D10*
%TO.C,C1*%
X136000000Y-109000000D03*
D11*
X136000000Y-106500000D03*
%TD*%
D12*
%TO.C,J3*%
X121642857Y-120700000D03*
D13*
X124142857Y-120700000D03*
X126642857Y-120700000D03*
X129142857Y-120700000D03*
X131642857Y-120700000D03*
X134142857Y-120700000D03*
X136642857Y-120700000D03*
X139142857Y-120700000D03*
%TD*%
D14*
%TO.C,PS1*%
X135000000Y-65500000D03*
D15*
X135000000Y-54750000D03*
X96500000Y-54750000D03*
X96500000Y-62750000D03*
%TD*%
D16*
%TO.C,H4*%
X88000000Y-127000000D03*
%TD*%
%TO.C,H3*%
X147000000Y-127000000D03*
%TD*%
%TO.C,H2*%
X147000000Y-53000000D03*
%TD*%
%TO.C,H1*%
X88000000Y-53000000D03*
%TD*%
D15*
%TO.C,PS2*%
X96500000Y-89700000D03*
X96500000Y-81700000D03*
X135000000Y-81700000D03*
D14*
X135000000Y-92450000D03*
%TD*%
D10*
%TO.C,C3*%
X122000000Y-109000000D03*
D11*
X122000000Y-106500000D03*
%TD*%
D17*
%TO.C,J1*%
X147000000Y-88000000D03*
D18*
X141920000Y-88000000D03*
%TD*%
D13*
%TO.C,J2*%
X139142857Y-114150000D03*
X136642857Y-114150000D03*
X134142857Y-114150000D03*
X131642857Y-114150000D03*
X129142857Y-114150000D03*
X126642857Y-114150000D03*
X124142857Y-114150000D03*
D12*
X121642857Y-114150000D03*
%TD*%
%TO.C,J7*%
X96000000Y-127000000D03*
D13*
X98500000Y-127000000D03*
X101000000Y-127000000D03*
X103500000Y-127000000D03*
X106000000Y-127000000D03*
X108500000Y-127000000D03*
X111000000Y-127000000D03*
X113500000Y-127000000D03*
%TD*%
%TO.C,J6*%
X113500000Y-120550000D03*
X111000000Y-120550000D03*
X108500000Y-120550000D03*
X106000000Y-120550000D03*
X103500000Y-120550000D03*
X101000000Y-120550000D03*
X98500000Y-120550000D03*
D12*
X96000000Y-120550000D03*
%TD*%
D13*
%TO.C,J4*%
X113500000Y-107650000D03*
X111000000Y-107650000D03*
X108500000Y-107650000D03*
X106000000Y-107650000D03*
X103500000Y-107650000D03*
X101000000Y-107650000D03*
X98500000Y-107650000D03*
D12*
X96000000Y-107650000D03*
%TD*%
%TO.C,J5*%
X96000000Y-114100000D03*
D13*
X98500000Y-114100000D03*
X101000000Y-114100000D03*
X103500000Y-114100000D03*
X106000000Y-114100000D03*
X108500000Y-114100000D03*
X111000000Y-114100000D03*
X113500000Y-114100000D03*
%TD*%
M02*
